<?xml version="1.0" encoding="utf-8"?>
<!-- Generator: Adobe Illustrator 22.0.0, SVG Export Plug-In . SVG Version: 6.00 Build 0)  -->
<svg version="1.1" id="Layer_1" xmlns="http://www.w3.org/2000/svg" xmlns:xlink="http://www.w3.org/1999/xlink" x="0px" y="0px"
	 width="125.6px" height="125.6px" viewBox="0 0 125.6 125.6" style="enable-background:new 0 0 125.6 125.6;" xml:space="preserve"
	>
<style type="text/css">
	.st0{fill:#F3F3F3;}
	.st1{fill:#F98903;}
	.st2{fill:#FFBE7D;}
	.st3{fill:#60A2D8;}
	.st4{opacity:0.2;fill:#BB1860;}
	.st5{opacity:0.2;fill:#FF8D68;}
	.st6{opacity:0.2;fill:#1E9CB6;}
	.st7{fill:#BB1860;}
	.st8{fill:#FFFFFF;}
	.st9{fill:#FF8D68;}
	.st10{fill:#333333;}
	.st11{fill:#1E9CB6;}
	.st12{fill:#49D292;}
	.st13{fill:url(#SVGID_1_);}
	.st14{fill:url(#SVGID_2_);}
	.st15{fill:url(#SVGID_3_);}
</style>
<g>
	<path class="st9" d="M125.4,57.6c2.9,34.6-22.8,64.9-57.4,67.8C33.5,128.3,3.1,102.6,0.2,68C-2.7,33.5,23,3.1,57.6,0.2
		C92.2-2.7,122.5,23,125.4,57.6z"/>
	<path class="st8" d="M112.1,58.7c2.3,27.2-18,51.1-45.2,53.4c-27.2,2.3-51.1-18-53.4-45.2c-2.3-27.2,18-51.1,45.2-53.4
		C85.9,11.3,109.8,31.5,112.1,58.7z"/>
	<g>
		<g>
			<path class="st9" d="M37.7,85.1c0.3-1.2,0.6-2.3,0.8-3.5c0.4-1.9,0.9-2.8,1.3-4.7c0.2-1,0.2-2.1,0.3-3.2c0.4-5.7,0.4-11.3,0.3-17
				c0-2,0-4.1,0-6.1c0-2,1.2-3.1,3.3-2.9c3.5,0.4,6.1,3.1,6.4,6.5c0.1,1.2,0.1,2.4,0.1,3.6c0,0.5,0.1,0.7,0.6,0.7
				c2.4,0.3,4.9,0.6,7.3,0.9c1.4,0.2,2.3,1.2,2.1,2.6c-0.1,1.2-1.3,2.1-2.6,1.9c-3.3-0.4-6.7-0.9-10-1.3c-1-0.1-1.7-0.7-2.1-1.6
				c-0.4-1-0.8-1.9-1.2-2.9c-0.1-0.2-0.3-0.3-0.4-0.4c0,0.2-0.2,0.4-0.1,0.6c0.3,1.6,0.7,3.1,1,4.7c0.3,1.2,1,1.8,2.3,2
				c1.1,0.1,2.1,0.3,3.1,0.4c0.2,1.2,0.4,2.4,0.7,3.5c0.5,2.2,1.1,4.5,1.5,6.7c0.3,1.5,0.3,2,0.4,3.6c0.2,1.9,0.3,3.9,0.5,5.8
				c0.2,1.5-0.6,2.6-2.1,3.1c-0.1,0-0.1,0.1-0.2,0.1c-0.3,0-0.6,0-0.8,0c-0.1,0-0.2-0.1-0.3-0.1c-1.2-0.3-1.9-1.1-2-2.3
				c-0.2-2.2-0.3-4.5-0.6-6.7c-0.2-1.7-0.4-2.4-0.6-4.1c-0.2-1.1-0.5-2.2-0.7-3.3c0-0.1-0.2-0.2-0.3-0.3c-0.1,0.1-0.2,0.2-0.2,0.3
				c0,0.3,0,0.6,0,0.9c-0.1,1.5,0,3.1-0.3,4.5c-0.6,3.3-1.5,5.6-2.2,8.9c-0.2,0.7-0.5,1.2-1.1,1.6c-0.4,0.2-0.8,0.3-1.2,0.5
				c-0.2,0-0.4,0-0.6,0c-0.6-0.3-1.2-0.5-1.6-0.9C38.1,87,38,86.4,37.7,86C37.7,85.7,37.7,85.4,37.7,85.1z"/>
			<path class="st9" d="M78.4,88.3c-0.1,0-0.1-0.1-0.2-0.1c-1.5-0.4-2.2-1.3-2.2-2.8c0-4.3,0-8.7,0-13c0-2.6,0-3.7,0-6.3
				c0-0.4,0.1-0.5,0.4-0.6c1.2-0.4,2.4-0.9,3.5-1.3c0.8-0.3,1.4-0.9,1.6-1.7c0.3-1.1,0.6-2.3,0.9-3.4c0-0.2-0.1-0.4-0.1-0.5
				c-0.1,0.1-0.3,0.2-0.4,0.3c0,0-0.1,0.1-0.1,0.1c-0.4,1.6-1.4,2.4-2.9,2.9c-2.9,1-5.7,2.1-8.5,3.1c-1.2,0.5-2.4,0-3-1
				c-0.7-1.3-0.1-2.7,1.3-3.2c2.3-0.9,4.6-1.7,6.9-2.6c0.5-0.2,0.6-0.4,0.7-0.9c0.2-1.9,0.6-3.7,1.4-5.5c0.9-1.9,2.1-3.4,4.3-3.8
				c0.4-0.1,0.9-0.2,1.3-0.2c1.6,0,2.7,1,2.7,2.6c0,5.3,0,10.6,0,15.9c0,2,0.3,2.4,0.5,4.4c0.2,2.8,0.5,5.6,0.8,8.3
				c0.2,2,0.4,4,0.6,6c0.2,1.6-0.5,2.7-2.1,3.2c-0.1,0-0.1,0.1-0.2,0.1c-0.2,0-0.5,0-0.7,0c-0.1,0-0.1-0.1-0.2-0.1
				c-1.3-0.4-2-1.1-2.2-2.4c-0.2-2.3-0.4-4.7-0.7-7c-0.1-1.2-0.2-2.5-0.4-3.7c0,0-0.1,0-0.1,0c0,0.3,0,0.7,0,1c0,3.1,0,6.3,0,9.4
				c0,1.4-0.8,2.4-2.1,2.8c-0.1,0-0.2,0.1-0.2,0.1C78.8,88.3,78.6,88.3,78.4,88.3z"/>
			<path class="st9" d="M55.3,45.4c0.9,0.1,1.9,0.3,3,0.4c2.2,0.3,4.3,0.6,6.5,0.9c1,0.1,1.4,0.6,1.2,1.5c-0.4,3-0.9,6.1-1.3,9.1
				c0,0.2,0,0.4-0.1,0.6c-0.2,0.7-0.7,1-1.3,0.9c-1.9-0.3-3.9-0.5-5.8-0.8c-1.3-0.2-2.7-0.4-4-0.6c-0.6-0.1-1-0.6-0.9-1.2
				c0.4-3,0.9-6,1.3-9c0-0.2,0.1-0.5,0.1-0.7C54,45.6,54.4,45.4,55.3,45.4z M57.8,53.5c-0.4,0-0.4,0-0.5,0.3
				c-0.1,0.5-0.2,1.1-0.2,1.6c0,0.3,0.1,0.4,0.4,0.5c1.7,0.2,3.5,0.5,5.2,0.7c0.2,0,0.4,0,0.5-0.3c0.1-0.6,0.2-1.1,0.3-1.7
				c0-0.2,0-0.4-0.3-0.4c-0.5-0.1-1.1-0.2-1.6-0.2C60.2,53.9,59,53.7,57.8,53.5z"/>
			<path class="st9" d="M50.7,41.4c0.4,0,0.9,0,1.3,0c0.5,0,0.9,0.3,0.9,0.8c0,0.5-0.4,0.8-0.9,0.8c-0.2,0-0.5,0-0.7,0
				c-0.2,0-0.5,0-0.7,0c-0.1,0.3-0.2,0.6-0.3,0.9c-0.8,2.3-3,3.7-5.3,3.3c-2.6-0.4-4.4-2.4-4.4-4.9c0-1.4,0.3-2.8,0.8-4.2
				c0.2-0.4,0.4-0.6,0.8-0.7c2.3-0.2,4.5-0.3,6.8,0c0.5,0.1,0.8,0.3,0.9,0.8C50.2,39.3,50.5,40.3,50.7,41.4z"/>
			<path class="st9" d="M85.9,42.3c0,2.8-2.3,5-5,5c-2.7,0-5-2.3-5-5c0-2.7,2.3-5,5-5C83.7,37.3,85.9,39.6,85.9,42.3z"/>
		</g>
	</g>
</g>
</svg>
