<?xml version="1.0" encoding="utf-8"?>
<!-- Generator: Adobe Illustrator 22.0.0, SVG Export Plug-In . SVG Version: 6.00 Build 0)  -->
<svg version="1.1" id="Layer_1" xmlns="http://www.w3.org/2000/svg" xmlns:xlink="http://www.w3.org/1999/xlink" x="0px" y="0px"
	 width="125.6px" height="125.6px" viewBox="0 0 125.6 125.6" style="enable-background:new 0 0 125.6 125.6;" xml:space="preserve"
	>
<style type="text/css">
	.st0{fill:#F3F3F3;}
	.st1{fill:#F98903;}
	.st2{fill:#FFBE7D;}
	.st3{fill:#60A2D8;}
	.st4{opacity:0.2;fill:#BB1860;}
	.st5{opacity:0.2;fill:#FF8D68;}
	.st6{opacity:0.2;fill:#1E9CB6;}
	.st7{fill:#BB1860;}
	.st8{fill:#FFFFFF;}
	.st9{fill:#FF8D68;}
	.st10{fill:#333333;}
	.st11{fill:#1E9CB6;}
	.st12{fill:#49D292;}
	.st13{fill:url(#SVGID_1_);}
	.st14{fill:url(#SVGID_2_);}
	.st15{fill:url(#SVGID_3_);}
</style>
<g>
	<path class="st7" d="M125.4,57.6c2.9,34.6-22.8,64.9-57.4,67.8C33.5,128.3,3.1,102.6,0.2,68C-2.7,33.5,23,3.1,57.6,0.2
		C92.2-2.7,122.5,23,125.4,57.6z"/>
	<path class="st8" d="M112.1,58.7c2.3,27.2-18,51.1-45.2,53.4c-27.2,2.3-51.1-18-53.4-45.2c-2.3-27.2,18-51.1,45.2-53.4
		C85.9,11.3,109.8,31.5,112.1,58.7z"/>
	<g>
		<g>
			<path class="st7" d="M52.1,43.3c4.5,0,9,0.1,13.5,0c2.3,0,3.9,1.7,3.9,3.9c-0.1,7.6,0,15.1,0,22.7c0,0.4-0.1,0.6-0.6,0.6
				c-4.4,0-8.8,0-13.2,0c-0.4,0-0.6-0.1-0.9-0.4c-3.2-3.1-8.1-3.1-11.3,0c-0.2,0.2-0.4,0.3-0.8,0.3c-2.6,0-5.1,0-7.7,0
				c-0.4,0-0.6-0.1-0.6-0.6c0-7.6,0-15.1,0-22.7c0-2.3,1.8-3.9,3.8-3.9C42.9,43.4,47.5,43.3,52.1,43.3z M56.8,56.7c0,1.1,0,2,0,3
				c0,0.5-0.1,0.7-0.6,0.6c-2,0-4,0-6.1,0c-0.4,0-0.6,0.1-0.5,0.5c0,0.7,0,1.4,0,2c0,0.4,0.1,0.5,0.5,0.5c1.8,0,3.6,0,5.4,0
				c1.3,0,1.3,0,1.3,1.3c0,0.7,0,1.4,0,2.2c0.5-0.3,0.8-0.5,1.1-0.8c2-1.3,4-2.7,6-4c0.3-0.2,0.4-0.3,0-0.5
				c-0.4-0.2-0.7-0.5-1.1-0.7C60.9,59.5,58.9,58.1,56.8,56.7z M47.2,58.1c2.6-1.7,5-3.4,7.5-5.1c-2.5-1.7-5-3.4-7.5-5.1
				c0,1,0,1.9,0,2.8c0,0.6-0.1,0.8-0.7,0.8c-1.9,0-3.8,0-5.8,0c-0.5,0-0.7,0.2-0.6,0.7c0,0.6,0.1,1.2,0,1.7c0,0.5,0.1,0.7,0.7,0.7
				c2,0,4,0,5.9,0c0.4,0,0.5,0.1,0.5,0.5C47.1,56,47.2,56.9,47.2,58.1z"/>
			<path class="st7" d="M56.6,72.2c4.7,0,9.3,0,14,0c0.5,0,0.6-0.2,0.6-0.7c0-5.6,0-11.2,0-16.8c0-0.3-0.1-0.6,0.4-0.6
				c3.9,0,7.8-0.1,11.8,0.1c3.3,0.2,6.2,3,6.3,6.4c0.1,3.3,0.1,6.7,0.1,10c0,0.4,0,0.7,0.6,0.8c0.6,0.1,0.8,0.6,0.8,1.2
				c0,0.7,0,1.3,0,2c0,0.9-0.6,1.4-1.5,1.4c-1,0-1,0-1.2-1c-0.5-4-3.7-6.9-7.6-7.1c-4-0.2-7.4,2.4-8.3,6.3c-0.1,0.4-0.2,0.9-0.2,1.3
				c0,0.4-0.1,0.6-0.6,0.5c-2.4,0-4.9,0-7.3,0c-2.2,0-4.4,0-6.5,0c-0.5,0-0.6-0.1-0.6-0.6c0-1-0.3-2-0.8-3
				C56.5,72.4,56.6,72.3,56.6,72.2z M80.4,65.1C80.4,65.1,80.4,65.1,80.4,65.1c1.7,0,3.5,0,5.2,0c0.4,0,0.5-0.1,0.5-0.5
				c0-1,0-2.1,0-3.1c0-2.3-1.4-3.7-3.7-3.7c-2.4,0-4.9,0-7.3,0c-0.4,0-0.5,0.1-0.5,0.5c0,2.1,0,4.2,0,6.3c0,0.4,0.1,0.5,0.5,0.5
				C76.9,65.1,78.6,65.1,80.4,65.1z"/>
			<path class="st7" d="M80.5,69.6c3.6,0.1,6.4,2.9,6.3,6.6c-0.1,3.5-3,6.2-6.6,6.2c-3.5-0.1-6.2-3-6.2-6.5
				C74.1,72.3,77,69.5,80.5,69.6z M80.4,78.7c1.6,0,2.8-1.2,2.8-2.8c0-1.5-1.2-2.8-2.7-2.8c-1.5,0-2.8,1.3-2.8,2.8
				C77.6,77.4,78.8,78.7,80.4,78.7z"/>
			<path class="st7" d="M49.2,69.6c3.5,0,6.4,2.8,6.4,6.3c0,3.6-2.8,6.4-6.5,6.4c-3.4,0-6.3-2.9-6.3-6.4
				C42.8,72.4,45.7,69.5,49.2,69.6z M49.2,78.7c1.6,0,2.8-1.2,2.8-2.8c0-1.5-1.3-2.8-2.8-2.8c-1.5,0-2.8,1.2-2.8,2.8
				C46.4,77.5,47.6,78.7,49.2,78.7z"/>
			<path class="st7" d="M41.9,72.3c-0.5,1.1-0.8,2.2-0.8,3.4c0,0.2-0.1,0.2-0.3,0.2c-1,0-2,0.1-3,0c-1.6-0.2-3-1.7-3.2-3.3
				c0-0.2-0.1-0.4,0.3-0.4c2.3,0,4.6,0,6.9,0C41.8,72.2,41.8,72.3,41.9,72.3z"/>
			<path class="st7" d="M56.6,72.2c0,0.1-0.1,0.1-0.1,0.2c-0.1,0-0.1-0.1,0-0.2C56.5,72.2,56.5,72.2,56.6,72.2z"/>
		</g>
	</g>
</g>
</svg>
