<?xml version="1.0" encoding="utf-8"?>
<!-- Generator: Adobe Illustrator 22.0.0, SVG Export Plug-In . SVG Version: 6.00 Build 0)  -->
<svg version="1.1" id="Layer_1" xmlns="http://www.w3.org/2000/svg" xmlns:xlink="http://www.w3.org/1999/xlink" x="0px" y="0px"
	 width="125.6px" height="125.6px" viewBox="0 0 125.6 125.6" style="enable-background:new 0 0 125.6 125.6;" xml:space="preserve"
	>
<style type="text/css">
	.st0{fill:#F3F3F3;}
	.st1{fill:#F98903;}
	.st2{fill:#FFBE7D;}
	.st3{fill:#60A2D8;}
	.st4{opacity:0.2;fill:#BB1860;}
	.st5{opacity:0.2;fill:#FF8D68;}
	.st6{opacity:0.2;fill:#1E9CB6;}
	.st7{fill:#BB1860;}
	.st8{fill:#FFFFFF;}
	.st9{fill:#FF8D68;}
	.st10{fill:#333333;}
	.st11{fill:#1E9CB6;}
	.st12{fill:#49D292;}
	.st13{fill:url(#SVGID_1_);}
	.st14{fill:url(#SVGID_2_);}
	.st15{fill:url(#SVGID_3_);}
</style>
<g>
	<path class="st11" d="M125.4,57.6c2.9,34.6-22.8,64.9-57.4,67.8C33.5,128.3,3.1,102.6,0.2,68C-2.7,33.5,23,3.1,57.6,0.2
		C92.2-2.7,122.5,23,125.4,57.6z"/>
	<path class="st8" d="M112.1,58.7c2.3,27.2-18,51.1-45.2,53.4c-27.2,2.3-51.1-18-53.4-45.2c-2.3-27.2,18-51.1,45.2-53.4
		C85.9,11.3,109.8,31.5,112.1,58.7z"/>
	<path class="st11" d="M82,85.9c0,0.3,0,0.6,0,0.9c-0.3,1.1-1,1.8-2.1,2.1c-11.4,0-22.8,0-34.1,0c-0.1,0-0.2-0.1-0.3-0.1
		c-1.2-0.4-1.9-1.4-1.9-2.6c0-1.2,0.9-2.1,2.1-2.4c0.1,0,0.3-0.1,0.4-0.1c0-0.2,0-0.4,0-0.5c0-9.4,0-18.8,0-28.3
		c0-1.4,0-2.8,0.3-4.3c1-4.3,3.1-7.8,6.6-10.5c3.9-3,8.3-4.2,13.2-3.1c5.6,1.3,9.6,4.8,12,10c0.9,1.9,1.6,4,1.6,6.2c0,10,0,20,0,30
		c0,0.2,0,0.3,0,0.5C81,84,81.7,84.7,82,85.9z M59.2,73.5c2.3,0,4.6,0,6.8,0c0-2.9,0-5.8,0-8.7c-2.3,0-4.6,0-6.8,0
		C59.2,67.7,59.2,70.6,59.2,73.5z M59.2,83.7c2.3,0,4.6,0,6.8,0c0-2.6,0-5.2,0-7.9c-2.3,0-4.5,0-6.8,0
		C59.2,78.5,59.2,81.1,59.2,83.7z M68.5,64.8c0,2.9,0,5.8,0,8.7c2,0,4,0,5.9,0c0-2.9,0-5.8,0-8.7C72.4,64.8,70.5,64.8,68.5,64.8z
		 M66.1,62.4c0-2.5,0-5,0-7.5c-2.3,0-4.6,0-6.8,0c0,2.5,0,5,0,7.5C61.5,62.4,63.8,62.4,66.1,62.4z M51.3,73.5c1.9,0,3.7,0,5.6,0
		c0-2.9,0-5.8,0-8.7c-1.9,0-3.7,0-5.6,0C51.3,67.7,51.3,70.6,51.3,73.5z M74.4,83.7c0-2.6,0-5.2,0-7.9c-2,0-4,0-5.9,0
		c0,2.6,0,5.2,0,7.9C70.5,83.7,72.4,83.7,74.4,83.7z M74.4,62.4c0-0.1,0-0.1,0-0.2c0-2.3,0-4.7,0-7c0-0.4-0.2-0.4-0.5-0.4
		c-1.7,0-3.4,0-5.1,0c-0.1,0-0.3,0-0.4,0c0,2.5,0,5,0,7.5C70.5,62.4,72.4,62.4,74.4,62.4z M56.9,83.7c0-2.6,0-5.3,0-7.9
		c-1.9,0-3.7,0-5.6,0c0,2.6,0,5.2,0,7.9C53.1,83.7,55,83.7,56.9,83.7z M51.3,54.9c0,2.6,0,5,0,7.5c1.9,0,3.7,0,5.6,0
		c0-2.5,0-5,0-7.5C55,54.9,53.1,54.9,51.3,54.9z"/>
</g>
</svg>
