<svg id="Layer_1" data-name="Layer 1" xmlns="http://www.w3.org/2000/svg" viewBox="0 0 245.41 23.58"><defs><style>.cls-1{fill:#d9251d;}.cls-2{fill:#fff;}.cls-3{isolation:isolate;}.cls-4{fill:#005bac;}.cls-5{fill:#f6ac1d;}.cls-6{fill:#010101;}.cls-7{fill:#f16522;}.cls-8{fill:#e41b24;}.cls-9{fill:#f89e1c;}</style></defs><title>payment</title><path class="cls-1" d="M601.59,395.88H562.31a1.19,1.19,0,0,1-1.18-1.18v-21a1.19,1.19,0,0,1,1.18-1.18h39.28a1.19,1.19,0,0,1,1.18,1.18v21A1.19,1.19,0,0,1,601.59,395.88Z" transform="translate(-561.06 -372.42)"/><path d="M601.59,396H562.31a1.25,1.25,0,0,1-1.24-1.24V373.67a1.29,1.29,0,0,1,1.24-1.24h39.28a1.25,1.25,0,0,1,1.24,1.24v21A1.3,1.3,0,0,1,601.59,396Zm-39.28-23.4a1.12,1.12,0,0,0-1.13,1.13v21a1.12,1.12,0,0,0,1.13,1.13h39.28a1.12,1.12,0,0,0,1.13-1.13V373.67a1.12,1.12,0,0,0-1.13-1.13H562.31Z" transform="translate(-561.06 -372.42)"/><path class="cls-2" d="M573.15,382.85a1.81,1.81,0,0,0-1.84-1.48c-1.66,0-2.25,1.42-2.25,2.84s.59,2.78,2.25,2.78a1.87,1.87,0,0,0,1.9-1.9H575a3.53,3.53,0,0,1-3.67,3.44,4,4,0,0,1-4.09-4.32c0-2.49,1.54-4.38,4.09-4.38a3.4,3.4,0,0,1,3.61,3Z" transform="translate(-561.06 -372.42)"/><path class="cls-2" d="M582,379.83c2.61,0,4.09,2,4.09,4.38a4.09,4.09,0,1,1-8.18,0C577.95,381.72,579.43,379.83,582,379.83Zm0,7.23c1.66,0,2.25-1.42,2.25-2.78s-.59-2.84-2.25-2.84-2.25,1.42-2.25,2.84S580.38,387.05,582,387.05Z" transform="translate(-561.06 -372.42)"/><path class="cls-2" d="M589.26,380h3.61c2.19,0,3.79,1.36,3.79,4.15,0,2.43-1.24,4.21-3.79,4.21h-3.61Zm1.84,6.81h1.66c1.07,0,2.07-.65,2.07-2.49,0-1.66-.59-2.78-2.43-2.78h-1.3Z" transform="translate(-561.06 -372.42)"/><path class="cls-2" d="M668,395.88H628.76a1.19,1.19,0,0,1-1.18-1.18v-21a1.19,1.19,0,0,1,1.18-1.18H668a1.19,1.19,0,0,1,1.18,1.18v21A1.1,1.1,0,0,1,668,395.88Z" transform="translate(-561.06 -372.42)"/><path d="M668,396H628.76a1.25,1.25,0,0,1-1.24-1.24V373.67a1.25,1.25,0,0,1,1.24-1.24H668a1.25,1.25,0,0,1,1.24,1.24v21A1.3,1.3,0,0,1,668,396Zm-39.28-23.4a1.12,1.12,0,0,0-1.13,1.13v21a1.12,1.12,0,0,0,1.13,1.13H668a1.12,1.12,0,0,0,1.13-1.13V373.67a1.12,1.12,0,0,0-1.13-1.13H628.76Z" transform="translate(-561.06 -372.42)"/><path class="cls-1" d="M636.28,380h1.9l3.14,8.35h-1.9l-.65-1.84h-3.14l-.65,1.84h-1.84Zm-.18,5.15h2.19l-1.07-3.08h0Z" transform="translate(-561.06 -372.42)"/><path class="cls-1" d="M646.65,381.54h-2.49V380H651v1.54h-2.49v6.81h-1.9Z" transform="translate(-561.06 -372.42)"/><path class="cls-1" d="M654.7,380h2.61l2,5.75h0L661.1,380h2.61v8.35H662v-5.92h0l-2.07,5.92H658.5l-2.07-5.87h0v5.87H654.7Z" transform="translate(-561.06 -372.42)"/><path class="cls-2" d="M736.48,395.88H697.2A1.19,1.19,0,0,1,696,394.7v-21a1.19,1.19,0,0,1,1.18-1.18h39.28a1.19,1.19,0,0,1,1.18,1.18v21A1.19,1.19,0,0,1,736.48,395.88Z" transform="translate(-561.06 -372.42)"/><path d="M736.48,396H697.2a1.25,1.25,0,0,1-1.24-1.24V373.67a1.25,1.25,0,0,1,1.24-1.24h39.28a1.25,1.25,0,0,1,1.24,1.24v21A1.3,1.3,0,0,1,736.48,396ZM697.2,372.6a1.12,1.12,0,0,0-1.13,1.13v21a1.12,1.12,0,0,0,1.13,1.13h39.28a1.12,1.12,0,0,0,1.13-1.13V373.67a1.12,1.12,0,0,0-1.13-1.13H697.2Z" transform="translate(-561.06 -372.42)"/><g id="形状_1" data-name="形状 1" class="cls-3"><g id="形状_1-2" data-name="形状 1"><path class="cls-4" d="M713.85,379.35,712.31,389h2.49l1.6-9.66Zm-3.67,0L707.81,386l-.3-1.42h0l-.06-.3a7.55,7.55,0,0,0-2.25-2.84,12.69,12.69,0,0,0-1.13-.77l2.19,8.35h2.61l4-9.66Zm9.83,2.73c0-1.07,2.43-.95,3.55-.36l.36-2.07a7.49,7.49,0,0,0-2.25-.41c-1.24,0-4.21.53-4.21,3.2,0,2.49,3.5,2.55,3.5,3.85s-3.14,1.07-4.15.24l-.36,2.19a7.21,7.21,0,0,0,2.84.53c1.72,0,4.32-.89,4.32-3.32S720,383.14,720,382.08Zm10.25-2.73h-2a1.18,1.18,0,0,0-1.18.71L723.33,389h2.61l.53-1.42h3.2L730,389h2.31Zm-3.08,6.28,1.3-3.61.77,3.61Z" transform="translate(-561.06 -372.42)"/></g></g><g id="形状_1-3" data-name="形状 1" class="cls-3"><g id="形状_1-4" data-name="形状 1"><path class="cls-5" d="M706.68,380.3a1.13,1.13,0,0,0-1.24-.89h-4l-.06.18a10.05,10.05,0,0,1,3.79,1.9,7.67,7.67,0,0,1,2.37,3.2Z" transform="translate(-561.06 -372.42)"/></g></g><path class="cls-2" d="M805.23,395.88H766a1.19,1.19,0,0,1-1.18-1.18v-21a1.19,1.19,0,0,1,1.18-1.18h39.28a1.19,1.19,0,0,1,1.18,1.18v21A1.19,1.19,0,0,1,805.23,395.88Z" transform="translate(-561.06 -372.42)"/><path d="M805.23,396H766a1.25,1.25,0,0,1-1.24-1.24V373.67a1.25,1.25,0,0,1,1.24-1.24h39.28a1.25,1.25,0,0,1,1.24,1.24v21A1.3,1.3,0,0,1,805.23,396ZM766,372.6a1.12,1.12,0,0,0-1.13,1.13v21a1.12,1.12,0,0,0,1.13,1.13h39.28a1.12,1.12,0,0,0,1.13-1.13V373.67a1.12,1.12,0,0,0-1.13-1.13H766Z" transform="translate(-561.06 -372.42)"/><g id="_Group_" data-name="&lt;Group&gt;"><path id="_Compound_Path_" data-name="&lt;Compound Path&gt;" class="cls-6" d="M778.51,392.74v-1.13a.68.68,0,0,0-.71-.71.75.75,0,0,0-.65.3.65.65,0,0,0-.59-.3.63.63,0,0,0-.53.3V391h-.41v1.84H776v-1a.44.44,0,0,1,.47-.47.42.42,0,0,1,.41.47v1h.41v-1a.44.44,0,0,1,.47-.47c.3,0,.41.18.41.47v1h.3Zm5.92-1.84h-.65v-.53h-.41v.53H783v.36h.36v.83a.57.57,0,0,0,.65.65,1.12,1.12,0,0,0,.47-.12l-.12-.36a.84.84,0,0,1-.36.12c-.18,0-.24-.12-.24-.3v-.83h.65Zm3.38-.06a.53.53,0,0,0-.47.3v-.24h-.41v1.84h.41v-1c0-.3.12-.47.41-.47a.36.36,0,0,1,.24.06l.12-.36a.45.45,0,0,0-.3-.12m-5.09.24a1.48,1.48,0,0,0-.77-.18c-.47,0-.77.24-.77.59s.24.47.65.53H782c.24.06.3.06.3.18s-.12.24-.41.24a.79.79,0,0,1-.59-.18l-.18.3a1.19,1.19,0,0,0,.77.24c.53,0,.83-.24.83-.59s-.24-.47-.65-.53h-.18c-.18,0-.3-.06-.3-.18s.12-.24.36-.24a.88.88,0,0,1,.59.18Zm10.6-.24a.53.53,0,0,0-.47.3v-.24h-.41v1.84h.41v-1c0-.3.12-.47.41-.47a.36.36,0,0,1,.24.06l.12-.36a.45.45,0,0,0-.3-.12m-5.09,1a.9.9,0,0,0,.95.95.81.81,0,0,0,.65-.24l-.18-.3a.79.79,0,0,1-.47.18.6.6,0,0,1,0-1.18.67.67,0,0,1,.47.18l.18-.3a.81.81,0,0,0-.65-.24.87.87,0,0,0-.95.95m3.73,0V391h-.41v.24a.65.65,0,0,0-.59-.3.89.89,0,0,0-.89.95.92.92,0,0,0,.89.95.91.91,0,0,0,.59-.24v.24H792Zm-1.48,0a.58.58,0,0,1,.53-.59c.36,0,.53.24.53.59a.55.55,0,0,1-.53.59.58.58,0,0,1-.53-.59m-4.8-1a.89.89,0,0,0-.89.95.9.9,0,0,0,.95.95,1.19,1.19,0,0,0,.77-.24l-.18-.3a1,1,0,0,1-.53.18.51.51,0,0,1-.53-.47h1.36v-.18a1,1,0,0,0-.95-.89m0,.36a.5.5,0,0,1,.47.41h-.95a.42.42,0,0,1,.47-.41m10,.65v-1.66h-.41v.95a.65.65,0,0,0-.59-.3.89.89,0,0,0-.89.95.92.92,0,0,0,.89.95.91.91,0,0,0,.59-.24v.24h.41Zm-1.48,0a.58.58,0,0,1,.53-.59c.36,0,.53.24.53.59a.55.55,0,0,1-.53.59.58.58,0,0,1-.53-.59m-13.39,0V391h-.41v.24a.65.65,0,0,0-.59-.3.89.89,0,0,0-.89.95.92.92,0,0,0,.89.95.91.91,0,0,0,.59-.24v.24h.41Zm-1.48,0a.58.58,0,0,1,.53-.59c.36,0,.53.24.53.59a.55.55,0,0,1-.53.59.63.63,0,0,1-.53-.59m17,.59h.06a.06.06,0,0,1,.06.06l.06.06v.12a.06.06,0,0,1-.06.06.06.06,0,0,0-.06.06h-.12a.06.06,0,0,1-.06-.06l-.06-.06v-.12a.06.06,0,0,1,.06-.06.06.06,0,0,0,.06-.06c0,.06,0,0,.06,0m0,.36h0c.06,0,.06,0,.12-.06l.06-.06v-.12a.06.06,0,0,0-.06-.06l-.06-.06h-.12a.06.06,0,0,0-.06.06l-.06.06v.12a.06.06,0,0,0,.06.06.21.21,0,0,0,.12.06h0m0-.24h0a.06.06,0,0,1,.06.06v.06h-.06l.06.06h-.06l-.06-.06h0v.06h-.06v-.18Zm-.06.06h0l.06.06h0c0-.06,0-.06-.06-.06Z" transform="translate(-561.06 -372.42)"/><rect id="_Path_" data-name="&lt;Path&gt;" class="cls-7" x="221.54" y="4.62" width="5.98" height="10.78"/><path id="_Path_2" data-name="&lt;Path&gt;" class="cls-8" d="M783,382.43a6.8,6.8,0,0,1,2.61-5.39,6.78,6.78,0,0,0-4.27-1.48,6.87,6.87,0,1,0,0,13.74,6.78,6.78,0,0,0,4.27-1.48,6.8,6.8,0,0,1-2.61-5.39" transform="translate(-561.06 -372.42)"/><path id="_Compound_Path_2" data-name="&lt;Compound Path&gt;" class="cls-9" d="M796.7,382.43a6.88,6.88,0,0,1-6.87,6.87,6.78,6.78,0,0,1-4.27-1.48,6.88,6.88,0,0,0,0-10.78,6.78,6.78,0,0,1,4.27-1.48,6.88,6.88,0,0,1,6.87,6.87M796,386.7v-.24h.12v-.06h-.24v.06H796v.24Zm.41,0v-.24h-.06l-.06.18-.06-.18h-.06v.24h.06v-.18l.06.18h.06l.06-.18v.18Z" transform="translate(-561.06 -372.42)"/></g></svg>