<svg id="Layer_1" data-name="Layer 1" xmlns="http://www.w3.org/2000/svg" viewBox="0 0 245.41 23.58"><defs><style>.cls-1{fill:#fff;}.cls-2{fill:#002d73;}.cls-3{fill:#f7a800;}.cls-4{fill:#00908c;}.cls-5{fill:#d58330;}.cls-6{fill:#eb2d28;}.cls-7{fill:#0ca9d4;}.cls-8{fill:#f9f9f9;}.cls-9{fill:#eb6e22;}.cls-10{fill:#595757;}</style></defs><title>shipping</title><path class="cls-1" d="M602.59,409.86H563.31a1.19,1.19,0,0,1-1.18-1.18v-21a1.19,1.19,0,0,1,1.18-1.18h39.28a1.19,1.19,0,0,1,1.18,1.18v21A1.19,1.19,0,0,1,602.59,409.86Z" transform="translate(-562.06 -386.4)"/><path d="M602.59,410H563.31a1.25,1.25,0,0,1-1.24-1.24V387.65a1.29,1.29,0,0,1,1.24-1.24h39.28a1.25,1.25,0,0,1,1.24,1.24v21A1.3,1.3,0,0,1,602.59,410Zm-39.28-23.4a1.12,1.12,0,0,0-1.13,1.13v21a1.12,1.12,0,0,0,1.13,1.13h39.28a1.12,1.12,0,0,0,1.13-1.13V387.65a1.12,1.12,0,0,0-1.13-1.13H563.31Z" transform="translate(-562.06 -386.4)"/><polygon class="cls-2" points="6.87 17 7.35 17 8.06 18.31 8.71 17 9.12 17 8.18 18.78 7.88 18.78 6.87 17"/><rect class="cls-2" x="9.66" y="17" width="0.41" height="1.72"/><polygon class="cls-2" points="10.78 17 12.56 17 12.56 17.3 11.2 17.3 11.2 17.71 12.03 17.71 12.03 18.01 11.2 18.01 11.2 18.43 12.62 18.43 12.62 18.78 10.78 18.78 10.78 17"/><polygon class="cls-2" points="14.1 18.78 13.69 18.78 13.69 17.36 12.91 17.36 12.91 17 14.93 17 14.93 17.36 14.1 17.36 14.1 18.78"/><path class="cls-2" d="M577.47,403.41h.3l1.24,1,.18.18v-1.18h.36v1.72h-.3l-1.3-1.07c-.06-.06-.12-.06-.12-.12v1.24h-.36Z" transform="translate(-562.06 -386.4)"/><path class="cls-2" d="M581.56,404.47l-.36-.71-.41.71Zm-.59-1.07h.41l1,1.72h-.47l-.18-.36h-1.13l-.18.41H580Z" transform="translate(-562.06 -386.4)"/><path class="cls-2" d="M582.92,403.41h.36l.83,1.07.83-1.07h.24v1.72h-.36v-1.24c-.06.06-.06.12-.12.18l-.65.89H584l-.65-.89c-.06-.06-.06-.12-.12-.18v1.24h-.36v-1.72Z" transform="translate(-562.06 -386.4)"/><path class="cls-2" d="M587.66,403.76v.41h.89c.12,0,.18,0,.18-.12v-.18c0-.12-.06-.12-.18-.12Zm-.41-.36h1.48c.24,0,.41.12.41.36v.41c0,.24-.12.36-.41.36h-1.07v.65h-.41Z" transform="translate(-562.06 -386.4)"/><path class="cls-2" d="M591.45,403.76h-1.36v1.13h1.36Zm-1.36-.36h1.3c.36,0,.41.06.41.41v.95c0,.36-.12.41-.41.41h-1.3c-.36,0-.41-.06-.41-.41v-.89c0-.36.12-.47.41-.47" transform="translate(-562.06 -386.4)"/><path class="cls-2" d="M593,403.76v.36h1.07c.36,0,.41.06.41.41v.24c0,.36-.12.41-.41.41H593c-.36,0-.41-.06-.41-.41v-.06h.36v.12h1.24v-.41h-1.07c-.36,0-.41-.06-.41-.41v-.18c0-.36.12-.41.41-.41h.95c.3,0,.41.06.41.36v.06h-.36v-.12H593Z" transform="translate(-562.06 -386.4)"/><polygon class="cls-2" points="34.06 18.78 33.65 18.78 33.65 17.36 32.88 17.36 32.88 17 34.9 17 34.9 17.36 34.06 17.36 34.06 18.78"/><path class="cls-3" d="M580.73,397.48h8.12l1-1.13h-8.12c-.36.41-.71.83-1,1.13" transform="translate(-562.06 -386.4)"/><path class="cls-3" d="M582.27,395.82h8.12l1-1.13h-8.12c-.36.36-.65.71-1,1.13" transform="translate(-562.06 -386.4)"/><path class="cls-3" d="M583.81,394.1h8.12l1-1.13h-8.12c-.3.36-.65.71-1,1.13" transform="translate(-562.06 -386.4)"/><path class="cls-3" d="M594.12,391.2h-7.29a1,1,0,0,0-.65.3s-.36.36-.89.95h8.18l.83-.89c.06-.06.06-.06.06-.12s-.18-.24-.24-.24" transform="translate(-562.06 -386.4)"/><path class="cls-3" d="M578.53,399.67a.16.16,0,0,1-.18.18h-.12l-3.91-2.61c-.06-.06-.06-.06-.06-.12a.16.16,0,0,1,.18-.18h3.91a.16.16,0,0,1,.18.18Zm1.66-1.6v-1a.36.36,0,0,0-.18-.36l-3.91-2.61a.36.36,0,0,0-.24-.06c-.12,0-.18,0-.24.06l-3.91,2.61a.44.44,0,0,0,0,.71l6,4a1,1,0,0,0,.59.18h6.22a1.4,1.4,0,0,0,.95-.41l2.9-3.2h-8.23Z" transform="translate(-562.06 -386.4)"/><path class="cls-1" d="M669,409.86H629.76a1.19,1.19,0,0,1-1.18-1.18v-21a1.19,1.19,0,0,1,1.18-1.18H669a1.19,1.19,0,0,1,1.18,1.18v21A1.1,1.1,0,0,1,669,409.86Z" transform="translate(-562.06 -386.4)"/><path d="M669,410H629.76a1.25,1.25,0,0,1-1.24-1.24V387.65a1.25,1.25,0,0,1,1.24-1.24H669a1.25,1.25,0,0,1,1.24,1.24v21A1.3,1.3,0,0,1,669,410Zm-39.28-23.4a1.12,1.12,0,0,0-1.13,1.13v21a1.12,1.12,0,0,0,1.13,1.13H669a1.12,1.12,0,0,0,1.13-1.13V387.65a1.12,1.12,0,0,0-1.13-1.13H629.76Z" transform="translate(-562.06 -386.4)"/><path class="cls-4" d="M639,394.93h-1.42a1.12,1.12,0,0,0-.89.36c-.18.24-1.07,1.6-1.07,1.6l-1.07-1.6a1.4,1.4,0,0,0-1.07-.36h-1.13s1.84,2.19,2,2.31a2,2,0,0,0,1.24.36,1.71,1.71,0,0,0,1.3-.36c.18-.24,1.18-1.48,1.18-1.48v1.48c0,.18.3.36.89.36s.95-.18.95-.36v-2C639.95,395.11,639.65,394.93,639,394.93Zm25.06,2c-.36,0-.53-.12-.53-.47v-1.18c0-.18-.36-.36-.95-.36s-.89,0-.89.36V397h-3c-.3,0-.41-.06-.41-.3v-.24h2.25c.36,0,.59,0,.59-.24v-.3h-2.43c-.3,0-.41-.06-.41-.24v-.18h2.43c.3,0,.65-.12.65-.24v-.36H654.4a.23.23,0,0,1-.24-.24v-.06c0-.18-.3-.36-.83-.36s-1,.12-1,.36v.06h0a.23.23,0,0,1-.24.24H649.9a.23.23,0,0,1-.24-.24h0v-.06c0-.18-.3-.36-.83-.36s-1,.12-1,.36v.06a.23.23,0,0,1-.24.24h-6.52q-.53,0-.53.36v2c0,.18.24.36.77.36h3.61c.3,0,.65-.18.65-.36V397h-2.73c-.24,0-.41-.06-.41-.3v-.24h2.25c.3,0,.59,0,.59-.3v-.3h-2.43c-.24,0-.41,0-.41-.18v-.18H647c.47,0,.83.12.83.59v1.07c0,.18.41.36.95.36s.89-.18.89-.36v-1.07a.69.69,0,0,1,.77-.59h1.24c.41,0,.71.18.71.59v1.07c0,.18.3.36.83.36s1-.12,1-.36v-1.07a.76.76,0,0,1,.65-.59h.95a.66.66,0,0,1,.71.59v1.07c0,.18.18.36.53.36h8.71c.41,0,.71-.18.71-.36v-.3Z" transform="translate(-562.06 -386.4)"/><path class="cls-5" d="M651.68,402.1v-3.32h.65v.3a1.55,1.55,0,0,1,.53-.3,2.21,2.21,0,0,1,.71-.12,2.46,2.46,0,0,1,.95.18,1,1,0,0,1,.59.47,1.24,1.24,0,0,1,.24.65.89.89,0,0,1-.24.65,1.86,1.86,0,0,1-.65.47,2.46,2.46,0,0,1-.95.18,2.22,2.22,0,0,1-.65-.06,1.19,1.19,0,0,1-.47-.24v1.18h-.71Zm.65-2.07a1,1,0,0,0,.3.71,1.68,1.68,0,0,0,.77.24,1.36,1.36,0,0,0,.83-.24.89.89,0,0,0,0-1.42,1.19,1.19,0,0,0-.77-.24,1.09,1.09,0,0,0-.77.24A.72.72,0,0,0,652.33,400Z" transform="translate(-562.06 -386.4)"/><path class="cls-5" d="M655.88,400a1.09,1.09,0,0,1,.65-1,2.82,2.82,0,0,1,1.3-.3,3.17,3.17,0,0,1,1.42.3,1,1,0,0,1,.53.89.94.94,0,0,1-.24.71,2,2,0,0,1-.71.41,2.77,2.77,0,0,1-1,.12,3.17,3.17,0,0,1-1.42-.3A.79.79,0,0,1,655.88,400Zm.71,0a.84.84,0,0,0,.36.71,1.78,1.78,0,0,0,1.78,0,.84.84,0,0,0,.36-.71.68.68,0,0,0-.36-.65,1.78,1.78,0,0,0-1.78,0A.68.68,0,0,0,656.59,400Z" transform="translate(-562.06 -386.4)"/><path class="cls-5" d="M660.33,400.5l.71-.06a.53.53,0,0,0,.36.36,2.32,2.32,0,0,0,.77.12,1.93,1.93,0,0,0,.71-.12.3.3,0,0,0,.24-.3c0-.12-.06-.18-.24-.24a4.19,4.19,0,0,0-.71-.12,6.28,6.28,0,0,1-1.07-.18,1.19,1.19,0,0,1-.47-.24c-.12-.12-.18-.18-.18-.3s.06-.18.12-.3a.54.54,0,0,1,.36-.24,2.69,2.69,0,0,1,.47-.12,2,2,0,0,1,.59-.06,4.2,4.2,0,0,1,.89.06,1.12,1.12,0,0,1,.53.24,1.24,1.24,0,0,1,.24.36l-.71.06a.49.49,0,0,0-.3-.3A1.83,1.83,0,0,0,662,399a2.21,2.21,0,0,0-.71.12c-.12.06-.24.12-.24.24s0,.12.06.12.12.06.3.12.3.06.65.12a9.75,9.75,0,0,1,1.07.18,1.19,1.19,0,0,1,.47.24.44.44,0,0,1,0,.71,1.39,1.39,0,0,1-.59.3,3.59,3.59,0,0,1-.89.12,3.46,3.46,0,0,1-1.24-.18A1,1,0,0,1,660.33,400.5Z" transform="translate(-562.06 -386.4)"/><path class="cls-5" d="M665.84,400.86h-.24a.21.21,0,0,1-.12-.06c0-.06-.06-.12-.06-.24v-1.42h.71v-.3h-.71v-.36h-.71v.36h-.47v.3h.53v1.36c0,.24,0,.41.06.47a1.3,1.3,0,0,0,.3.18,2.7,2.7,0,0,0,1.13,0l-.12-.36A.64.64,0,0,1,665.84,400.86Z" transform="translate(-562.06 -386.4)"/><path class="cls-1" d="M737.48,409.86H698.2a1.19,1.19,0,0,1-1.18-1.18v-21a1.19,1.19,0,0,1,1.18-1.18h39.28a1.19,1.19,0,0,1,1.18,1.18v21A1.19,1.19,0,0,1,737.48,409.86Z" transform="translate(-562.06 -386.4)"/><path d="M737.48,410H698.2a1.25,1.25,0,0,1-1.24-1.24V387.65a1.25,1.25,0,0,1,1.24-1.24h39.28a1.25,1.25,0,0,1,1.24,1.24v21A1.3,1.3,0,0,1,737.48,410Zm-39.28-23.4a1.12,1.12,0,0,0-1.13,1.13v21a1.12,1.12,0,0,0,1.13,1.13h39.28a1.12,1.12,0,0,0,1.13-1.13V387.65a1.12,1.12,0,0,0-1.13-1.13H698.2Z" transform="translate(-562.06 -386.4)"/><path class="cls-6" d="M725.93,397a1.09,1.09,0,0,0-.77-2,1,1,0,0,0-.95.59,1,1,0,0,0,.12,1.18,2.59,2.59,0,0,1,.53,1.07c.06.18.06.3-.12.41a.7.7,0,0,0-.24,1,.8.8,0,0,0,.83.41.84.84,0,0,0,.65-.59.76.76,0,0,0-.3-.83c-.06-.06-.24-.06-.24-.24S725.51,397.3,725.93,397Zm-.36,1.72a.63.63,0,0,1-.06.71.46.46,0,0,1-.65,0,.54.54,0,0,1-.06-.71c.06-.06.12-.18.24-.12s.06.12.12.24a.21.21,0,0,1-.06.12c0,.12.06.18.12.18s.12-.06.12-.18a.21.21,0,0,0-.06-.12.24.24,0,0,1,.12-.24C725.45,398.55,725.51,398.67,725.57,398.72Zm-.36-1.9a.65.65,0,1,1,0-1.3.66.66,0,0,1,.65.65C725.81,396.59,725.57,396.83,725.22,396.83Z" transform="translate(-562.06 -386.4)"/><path class="cls-7" d="M715,397.36v-2.13a.31.31,0,0,1,.36-.36c.65,0,.65,0,.65.65v1.13c0,.06-.06.18.06.24s.12-.06.18-.12a1.42,1.42,0,0,1,.83-.3,1.18,1.18,0,0,1,1.36,1.3v1.72c0,.3-.06.41-.36.41-.71,0-.71,0-.71-.71v-1.13c0-.41-.24-.77-.53-.77s-.65.24-.77.65,0,1-.06,1.48,0,.41-.41.41c-.59,0-.59,0-.59-.59Z" transform="translate(-562.06 -386.4)"/><path class="cls-7" d="M713.43,394.93a5.19,5.19,0,0,1,.95.12c.18.06.24.12.18.36v.12c-.12.53-.12.53-.65.41a3.38,3.38,0,0,0-.77-.06.37.37,0,0,0-.41.41c-.06.24.12.36.3.47a9.67,9.67,0,0,1,1.13.53,1.41,1.41,0,0,1,.71,1.36,1.34,1.34,0,0,1-.95,1.18,3.53,3.53,0,0,1-2.07,0c-.3-.06-.36-.24-.24-.47.12-.53.12-.53.65-.36a1.65,1.65,0,0,0,1.07.06c.24-.06.41-.18.41-.41a.52.52,0,0,0-.3-.53c-.24-.12-.53-.24-.83-.36a1.47,1.47,0,0,1-1-1.3,1.43,1.43,0,0,1,1.36-1.42A.64.64,0,0,1,713.43,394.93Z" transform="translate(-562.06 -386.4)"/><path class="cls-7" d="M733.87,398.55v1a.28.28,0,0,1-.3.3c-.89,0-.77.06-.77-.71v-1.3a.5.5,0,0,0-.36-.53.57.57,0,0,0-.59.18.89.89,0,0,0-.24.65v1.36a.31.31,0,0,1-.36.36c-.71,0-.71.06-.71-.71v-1.42a1.21,1.21,0,0,1,1.13-1.3,3,3,0,0,1,1.24.06,1.15,1.15,0,0,1,.95,1.13Z" transform="translate(-562.06 -386.4)"/><path class="cls-7" d="M728.48,398.78c.18-.59.36-1.18.53-1.72s.12-.47.59-.47c.71,0,.65-.06.41.65s-.59,1.6-.89,2.37c-.06.24-.18.3-.41.3-.95,0-.95,0-1.24-.83s-.53-1.42-.83-2.19c-.06-.18-.06-.3.18-.3h.06c1,0,.77-.12,1.07.77.12.47.3.89.41,1.36A.21.21,0,0,1,728.48,398.78Z" transform="translate(-562.06 -386.4)"/><path class="cls-7" d="M706.62,397a1.3,1.3,0,0,1,.95-.53c.24,0,.36.06.36.3v.18c0,.59,0,.59-.59.59s-.71.3-.77.83v1.24c0,.24-.06.36-.36.36-.65,0-.65,0-.65-.65v-2.43a.31.31,0,0,1,.36-.36h.18C706.5,396.53,706.5,396.53,706.62,397Z" transform="translate(-562.06 -386.4)"/><path class="cls-7" d="M718.88,398.19v-1.3c0-.24.06-.36.3-.36.89,0,.77-.06.77.71v2.19c0,.24-.06.36-.36.36-.83,0-.71.06-.71-.71Z" transform="translate(-562.06 -386.4)"/><path class="cls-7" d="M719.41,395.05a.5.5,0,0,1,.53.53.53.53,0,1,1-.53-.53Z" transform="translate(-562.06 -386.4)"/><path class="cls-7" d="M724,397.6a1.43,1.43,0,0,0-1.84-1.13,1.73,1.73,0,0,0-.71.41c-.12-.47-.12-.47-.71-.47-.36,0-.3.3-.3.53v3.79c0,.77,0,.77.77.71.24,0,.36-.12.3-.36v-1.42c0-.12-.06-.24.06-.24s.18.06.24.12a1.37,1.37,0,0,0,1.84-.18A1.89,1.89,0,0,0,724,397.6Zm-1.13,1a.66.66,0,0,1-1.13.24,1.07,1.07,0,0,1-.12-1.24.68.68,0,0,1,.77-.36.7.7,0,0,1,.53.59v.24A1.47,1.47,0,0,1,722.91,398.61Z" transform="translate(-562.06 -386.4)"/><path class="cls-7" d="M705.25,395.76a1.3,1.3,0,0,0-1.13-.83,1.43,1.43,0,0,0-1.18.36c-.06.06-.18.18-.24-.06s-.3-.3-.47-.24-.47,0-.47.36v4c0,.65,0,.65.65.65.3,0,.36-.12.36-.36v-1.42c0-.12-.06-.24.06-.24s.12.06.24.12a1.4,1.4,0,0,0,2.19-.53A2.31,2.31,0,0,0,705.25,395.76ZM704.3,397a.72.72,0,0,1-.77.53.75.75,0,0,1-.65-.65v-.3a.88.88,0,0,1,.12-.53.65.65,0,0,1,.59-.36.59.59,0,0,1,.59.36A1.34,1.34,0,0,1,704.3,397Z" transform="translate(-562.06 -386.4)"/><path class="cls-7" d="M709.76,396.47a1.75,1.75,0,0,0,.06,3.5,1.57,1.57,0,0,0,1.66-1.72A1.7,1.7,0,0,0,709.76,396.47Zm.65,2.19a.7.7,0,0,1-.71.53.63.63,0,0,1-.65-.53,1,1,0,0,1-.06-.41v-.36a.76.76,0,0,1,.59-.65c.36-.06.59.12.77.53A1,1,0,0,1,710.41,398.67Z" transform="translate(-562.06 -386.4)"/><path class="cls-8" d="M725.28,398.78c.18.12.24.24.12.41a.22.22,0,0,1-.36,0c-.12-.18-.06-.3.12-.41l.12.12C725.22,398.9,725.22,398.84,725.28,398.78Z" transform="translate(-562.06 -386.4)"/><path class="cls-1" d="M806.23,409.86H767a1.19,1.19,0,0,1-1.18-1.18v-21a1.19,1.19,0,0,1,1.18-1.18h39.28a1.19,1.19,0,0,1,1.18,1.18v21A1.19,1.19,0,0,1,806.23,409.86Z" transform="translate(-562.06 -386.4)"/><path d="M806.23,410H767a1.25,1.25,0,0,1-1.24-1.24V387.65A1.25,1.25,0,0,1,767,386.4h39.28a1.25,1.25,0,0,1,1.24,1.24v21A1.3,1.3,0,0,1,806.23,410ZM767,386.58a1.12,1.12,0,0,0-1.13,1.13v21a1.12,1.12,0,0,0,1.13,1.13h39.28a1.12,1.12,0,0,0,1.13-1.13V387.65a1.12,1.12,0,0,0-1.13-1.13H767Z" transform="translate(-562.06 -386.4)"/><path class="cls-9" d="M793,397.07l.06.06c.53.24,1.07.53,1.6.77.06.06.18.06.24.12l.18.18a.34.34,0,0,1-.24.41h-.24l-1.42-.71c-.53-.3-1.07-.53-1.6-.83a.25.25,0,0,1-.18-.36.39.39,0,0,1,.3-.24H794c.18-.06.36-.12.36-.36a1.3,1.3,0,0,0-.06-.47.33.33,0,0,0-.3-.18h-3.26c-.12,0-.12,0-.12.12v2.67a.36.36,0,0,1-.18.36.35.35,0,0,1-.53-.3h0v-3a.42.42,0,0,1,.18-.36.36.36,0,0,1,.24-.06H794a1.07,1.07,0,0,1,.59.12.8.8,0,0,1,.41.36,1.73,1.73,0,0,1,.12.53v.36a.81.81,0,0,1-.65.77,2,2,0,0,1-.59.06H793c.06-.12.06-.12,0-.06Z" transform="translate(-562.06 -386.4)"/><path class="cls-9" d="M780.58,398.55h-1.9a1.73,1.73,0,0,1-.53-.12.65.65,0,0,1-.36-.59v-2.07a.88.88,0,0,1,.12-.53.92.92,0,0,1,.47-.36.88.88,0,0,1,.41-.06h3.85a.33.33,0,0,1,.18.3.39.39,0,0,1-.24.3h-3.67a.44.44,0,0,0-.36.12.44.44,0,0,0-.06.3v.47c0,.12,0,.12.12.12h3.32c.18,0,.24.06.3.24a.34.34,0,0,1-.24.41h-3.38c-.12,0-.12,0-.12.12v.53a.32.32,0,0,0,.3.3h3.73a.36.36,0,0,1,.24.06c.18.12.12.41-.06.53s-.12.06-.18.06A10.83,10.83,0,0,0,780.58,398.55Z" transform="translate(-562.06 -386.4)"/><path class="cls-9" d="M786.8,397.07c.06,0,.06.06.12.06.53.3,1.13.53,1.66.83.06.06.12.06.18.12s.18.3.12.41a.25.25,0,0,1-.41.12l-1.07-.53c-.65-.36-1.3-.71-2-1a.31.31,0,0,1-.06-.53c.06-.06.12-.06.24-.06H788c.18-.06.24-.18.3-.36v-.36c-.06-.18-.18-.24-.36-.3h-3.2c-.12,0-.12,0-.12.12v2.78c0,.18-.24.3-.41.3a.38.38,0,0,1-.3-.36v-3c0-.24.12-.41.36-.41h3.55a2,2,0,0,1,.59.06.94.94,0,0,1,.59.65,1.64,1.64,0,0,1,.06.53.83.83,0,0,1-.18.53.85.85,0,0,1-.65.41,7.14,7.14,0,0,1-1.13,0,.26.26,0,0,0-.3,0Z" transform="translate(-562.06 -386.4)"/><path class="cls-9" d="M798.71,398.55h-1.84a.28.28,0,0,1-.3-.3.27.27,0,0,1,.24-.3h3.5a.32.32,0,0,0,.36-.24v-.59c0-.06,0-.12-.12-.12h-3.38a.88.88,0,0,1-.53-.12.74.74,0,0,1-.36-.47,1,1,0,0,1-.06-.41v-.95a.4.4,0,0,1,.24-.36.36.36,0,0,1,.41.18c0,.06.06.12.06.18v.83a.36.36,0,0,0,.06.24.33.33,0,0,0,.3.18h3.32c.06,0,.06,0,.06-.06V395a.38.38,0,0,1,.3-.36.31.31,0,0,1,.41.24v2.73a.7.7,0,0,1-.59.71,1,1,0,0,1-.41.06A5.28,5.28,0,0,1,798.71,398.55Z" transform="translate(-562.06 -386.4)"/><path class="cls-9" d="M771.75,396.71v-1.48a.36.36,0,0,1,.06-.24.31.31,0,0,1,.41-.18c.12,0,.24.18.24.36v1.6c0,.12,0,.12.12.06.59-.3,1.18-.59,1.78-.95l1.54-.83c.18-.06.3-.18.47-.24a.31.31,0,0,1,.47.24.33.33,0,0,1-.18.3,1.77,1.77,0,0,1-.47.24c-.53.3-1.13.59-1.66.89h-.06c-.06.06-.06.06,0,.06l.47.3a7.72,7.72,0,0,1,.89.59c.3.18.53.36.83.53.06.06.12.06.12.12a.29.29,0,0,1-.06.41.36.36,0,0,1-.41.06c-.36-.24-.77-.47-1.13-.71l-1-.65-.41-.24h-.12l-1.13.59c-.06.06-.06.06-.06.12v.53a.31.31,0,0,1-.36.36.33.33,0,0,1-.36-.3v-1.54Z" transform="translate(-562.06 -386.4)"/><path class="cls-10" d="M782.53,400.09h.77c.06,0,.12,0,.12.06v.12a.21.21,0,0,1-.12.06h-1.42a.16.16,0,0,0-.18.18v.65a.16.16,0,0,0,.18.18H783a.16.16,0,0,0,.18-.18c0-.18,0-.24-.24-.24h-.59c-.06,0-.06-.06-.06-.12s0-.12.06-.12h.95a.16.16,0,0,1,.18.18v.41a.32.32,0,0,1-.36.24h-1.3a.34.34,0,0,1-.36-.36v-.77a.34.34,0,0,1,.36-.36A2.66,2.66,0,0,0,782.53,400.09Z" transform="translate(-562.06 -386.4)"/><path class="cls-10" d="M786.56,401.57h-.77c-.12,0-.12-.06-.12-.12a.21.21,0,0,1,.06-.12h1.42a.2.2,0,0,0,.18-.3c-.06-.06-.12-.06-.18-.12H786a.36.36,0,0,1-.24-.06c-.18-.06-.18-.24-.18-.41a.36.36,0,0,1,.06-.24.33.33,0,0,1,.3-.18h1.42a.12.12,0,1,1,0,.24H786a.18.18,0,0,0,0,.36h1.24c.18.06.3.18.3.3v.24a.3.3,0,0,1-.3.24c-.12.18-.41.18-.65.18Z" transform="translate(-562.06 -386.4)"/><path class="cls-10" d="M796.16,401.57h-.77a.12.12,0,1,1,0-.24h1.42a.18.18,0,0,0,0-.36h-1.13a.42.42,0,0,1-.36-.18.57.57,0,0,1,0-.53.33.33,0,0,1,.3-.18h1.48a.12.12,0,1,1,0,.24h-1.36c-.18,0-.24.12-.18.3s.12.12.18.12h1.07a.36.36,0,0,1,.24.06c.18.06.24.18.24.41a.39.39,0,0,1-.41.41,2.88,2.88,0,0,0-.71-.06Z" transform="translate(-562.06 -386.4)"/><path class="cls-10" d="M793.49,401.57h-.77a.34.34,0,0,1-.36-.36v-.77a.31.31,0,0,1,.36-.36h1.54a.12.12,0,1,1,0,.24h-1.48c-.18,0-.18.06-.18.18v.65a.16.16,0,0,0,.18.18h1.42a.12.12,0,1,1,0,.24Z" transform="translate(-562.06 -386.4)"/><path class="cls-10" d="M789.29,400.09h.89c.06,0,.12,0,.12.06v.12c-.06,0-.06.06-.12.06h-.59c-.12,0-.12,0-.12.12v1c0,.12-.06.18-.12.18a.16.16,0,0,1-.18-.18v-1.07c0-.06,0-.12-.12-.12h-.59c-.12,0-.18-.06-.18-.12s.06-.12.18-.12A4.2,4.2,0,0,0,789.29,400.09Z" transform="translate(-562.06 -386.4)"/><path class="cls-10" d="M776.91,401.57h-.65a.38.38,0,0,1-.36-.36v-1c0-.12.06-.12.12-.18a.22.22,0,0,1,.18.06v1a.16.16,0,0,0,.18.18h1.24a.12.12,0,1,1,0,.24H777c-.06.06-.06.06-.12.06Z" transform="translate(-562.06 -386.4)"/><path class="cls-10" d="M791.12,400.8v-.65a.13.13,0,0,1,.12-.12c.06,0,.12,0,.18.12v1.24a.21.21,0,0,1-.24.24.13.13,0,0,1-.12-.12v-.36a.88.88,0,0,0,.06-.36Z" transform="translate(-562.06 -386.4)"/><path class="cls-10" d="M784.67,400.8v.59c0,.12-.06.18-.12.18a.16.16,0,0,1-.18-.18v-1.18a.18.18,0,1,1,.36,0A2.22,2.22,0,0,0,784.67,400.8Z" transform="translate(-562.06 -386.4)"/><path class="cls-10" d="M780.52,400.44a.31.31,0,0,0-.36-.36h-1.3a.34.34,0,0,0-.36.36v.77a.34.34,0,0,0,.36.36h1.3a.31.31,0,0,0,.36-.36Zm-.3.71a.16.16,0,0,1-.18.18h-1.13a.16.16,0,0,1-.18-.18v-.65a.16.16,0,0,1,.18-.18H780a.16.16,0,0,1,.18.18Z" transform="translate(-562.06 -386.4)"/></svg>