<?xml version="1.0" encoding="utf-8"?>
<!-- Generator: Adobe Illustrator 21.0.0, SVG Export Plug-In . SVG Version: 6.00 Build 0)  -->
<svg version="1.1" id="Layer_1" xmlns="http://www.w3.org/2000/svg" xmlns:xlink="http://www.w3.org/1999/xlink" x="0px" y="0px"
	 width="272.5px" height="41.4px" viewBox="0 0 272.5 41.4" style="enable-background:new 0 0 272.5 41.4;" xml:space="preserve">
<style type="text/css">
	.st0{fill:#242424;}
	.st1{fill:#FFFFFF;}
</style>
<g>
	<g>
		<path class="st0" d="M58.9,23.1L58.9,23.1c0,1.3-0.4,2.3-1.2,3s-1.9,1.1-3.3,1.1c-1.4,0-2.5-0.5-3.4-1.4s-1.3-2.2-1.3-3.6v-2.3
			c0-1.5,0.4-2.7,1.3-3.6c0.9-1,2-1.4,3.4-1.4s2.5,0.4,3.4,1.1c0.8,0.7,1.2,1.7,1.2,3l0,0h-2c0-0.8-0.2-1.4-0.7-1.9
			c-0.4-0.4-1.1-0.6-1.9-0.6c-0.8,0-1.5,0.3-1.9,1C52,18.1,51.8,19,51.8,20v2.3c0,1,0.2,1.8,0.7,2.5c0.5,0.6,1.2,1,2,1
			s1.5-0.2,1.9-0.6s0.6-1.1,0.6-1.9h1.9V23.1z"/>
		<path class="st0" d="M67.2,24.3h-4.3L62,27.1h-2.1L64.1,15H66l4.2,12.1h-2.1L67.2,24.3z M63.4,22.6h3.2L65,17.8l0,0L63.4,22.6z
			 M65.7,11.6H68l0,0l-2.3,2.2h-1.6L65.7,11.6z"/>
		<path class="st0" d="M80.4,23.1L80.4,23.1c0,1.3-0.4,2.3-1.2,3c-0.8,0.7-1.9,1.1-3.3,1.1s-2.5-0.5-3.4-1.4s-1.3-2.2-1.3-3.6v-2.3
			c0-1.5,0.4-2.7,1.3-3.6c0.9-1,2-1.4,3.4-1.4s2.5,0.4,3.4,1.1c0.8,0.7,1.2,1.7,1.2,3l0,0h-2c0-0.8-0.2-1.4-0.7-1.9
			c-0.4-0.4-1.1-0.6-1.9-0.6s-1.5,0.3-1.9,1c-0.5,0.6-0.7,1.5-0.7,2.5v2.3c0,1,0.2,1.8,0.7,2.5c0.5,0.6,1.2,1,2,1s1.5-0.2,1.9-0.6
			s0.6-1.1,0.6-1.9h1.9V23.1z"/>
		<path class="st0" d="M91.8,27.1h-2v-5.2h-5.4v5.2h-2V15h2v5.3h5.4V15h2V27.1z"/>
		<path class="st0" d="M108,27.1h-2l-5.4-8.7l0,0v8.7h-2V15h2l5.4,8.7l0,0V15h2V27.1z"/>
		<path class="st0" d="M120,27.1h-2v-5.2h-5.4v5.2h-2V15h2v5.3h5.4V15h2V27.1z"/>
		<path class="st0" d="M129,24.3h-4.3l-0.9,2.8h-2.1l4.2-12.1h1.9l4.2,12.1h-2.1L129,24.3z M129.6,13.6v0.2H128l-1.2-1.2l-1.2,1.2
			H124v-0.2l2.2-2h1.2L129.6,13.6z M125.3,22.6h3.2l-1.6-4.8l0,0L125.3,22.6z M127.9,30h-2.2v-1.9h2.2V30z"/>
		<path class="st0" d="M142.9,27.1h-2l-5.4-8.7l0,0v8.7h-2V15h2l5.4,8.7l0,0V15h2V27.1z"/>
		<path class="st0" d="M149.7,27.1V15h4c1.3,0,2.4,0.3,3.1,0.8c0.8,0.5,1.1,1.4,1.1,2.5c0,0.5-0.2,1-0.5,1.4s-0.7,0.8-1.3,1
			c0.8,0.1,1.4,0.5,1.8,1c0.4,0.5,0.6,1.2,0.6,1.9c0,1.1-0.4,2-1.1,2.6c-0.7,0.6-1.8,0.9-3.1,0.9C154.3,27.1,149.7,27.1,149.7,27.1z
			 M151.7,20.1h2.2c0.6,0,1.1-0.1,1.5-0.4s0.5-0.7,0.5-1.3c0-0.6-0.2-1-0.6-1.3c-0.4-0.3-0.9-0.4-1.7-0.4h-1.9V20.1z M151.7,21.6
			v3.9h2.7c0.7,0,1.2-0.2,1.6-0.5s0.6-0.8,0.6-1.4s-0.2-1.1-0.6-1.5c-0.4-0.4-0.9-0.6-1.6-0.6h-0.1h-2.6L151.7,21.6L151.7,21.6z"/>
		<path class="st0" d="M162.7,27.1h-2V15h2V27.1z"/>
		<path class="st0" d="M172.2,21.6h-4.7v3.8h5.6V27h-7.6V15h7.5v1.6h-5.5V20h4.7V21.6z M168.4,11.7h1.6l2.4,2.1l0,0h-1.9l-1.3-1.2
			l-1.3,1.2H166l0,0L168.4,11.7z M173,10.2h2l-1.7,2.2h-1.5L173,10.2z"/>
		<path class="st0" d="M183.3,16.6h-3.7v10.5h-2V16.6h-3.7V15h9.4V16.6z"/>
		<path class="st0" d="M195.4,24c0-0.5-0.2-0.9-0.5-1.2c-0.4-0.3-1-0.6-1.9-0.9c-1.3-0.4-2.3-0.8-3-1.4s-1.1-1.3-1.1-2.3
			s0.4-1.8,1.2-2.4s1.8-0.9,3-0.9c1.3,0,2.4,0.4,3.1,1.1c0.8,0.7,1.2,1.6,1.1,2.6l0,0h-1.9c0-0.6-0.2-1.1-0.6-1.5
			c-0.4-0.4-1-0.6-1.7-0.6s-1.2,0.2-1.6,0.5c-0.4,0.3-0.6,0.7-0.6,1.2s0.2,0.8,0.6,1.2c0.4,0.3,1.1,0.6,2,0.9
			c1.3,0.4,2.2,0.8,2.9,1.4s1,1.4,1,2.3c0,1-0.4,1.8-1.2,2.4s-1.8,0.9-3.1,0.9c-1.2,0-2.3-0.3-3.2-1s-1.4-1.6-1.3-2.8l0,0h1.9
			c0,0.7,0.3,1.3,0.8,1.6c0.5,0.4,1.1,0.6,1.8,0.6s1.3-0.2,1.7-0.5C195.2,24.9,195.4,24.5,195.4,24z"/>
		<path class="st0" d="M205.8,24.3h-4.3l-0.9,2.8h-2.1l4.2-12.1h1.9l4.2,12.1h-2.1L205.8,24.3z M202,22.6h3.2l-1.6-4.8l0,0L202,22.6
			z M202.9,14l-0.1-1.2c0.4,0,0.7-0.1,0.9-0.2c0.2-0.1,0.3-0.2,0.3-0.4s-0.1-0.4-0.3-0.5s-0.5-0.1-0.9-0.1l0.1-1
			c0.9,0,1.6,0.1,2.1,0.4c0.5,0.3,0.7,0.7,0.7,1.2c0,0.4-0.1,0.7-0.4,0.9s-0.5,0.3-0.9,0.4V14H202.9z"/>
		<path class="st0" d="M219.7,27.1h-2l-5.4-8.7l0,0v8.7h-2V15h2l5.4,8.7l0,0V15h2V27.1z"/>
		<path class="st0" d="M228.5,22.5v4.6h-2V15h4.6c1.3,0,2.4,0.3,3.1,1c0.8,0.7,1.1,1.6,1.1,2.7s-0.4,2-1.1,2.7c-0.8,0.7-1.8,1-3.1,1
			L228.5,22.5L228.5,22.5z M228.5,20.9h2.6c0.7,0,1.3-0.2,1.7-0.6s0.6-0.9,0.6-1.5s-0.2-1.1-0.6-1.5c-0.4-0.4-0.9-0.6-1.7-0.6h-2.6
			V20.9z"/>
		<path class="st0" d="M246.7,27.1h-2v-5.2h-5.4v5.2h-2V15h2v5.3h5.4V15h2V27.1z"/>
		<path class="st0" d="M255.7,24.3h-4.3l-0.9,2.8h-2.1l4.2-12.1h1.9l4.2,12.1h-2.1L255.7,24.3z M254.4,12h-1.9l-2.3,2.1l0,0h1.7
			l1.5-1.4l1.5,1.4h1.8l0,0L254.4,12z M252,22.6h3.2l-1.6-4.8l0,0L252,22.6z M256.4,13.1l-0.1-1c0.4,0,0.6-0.1,0.8-0.1
			c0.2-0.1,0.2-0.2,0.2-0.3c0-0.2-0.1-0.3-0.3-0.4s-0.5-0.1-0.8-0.1l0.1-0.9c0.8,0,1.4,0.1,1.8,0.4c0.4,0.2,0.6,0.6,0.6,1
			c0,0.3-0.1,0.6-0.3,0.7c-0.2,0.2-0.5,0.3-0.8,0.3v0.5L256.4,13.1L256.4,13.1z"/>
		<path class="st0" d="M266.3,24.3L266.3,24.3l3.5-9.3h2.6v12.1h-2v-8.7l0,0l-3.3,8.7h-1.4l-3.4-8.9l0,0V27h-2V15h2.6L266.3,24.3z"
			/>
	</g>
	<g>
		<circle class="st0" cx="20.7" cy="20.7" r="20.7"/>
		<path class="st1" d="M32.5,29.3l-6.2-6.2c0.9-1.5,1.4-3.1,1.4-5c0-5.3-4.3-9.6-9.6-9.6s-9.6,4.3-9.6,9.6s4.3,9.6,9.6,9.6
			c1.8,0,3.5-0.5,5-1.4l6.2,6.2c0.4,0.4,1.2,0.4,1.6,0l1.6-1.6C33,30.5,33,29.8,32.5,29.3z M18.1,24.5c-3.5,0-6.4-2.9-6.4-6.4
			s2.9-6.4,6.4-6.4s6.4,2.9,6.4,6.4S21.7,24.5,18.1,24.5z"/>
	</g>
</g>
</svg>
