<?xml version="1.0" encoding="utf-8"?>
<!-- Generator: Adobe Illustrator 21.0.0, SVG Export Plug-In . SVG Version: 6.00 Build 0)  -->
<svg version="1.1" id="Layer_1" xmlns="http://www.w3.org/2000/svg" xmlns:xlink="http://www.w3.org/1999/xlink" x="0px" y="0px"
	 width="220px" height="28px" viewBox="0 0 220 28" style="enable-background:new 0 0 220 28;" xml:space="preserve">
<style type="text/css">
	.st0{fill:#242424;}
	.st1{fill:#FFFFFF;}
</style>
<g>
	<rect class="st0" width="220" height="28"/>
	<g>
		<path class="st1" d="M35.9,17.1L35.9,17.1c0,1.1-0.3,2-1,2.6c-0.7,0.7-1.7,1-2.9,1s-2.2-0.4-3-1.3c-0.8-0.8-1.2-1.9-1.2-3.2v-2
			c0-1.3,0.4-2.4,1.1-3.2c0.8-0.8,1.8-1.3,3-1.3c1.3,0,2.2,0.3,3,1c0.7,0.6,1.1,1.5,1.1,2.6l0,0h-1.7c0-0.7-0.2-1.3-0.6-1.6
			c-0.4-0.4-1-0.6-1.7-0.6s-1.3,0.3-1.7,0.9c-0.4,0.6-0.6,1.3-0.6,2.2v2c0,0.9,0.2,1.6,0.6,2.2s1,0.9,1.8,0.9c0.7,0,1.3-0.2,1.7-0.6
			s0.6-0.9,0.6-1.6H35.9z"/>
		<path class="st1" d="M43.1,18.1h-3.8l-0.8,2.5h-1.8l3.7-10.7h1.7l3.7,10.7H44L43.1,18.1z M39.9,16.6h2.8l-1.4-4.2l0,0L39.9,16.6z
			 M41.8,6.9h2l0,0l-2,1.9h-1.4L41.8,6.9z"/>
		<path class="st1" d="M54.8,17.1L54.8,17.1c0,1.1-0.3,2-1,2.6c-0.7,0.7-1.7,1-2.9,1s-2.2-0.4-3-1.3c-0.8-0.8-1.2-1.9-1.2-3.2v-2
			c0-1.3,0.4-2.4,1.1-3.2c0.8-0.8,1.8-1.3,3-1.3c1.3,0,2.2,0.3,3,1c0.7,0.6,1.1,1.5,1.1,2.6l0,0h-1.7c0-0.7-0.2-1.3-0.6-1.6
			c-0.4-0.4-1-0.6-1.7-0.6s-1.3,0.3-1.7,0.9c-0.4,0.6-0.6,1.3-0.6,2.2v2c0,0.9,0.2,1.6,0.6,2.2c0.4,0.6,1,0.9,1.8,0.9
			c0.7,0,1.3-0.2,1.7-0.6s0.6-0.9,0.6-1.6H54.8z"/>
		<path class="st1" d="M64.9,20.6h-1.8V16h-4.8v4.5h-1.8V9.9h1.8v4.7h4.8V9.9h1.8V20.6z"/>
		<path class="st1" d="M76.5,17.8c0-0.4-0.2-0.8-0.5-1.1c-0.3-0.3-0.9-0.5-1.7-0.8c-1.1-0.3-2-0.7-2.7-1.2c-0.6-0.5-0.9-1.2-0.9-2
			c0-0.9,0.3-1.6,1-2.1s1.6-0.8,2.6-0.8c1.2,0,2.1,0.3,2.8,0.9c0.7,0.6,1,1.4,1,2.3l0,0h-1.7c0-0.6-0.2-1-0.6-1.3s-0.9-0.5-1.5-0.5
			s-1.1,0.1-1.4,0.4s-0.5,0.6-0.5,1.1c0,0.4,0.2,0.7,0.5,1c0.4,0.3,0.9,0.5,1.8,0.8c1.1,0.3,2,0.7,2.6,1.3c0.6,0.5,0.9,1.2,0.9,2.1
			s-0.3,1.6-1,2.1s-1.6,0.8-2.7,0.8s-2-0.3-2.8-0.9s-1.2-1.4-1.2-2.4l0,0h1.7c0,0.6,0.2,1.1,0.7,1.4c0.4,0.3,1,0.5,1.6,0.5
			s1.1-0.1,1.5-0.4C76.3,18.6,76.5,18.3,76.5,17.8z"/>
		<path class="st1" d="M88.2,9.9v1.3l0,0c0.4-0.1,0.7-0.4,0.9-0.8c0.2-0.4,0.3-0.9,0.3-1.6H91c0,1-0.2,1.9-0.7,2.5s-1.2,1-2.1,1.2
			v4.4c0,1.2-0.4,2.1-1.2,2.8c-0.8,0.7-1.8,1-3,1s-2.2-0.3-3-1s-1.1-1.6-1.1-2.8v-7h1.8v7c0,0.8,0.2,1.3,0.6,1.8
			c0.4,0.4,1,0.6,1.7,0.6s1.3-0.2,1.7-0.6c0.4-0.4,0.7-1,0.7-1.8v-7H88.2z M83.5,9l-0.1-1.1c0.4,0,0.6-0.1,0.8-0.1
			c0.2-0.1,0.2-0.2,0.2-0.4c0-0.2-0.1-0.3-0.3-0.4s-0.5-0.1-0.8-0.1L83.4,6c0.8,0,1.4,0.1,1.8,0.4s0.6,0.6,0.6,1
			c0,0.3-0.1,0.6-0.3,0.8S85,8.5,84.7,8.5V9H83.5z"/>
		<path class="st1" d="M94.4,20.6V9.9h3.5c1.4,0,2.5,0.4,3.3,1.3c0.8,0.8,1.3,1.9,1.3,3.3V16c0,1.3-0.4,2.4-1.3,3.3
			c-0.8,0.8-1.9,1.3-3.3,1.3C97.9,20.6,94.4,20.6,94.4,20.6z M96.2,11.3v7.8h1.7c0.9,0,1.5-0.3,2-0.9s0.8-1.3,0.8-2.2v-1.6
			c0-0.9-0.3-1.6-0.8-2.2c-0.5-0.6-1.2-0.9-2-0.9H96.2z"/>
		<path class="st1" d="M112.6,9.9v7c0,1.2-0.4,2.1-1.2,2.8c-0.8,0.7-1.8,1-3,1s-2.2-0.3-3-1s-1.1-1.6-1.1-2.8v-7h1.8v7
			c0,0.8,0.2,1.3,0.6,1.8c0.4,0.4,1,0.6,1.7,0.6s1.3-0.2,1.7-0.6c0.4-0.4,0.7-1,0.7-1.8v-7H112.6z M109.4,23.2h-2v-1.6h2V23.2z"/>
		<path class="st1" d="M123,20.6h-1.8l-4.7-7.7l0,0v7.7h-1.8V9.9h1.8l4.7,7.7l0,0V9.9h1.8V20.6z"/>
		<path class="st1" d="M133.1,19.1c-0.3,0.4-0.8,0.8-1.4,1.1c-0.6,0.3-1.5,0.5-2.5,0.5c-1.3,0-2.3-0.4-3.1-1.2
			c-0.8-0.8-1.2-1.9-1.2-3.2v-2.2c0-1.3,0.4-2.3,1.2-3.2c0.8-0.8,1.8-1.2,3-1.2c1.2,0,2.2,0.3,2.9,0.9s1,1.4,1,2.4l0,0h-1.7
			c0-0.6-0.2-1.1-0.6-1.5c-0.4-0.4-0.9-0.5-1.6-0.5c-0.7,0-1.3,0.3-1.8,0.8s-0.7,1.3-0.7,2.1v2.2c0,0.9,0.2,1.6,0.7,2.1
			c0.5,0.6,1.1,0.8,1.8,0.8c0.6,0,1-0.1,1.4-0.2c0.3-0.1,0.6-0.3,0.8-0.5v-2.2h-2.2v-1.3h4L133.1,19.1L133.1,19.1z"/>
	</g>
	<g>
		<path class="st1" d="M13.7,21.5c3.6,0,6.5-2.9,6.5-6.5s-2.9-6.5-6.5-6.5S7.2,11.4,7.2,15C7.1,18.6,10.1,21.5,13.7,21.5z
			 M13.7,20.1c-2.8,0-5.1-2.3-5.1-5.1s2.3-5.1,5.1-5.1s5.1,2.3,5.1,5.1C18.8,17.8,16.5,20.1,13.7,20.1z M13.8,16.3v1.6l2.7-2.9
			l-2.7-2.9v1.6h-2.9v2.6C10.9,16.3,13.8,16.3,13.8,16.3z"/>
	</g>
</g>
</svg>
