<?xml version="1.0" encoding="utf-8"?>
<!-- Generator: Adobe Illustrator 21.0.0, SVG Export Plug-In . SVG Version: 6.00 Build 0)  -->
<svg version="1.1" id="Layer_1" xmlns="http://www.w3.org/2000/svg" xmlns:xlink="http://www.w3.org/1999/xlink" x="0px" y="0px"
	 width="247px" height="41.4px" viewBox="0 0 247 41.4" style="enable-background:new 0 0 247 41.4;" xml:space="preserve">
<style type="text/css">
	.st0{fill:#242424;}
	.st1{fill:#FFFFFF;}
</style>
<g>
	<g>
		<path class="st0" d="M58.9,23.1L58.9,23.1c0,1.3-0.4,2.3-1.2,3s-1.9,1.1-3.3,1.1c-1.4,0-2.5-0.5-3.4-1.4s-1.3-2.2-1.3-3.6v-2.3
			c0-1.5,0.4-2.7,1.3-3.6c0.9-1,2-1.4,3.4-1.4s2.5,0.4,3.4,1.1c0.8,0.7,1.2,1.7,1.2,3l0,0h-2c0-0.8-0.2-1.4-0.7-1.9
			s-1.1-0.6-1.9-0.6c-0.8,0-1.5,0.3-1.9,1C52,18.2,51.8,19,51.8,20v2.3c0,1,0.2,1.8,0.7,2.5s1.2,1,2,1s1.5-0.2,1.9-0.6
			s0.6-1.1,0.6-1.9h1.9V23.1z"/>
		<path class="st0" d="M70.3,27.1h-2v-5.2h-5.4v5.2h-2V15h2v5.3h5.4V15h2V27.1z"/>
		<path class="st0" d="M82.1,15v1.5l0,0c0.5-0.1,0.8-0.4,1-0.9s0.3-1.1,0.3-1.8h1.7c0,1.2-0.3,2.1-0.8,2.8S83,17.7,82,17.9v5
			c0,1.3-0.4,2.4-1.3,3.2c-0.9,0.8-2,1.1-3.4,1.1s-2.5-0.4-3.4-1.1s-1.3-1.8-1.3-3.2v-8h2v8c0,0.9,0.2,1.5,0.7,2s1.1,0.7,1.9,0.7
			s1.5-0.2,2-0.7s0.7-1.1,0.7-2v-8h2.2L82.1,15L82.1,15z M78.1,11.6h2.3l0,0l-2.3,2.2h-1.6L78.1,11.6z"/>
		<path class="st0" d="M94.3,27.1h-2l-5.4-8.7l0,0v8.7h-2V15h2l5.4,8.7l0,0V15h2V27.1z"/>
		<path class="st0" d="M105.8,25.4c-0.3,0.5-0.9,0.9-1.6,1.3s-1.7,0.6-2.8,0.6c-1.4,0-2.6-0.5-3.5-1.4s-1.4-2.1-1.4-3.6v-2.5
			c0-1.5,0.4-2.7,1.3-3.6s2-1.4,3.4-1.4s2.5,0.4,3.3,1.1s1.2,1.6,1.1,2.8l0,0h-1.9c0-0.7-0.2-1.2-0.6-1.6s-1-0.6-1.8-0.6
			s-1.5,0.3-2,0.9s-0.8,1.4-0.8,2.4v2.5c0,1,0.3,1.8,0.8,2.4s1.2,0.9,2.1,0.9c0.6,0,1.2-0.1,1.5-0.2c0.4-0.1,0.7-0.3,0.9-0.5v-2.5
			h-2.5v-1.5h4.5V25.4z"/>
		<path class="st0" d="M121.9,27.1h-2l-5.4-8.7l0,0v8.7h-2V15h2l5.4,8.7l0,0V15h2V27.1z"/>
		<path class="st0" d="M133.9,27.1h-2v-5.2h-5.4v5.2h-2V15h2v5.3h5.4V15h2V27.1z"/>
		<path class="st0" d="M142.9,24.3h-4.3l-0.9,2.8h-2.1l4.2-12.1h1.9l4.2,12.1h-2.1L142.9,24.3z M143.5,13.6v0.2h-1.6l-1.2-1.2
			l-1.2,1.2h-1.6v-0.2l2.2-2h1.2L143.5,13.6z M139.2,22.6h3.2l-1.6-4.8l0,0L139.2,22.6z M141.8,30h-2.2v-1.9h2.2V30z"/>
		<path class="st0" d="M156.8,27.1h-2l-5.4-8.7l0,0v8.7h-2V15h2l5.4,8.7l0,0V15h2V27.1z"/>
		<path class="st0" d="M170,24c0-0.5-0.2-0.9-0.5-1.2c-0.4-0.3-1-0.6-1.9-0.9c-1.3-0.4-2.3-0.8-3-1.4s-1.1-1.3-1.1-2.3
			s0.4-1.8,1.2-2.4s1.8-0.9,3-0.9c1.3,0,2.4,0.3,3.1,1c0.8,0.7,1.2,1.6,1.1,2.6l0,0H170c0-0.6-0.2-1.1-0.6-1.5
			c-0.4-0.4-1-0.6-1.7-0.6s-1.2,0.2-1.6,0.5c-0.4,0.3-0.6,0.7-0.6,1.2s0.2,0.8,0.6,1.1s1.1,0.6,2,0.9c1.3,0.4,2.2,0.8,2.9,1.4
			s1,1.4,1,2.3c0,1-0.4,1.8-1.2,2.4s-1.8,0.9-3.1,0.9c-1.2,0-2.3-0.3-3.2-1s-1.4-1.6-1.3-2.8l0,0h1.9c0,0.7,0.3,1.3,0.8,1.6
			c0.5,0.4,1.1,0.6,1.8,0.6s1.3-0.2,1.7-0.5C169.8,24.9,170,24.5,170,24z"/>
		<path class="st0" d="M180.3,24.3H176l-0.9,2.8H173l4.2-12.1h1.9l4.2,12.1h-2.1L180.3,24.3z M176.6,22.6h3.2l-1.6-4.8l0,0
			L176.6,22.6z M177.5,14l-0.1-1.2c0.4,0,0.7-0.1,0.9-0.2c0.2-0.1,0.3-0.2,0.3-0.4s-0.1-0.4-0.3-0.5s-0.5-0.1-0.9-0.1l0.1-1
			c0.9,0,1.6,0.1,2.1,0.4c0.5,0.3,0.7,0.7,0.7,1.2c0,0.4-0.1,0.7-0.4,0.9s-0.5,0.3-0.9,0.4V14H177.5z"/>
		<path class="st0" d="M194.3,27.1h-2l-5.4-8.7l0,0v8.7h-2V15h2l5.4,8.7l0,0V15h2V27.1z"/>
		<path class="st0" d="M203.1,22.5v4.6h-2V15h4.6c1.3,0,2.4,0.3,3.1,1c0.8,0.7,1.1,1.6,1.1,2.7s-0.4,2-1.1,2.7c-0.8,0.7-1.8,1-3.1,1
			L203.1,22.5L203.1,22.5z M203.1,20.9h2.6c0.7,0,1.3-0.2,1.7-0.6s0.6-0.9,0.6-1.5s-0.2-1.1-0.6-1.5c-0.4-0.4-0.9-0.6-1.7-0.6h-2.6
			V20.9z"/>
		<path class="st0" d="M221.3,27.1h-2v-5.2h-5.4v5.2h-2V15h2v5.3h5.4V15h2V27.1z"/>
		<path class="st0" d="M230.3,24.3H226l-0.9,2.8H223l4.2-12.1h1.9l4.2,12.1h-2.1L230.3,24.3z M229,12h-1.9l-2.3,2.1l0,0h1.7l1.5-1.4
			l1.5,1.4h1.8l0,0L229,12z M226.6,22.6h3.2l-1.6-4.8l0,0L226.6,22.6z M230.9,13.1l-0.1-1c0.4,0,0.6-0.1,0.8-0.1
			c0.2-0.1,0.2-0.2,0.2-0.3c0-0.2-0.1-0.3-0.3-0.4s-0.5-0.1-0.8-0.1l0.1-0.9c0.8,0,1.4,0.1,1.8,0.4c0.4,0.2,0.6,0.6,0.6,1
			c0,0.3-0.1,0.6-0.3,0.7c-0.2,0.2-0.5,0.3-0.8,0.3v0.5L230.9,13.1L230.9,13.1z"/>
		<path class="st0" d="M240.9,24.3L240.9,24.3l3.5-9.3h2.6v12.1h-2v-8.7l0,0l-3.3,8.7h-1.4l-3.4-8.9l0,0V27h-2V15h2.6L240.9,24.3z"
			/>
	</g>
	<g>
		<circle class="st0" cx="20.7" cy="20.7" r="20.7"/>
		<g>
			<path class="st1" d="M20.7,25.6c-4.6,0-8.4-3.8-8.4-8.4s3.8-8.4,8.4-8.4s8.4,3.8,8.4,8.4S25.3,25.6,20.7,25.6z M20.7,12.7
				c-2.5,0-4.5,2-4.5,4.5s2,4.5,4.5,4.5s4.5-2,4.5-4.5S23.2,12.7,20.7,12.7z"/>
			<circle class="st1" cx="20.7" cy="17.2" r="3.2"/>
			<path class="st1" d="M13.3,22.9l-3.7,6.4l3.5,0.4l2.1,2.9l3.7-6.3C16.5,26,14.6,24.8,13.3,22.9z"/>
			<path class="st1" d="M28.1,22.9l3.8,6.4l-3.5,0.4l-2.1,2.9l-3.7-6.3C24.9,26,26.7,24.8,28.1,22.9z"/>
		</g>
	</g>
</g>
</svg>
