<?xml version="1.0" encoding="utf-8"?>
<!-- Generator: Adobe Illustrator 21.0.0, SVG Export Plug-In . SVG Version: 6.00 Build 0)  -->
<svg version="1.1" id="Layer_1" xmlns="http://www.w3.org/2000/svg" xmlns:xlink="http://www.w3.org/1999/xlink" x="0px" y="0px"
	 width="220px" height="28px" viewBox="0 0 220 28" style="enable-background:new 0 0 220 28;" xml:space="preserve">
<style type="text/css">
	.st0{fill:#242424;}
	.st1{fill:#FFFFFF;}
</style>
<g>
	<rect class="st0" width="220" height="28"/>
	<g>
		<path class="st1" d="M36.2,17.1L36.2,17.1c0,1.1-0.3,2-1,2.6c-0.7,0.7-1.7,1-2.9,1s-2.2-0.4-3-1.3c-0.8-0.8-1.2-1.9-1.2-3.2v-2
			c0-1.3,0.4-2.4,1.1-3.2c0.8-0.8,1.8-1.3,3-1.3c1.3,0,2.2,0.3,3,1c0.7,0.6,1.1,1.5,1.1,2.6l0,0h-1.7c0-0.7-0.2-1.3-0.6-1.6
			c-0.4-0.4-1-0.6-1.7-0.6S31,11.4,30.6,12S30,13.3,30,14.2v2c0,0.9,0.2,1.6,0.6,2.2s1,0.9,1.8,0.9c0.7,0,1.3-0.2,1.7-0.6
			s0.6-0.9,0.6-1.6H36.2z"/>
		<path class="st1" d="M46.3,16.2c0,1.3-0.4,2.4-1.2,3.2c-0.8,0.9-1.9,1.3-3.2,1.3s-2.3-0.4-3.1-1.3s-1.2-1.9-1.2-3.2v-1.9
			c0-1.3,0.4-2.4,1.2-3.2c0.8-0.9,1.8-1.3,3.1-1.3s2.4,0.4,3.2,1.3s1.2,1.9,1.2,3.2V16.2z M44.5,14.3c0-0.9-0.2-1.6-0.7-2.2
			s-1.1-0.9-1.9-0.9c-0.8,0-1.4,0.3-1.9,0.9c-0.5,0.6-0.7,1.3-0.7,2.2v1.9c0,0.9,0.2,1.6,0.7,2.2s1.1,0.9,1.9,0.9
			c0.8,0,1.5-0.3,1.9-0.9s0.7-1.3,0.7-2.2V14.3z M44.4,8.5v0.2H43l-1-1l-1,1h-1.4V8.5l1.9-1.8h1L44.4,8.5z"/>
		<path class="st1" d="M56.5,20.6h-1.8L50,12.9l0,0v7.7h-1.8V9.9H50l4.7,7.7l0,0V9.9h1.8V20.6z"/>
		<path class="st1" d="M66.7,19.1c-0.3,0.4-0.8,0.8-1.4,1.1c-0.6,0.3-1.5,0.5-2.5,0.5c-1.3,0-2.3-0.4-3.1-1.2
			c-0.8-0.8-1.2-1.9-1.2-3.2v-2.2c0-1.3,0.4-2.3,1.2-3.2c0.8-0.8,1.8-1.2,3-1.2s2.2,0.3,2.9,0.9s1,1.4,1,2.4l0,0h-1.7
			c0-0.6-0.2-1.1-0.6-1.5S63.4,11,62.7,11s-1.3,0.3-1.8,0.8s-0.7,1.3-0.7,2.1v2.2c0,0.9,0.2,1.6,0.7,2.1c0.5,0.6,1.1,0.8,1.8,0.8
			c0.6,0,1-0.1,1.4-0.2c0.3-0.1,0.6-0.3,0.8-0.5v-2.2h-2.2v-1.3h4V19.1L66.7,19.1z"/>
		<path class="st1" d="M72.6,20.6V9.9h3.5c1.4,0,2.5,0.4,3.3,1.3c0.8,0.8,1.3,1.9,1.3,3.3V16c0,1.3-0.4,2.4-1.3,3.3
			c-0.8,0.8-1.9,1.3-3.3,1.3C76.1,20.6,72.6,20.6,72.6,20.6z M74.4,11.3v7.8h1.7c0.9,0,1.5-0.3,2-0.9s0.8-1.3,0.8-2.2v-1.6
			c0-0.9-0.3-1.6-0.8-2.2c-0.5-0.6-1.2-0.9-2-0.9H74.4z"/>
		<path class="st1" d="M90.8,9.9v7c0,1.2-0.4,2.1-1.2,2.8c-0.8,0.7-1.8,1-3,1s-2.2-0.3-3-1s-1.1-1.6-1.1-2.8v-7h1.8v7
			c0,0.8,0.2,1.3,0.6,1.8c0.4,0.4,1,0.6,1.7,0.6s1.3-0.2,1.7-0.6c0.4-0.4,0.7-1,0.7-1.8v-7H90.8z M87.6,23.2h-2v-1.6h2V23.2z"/>
		<path class="st1" d="M101.2,20.6h-1.8l-4.7-7.7l0,0v7.7h-1.8V9.9h1.8l4.7,7.7l0,0V9.9h1.8V20.6z"/>
		<path class="st1" d="M111.3,19.1c-0.3,0.4-0.8,0.8-1.4,1.1c-0.6,0.3-1.5,0.5-2.5,0.5c-1.3,0-2.3-0.4-3.1-1.2
			c-0.8-0.8-1.2-1.9-1.2-3.2v-2.2c0-1.3,0.4-2.3,1.2-3.2c0.8-0.8,1.8-1.2,3-1.2s2.2,0.3,2.9,0.9s1,1.4,1,2.4l0,0h-1.7
			c0-0.6-0.2-1.1-0.6-1.5S108,11,107.3,11s-1.3,0.3-1.8,0.8s-0.7,1.3-0.7,2.1v2.2c0,0.9,0.2,1.6,0.7,2.1c0.5,0.6,1.1,0.8,1.8,0.8
			c0.6,0,1-0.1,1.4-0.2c0.3-0.1,0.6-0.3,0.8-0.5v-2.2h-2.2v-1.3h4L111.3,19.1L111.3,19.1z"/>
	</g>
	<g>
		<path class="st1" d="M14,21.5c3.6,0,6.5-2.9,6.5-6.5S17.6,8.5,14,8.5S7.5,11.4,7.5,15S10.4,21.5,14,21.5z M14,20.1
			c-2.8,0-5.1-2.3-5.1-5.1s2.3-5.1,5.1-5.1s5.1,2.3,5.1,5.1S16.8,20.1,14,20.1z M14.2,16.3v1.6l2.7-2.9l-2.7-2.9v1.6h-2.9v2.6
			C11.3,16.3,14.2,16.3,14.2,16.3z"/>
	</g>
</g>
</svg>
