<?xml version="1.0" encoding="utf-8"?>
<!-- Generator: Adobe Illustrator 21.0.0, SVG Export Plug-In . SVG Version: 6.00 Build 0)  -->
<svg version="1.1" id="Layer_1" xmlns="http://www.w3.org/2000/svg" xmlns:xlink="http://www.w3.org/1999/xlink" x="0px" y="0px"
	 width="220px" height="28px" viewBox="0 0 220 28" style="enable-background:new 0 0 220 28;" xml:space="preserve">
<style type="text/css">
	.st0{fill:#242424;}
	.st1{fill:#FFFFFF;}
</style>
<g>
	<rect class="st0" width="220" height="28"/>
	<g>
		<path class="st1" d="M28.2,20.4v-4.8H27v-1.2h1.1V9.7h3.5c1.4,0,2.5,0.4,3.3,1.3c0.8,0.8,1.3,1.9,1.3,3.3v1.6
			c0,1.3-0.4,2.4-1.3,3.3c-0.8,0.8-1.9,1.3-3.3,1.3h-3.4C28.2,20.5,28.2,20.4,28.2,20.4z M31.8,15.5h-1.9v3.4h1.7
			c0.9,0,1.5-0.3,2-0.9s0.8-1.3,0.8-2.2v-1.6c0-0.9-0.3-1.6-0.8-2.2s-1.2-0.9-2-0.9h-1.7v3.2h1.9C31.8,14.3,31.8,15.5,31.8,15.5z"/>
		<path class="st1" d="M46.6,16c0,1.3-0.4,2.4-1.2,3.2s-1.9,1.3-3.2,1.3s-2.3-0.4-3.1-1.3s-1.2-1.9-1.2-3.2v-1.9
			c0-1.3,0.4-2.4,1.2-3.2c0.8-0.9,1.8-1.3,3.1-1.3s2.4,0.4,3.2,1.3s1.2,1.9,1.2,3.2V16z M41.5,6.6H43l2.1,1.9l0,0h-1.7l-1.2-1.1
			L41,8.6h-1.7l0,0L41.5,6.6z M44.8,14.1c0-0.9-0.2-1.6-0.7-2.2C43.6,11.3,43,11,42.2,11s-1.4,0.3-1.9,0.9c-0.5,0.6-0.7,1.3-0.7,2.2
			V16c0,0.9,0.2,1.6,0.7,2.2s1.1,0.9,1.9,0.9c0.8,0,1.5-0.3,1.9-0.9s0.7-1.3,0.7-2.2C44.8,16,44.8,14.1,44.8,14.1z M45.6,5.3h1.8
			l-1.5,2h-1.3L45.6,5.3z"/>
		<path class="st1" d="M50.4,20.4h-1.8V9.7h1.8V20.4z"/>
		<path class="st1" d="M64,11.1h-3.3v9.2h-1.8v-9.2h-3.2V9.7H64V11.1z"/>
		<path class="st1" d="M73.5,9.7V11l0,0c0.4-0.1,0.7-0.4,0.9-0.8s0.3-0.9,0.3-1.6h1.5c0,1-0.2,1.9-0.7,2.5s-1.2,1-2.1,1.2v4.4
			c0,1.2-0.4,2.1-1.2,2.8c-0.8,0.7-1.8,1-3,1s-2.2-0.3-3-1s-1.1-1.6-1.1-2.8v-7H67v7c0,0.8,0.2,1.3,0.6,1.8c0.4,0.4,1,0.6,1.7,0.6
			s1.3-0.2,1.7-0.6c0.4-0.4,0.7-1,0.7-1.8v-7C71.7,9.7,73.5,9.7,73.5,9.7z"/>
		<path class="st1" d="M84.3,16c0,1.3-0.4,2.4-1.2,3.2c-0.8,0.9-1.9,1.3-3.2,1.3c-1.3,0-2.3-0.4-3.1-1.3s-1.2-1.9-1.2-3.2v-1.9
			c0-1.3,0.4-2.4,1.2-3.2c0.8-0.9,1.8-1.3,3.1-1.3c0.6,0,1.2,0.1,1.7,0.3s1,0.5,1.4,0.9c0.5-0.1,1-0.3,1.2-0.8
			c0.3-0.4,0.4-0.9,0.4-1.6h1.5c0,0.9-0.2,1.7-0.6,2.3s-1,1-1.7,1.2c0.1,0.3,0.3,0.7,0.3,1c0.1,0.4,0.1,0.7,0.1,1.1L84.3,16L84.3,16
			z M82.5,14.1c0-0.9-0.2-1.6-0.7-2.2c-0.5-0.6-1.1-0.9-1.9-0.9s-1.4,0.3-1.9,0.9c-0.5,0.6-0.7,1.3-0.7,2.2V16
			c0,0.9,0.2,1.6,0.7,2.2s1.1,0.9,1.9,0.9s1.5-0.3,1.9-0.9c0.5-0.6,0.7-1.3,0.7-2.2V14.1z M80.9,22.9h-2v-1.6h2V22.9z"/>
		<path class="st1" d="M94.6,20.4h-1.8l-4.7-7.7l0,0v7.7h-1.8V9.7h1.8l4.7,7.7l0,0V9.7h1.8V20.4z"/>
		<path class="st1" d="M104.8,18.9c-0.3,0.4-0.8,0.8-1.4,1.1c-0.6,0.3-1.5,0.5-2.5,0.5c-1.3,0-2.3-0.4-3.1-1.2
			c-0.8-0.8-1.2-1.9-1.2-3.2v-2.2c0-1.3,0.4-2.3,1.2-3.2s1.8-1.2,3-1.2s2.2,0.3,2.9,0.9s1,1.4,1,2.4l0,0H103c0-0.6-0.2-1.1-0.6-1.5
			s-0.9-0.5-1.6-0.5s-1.3,0.3-1.8,0.8s-0.7,1.3-0.7,2.1v2.2c0,0.9,0.2,1.6,0.7,2.1s1.1,0.8,1.8,0.8c0.6,0,1-0.1,1.4-0.2
			c0.3-0.1,0.6-0.3,0.8-0.5v-2.2h-2.2v-1.3h4C104.8,14.6,104.8,18.9,104.8,18.9z"/>
		<path class="st1" d="M116.3,17.6c0-0.4-0.2-0.8-0.5-1.1c-0.3-0.3-0.9-0.5-1.7-0.8c-1.1-0.3-2-0.7-2.7-1.2c-0.6-0.5-0.9-1.2-0.9-2
			c0-0.9,0.3-1.6,1-2.1s1.6-0.8,2.6-0.8c1.2,0,2.1,0.3,2.8,0.9c0.7,0.6,1,1.4,1,2.3l0,0h-1.7c0-0.6-0.2-1-0.6-1.3s-0.9-0.5-1.5-0.5
			s-1.1,0.1-1.4,0.4s-0.5,0.6-0.5,1.1c0,0.4,0.2,0.7,0.5,1c0.4,0.3,0.9,0.5,1.8,0.8c1.1,0.3,2,0.7,2.6,1.3c0.6,0.5,0.9,1.2,0.9,2.1
			s-0.3,1.6-1,2.1s-1.6,0.8-2.7,0.8s-2-0.3-2.8-0.9s-1.2-1.4-1.2-2.4l0,0h1.7c0,0.6,0.2,1.1,0.7,1.4s1,0.5,1.6,0.5s1.1-0.1,1.5-0.4
			C116.1,18.4,116.3,18.1,116.3,17.6z"/>
		<path class="st1" d="M128,9.7V11l0,0c0.4-0.1,0.7-0.4,0.9-0.8s0.3-0.9,0.3-1.6h1.5c0,1-0.2,1.9-0.7,2.5s-1.2,1-2.1,1.2v4.4
			c0,1.2-0.4,2.1-1.2,2.8c-0.8,0.7-1.8,1-3,1s-2.2-0.3-3-1s-1.1-1.6-1.1-2.8v-7h1.8v7c0,0.8,0.2,1.3,0.6,1.8c0.4,0.4,1,0.6,1.7,0.6
			s1.3-0.2,1.7-0.6c0.4-0.4,0.7-1,0.7-1.8v-7C126.1,9.7,128,9.7,128,9.7z M123.3,8.8l-0.1-1.1c0.4,0,0.6-0.1,0.8-0.1
			c0.2-0.1,0.2-0.2,0.2-0.4c0-0.2-0.1-0.3-0.3-0.4s-0.5-0.1-0.8-0.1l0.1-0.9c0.8,0,1.4,0.1,1.8,0.4s0.6,0.6,0.6,1
			c0,0.3-0.1,0.6-0.3,0.8s-0.5,0.3-0.8,0.3v0.5H123.3z"/>
		<path class="st1" d="M134.2,20.4V9.7h3.5c1.4,0,2.5,0.4,3.3,1.3c0.8,0.8,1.3,1.9,1.3,3.3v1.6c0,1.3-0.4,2.4-1.3,3.3
			c-0.8,0.8-1.9,1.3-3.3,1.3h-3.5V20.4z M136,11.1v7.8h1.7c0.9,0,1.5-0.3,2-0.9s0.8-1.3,0.8-2.2v-1.6c0-0.9-0.3-1.6-0.8-2.2
			s-1.2-0.9-2-0.9C137.7,11.1,136,11.1,136,11.1z"/>
		<path class="st1" d="M152.4,9.7v7c0,1.2-0.4,2.1-1.2,2.8c-0.8,0.7-1.8,1-3,1s-2.2-0.3-3-1s-1.1-1.6-1.1-2.8v-7h1.8v7
			c0,0.8,0.2,1.3,0.6,1.8c0.4,0.4,1,0.6,1.7,0.6s1.3-0.2,1.7-0.6s0.7-1,0.7-1.8v-7C150.6,9.7,152.4,9.7,152.4,9.7z M149.3,23h-2
			v-1.6h2V23z"/>
		<path class="st1" d="M162.8,20.4H161l-4.7-7.7l0,0v7.7h-1.8V9.7h1.8l4.7,7.7l0,0V9.7h1.8V20.4z"/>
		<path class="st1" d="M173,18.9c-0.3,0.4-0.8,0.8-1.4,1.1c-0.6,0.3-1.5,0.5-2.5,0.5c-1.3,0-2.3-0.4-3.1-1.2
			c-0.8-0.8-1.2-1.9-1.2-3.2v-2.2c0-1.3,0.4-2.3,1.2-3.2s1.8-1.2,3-1.2s2.2,0.3,2.9,0.9s1,1.4,1,2.4l0,0h-1.7c0-0.6-0.2-1.1-0.6-1.5
			c-0.4-0.4-0.9-0.5-1.6-0.5c-0.7,0-1.3,0.3-1.8,0.8s-0.7,1.3-0.7,2.1v2.2c0,0.9,0.2,1.6,0.7,2.1s1.1,0.8,1.8,0.8
			c0.6,0,1-0.1,1.4-0.2c0.3-0.1,0.6-0.3,0.8-0.5v-2.2H169v-1.3h4V18.9z"/>
	</g>
	<g>
		<path class="st1" d="M13.8,21.3c3.6,0,6.5-2.9,6.5-6.5s-2.9-6.5-6.5-6.5s-6.5,2.9-6.5,6.5C7.2,18.4,10.2,21.3,13.8,21.3z
			 M13.8,19.9c-2.8,0-5.1-2.3-5.1-5.1s2.3-5.1,5.1-5.1s5.1,2.3,5.1,5.1C18.9,17.6,16.6,19.9,13.8,19.9z M13.9,16.1v1.6l2.7-2.9
			l-2.7-2.9v1.6H11v2.6C11,16.1,13.9,16.1,13.9,16.1z"/>
	</g>
</g>
</svg>
