<?xml version="1.0" encoding="utf-8"?>
<!-- Generator: Adobe Illustrator 21.0.0, SVG Export Plug-In . SVG Version: 6.00 Build 0)  -->
<svg version="1.1" id="Layer_1" xmlns="http://www.w3.org/2000/svg" xmlns:xlink="http://www.w3.org/1999/xlink" x="0px" y="0px"
	 width="220px" height="28px" viewBox="0 0 220 28" style="enable-background:new 0 0 220 28;" xml:space="preserve">
<style type="text/css">
	.st0{fill:#242424;}
	.st1{fill:#FFFFFF;}
</style>
<g>
	<rect class="st0" width="220" height="28"/>
	<g>
		<path class="st1" d="M36.6,16.2c0,0.5-0.1,1.1-0.2,1.5c-0.2,0.5-0.4,0.9-0.7,1.3l1.6,1.6l-1.2,1.1l-1.6-1.6
			c-0.3,0.2-0.7,0.4-1.1,0.5s-0.8,0.2-1.2,0.2c-1.3,0-2.3-0.4-3.1-1.3c-0.8-0.9-1.2-1.9-1.2-3.2v-1.9c0-1.3,0.4-2.4,1.2-3.2
			c0.8-0.9,1.8-1.3,3.1-1.3c1.3,0,2.4,0.4,3.2,1.3s1.2,1.9,1.2,3.2V16.2z M34.8,14.3c0-0.9-0.2-1.6-0.7-2.2s-1.1-0.9-1.9-0.9
			c-0.8,0-1.4,0.3-1.9,0.9c-0.5,0.6-0.7,1.3-0.7,2.2v1.9c0,0.9,0.2,1.6,0.7,2.2s1.1,0.9,1.9,0.9s1.5-0.3,1.9-0.9s0.7-1.3,0.7-2.2
			V14.3z"/>
		<path class="st1" d="M46.8,9.9v7c0,1.2-0.4,2.1-1.2,2.8c-0.8,0.7-1.8,1-3,1s-2.2-0.3-3-1s-1.1-1.6-1.1-2.8v-7h1.8v7
			c0,0.8,0.2,1.3,0.6,1.8c0.4,0.4,1,0.6,1.7,0.6s1.3-0.2,1.7-0.6s0.7-1,0.7-1.8v-7H46.8z"/>
		<path class="st1" d="M52.5,15.1l2.6-5.2h2l-3.7,6.9v3.7h-1.8v-3.8L48,9.9h2L52.5,15.1z"/>
		<path class="st1" d="M70,17.1L70,17.1c0,1.1-0.3,2-1,2.6c-0.7,0.7-1.7,1-2.9,1c-1.2,0-2.2-0.4-3-1.3c-0.8-0.8-1.2-1.9-1.2-3.2v-2
			c0-1.3,0.4-2.4,1.1-3.2c0.8-0.8,1.8-1.3,3-1.3c1.3,0,2.2,0.3,3,1c0.7,0.6,1.1,1.5,1.1,2.6l0,0h-1.7c0-0.7-0.2-1.3-0.6-1.6
			c-0.4-0.4-1-0.6-1.7-0.6s-1.3,0.3-1.7,0.9c-0.4,0.6-0.6,1.3-0.6,2.2v2c0,0.9,0.2,1.6,0.6,2.2s1,0.9,1.8,0.9c0.7,0,1.3-0.2,1.7-0.6
			s0.6-0.9,0.6-1.6H70z"/>
		<path class="st1" d="M77.2,18.1h-3.8l-0.8,2.5h-1.8l3.7-10.7h1.7l3.7,10.7H78L77.2,18.1z M73.9,16.6h2.8l-1.4-4.2l0,0L73.9,16.6z
			 M75.9,6.9h2l0,0l-2,1.9h-1.4L75.9,6.9z"/>
		<path class="st1" d="M88.9,17.1L88.9,17.1c0,1.1-0.3,2-1,2.6c-0.7,0.7-1.7,1-2.9,1c-1.2,0-2.2-0.4-3-1.3c-0.8-0.8-1.2-1.9-1.2-3.2
			v-2c0-1.3,0.4-2.4,1.1-3.2c0.8-0.8,1.8-1.3,3-1.3c1.3,0,2.2,0.3,3,1c0.7,0.6,1.1,1.5,1.1,2.6l0,0h-1.7c0-0.7-0.2-1.3-0.6-1.6
			c-0.4-0.4-1-0.6-1.7-0.6s-1.3,0.3-1.7,0.9c-0.4,0.6-0.6,1.3-0.6,2.2v2c0,0.9,0.2,1.6,0.6,2.2s1,0.9,1.8,0.9c0.7,0,1.3-0.2,1.7-0.6
			s0.6-0.9,0.6-1.6H88.9z"/>
		<path class="st1" d="M99,20.6h-1.8V16h-4.8v4.5h-1.8V9.9h1.8v4.7h4.8V9.9H99V20.6z"/>
		<path class="st1" d="M105,20.6v-4.8h-1.1v-1.2h1.1V9.9h3.5c1.4,0,2.5,0.4,3.3,1.3c0.8,0.8,1.3,1.9,1.3,3.3V16
			c0,1.3-0.4,2.4-1.3,3.3c-0.8,0.8-1.9,1.3-3.3,1.3C108.5,20.6,105,20.6,105,20.6z M108.6,15.7h-1.9v3.4h1.7c0.9,0,1.5-0.3,2-0.9
			s0.8-1.3,0.8-2.2v-1.6c0-0.9-0.3-1.6-0.8-2.2c-0.5-0.6-1.2-0.9-2-0.9h-1.7v3.2h1.9V15.7z"/>
		<path class="st1" d="M123.4,16.2c0,1.3-0.4,2.4-1.2,3.2c-0.8,0.9-1.9,1.3-3.2,1.3c-1.3,0-2.3-0.4-3.1-1.3
			c-0.8-0.9-1.2-1.9-1.2-3.2v-1.9c0-1.3,0.4-2.4,1.2-3.2c0.8-0.9,1.8-1.3,3.1-1.3c1.3,0,2.4,0.4,3.2,1.3s1.2,1.9,1.2,3.2V16.2z
			 M121.6,14.3c0-0.9-0.2-1.6-0.7-2.2s-1.1-0.9-1.9-0.9s-1.4,0.3-1.9,0.9c-0.5,0.6-0.7,1.3-0.7,2.2v1.9c0,0.9,0.2,1.6,0.7,2.2
			s1.1,0.9,1.9,0.9s1.5-0.3,1.9-0.9s0.7-1.3,0.7-2.2V14.3z M119.6,6.7h2l0,0l-2,1.9h-1.4L119.6,6.7z"/>
		<path class="st1" d="M133.6,20.6h-1.8l-4.7-7.7l0,0v7.7h-1.8V9.9h1.8l4.7,7.7l0,0V9.9h1.8V20.6z"/>
		<path class="st1" d="M143.7,19.1c-0.3,0.4-0.8,0.8-1.4,1.1c-0.6,0.3-1.5,0.5-2.5,0.5c-1.3,0-2.3-0.4-3.1-1.2
			c-0.8-0.8-1.2-1.9-1.2-3.2v-2.2c0-1.3,0.4-2.3,1.2-3.2c0.8-0.8,1.8-1.2,3-1.2s2.2,0.3,2.9,0.9s1,1.4,1,2.4l0,0h-1.7
			c0-0.6-0.2-1.1-0.6-1.5c-0.4-0.4-0.9-0.5-1.6-0.5c-0.7,0-1.3,0.3-1.8,0.8s-0.7,1.3-0.7,2.1v2.2c0,0.9,0.2,1.6,0.7,2.1
			c0.5,0.6,1.1,0.8,1.8,0.8c0.6,0,1-0.1,1.4-0.2c0.3-0.1,0.6-0.3,0.8-0.5v-2.2h-2.2v-1.3h4L143.7,19.1L143.7,19.1z"/>
		<path class="st1" d="M157.6,19.1c-0.3,0.4-0.8,0.8-1.4,1.1c-0.6,0.3-1.5,0.5-2.5,0.5c-1.3,0-2.3-0.4-3.1-1.2
			c-0.8-0.8-1.2-1.9-1.2-3.2v-2.2c0-1.3,0.4-2.3,1.2-3.2c0.8-0.8,1.8-1.2,3-1.2s2.2,0.3,2.9,0.9s1,1.4,1,2.4l0,0h-1.7
			c0-0.6-0.2-1.1-0.6-1.5c-0.4-0.4-0.9-0.5-1.6-0.5c-0.7,0-1.3,0.3-1.8,0.8s-0.7,1.3-0.7,2.1v2.2c0,0.9,0.2,1.6,0.7,2.1
			c0.5,0.6,1.1,0.8,1.8,0.8c0.6,0,1-0.1,1.4-0.2c0.3-0.1,0.6-0.3,0.8-0.5v-2.2h-2.2v-1.3h4L157.6,19.1L157.6,19.1z"/>
		<path class="st1" d="M168.1,16.2c0,1.3-0.4,2.4-1.2,3.2c-0.8,0.9-1.9,1.3-3.2,1.3s-2.3-0.4-3.1-1.3s-1.2-1.9-1.2-3.2v-1.9
			c0-1.3,0.4-2.4,1.2-3.2c0.8-0.9,1.8-1.3,3.1-1.3s2.4,0.4,3.2,1.3s1.2,1.9,1.2,3.2V16.2z M166.3,14.3c0-0.9-0.2-1.6-0.7-2.2
			s-1.1-0.9-1.9-0.9c-0.8,0-1.4,0.3-1.9,0.9c-0.5,0.6-0.7,1.3-0.7,2.2v1.9c0,0.9,0.2,1.6,0.7,2.2s1.1,0.9,1.9,0.9
			c0.8,0,1.5-0.3,1.9-0.9s0.7-1.3,0.7-2.2V14.3z M164.3,6.7h2l0,0l-2,1.9h-1.4L164.3,6.7z"/>
		<path class="st1" d="M171.9,20.6h-1.8V9.9h1.8V20.6z"/>
	</g>
	<g>
		<path class="st1" d="M13.8,21.5c3.6,0,6.5-2.9,6.5-6.5s-2.9-6.5-6.5-6.5S7.3,11.4,7.3,15C7.2,18.6,10.2,21.5,13.8,21.5z
			 M13.8,20.1c-2.8,0-5.1-2.3-5.1-5.1s2.3-5.1,5.1-5.1s5.1,2.3,5.1,5.1C18.9,17.8,16.6,20.1,13.8,20.1z M13.9,16.3v1.6l2.7-2.9
			l-2.7-2.9v1.6H11v2.6C11,16.3,13.9,16.3,13.9,16.3z"/>
	</g>
</g>
</svg>
