<?xml version="1.0" encoding="utf-8"?>
<!-- Generator: Adobe Illustrator 21.0.0, SVG Export Plug-In . SVG Version: 6.00 Build 0)  -->
<svg version="1.1" id="Layer_1" xmlns="http://www.w3.org/2000/svg" xmlns:xlink="http://www.w3.org/1999/xlink" x="0px" y="0px"
	 width="220px" height="28px" viewBox="0 0 220 28" style="enable-background:new 0 0 220 28;" xml:space="preserve">
<style type="text/css">
	.st0{fill:#242424;}
	.st1{fill:#FFFFFF;}
</style>
<g>
	<rect class="st0" width="220" height="28"/>
	<g>
		<path class="st1" d="M36,11.3h-3.3v9.2h-1.8v-9.2h-3.2V9.9H36V11.3z"/>
		<path class="st1" d="M45.7,20.6h-1.8V16h-4.8v4.5h-1.8V9.9h1.8v4.7h4.8V9.9h1.8V20.6z"/>
		<path class="st1" d="M53.6,18.1h-3.8L49,20.6h-1.8l3.7-10.7h1.7l3.7,10.7h-1.8L53.6,18.1z M52.5,8.8H51l-1.9-1.9l0,0h2L52.5,8.8z
			 M50.3,16.6h2.8l-1.4-4.2l0,0L50.3,16.6z"/>
		<path class="st1" d="M65.9,20.6h-1.8l-4.7-7.7l0,0v7.7h-1.8V9.9h1.8l4.7,7.7l0,0V9.9h1.8V20.6z"/>
		<path class="st1" d="M76.5,20.6h-1.8V16h-4.8v4.5h-1.8V9.9h1.8v4.7h4.8V9.9h1.8V20.6z"/>
		<path class="st1" d="M84.2,16.5v4h-1.8V9.9h4.1c1.2,0,2.1,0.3,2.8,0.9c0.7,0.6,1,1.4,1,2.4s-0.3,1.8-1,2.4
			c-0.7,0.6-1.6,0.9-2.8,0.9C86.5,16.5,84.2,16.5,84.2,16.5z M84.2,15.1h2.3c0.7,0,1.2-0.2,1.5-0.5s0.5-0.8,0.5-1.3s-0.2-1-0.5-1.4
			s-0.8-0.5-1.5-0.5h-2.3V15.1z"/>
		<path class="st1" d="M100.3,20.6h-1.8V16h-4.8v4.5H92V9.9h1.8v4.7h4.8V9.9h1.8v10.7C100.4,20.6,100.3,20.6,100.3,20.6z"/>
		<path class="st1" d="M104,7.7h-1.3l-1.5-2h1.8L104,7.7z M108.2,18.1h-3.8l-0.8,2.5h-1.8l3.7-10.7h1.7l3.7,10.7H109L108.2,18.1z
			 M109.2,9L109.2,9h-1.7l-1.2-1.1L105.2,9h-1.7l0,0l2.1-1.9h1.4L109.2,9z M104.9,16.6h2.8l-1.4-4.2l0,0L104.9,16.6z"/>
		<path class="st1" d="M120.5,20.6h-1.8l-4.7-7.7l0,0v7.7h-1.8V9.9h1.8l4.7,7.7l0,0V9.9h1.8V20.6z"/>
	</g>
	<g>
		<path class="st1" d="M14.1,21.8c3.6,0,6.5-2.9,6.5-6.5s-2.9-6.5-6.5-6.5s-6.5,2.9-6.5,6.5C7.6,18.8,10.5,21.8,14.1,21.8z
			 M14.1,20.3C11.3,20.3,9,18,9,15.2s2.3-5.1,5.1-5.1s5.1,2.3,5.1,5.1C19.2,18.1,17,20.3,14.1,20.3z M14.3,16.5v1.6l2.7-2.9
			l-2.7-2.9v1.6h-2.9v2.6C11.4,16.5,14.3,16.5,14.3,16.5z"/>
	</g>
</g>
</svg>
