<?xml version="1.0" encoding="utf-8"?>
<!-- Generator: Adobe Illustrator 21.0.0, SVG Export Plug-In . SVG Version: 6.00 Build 0)  -->
<svg version="1.1" id="Layer_1" xmlns="http://www.w3.org/2000/svg" xmlns:xlink="http://www.w3.org/1999/xlink" x="0px" y="0px"
	 width="440.6px" height="28px" viewBox="0 0 440.6 28" style="enable-background:new 0 0 440.6 28;" xml:space="preserve">
<style type="text/css">
	.st0{fill:#A11E60;}
	.st1{fill:#FFFFFF;}
</style>
<rect class="st0" width="440.6" height="28"/>
<g>
	<path class="st1" d="M190,18.1h4.7v1.8h-6.9V9.1h2.2V18.1z"/>
	<path class="st1" d="M204.3,14.7c0,1.1-0.2,2-0.6,2.8c-0.4,0.8-0.9,1.4-1.6,1.8c-0.7,0.4-1.5,0.6-2.4,0.6s-1.7-0.2-2.4-0.6
		s-1.2-1-1.6-1.8c-0.4-0.8-0.6-1.7-0.6-2.7v-0.5c0-1.1,0.2-2,0.6-2.8c0.4-0.8,0.9-1.4,1.6-1.8c0.7-0.4,1.5-0.6,2.4-0.6
		s1.7,0.2,2.4,0.6s1.2,1,1.6,1.8c0.4,0.8,0.6,1.7,0.6,2.8V14.7z M199.2,6.9h1.2l2.1,1.7h-1.6l-1.1-0.9l-1.1,0.9h-1.6L199.2,6.9z
		 M202.1,14.3c0-1.1-0.2-2-0.6-2.6c-0.4-0.6-1-0.9-1.7-0.9s-1.3,0.3-1.7,0.9c-0.4,0.6-0.6,1.4-0.6,2.5v0.5c0,1.1,0.2,1.9,0.6,2.5
		c0.4,0.6,1,0.9,1.7,0.9s1.3-0.3,1.7-0.9s0.6-1.4,0.6-2.5V14.3z M203.1,5.6h1.7l-1.7,2h-1.2L203.1,5.6z"/>
	<path class="st1" d="M208.3,19.9h-2.2V9.1h2.2V19.9z"/>
	<path class="st1" d="M219.6,17.1c0-0.4-0.1-0.7-0.4-1c-0.3-0.2-0.8-0.5-1.6-0.7s-1.4-0.5-1.8-0.7c-1.2-0.7-1.8-1.5-1.8-2.7
		c0-0.6,0.2-1.1,0.5-1.5s0.8-0.8,1.4-1.1c0.6-0.3,1.3-0.4,2.1-0.4s1.4,0.1,2,0.4c0.6,0.3,1.1,0.7,1.4,1.2s0.5,1.1,0.5,1.7h-2.2
		c0-0.5-0.2-0.9-0.5-1.1c-0.3-0.3-0.7-0.4-1.3-0.4c-0.5,0-1,0.1-1.3,0.3s-0.4,0.5-0.4,0.9c0,0.3,0.2,0.6,0.5,0.9s0.9,0.5,1.6,0.7
		c1.3,0.4,2.2,0.8,2.7,1.4c0.6,0.6,0.9,1.3,0.9,2.1c0,0.9-0.4,1.7-1.1,2.2c-0.7,0.5-1.6,0.8-2.8,0.8c-0.8,0-1.6-0.2-2.3-0.5
		s-1.2-0.7-1.6-1.2c-0.4-0.5-0.5-1.1-0.5-1.8h2.2c0,1.2,0.7,1.8,2.1,1.8c0.5,0,0.9-0.1,1.2-0.3C219.5,17.7,219.6,17.4,219.6,17.1z"
		/>
	<path class="st1" d="M232.2,14.7c0,1.1-0.2,2-0.6,2.8s-0.9,1.4-1.6,1.8c-0.7,0.4-1.5,0.6-2.4,0.6s-1.7-0.2-2.4-0.6s-1.2-1-1.6-1.8
		c-0.4-0.8-0.6-1.7-0.6-2.7v-0.5c0-1.1,0.2-2,0.6-2.8c0.4-0.8,0.9-1.4,1.6-1.8c0.7-0.4,1.5-0.6,2.4-0.6s1.7,0.2,2.4,0.6
		c0.7,0.4,1.2,1,1.6,1.8c0.4,0.8,0.6,1.7,0.6,2.8V14.7z M227,6.9h1.2l2.1,1.7h-1.6l-1.1-0.9l-1.1,0.9h-1.6L227,6.9z M229.9,14.3
		c0-1.1-0.2-2-0.6-2.6c-0.4-0.6-1-0.9-1.7-0.9s-1.3,0.3-1.7,0.9s-0.6,1.4-0.6,2.5v0.5c0,1.1,0.2,1.9,0.6,2.5c0.4,0.6,1,0.9,1.7,0.9
		s1.3-0.3,1.7-0.9s0.6-1.4,0.6-2.5V14.3z M230.9,5.6h1.7l-1.7,2h-1.2L230.9,5.6z"/>
	<path class="st1" d="M242.5,19.9h-2.2l-4.3-7.1v7.1h-2.2V9.1h2.2l4.3,7.1V9.1h2.2V19.9z"/>
	<path class="st1" d="M252.9,18.5c-0.4,0.5-1,0.8-1.7,1.1c-0.7,0.3-1.5,0.4-2.4,0.4s-1.7-0.2-2.4-0.6s-1.2-1-1.6-1.8
		c-0.4-0.8-0.6-1.7-0.6-2.7v-0.7c0-1.1,0.2-2,0.5-2.8c0.4-0.8,0.9-1.4,1.6-1.8s1.5-0.6,2.4-0.6c1.3,0,2.3,0.3,3,0.9s1.1,1.5,1.3,2.6
		h-2.2c-0.1-0.6-0.3-1.1-0.7-1.3c-0.3-0.3-0.8-0.4-1.4-0.4c-0.8,0-1.3,0.3-1.7,0.8s-0.6,1.4-0.6,2.5v0.7c0,1.1,0.2,2,0.6,2.5
		s1.1,0.9,1.9,0.9c0.8,0,1.4-0.2,1.8-0.5v-1.8h-2v-1.6h4.2L252.9,18.5L252.9,18.5z"/>
</g>
</svg>
