<?xml version="1.0" encoding="utf-8"?>
<!-- Generator: Adobe Illustrator 21.0.0, SVG Export Plug-In . SVG Version: 6.00 Build 0)  -->
<svg version="1.1" id="Layer_1" xmlns="http://www.w3.org/2000/svg" xmlns:xlink="http://www.w3.org/1999/xlink" x="0px" y="0px"
	 width="440.6px" height="28px" viewBox="0 0 440.6 28" style="enable-background:new 0 0 440.6 28;" xml:space="preserve">
<style type="text/css">
	.st0{fill:#A11E60;}
	.st1{fill:#FFFFFF;}
</style>
<rect class="st0" width="440.6" height="28"/>
<g>
	<path class="st1" d="M176,19.9V9.2h3.5c1.4,0,2.5,0.4,3.3,1.3c0.8,0.8,1.3,1.9,1.3,3.3v1.6c0,1.3-0.4,2.4-1.3,3.3
		c-0.8,0.8-1.9,1.3-3.3,1.3H176V19.9z M177.8,10.6v7.8h1.7c0.9,0,1.5-0.3,2-0.9s0.8-1.3,0.8-2.2v-1.6c0-0.9-0.3-1.6-0.8-2.2
		c-0.5-0.6-1.2-0.9-2-0.9C179.5,10.6,177.8,10.6,177.8,10.6z"/>
	<path class="st1" d="M188,19.9h-1.8V9.2h1.8V19.9z"/>
	<path class="st1" d="M198.7,19.9h-1.8l-4.7-7.7l0,0v7.7h-1.8V9.2h1.8l4.7,7.7l0,0V9.2h1.8V19.9z"/>
	<path class="st1" d="M209.2,19.9h-1.8v-4.5h-4.8v4.5h-1.8V9.2h1.8v4.7h4.8V9.2h1.8V19.9z"/>
	<path class="st1" d="M215.2,19.9V9.2h3.5c1.4,0,2.5,0.4,3.3,1.3c0.8,0.8,1.3,1.9,1.3,3.3v1.6c0,1.3-0.4,2.4-1.3,3.3
		c-0.8,0.8-1.9,1.3-3.3,1.3h-3.5V19.9z M217,10.6v7.8h1.7c0.9,0,1.5-0.3,2-0.9s0.8-1.3,0.8-2.2v-1.6c0-0.9-0.3-1.6-0.8-2.2
		c-0.5-0.6-1.2-0.9-2-0.9C218.7,10.6,217,10.6,217,10.6z"/>
	<path class="st1" d="M233.4,9.2v1.3l0,0c0.4-0.1,0.7-0.4,0.9-0.8c0.2-0.4,0.3-0.9,0.3-1.6h1.5c0,1-0.2,1.9-0.7,2.5s-1.2,1-2.1,1.2
		v4.4c0,1.2-0.4,2.1-1.2,2.8s-1.8,1-3,1s-2.2-0.3-3-1s-1.1-1.6-1.1-2.8v-7h1.8v7c0,0.8,0.2,1.3,0.6,1.8c0.4,0.4,1,0.6,1.7,0.6
		s1.3-0.2,1.7-0.6s0.7-1,0.7-1.8v-7C231.5,9.2,233.4,9.2,233.4,9.2z"/>
	<path class="st1" d="M244.2,15.5c0,1.3-0.4,2.4-1.2,3.2c-0.8,0.9-1.9,1.3-3.2,1.3s-2.3-0.4-3.1-1.3s-1.2-1.9-1.2-3.2v-1.9
		c0-1.3,0.4-2.4,1.2-3.2c0.8-0.9,1.8-1.3,3.1-1.3c0.6,0,1.2,0.1,1.7,0.3s1,0.5,1.4,0.9c0.5-0.1,1-0.4,1.2-0.8
		c0.3-0.4,0.4-0.9,0.4-1.6h1.5c0,0.9-0.2,1.7-0.6,2.3c-0.4,0.6-1,1-1.7,1.3c0.1,0.3,0.3,0.7,0.3,1c0.1,0.4,0.1,0.7,0.1,1.1v1.9
		C244.1,15.5,244.2,15.5,244.2,15.5z M242.4,13.6c0-0.9-0.2-1.6-0.7-2.2c-0.5-0.6-1.1-0.9-1.9-0.9c-0.8,0-1.4,0.3-1.9,0.9
		c-0.5,0.6-0.7,1.3-0.7,2.2v1.9c0,0.9,0.2,1.6,0.7,2.2s1.1,0.9,1.9,0.9c0.8,0,1.5-0.3,1.9-0.9c0.5-0.6,0.7-1.3,0.7-2.2V13.6z
		 M242.6,6.4c0,0.5-0.1,0.9-0.4,1.2c-0.3,0.3-0.7,0.5-1.1,0.5c-0.3,0-0.7-0.1-1.1-0.3c-0.4-0.2-0.7-0.3-1-0.3
		c-0.2,0-0.4,0.1-0.5,0.2c-0.1,0.2-0.2,0.3-0.2,0.6l-1-0.3c0-0.5,0.1-0.9,0.4-1.2c0.3-0.3,0.7-0.5,1.1-0.5c0.3,0,0.6,0.1,1.1,0.3
		c0.4,0.2,0.8,0.3,1,0.3s0.3-0.1,0.5-0.2s0.2-0.3,0.2-0.6L242.6,6.4z"/>
	<path class="st1" d="M254.6,19.9h-1.8l-4.7-7.7l0,0v7.7h-1.8V9.2h1.8l4.7,7.7l0,0V9.2h1.8V19.9z"/>
	<path class="st1" d="M264.7,18.4c-0.3,0.4-0.8,0.8-1.4,1.1c-0.6,0.3-1.5,0.5-2.5,0.5c-1.3,0-2.3-0.4-3.1-1.2
		c-0.8-0.8-1.2-1.9-1.2-3.2v-2.2c0-1.3,0.4-2.3,1.2-3.2c0.8-0.8,1.8-1.2,3-1.2s2.2,0.3,2.9,0.9s1,1.4,1,2.4l0,0h-1.7
		c0-0.6-0.2-1.1-0.6-1.5s-0.9-0.5-1.6-0.5s-1.3,0.3-1.8,0.8s-0.7,1.3-0.7,2.1v2.2c0,0.9,0.2,1.6,0.7,2.1c0.5,0.6,1.1,0.8,1.8,0.8
		c0.6,0,1-0.1,1.4-0.2c0.3-0.1,0.6-0.3,0.8-0.5v-2.2h-2.2v-1.3h4L264.7,18.4L264.7,18.4z"/>
</g>
</svg>
