<?xml version="1.0" encoding="utf-8"?>
<!-- Generator: Adobe Illustrator 21.0.0, SVG Export Plug-In . SVG Version: 6.00 Build 0)  -->
<svg version="1.1" id="Layer_1" xmlns="http://www.w3.org/2000/svg" xmlns:xlink="http://www.w3.org/1999/xlink" x="0px" y="0px"
	 width="440.6px" height="28px" viewBox="0 0 440.6 28" style="enable-background:new 0 0 440.6 28;" xml:space="preserve">
<style type="text/css">
	.st0{fill:#A11E60;}
	.st1{fill:#FFFFFF;}
</style>
<rect class="st0" width="440.6" height="28"/>
<g>
	<path class="st1" d="M179.2,16.3c-0.1,1.2-0.5,2.1-1.3,2.7c-0.8,0.7-1.8,1-3,1c-1.4,0-2.5-0.5-3.2-1.4c-0.8-0.9-1.2-2.2-1.2-3.8
		v-0.7c0-1,0.2-1.9,0.5-2.7s0.9-1.4,1.6-1.8c0.7-0.4,1.5-0.6,2.4-0.6c1.2,0,2.2,0.3,3,1s1.2,1.6,1.3,2.8H177
		c-0.1-0.7-0.2-1.2-0.6-1.5c-0.3-0.3-0.8-0.5-1.5-0.5s-1.3,0.3-1.7,0.8s-0.6,1.3-0.6,2.5v0.8c0,1.2,0.2,2,0.5,2.5
		c0.4,0.5,0.9,0.8,1.7,0.8c0.7,0,1.2-0.2,1.5-0.5s0.5-0.8,0.6-1.4C176.9,16.3,179.2,16.3,179.2,16.3z"/>
	<path class="st1" d="M189.4,19.9h-2.2v-4.6h-4.3v4.6h-2.2V9.1h2.2v4.3h4.3V9.1h2.2V19.9z"/>
	<path class="st1" d="M197.5,17.7h-3.9l-0.7,2.2h-2.3l4-10.7h2l4,10.7h-2.3L197.5,17.7z M198.2,6.4c0,0.7-0.2,1.2-0.7,1.6
		s-1.1,0.6-1.8,0.6c-0.8,0-1.4-0.2-1.8-0.6c-0.5-0.4-0.7-0.9-0.7-1.6h1.5c0,0.3,0.1,0.5,0.3,0.7s0.4,0.3,0.8,0.3
		c0.3,0,0.6-0.1,0.8-0.3c0.2-0.2,0.3-0.4,0.3-0.7H198.2z M194.3,15.9h2.7l-1.3-4L194.3,15.9z"/>
	<path class="st1" d="M204.5,9.1l2.8,7.8l2.7-7.8h2.9v10.7h-2.2v-2.9l0.2-5.1l-2.9,8h-1.5l-2.9-8l0.2,5.1v2.9h-2.2V9.1H204.5z"/>
	<path class="st1" d="M224.2,17.1c0-0.4-0.1-0.7-0.4-1c-0.3-0.2-0.8-0.5-1.6-0.7s-1.4-0.5-1.8-0.7c-1.2-0.7-1.8-1.5-1.8-2.7
		c0-0.6,0.2-1.1,0.5-1.5s0.8-0.8,1.4-1.1c0.6-0.3,1.3-0.4,2.1-0.4s1.4,0.1,2,0.4s1.1,0.7,1.4,1.2s0.5,1.1,0.5,1.7h-2.2
		c0-0.5-0.2-0.9-0.5-1.1c-0.3-0.3-0.7-0.4-1.3-0.4c-0.5,0-1,0.1-1.3,0.3s-0.4,0.5-0.4,0.9c0,0.3,0.2,0.6,0.5,0.9
		c0.4,0.2,0.9,0.5,1.5,0.7c1.3,0.4,2.2,0.8,2.7,1.4s0.9,1.3,0.9,2.1c0,0.9-0.4,1.7-1.1,2.2c-0.7,0.5-1.6,0.8-2.8,0.8
		c-0.8,0-1.6-0.2-2.3-0.5s-1.2-0.7-1.6-1.2c-0.4-0.5-0.5-1.1-0.5-1.8h2.2c0,1.2,0.7,1.8,2.1,1.8c0.5,0,0.9-0.1,1.2-0.3
		C224,17.7,224.2,17.4,224.2,17.1z"/>
	<path class="st1" d="M236.7,14.7c0,1.1-0.2,2-0.6,2.8s-0.9,1.4-1.6,1.8c-0.7,0.4-1.5,0.6-2.4,0.6s-1.7-0.2-2.4-0.6s-1.2-1-1.6-1.8
		c-0.4-0.8-0.6-1.7-0.6-2.7v-0.5c0-1.1,0.2-2,0.6-2.8c0.4-0.8,0.9-1.4,1.6-1.8c0.7-0.4,1.5-0.6,2.4-0.6s1.7,0.2,2.4,0.6
		c0.7,0.4,1.2,1,1.6,1.8c0.4,0.8,0.6,1.7,0.6,2.8V14.7z M234.4,14.3c0-1.1-0.2-2-0.6-2.6c-0.4-0.6-1-0.9-1.7-0.9s-1.3,0.3-1.7,0.9
		s-0.6,1.4-0.6,2.5v0.5c0,1.1,0.2,1.9,0.6,2.5c0.4,0.6,1,0.9,1.7,0.9s1.3-0.3,1.7-0.9s0.6-1.4,0.6-2.5V14.3z M232.5,6.3h2.3l-2,2.3
		h-1.7L232.5,6.3z"/>
	<path class="st1" d="M246.7,16.3c-0.1,1.2-0.5,2.1-1.3,2.7c-0.8,0.7-1.8,1-3,1c-1.4,0-2.5-0.5-3.2-1.4c-0.8-0.9-1.2-2.2-1.2-3.8
		v-0.7c0-1,0.2-1.9,0.5-2.7s0.9-1.4,1.6-1.8s1.5-0.6,2.4-0.6c1.2,0,2.2,0.3,3,1s1.2,1.6,1.3,2.8h-2.2c-0.1-0.7-0.2-1.2-0.6-1.5
		s-0.8-0.5-1.5-0.5s-1.3,0.3-1.7,0.8s-0.6,1.3-0.6,2.5v0.8c0,1.2,0.2,2,0.5,2.5c0.4,0.5,0.9,0.8,1.7,0.8c0.7,0,1.2-0.2,1.5-0.5
		s0.5-0.8,0.6-1.4C244.5,16.3,246.7,16.3,246.7,16.3z"/>
	<path class="st1" d="M251.9,19.9V9.1h3.3c0.9,0,1.8,0.2,2.5,0.6c0.7,0.4,1.3,1,1.7,1.8c0.4,0.8,0.6,1.7,0.6,2.7v0.5
		c0,1-0.2,1.9-0.6,2.7s-1,1.4-1.7,1.8s-1.6,0.6-2.5,0.6L251.9,19.9L251.9,19.9z M254.1,10.9v7.2h1.1c0.9,0,1.5-0.3,2-0.8
		c0.5-0.6,0.7-1.4,0.7-2.4v-0.6c0-1.1-0.2-1.9-0.7-2.5s-1.1-0.8-2-0.8L254.1,10.9L254.1,10.9z"/>
	<path class="st1" d="M267.6,17.7h-3.9l-0.7,2.2h-2.3l4-10.7h2l4,10.7h-2.3L267.6,17.7z M264.3,15.9h2.7l-1.3-4L264.3,15.9z"/>
</g>
</svg>
