<?xml version="1.0" encoding="utf-8"?>
<!-- Generator: Adobe Illustrator 22.0.0, SVG Export Plug-In . SVG Version: 6.00 Build 0)  -->
<svg version="1.1" id="Layer_1" xmlns="http://www.w3.org/2000/svg" xmlns:xlink="http://www.w3.org/1999/xlink" x="0px" y="0px"
	 width="82.7px" height="82.7px" viewBox="0 0 82.7 82.7" style="enable-background:new 0 0 82.7 82.7;" xml:space="preserve">
<style type="text/css">
	.st0{fill:#F3F3F3;}
	.st1{fill:#F98903;}
	.st2{fill:#FFBE7D;}
	.st3{fill:#60A2D8;}
	.st4{opacity:0.2;fill:#BB1860;}
	.st5{opacity:0.2;fill:#FF8D68;}
	.st6{opacity:0.2;fill:#1E9CB6;}
	.st7{fill:#BB1860;}
	.st8{fill:#FFFFFF;}
	.st9{fill:#FF8D68;}
	.st10{fill:#333333;}
	.st11{fill:#1E9CB6;}
	.st12{fill:#49D292;}
</style>
<g>
	<g>
		<g>
			<g>
				<path class="st8" d="M72.9,68.1c14.8-17.4,12.6-43.5-4.8-58.3C50.7-5,24.6-2.8,9.8,14.6C-5,32.1-2.8,58.2,14.6,72.9
					C32.1,87.7,58.2,85.5,72.9,68.1z"/>
				<path class="st11" d="M70.3,65.8c13.5-16,11.5-39.8-4.4-53.3C49.9-1,26,0.9,12.5,16.9C-1,32.9,1,56.7,16.9,70.3
					C32.9,83.8,56.7,81.8,70.3,65.8z"/>
				<path class="st8" d="M63.6,60.2c10.4-12.3,8.9-30.7-3.4-41.1c-12.3-10.4-30.7-8.9-41.1,3.4c-10.4,12.3-8.9,30.7,3.4,41.1
					C34.8,74.1,53.2,72.5,63.6,60.2z"/>
			</g>
		</g>
	</g>
	<path class="st11" d="M32,36.7c-0.8-0.1-1.5-0.3-2.1-0.8c-1.1-0.9-1.5-2.1-1.2-3.5c0.3-1.4,1.3-2.3,2.7-2.6
		c0.3-0.1,0.6-0.1,0.9-0.1c4.4,0,8.9,0,13.3,0c1.4,0,2.5,0.5,3.2,1.7c0.3,0.6,0.5,1.2,0.5,1.9c0,4.1,0,8.1,0,12.2c0,0.1,0,0.3,0,0.4
		c0.6,0,1.2,0,1.7,0c0.8,0,1.6,0.3,2.2,0.9c1.1,1,1.4,2.5,0.9,3.9c-0.5,1.3-1.7,2.2-3.3,2.2c-5,0-10.1,0-15.1,0
		c-2.1,0-3.5-1.5-3.5-3.6c0-4,0-8.1,0-12.1C32,37.1,32,36.9,32,36.7z M42.7,31.6c-1.1,0-2.2,0-3.3,0c-2.4,0-4.9,0-7.3,0
		c-0.6,0-1.1,0.3-1.5,0.8c-0.3,0.5-0.3,1.1,0,1.6c0.4,0.6,1,0.8,1.6,0.8c3.4,0,6.8,0,10.2,0c0.1,0,0.1,0,0.3,0
		C42.2,33.8,42.2,32.7,42.7,31.6z M34.2,43.7c4.2,0,8.4,0,12.5,0c0-0.6,0-1.2,0-1.8c-4.2,0-8.3,0-12.5,0
		C34.2,42.5,34.2,43.1,34.2,43.7z M34.2,40c4.2,0,8.4,0,12.5,0c0-0.6,0-1.2,0-1.8c-4.2,0-8.4,0-12.5,0C34.2,38.8,34.2,39.4,34.2,40z
		 M34.2,47.4c4.2,0,8.4,0,12.5,0c0-0.6,0-1.2,0-1.8c-4.2,0-8.4,0-12.5,0C34.2,46.2,34.2,46.8,34.2,47.4z M49.2,47.9
		c0,0.6,0,1.2,0,1.7c0,0.8,0.8,1.4,1.6,1.4c0.8,0,1.5-0.6,1.6-1.5c0.1-0.8-0.5-1.6-1.2-1.7C50.5,47.8,49.9,47.9,49.2,47.9z"/>
</g>
</svg>
