<?xml version="1.0" encoding="utf-8"?>
<!-- Generator: Adobe Illustrator 22.0.0, SVG Export Plug-In . SVG Version: 6.00 Build 0)  -->
<svg version="1.1" id="Layer_1" xmlns="http://www.w3.org/2000/svg" xmlns:xlink="http://www.w3.org/1999/xlink" x="0px" y="0px"
	 width="82.7px" height="82.7px" viewBox="0 0 82.7 82.7" style="enable-background:new 0 0 82.7 82.7;" xml:space="preserve">
<style type="text/css">
	.st0{fill:#F3F3F3;}
	.st1{fill:#F98903;}
	.st2{fill:#FFBE7D;}
	.st3{fill:#60A2D8;}
	.st4{opacity:0.2;fill:#BB1860;}
	.st5{opacity:0.2;fill:#FF8D68;}
	.st6{opacity:0.2;fill:#1E9CB6;}
	.st7{fill:#BB1860;}
	.st8{fill:#FFFFFF;}
	.st9{fill:#FF8D68;}
	.st10{fill:#333333;}
	.st11{fill:#1E9CB6;}
	.st12{fill:#49D292;}
</style>
<g>
	<g>
		<g>
			<g>
				<path class="st8" d="M72.9,68.1c14.8-17.4,12.6-43.5-4.8-58.3C50.7-5,24.6-2.8,9.8,14.6C-5,32.1-2.8,58.2,14.6,72.9
					C32.1,87.7,58.2,85.5,72.9,68.1z"/>
				<path class="st1" d="M70.3,65.8c13.5-16,11.5-39.8-4.4-53.3C49.9-1,26,0.9,12.5,16.9C-1,32.9,1,56.7,16.9,70.3
					C32.9,83.8,56.7,81.8,70.3,65.8z"/>
				<path class="st8" d="M63.6,60.2c10.4-12.3,8.9-30.7-3.4-41.1c-12.3-10.4-30.7-8.9-41.1,3.4c-10.4,12.3-8.9,30.7,3.4,41.1
					C34.8,74.1,53.2,72.5,63.6,60.2z"/>
			</g>
		</g>
	</g>
	<g>
		<g>
			<path class="st1" d="M37.7,37.1c0,0.9,0,1.6,0,2.5c-0.2,0-0.4,0-0.6,0c-1.1,0-2.2,0-3.2,0c-0.3,0-0.7,0-1,0.1
				c-1.1,0.2-1.4,0.6-1.4,1.7c0,3.3,0,6.6,0,9.9c0,0.5,0.2,0.9,0.7,1.1c0.5,0.2,1.1,0.4,1.6,0.4c5.1,0,10.2,0,15.3,0
				c0.4,0,0.7,0,1.1-0.1c1-0.3,1.2-0.6,1.2-1.6c0-3.3,0-6.6,0-9.9c0-0.6-0.2-1-0.7-1.2c-0.5-0.2-1.1-0.3-1.7-0.3c-1.3,0-2.5,0-3.8,0
				c0-0.8,0-1.6,0-2.3c0,0,0.1-0.1,0.1-0.1c1.6,0,3.3,0,4.9,0.1c1.4,0.1,2.6,0.7,3.2,2c0.3,0.5,0.4,1.1,0.4,1.7c0,3.4,0,6.7,0,10.1
				c0,2-0.9,3.2-2.8,3.8c-0.6,0.2-1.3,0.3-1.9,0.3c-5,0-10.1,0-15.1,0c-1,0-2-0.2-3-0.7c-1.2-0.7-1.9-1.7-1.9-3.2c0-3.3,0-6.5,0-9.8
				c0-2.3,1.1-3.8,3.4-4.2C34.2,37,35.9,37.1,37.7,37.1z"/>
			<path class="st1" d="M42.6,31.9c0,1.8,0,3.6,0,5.4c0,2.2,0,4.4,0,6.7c0,0.9-0.5,1.5-1.2,1.4c-0.7,0-1.2-0.6-1.2-1.4
				c0-3.8,0-7.6,0-11.4c0-0.2,0-0.4,0-0.6c0,0-0.1,0-0.1-0.1c-0.4,0.4-0.8,0.9-1.3,1.3c-0.6,0.6-1.3,0.6-1.8,0.1
				c-0.5-0.5-0.5-1.2,0.1-1.8c1.1-1.1,2.3-2.3,3.4-3.4c0.6-0.6,1.3-0.6,1.9,0c1.1,1.1,2.3,2.3,3.4,3.4c0.6,0.6,0.6,1.3,0.1,1.8
				c-0.5,0.5-1.2,0.4-1.8-0.2c-0.5-0.5-0.9-0.9-1.3-1.4C42.7,31.8,42.6,31.9,42.6,31.9z"/>
		</g>
	</g>
</g>
</svg>
