<?xml version="1.0" encoding="utf-8"?>
<!-- Generator: Adobe Illustrator 22.0.0, SVG Export Plug-In . SVG Version: 6.00 Build 0)  -->
<svg version="1.1" id="Layer_1" xmlns="http://www.w3.org/2000/svg" xmlns:xlink="http://www.w3.org/1999/xlink" x="0px" y="0px"
	 width="82.7px" height="82.7px" viewBox="0 0 82.7 82.7" style="enable-background:new 0 0 82.7 82.7;" xml:space="preserve">
<style type="text/css">
	.st0{fill:#F3F3F3;}
	.st1{fill:#F98903;}
	.st2{fill:#FFBE7D;}
	.st3{fill:#60A2D8;}
	.st4{opacity:0.2;fill:#BB1860;}
	.st5{opacity:0.2;fill:#FF8D68;}
	.st6{opacity:0.2;fill:#1E9CB6;}
	.st7{fill:#BB1860;}
	.st8{fill:#FFFFFF;}
	.st9{fill:#FF8D68;}
	.st10{fill:#333333;}
	.st11{fill:#1E9CB6;}
	.st12{fill:#49D292;}
</style>
<g>
	<g>
		<g>
			<g>
				<path class="st8" d="M72.9,68.1c14.8-17.4,12.6-43.5-4.8-58.3C50.7-5,24.6-2.8,9.8,14.6C-5,32.1-2.8,58.2,14.6,72.9
					C32.1,87.7,58.2,85.5,72.9,68.1z"/>
				<path class="st7" d="M70.3,65.8c13.5-16,11.5-39.8-4.4-53.3C49.9-1,26,0.9,12.5,16.9C-1,32.9,1,56.7,16.9,70.3
					C32.9,83.8,56.7,81.8,70.3,65.8z"/>
				<path class="st8" d="M63.6,60.2c10.4-12.3,8.9-30.7-3.4-41.1c-12.3-10.4-30.7-8.9-41.1,3.4c-10.4,12.3-8.9,30.7,3.4,41.1
					C34.8,74.1,53.2,72.5,63.6,60.2z"/>
			</g>
		</g>
	</g>
	<g>
		<g>
			<path class="st7" d="M55.3,27.6c-4.6,0-9.3,0-13.9,0c-4.6,0-9.1,0-13.7,0c-1.5,0-1.9,0.4-1.9,1.8c0,8,0,16,0,24
				c0,1.4,0.4,1.8,1.8,1.8c9.2,0,18.4,0,27.6,0c1.4,0,1.8-0.4,1.8-1.8c0-8.1,0-16.1,0-24.2C56.9,28,56.5,27.6,55.3,27.6z M53.8,51
				c-8.3,0-16.6,0-25,0c0-6.8,0-13.6,0-20.4c8.3,0,16.6,0,25,0C53.8,37.4,53.8,44.2,53.8,51z"/>
			<path class="st7" d="M47.1,48.3c0-0.2,0-0.3,0-0.5c0-2.5-1.4-4.4-3.3-5.8c-0.1-0.1-0.4-0.1-0.6,0c-1.3,0.5-2.5,0.5-3.8,0
				c-0.2-0.1-0.5,0-0.7,0.1c-0.5,0.4-1.1,0.9-1.5,1.4c-1.2,1.3-1.7,2.9-1.7,4.8C39.5,48.3,43.3,48.3,47.1,48.3z"/>
			<path class="st7" d="M41.4,41.2c2.1,0,3.9-1.8,3.9-3.9c0-2.2-1.7-3.9-3.9-3.9c-2.2,0-3.9,1.7-3.9,3.9
				C37.4,39.5,39.2,41.3,41.4,41.2z"/>
		</g>
	</g>
</g>
</svg>
