<?xml version="1.0" encoding="utf-8"?>
<!-- Generator: Adobe Illustrator 22.0.0, SVG Export Plug-In . SVG Version: 6.00 Build 0)  -->
<svg version="1.1" id="Layer_1" xmlns="http://www.w3.org/2000/svg" xmlns:xlink="http://www.w3.org/1999/xlink" x="0px" y="0px"
	 width="82.7px" height="82.7px" viewBox="0 0 82.7 82.7" style="enable-background:new 0 0 82.7 82.7;" xml:space="preserve">
<style type="text/css">
	.st0{fill:#F3F3F3;}
	.st1{fill:#F98903;}
	.st2{fill:#FFBE7D;}
	.st3{fill:#60A2D8;}
	.st4{opacity:0.2;fill:#BB1860;}
	.st5{opacity:0.2;fill:#FF8D68;}
	.st6{opacity:0.2;fill:#1E9CB6;}
	.st7{fill:#BB1860;}
	.st8{fill:#FFFFFF;}
	.st9{fill:#FF8D68;}
	.st10{fill:#333333;}
	.st11{fill:#1E9CB6;}
	.st12{fill:#49D292;}
</style>
<g>
	<g>
		<g>
			<g>
				<path class="st8" d="M72.9,68.1c14.8-17.4,12.6-43.5-4.8-58.3C50.7-5,24.6-2.8,9.8,14.6C-5,32.1-2.8,58.2,14.6,72.9
					C32.1,87.7,58.2,85.5,72.9,68.1z"/>
				<path class="st11" d="M70.3,65.8c13.5-16,11.5-39.8-4.4-53.3C49.9-1,26,0.9,12.5,16.9C-1,32.9,1,56.7,16.9,70.3
					C32.9,83.8,56.7,81.8,70.3,65.8z"/>
				<path class="st8" d="M63.6,60.2c10.4-12.3,8.9-30.7-3.4-41.1c-12.3-10.4-30.7-8.9-41.1,3.4c-10.4,12.3-8.9,30.7,3.4,41.1
					C34.8,74.1,53.2,72.5,63.6,60.2z"/>
			</g>
		</g>
	</g>
	<g>
		<g>
			<path class="st11" d="M29.5,53.2c0-0.5,0-1,0-1.5c0.5,0,1,0,1.5,0c0-0.5,0-1,0-1.5c-0.5,0-1,0-1.4,0c0-0.5,0-1,0-1.5
				c1,0,1.9,0,2.9,0c0-0.5,0-1,0-1.5c-1,0-1.9,0-2.9,0c0-0.5,0-1,0-1.5c0.5,0,1,0,1.5,0c0-0.5,0-1,0-1.5c-0.5,0-1,0-1.4,0
				c0-0.5,0-1,0-1.5c1,0,1.9,0,2.9,0c0-0.5,0-1,0-1.5c-1,0-1.9,0-2.9,0c0-0.5,0-1,0-1.5c0.5,0,0.9,0,1.4,0c0-0.5,0-1,0-1.5
				c-0.5,0-1,0-1.4,0c0-0.5,0-1,0-1.5c2,0,3.9,0,5.9,0c0,4.9,0,9.8,0,14.8c5.4,0,10.8,0,16.3,0c0-5.4,0-10.8,0-16.2
				c-4.9,0-9.8,0-14.8,0c0-2,0-3.9,0-5.9c0.5,0,0.9,0,1.4,0c0,1,0,1.9,0,2.9c0.5,0,1,0,1.5,0c0-1,0-1.9,0-2.9c0.5,0,1,0,1.5,0
				c0,0.5,0,1,0,1.4c0.5,0,1,0,1.5,0c0-0.5,0-1,0-1.4c0.5,0,1,0,1.5,0c0,1,0,1.9,0,2.9c0.5,0,1,0,1.5,0c0-1,0-1.9,0-2.9
				c0.5,0,1,0,1.5,0c0,0.5,0,1,0,1.5c0.5,0,1,0,1.5,0c0-0.5,0-1,0-1.5c0.5,0,1,0,1.5,0c0,1,0,1.9,0,2.9c0.5,0,1,0,1.5,0
				c0-1,0-1.9,0-2.9c0.5,0,1,0,1.5,0c0,7.9,0,15.8,0,23.7C45.3,53.2,37.4,53.2,29.5,53.2z"/>
			<path class="st11" d="M35.4,35.4c-2,0-3.9,0-5.9,0c0-2,0-3.9,0-5.9c2,0,3.9,0,5.9,0C35.4,31.5,35.4,33.5,35.4,35.4z"/>
		</g>
	</g>
</g>
</svg>
