<?xml version="1.0" encoding="utf-8"?>
<!-- Generator: Adobe Illustrator 22.0.0, SVG Export Plug-In . SVG Version: 6.00 Build 0)  -->
<svg version="1.1" id="Layer_1" xmlns="http://www.w3.org/2000/svg" xmlns:xlink="http://www.w3.org/1999/xlink" x="0px" y="0px"
	 width="82.7px" height="82.7px" viewBox="0 0 82.7 82.7" style="enable-background:new 0 0 82.7 82.7;" xml:space="preserve">
<style type="text/css">
	.st0{fill:#F3F3F3;}
	.st1{fill:#F98903;}
	.st2{fill:#FFBE7D;}
	.st3{fill:#60A2D8;}
	.st4{opacity:0.2;fill:#BB1860;}
	.st5{opacity:0.2;fill:#FF8D68;}
	.st6{opacity:0.2;fill:#1E9CB6;}
	.st7{fill:#BB1860;}
	.st8{fill:#FFFFFF;}
	.st9{fill:#FF8D68;}
	.st10{fill:#333333;}
	.st11{fill:#1E9CB6;}
	.st12{fill:#49D292;}
</style>
<g>
	<g>
		<g>
			<g>
				<path class="st8" d="M72.9,68.1c14.8-17.4,12.6-43.5-4.8-58.3C50.7-5,24.6-2.8,9.8,14.6C-5,32.1-2.8,58.2,14.6,72.9
					C32.1,87.7,58.2,85.5,72.9,68.1z"/>
				<path class="st11" d="M70.3,65.8c13.5-16,11.5-39.8-4.4-53.3C49.9-1,26,0.9,12.5,16.9C-1,32.9,1,56.7,16.9,70.3
					C32.9,83.8,56.7,81.8,70.3,65.8z"/>
				<path class="st8" d="M63.6,60.2c10.4-12.3,8.9-30.7-3.4-41.1c-12.3-10.4-30.7-8.9-41.1,3.4c-10.4,12.3-8.9,30.7,3.4,41.1
					C34.8,74.1,53.2,72.5,63.6,60.2z"/>
			</g>
		</g>
	</g>
	<g>
		<g>
			<path class="st11" d="M46.1,29.2c-1.6,1.7-3.1,3.3-4.6,4.9c-0.5-0.5-1-1-1.5-1.4c0.5-0.6,1.1-1.1,1.6-1.7
				c-2.8-0.3-7.1,1.4-9.3,5.2c-2.4,4.3-1.6,10.5,3.4,13.9c-0.7,0.8-1.4,1.5-2.1,2.3c-3.5-2.2-6.8-7.5-5.5-13.8
				c1.3-6.4,7-10.9,13.2-10.8c-0.5-0.5-1-1.1-1.6-1.7c0.6-0.5,1.1-0.9,1.6-1.4C42.8,26.1,44.4,27.6,46.1,29.2z"/>
			<path class="st11" d="M41.3,54.9c0.5,0.6,1.1,1.1,1.6,1.7c-0.5,0.5-0.9,1-1.4,1.5c-1.6-1.6-3.2-3.1-4.9-4.7
				c1.6-1.6,3.1-3.2,4.7-4.9c0.5,0.5,1,0.9,1.5,1.4c-0.5,0.6-1.1,1.1-1.6,1.7c3.1,0.3,7.6-1.6,9.6-6c2-4.4,0.9-10-3.8-13.2
				c0.7-0.8,1.4-1.5,2.1-2.3c3.8,2.6,6.5,7.7,5.6,13.4C53.7,49.8,48.1,55,41.3,54.9z"/>
		</g>
	</g>
</g>
</svg>
