<?xml version="1.0" encoding="utf-8"?>
<!-- Generator: Adobe Illustrator 22.0.0, SVG Export Plug-In . SVG Version: 6.00 Build 0)  -->
<svg version="1.1" id="Layer_1" xmlns="http://www.w3.org/2000/svg" xmlns:xlink="http://www.w3.org/1999/xlink" x="0px" y="0px"
	 width="82.7px" height="82.7px" viewBox="0 0 82.7 82.7" style="enable-background:new 0 0 82.7 82.7;" xml:space="preserve">
<style type="text/css">
	.st0{fill:#F3F3F3;}
	.st1{fill:#F98903;}
	.st2{fill:#FFBE7D;}
	.st3{fill:#60A2D8;}
	.st4{opacity:0.2;fill:#BB1860;}
	.st5{opacity:0.2;fill:#FF8D68;}
	.st6{opacity:0.2;fill:#1E9CB6;}
	.st7{fill:#BB1860;}
	.st8{fill:#FFFFFF;}
	.st9{fill:#FF8D68;}
	.st10{fill:#333333;}
	.st11{fill:#1E9CB6;}
	.st12{fill:#49D292;}
</style>
<g>
	<g>
		<g>
			<g>
				<path class="st8" d="M72.9,68.1c14.8-17.4,12.6-43.5-4.8-58.3C50.7-5,24.6-2.8,9.8,14.6C-5,32.1-2.8,58.2,14.6,72.9
					C32.1,87.7,58.2,85.5,72.9,68.1z"/>
				<path class="st7" d="M70.3,65.8c13.5-16,11.5-39.8-4.4-53.3C49.9-1,26,0.9,12.5,16.9C-1,32.9,1,56.7,16.9,70.3
					C32.9,83.8,56.7,81.8,70.3,65.8z"/>
				<path class="st8" d="M63.6,60.2c10.4-12.3,8.9-30.7-3.4-41.1c-12.3-10.4-30.7-8.9-41.1,3.4c-10.4,12.3-8.9,30.7,3.4,41.1
					C34.8,74.1,53.2,72.5,63.6,60.2z"/>
			</g>
		</g>
	</g>
	<g>
		<g>
			<path class="st7" d="M49.7,41.4c0,3.5,0,7.1,0,10.6c0,1.3-0.6,1.9-1.8,1.9c-4.9,0-9.8,0-14.6,0c-1.6,0-2.8-1-3.1-2.5
				c0-0.2,0-0.4,0-0.6c0-6.2,0-12.5,0-18.7c0-2,1.2-3.2,3.2-3.2c4.9,0,9.8,0,14.7,0c1.1,0,1.7,0.6,1.7,1.7
				C49.7,34.2,49.7,37.8,49.7,41.4z M39.8,49.9c1.3,0,2.5,0,3.8,0c1.2,0,1.5-0.4,1.5-1.5c0-0.7-0.1-1.4-0.1-2.1
				c0-0.8-0.3-1.6-0.9-2.2c-2.2-2.5-6.3-2.6-8.6-0.1c-0.5,0.5-0.9,1.1-0.9,1.8c-0.1,0.9-0.1,1.8-0.1,2.8c0,1,0.4,1.4,1.4,1.4
				C37.3,49.9,38.5,49.9,39.8,49.9z M43.4,37.8c0-1.9-1.2-3.4-2.9-3.7c-1.7-0.3-3.4,0.7-3.9,2.4c-0.4,1.5-0.1,2.9,0.9,4.1
				c1.2,1.5,4.5,1.5,5.4-0.8C43.1,39.2,43.2,38.5,43.4,37.8z"/>
			<path class="st7" d="M51,28.9c0.9-0.2,1.7,0.5,1.7,1.5c0,2.4,0,4.9,0,7.3c0,4.8,0,9.6,0,14.4c0,1.1-0.7,1.8-1.9,1.7
				c0.6-1.2,0.3-2.5,0.3-3.8c0-6.3,0-12.6,0-18.9C51.2,30.4,51,29.7,51,28.9z"/>
		</g>
	</g>
</g>
</svg>
