<?xml version="1.0" encoding="utf-8"?>
<!-- Generator: Adobe Illustrator 22.0.0, SVG Export Plug-In . SVG Version: 6.00 Build 0)  -->
<svg version="1.1" id="Layer_1" xmlns="http://www.w3.org/2000/svg" xmlns:xlink="http://www.w3.org/1999/xlink" x="0px" y="0px"
	 width="82.7px" height="82.7px" viewBox="0 0 82.7 82.7" style="enable-background:new 0 0 82.7 82.7;" xml:space="preserve">
<style type="text/css">
	.st0{fill:#F3F3F3;}
	.st1{fill:#F98903;}
	.st2{fill:#FFBE7D;}
	.st3{fill:#60A2D8;}
	.st4{opacity:0.2;fill:#BB1860;}
	.st5{opacity:0.2;fill:#FF8D68;}
	.st6{opacity:0.2;fill:#1E9CB6;}
	.st7{fill:#BB1860;}
	.st8{fill:#FFFFFF;}
	.st9{fill:#FF8D68;}
	.st10{fill:#333333;}
	.st11{fill:#1E9CB6;}
	.st12{fill:#49D292;}
</style>
<g>
	<g>
		<g>
			<g>
				<path class="st8" d="M72.9,68.1c14.8-17.4,12.6-43.5-4.8-58.3C50.7-5,24.6-2.8,9.8,14.6C-5,32.1-2.8,58.2,14.6,72.9
					C32.1,87.7,58.2,85.5,72.9,68.1z"/>
				<path class="st7" d="M70.3,65.8c13.5-16,11.5-39.8-4.4-53.3C49.9-1,26,0.9,12.5,16.9C-1,32.9,1,56.7,16.9,70.3
					C32.9,83.8,56.7,81.8,70.3,65.8z"/>
				<path class="st8" d="M63.6,60.2c10.4-12.3,8.9-30.7-3.4-41.1c-12.3-10.4-30.7-8.9-41.1,3.4c-10.4,12.3-8.9,30.7,3.4,41.1
					C34.8,74.1,53.2,72.5,63.6,60.2z"/>
			</g>
		</g>
	</g>
	<g>
		<g>
			<path class="st7" d="M39,29.5c0-0.9,0-1.8,0-2.6c0-1.4,0.9-2.5,2.3-2.5c1.3,0,2.3,1,2.3,2.5c0,0.9,0,1.7,0,2.6
				c0.6,0.2,1.1,0.3,1.6,0.5c4.3,1.6,7,5.6,7.3,10.1c0.1,2.4,0.5,4.9,0.8,7.3c0,0.2,0.2,0.4,0.4,0.5c0.3,0.4,0.7,0.7,0.9,1.1
				c0.8,1.7,0.1,2.9-1.8,2.9c-7.6,0-15.2,0-22.8,0c-0.8,0-1.6,0-2.1-0.9c-0.4-0.8-0.1-2.3,0.7-2.8c0.7-0.5,0.7-1.1,0.8-1.8
				c0.3-2.5,0.5-5.1,0.8-7.6c0.7-4.8,3.5-7.8,8.1-9.2C38.6,29.6,38.8,29.5,39,29.5z"/>
			<path class="st7" d="M37.4,54.4c2.7,0,5.3,0,7.9,0c0.2,2-1.6,3.8-3.7,4C39.3,58.5,37.4,56.7,37.4,54.4z"/>
		</g>
	</g>
</g>
</svg>
