<?xml version="1.0" encoding="utf-8"?>
<!-- Generator: Adobe Illustrator 22.0.0, SVG Export Plug-In . SVG Version: 6.00 Build 0)  -->
<svg version="1.1" id="Layer_1" xmlns="http://www.w3.org/2000/svg" xmlns:xlink="http://www.w3.org/1999/xlink" x="0px" y="0px"
	 width="82.7px" height="82.7px" viewBox="0 0 82.7 82.7" style="enable-background:new 0 0 82.7 82.7;" xml:space="preserve">
<style type="text/css">
	.st0{fill:#F3F3F3;}
	.st1{fill:#F98903;}
	.st2{fill:#FFBE7D;}
	.st3{fill:#60A2D8;}
	.st4{opacity:0.2;fill:#BB1860;}
	.st5{opacity:0.2;fill:#FF8D68;}
	.st6{opacity:0.2;fill:#1E9CB6;}
	.st7{fill:#BB1860;}
	.st8{fill:#FFFFFF;}
	.st9{fill:#FF8D68;}
	.st10{fill:#333333;}
	.st11{fill:#1E9CB6;}
	.st12{fill:#49D292;}
</style>
<g>
	<g>
		<g>
			<g>
				<path class="st8" d="M72.9,68.1c14.8-17.4,12.6-43.5-4.8-58.3C50.7-5,24.6-2.8,9.8,14.6C-5,32.1-2.8,58.2,14.6,72.9
					C32.1,87.7,58.2,85.5,72.9,68.1z"/>
				<path class="st12" d="M70.3,65.8c13.5-16,11.5-39.8-4.4-53.3C49.9-1,26,0.9,12.5,16.9C-1,32.9,1,56.7,16.9,70.3
					C32.9,83.8,56.7,81.8,70.3,65.8z"/>
				<path class="st8" d="M63.6,60.2c10.4-12.3,8.9-30.7-3.4-41.1c-12.3-10.4-30.7-8.9-41.1,3.4c-10.4,12.3-8.9,30.7,3.4,41.1
					C34.8,74.1,53.2,72.5,63.6,60.2z"/>
			</g>
		</g>
	</g>
	<g>
		<path class="st12" d="M41.4,51.2c-2.5,0-5,0-7.6,0c-2.2,0-4-1.5-4.4-3.7c-0.5-2.4,1.4-4.8,3.8-5.1c0.3,0,0.5,0,0.8,0
			c5,0,9.9,0,14.9,0c2,0,3.7,1.3,4.3,3.2c0.8,2.8-1.3,5.6-4.1,5.6C46.5,51.2,43.9,51.2,41.4,51.2C41.4,51.2,41.4,51.2,41.4,51.2z
			 M49,49c1.2,0,2.2-1,2.2-2.2c0-1.2-1-2.2-2.2-2.2c-1.2,0-2.2,1-2.2,2.2C46.8,48,47.8,49,49,49z"/>
		<path class="st12" d="M41.4,31.5c2.5,0,5,0,7.6,0c2.2,0,4,1.5,4.4,3.7c0.5,2.4-1.4,4.8-3.8,5.1c-0.3,0-0.5,0-0.8,0
			c-5,0-9.9,0-14.9,0c-2,0-3.7-1.2-4.3-3c-0.9-2.8,1.2-5.7,4.1-5.7C36.2,31.5,38.8,31.5,41.4,31.5z M35.9,35.9c0-1.2-1-2.2-2.2-2.2
			c-1.2,0-2.2,1-2.2,2.2c0,1.2,1,2.2,2.2,2.2C34.9,38.1,35.9,37.1,35.9,35.9z"/>
	</g>
</g>
</svg>
