<?xml version="1.0" encoding="utf-8"?>
<!-- Generator: Adobe Illustrator 21.0.0, SVG Export Plug-In . SVG Version: 6.00 Build 0)  -->
<svg version="1.1" id="Layer_1" xmlns="http://www.w3.org/2000/svg" xmlns:xlink="http://www.w3.org/1999/xlink" x="0px" y="0px"
	 width="35px" height="35px" viewBox="0 0 35 35" style="enable-background:new 0 0 35 35;" xml:space="preserve">
<style type="text/css">
	.st0{fill:#FFFFFF;}
	.st1{fill:#0B4A14;}
	.st2{fill:#A0A0A0;}
	.st3{fill:#9F234F;}
	.st4{fill:#929494;}
	.st5{fill:#535353;}
	.st6{fill:#FDFBFB;}
	.st7{fill:#E32C22;}
	.st8{fill:#0F70B4;}
	.st9{fill:#CD2027;}
	.st10{fill:#273889;}
	.st11{fill:#545456;}
	.st12{fill:#01AEF0;}
	.st13{fill:#ED008C;}
	.st14{fill:#743093;}
</style>
<g>
	<path id="rect3758-1_2_" class="st0" d="M17.5,0L17.5,0C27.1,0,35,7.9,35,17.5l0,0C35,27.1,27.1,35,17.5,35l0,0
		C7.9,35,0,27.1,0,17.5l0,0C0,7.9,7.9,0,17.5,0z"/>
	<g>
		<g>
			<path class="st11" d="M14.4,16.4c-0.6-0.8-1.3-1.5-1.9-2.4c-0.7-0.9-1.2-1.8-1-2.9c0.1-0.7,0.3-1.4,0.5-2.1
				c-1.1,0.7-1.5,1.9-1.6,3.1c-0.1,0.4-0.3,0.9-0.5,1.2c-0.1,0.2-0.3,0.3-0.5,0.5c-0.2,0.2-0.3,0.4,0,0.6c0,0,0.1,0,0.1,0.1l0,0l0,0
				l0,0c0.1,0.1,0.4,0.3-0.1,0.8c0,0.1,0.2,0.2,0.2,0.2c0,0.1-0.1,0.3,0.2,0.6l0,0l0,0l0,0c0.1,0.1,0.2,0.2,0.2,0.3
				c0,0.3-0.1,0.8,0.7,0.9l0,0c0.1,0,0.1,0,0.2,0c0.5,0,1,0,1.5,0c0.9,0,1.7,0.9,1.5,1.6c-0.3,1.4-0.9,2.6-1.6,3.7
				c-0.1,0.1-0.3,0.3-0.4,0.3c-0.1,0-0.3-0.2-0.3-0.3c-0.4-1.1-0.9-2.2-1.2-3.3c-0.2-0.6-0.4-0.6-0.9-0.5c0,0.1,0,0.3,0,0.3
				c0.5,1.5,1.1,3,1.6,4.5c0.2,0.5,0.9,0.7,1.3,0.3c0.2-0.2,0.3-0.3,0.4-0.5c0.9-1.3,1.5-2.6,2-4.2C15.1,18.1,15,17.2,14.4,16.4z"/>
			<path class="st11" d="M31.1,20.2c-0.1-1-1-1.7-2-1.7c-1.2,0-2.1,0.6-2.2,1.7c-0.1,1-0.1,2.1-0.1,3.2c0,0.4,0.3,0.4,0.5,0.4
				c0.3,0,0.4-0.2,0.4-0.4c0-0.9,0-1.8,0-2.7c0-0.8,0.5-1.2,1.2-1.3c0.9,0,1.5,0.4,1.5,1.4c0,0.8,0,1.5,0,2.3c0,0.9,0,0.9,0.9,0.7
				C31.1,22.6,31.2,21.4,31.1,20.2z"/>
			<path class="st11" d="M25.4,19.1c-0.4,1.2-0.9,2.5-1.3,3.7c-0.1,0-0.1,0-0.2,0c-0.1-0.1-0.2-0.3-0.3-0.3
				c-0.4-1.1-0.8-2.2-1.1-3.3c-0.2-0.6-0.4-0.7-1.1-0.5c0.5,1.5,1.1,3.1,1.6,4.6c0.2,0.4,0.4,0.6,0.9,0.6c0.4,0,0.6-0.3,0.8-0.6
				c0.6-1.5,1.1-3.1,1.6-4.5C25.9,18.4,25.5,18.5,25.4,19.1z"/>
			<path class="st11" d="M21.6,22.6c-0.3,0.1-0.6,0.3-0.7,0.6c-0.1,0.3,0.3,0.7,0.6,0.7c0.4,0,0.6-0.3,0.7-0.9
				C22,23,21.8,22.6,21.6,22.6z"/>
			<path class="st11" d="M5.5,22.5c1.3-0.8,2.5-1.6,3.7-2.4c-0.6-1.4-2-1.8-3.3-1.4c-1.3,0.4-2,2-1.9,2.9c0.3,1.5,1.5,2.5,3.2,2.4
				c1,0,2.1-1,2.3-2.1c-0.3-0.1-0.4-0.2-0.7-0.3C7.8,23.4,6.4,23.8,5.5,22.5z M5.2,20.3c0.3-0.7,1.4-1.1,2.1-0.9
				c0.2,0.1,0.3,0.3,0.5,0.4c-0.1,0.2-0.3,0.3-0.3,0.4c-0.8,0.5-1.5,0.9-2.3,1.5C4.8,21.2,5,20.7,5.2,20.3z"/>
			<path class="st11" d="M20.2,21.4c0-0.9-0.3-1.7-1.2-2.3c-0.8-0.6-2-0.7-2.8-0.2c-0.9,0.5-1.5,1.7-1.4,2.6c0.3,1.8,2.1,3.1,4,1.9
				c0.2-0.1,0.3-0.2,0.5-0.3c-0.2,0.5-0.1,0.6,0.3,0.6c0.4,0,0.5-0.2,0.5-0.5C20.2,22.6,20.2,22,20.2,21.4z M17.6,23
				c-1.1,0-1.9-0.7-1.9-1.7c0-0.9,0.8-1.7,1.7-1.8c1.2-0.1,2,0.9,2,1.8C19.4,22.3,18.7,23,17.6,23z"/>
		</g>
		<path class="st12" d="M14.5,14.9c0,0-2-1.2-2.1-3.6c0-0.3-0.3-3.8,3.2-2.8c0.4,0.2,2,1.2,1.8,3.1c-0.1,0.4,0,0.8-1.5,2.2
			c0.3,0.2,2.5-0.1,2.3,0.9C17.9,14.9,17.2,16.5,14.5,14.9z"/>
		<path class="st13" d="M14.5,14.9c0,0-0.9-3.8,2.6-5.1c0.3,0,2.9-0.3,2.8,2.7c0,0.4,0.1,2.8-3.4,3.1c0.1,0.2,2.1,1.1,1.5,2
			C17.8,17.8,15.8,19,14.5,14.9z"/>
		<path class="st14" d="M17.1,15.5c0.7-0.2,0.9-0.7,0.9-0.9c0.3-0.9-2-0.7-2.3-0.9c1.5-1.5,1.5-1.8,1.5-2.2c0.1-0.8-0.1-1.4-0.3-1.8
			c-3.4,1.4-2.6,5.1-2.6,5.1c0.9,0.5,1.6,0.7,2.1,0.7C16.7,15.5,16.9,15.5,17.1,15.5z"/>
	</g>
</g>
</svg>
