<?xml version="1.0" encoding="utf-8"?>
<!-- Generator: Adobe Illustrator 21.0.0, SVG Export Plug-In . SVG Version: 6.00 Build 0)  -->
<svg version="1.1" id="Layer_1" xmlns="http://www.w3.org/2000/svg" xmlns:xlink="http://www.w3.org/1999/xlink" x="0px" y="0px"
	 width="35px" height="35px" viewBox="0 0 35 35" style="enable-background:new 0 0 35 35;" xml:space="preserve">
<style type="text/css">
	.st0{fill:#FFFFFF;}
	.st1{fill:#0B4A14;}
	.st2{fill:#A0A0A0;}
	.st3{fill:#9F234F;}
	.st4{fill:#929494;}
	.st5{fill:#535353;}
	.st6{fill:#FDFBFB;}
	.st7{fill:#E32C22;}
	.st8{fill:#0F70B4;}
	.st9{fill:#CD2027;}
	.st10{fill:#273889;}
	.st11{fill:#545456;}
	.st12{fill:#01AEF0;}
	.st13{fill:#ED008C;}
	.st14{fill:#743093;}
</style>
<g>
	<path id="rect3758-1_3_" class="st0" d="M17.5,0L17.5,0C27.1,0,35,7.9,35,17.5l0,0C35,27.1,27.1,35,17.5,35l0,0
		C7.9,35,0,27.1,0,17.5l0,0C0,7.9,7.9,0,17.5,0z"/>
	<g>
		<path class="st3" d="M9.3,20.5C9.1,20.4,9,20.3,9,20.1c0-1.7,0-3.5,0-5.2c0-0.2,0.1-0.3,0.3-0.3h0.1c1.6,0,3.3,0,5,0l0,0
			c0.2,0,0.3,0.2,0.3,0.3c0,0,0,0,0,0.1c0,1.7,0,3.5,0,5.2c0,0.1,0,0.1,0,0.2s-0.1,0.2-0.3,0.2l0,0C12.5,20.5,10.9,20.5,9.3,20.5z
			 M9.5,17.5c0,0.7,0,1.4,0,2.1c0,0.1,0,0.1,0,0.2c0,0.1,0.1,0.1,0.1,0.2c0.1,0.1,0.2,0.1,0.3,0.1c1.3,0,2.6,0,3.9,0
			c0.1,0,0.1,0,0.2,0c0.1,0,0.1-0.1,0.2-0.1c0.1-0.1,0.1-0.2,0.1-0.2c0-0.3,0-0.5,0-0.7c0-0.1,0-0.1,0-0.2c0-0.1-0.1-0.1-0.1-0.2
			c-0.1-0.1-0.2-0.1-0.3-0.1c-0.8,0-1.5,0-2.2,0c-0.2,0-0.3,0-0.5,0c-0.1,0-0.1,0-0.1-0.1c0-0.2,0-0.3,0-0.4c0-0.1,0-0.1,0.1-0.1
			l0,0c0.4,0,0.9,0,1.4,0c0.1,0,0.1,0,0.2,0c0.1,0,0.1-0.1,0.2-0.1c0-0.1,0-0.2,0-0.3c0-0.3,0-0.4,0-0.7c0-0.1,0-0.1,0-0.2
			c0-0.1-0.1-0.1-0.2-0.2c-0.1,0-0.1,0-0.2,0c-0.2,0-0.3,0-0.5,0c-0.3,0-0.6,0-0.9,0c-0.1,0-0.1,0-0.1-0.1c0-0.1,0-0.2,0-0.3
			c0-0.1,0-0.1,0.1-0.1c0.9,0,1.7,0,2.6,0c0.1,0,0.1,0,0.2,0c0.1,0,0.1-0.1,0.2-0.1c0.1-0.1,0.1-0.2,0.1-0.3c0-0.2,0-0.4,0-0.6
			c0-0.1,0-0.1,0-0.2S14,15.1,14,15c-0.1-0.1-0.2-0.1-0.3-0.1c-1.3,0-2.6,0-3.8,0c-0.1,0-0.1,0-0.2,0c-0.1,0-0.1,0.1-0.2,0.1
			c-0.1,0.1-0.1,0.2-0.1,0.3C9.5,16,9.5,16.8,9.5,17.5z"/>
		<path class="st4" d="M28.4,18.4c-0.3,0-0.5,0-0.8,0c-0.1,0-0.2,0-0.3,0s-0.2-0.1-0.3-0.3c0-0.1-0.1-0.3-0.1-0.3l0,0
			c0.1,0,0.2,0,0.3-0.1h0.1l0,0c0,0.1,0,0.1,0,0.2c0,0.1,0,0.1,0.1,0.1c0.5,0,1,0,1.5,0l0,0c0,0,0.1,0,0-0.1c0-0.2,0-0.3,0-0.5l0,0
			c0,0,0,0-0.1,0c-0.4,0-0.9,0-1.4,0c-0.1,0-0.2,0-0.3,0c-0.2,0-0.3-0.1-0.3-0.3c0-0.1,0-0.1,0-0.2c0-0.2,0-0.3,0-0.4
			c0-0.1,0-0.2,0-0.3S27,16,27.1,16s0.1,0,0.2,0c0.1,0,0.2,0,0.2,0c0.4,0,0.9,0,1.2,0c0.1,0,0.2,0,0.3,0c0.2,0,0.3,0.1,0.3,0.3
			c0,0.1,0,0.2,0,0.3c0,0,0,0,0,0.1c-0.2,0-0.3,0.1-0.4,0.1h-0.1c0-0.1,0-0.1,0-0.2c0-0.1,0-0.1-0.1-0.1c-0.1,0-0.1,0-0.2,0
			c-0.4,0-0.9,0-1.2,0c0,0,0,0-0.1,0l0,0c0,0.2,0,0.3,0,0.4l0,0c0,0,0,0,0.1,0c0.4,0,0.9,0,1.4,0c0.1,0,0.2,0,0.3,0
			c0.2,0,0.3,0.2,0.3,0.3c0,0.1,0,0.2,0,0.3c0,0.2,0,0.3,0,0.4c0,0.1,0,0.1,0,0.2c0,0.1-0.1,0.2-0.3,0.3
			C28.7,18.4,28.6,18.4,28.4,18.4C28.9,18.4,28.7,18.4,28.4,18.4z"/>
		<path class="st4" d="M31.6,18.4c-0.3,0-0.5,0-0.8,0c-0.1,0-0.2,0-0.3,0c-0.1,0-0.2-0.1-0.3-0.3c0-0.1,0-0.3,0-0.3c0,0,0,0,0-0.1
			c0.2,0,0.3-0.1,0.4-0.1l0,0c0,0.1,0,0.2,0,0.2c0,0.1,0,0.1,0.1,0.1c0.5,0,1,0,1.5,0c0.1,0,0.1,0,0.1-0.1c0-0.2,0-0.3,0-0.4
			c0-0.1,0-0.1-0.1-0.1c-0.4,0-0.9,0-1.4,0c-0.1,0-0.2,0-0.3,0c-0.2,0-0.3-0.1-0.3-0.3c0-0.1,0-0.1,0-0.2c0-0.2,0-0.3,0-0.4
			c0-0.1,0-0.2,0-0.3s0.1-0.2,0.2-0.2c0.1,0,0.2,0,0.2,0c0.1,0,0.2,0,0.3,0c0.3,0,0.8,0,1.1,0c0.1,0,0.2,0,0.3,0
			c0.2,0,0.3,0.2,0.3,0.3c0,0.1,0,0.2,0,0.3c0,0,0,0,0,0.1c-0.2,0-0.3,0.1-0.3,0.1c-0.1,0-0.1,0-0.1,0c0-0.1,0-0.1,0-0.2v-0.1l0,0
			c-0.4,0-0.9,0-1.4,0l0,0c-0.1,0-0.1,0-0.1,0.1c0,0.2,0,0.3,0,0.4c0,0.1,0,0.1,0.1,0.1c0,0,0,0,0.1,0c0.4,0,0.9,0,1.4,0
			c0.1,0,0.2,0,0.3,0c0.2,0,0.3,0.2,0.3,0.3c0,0.1,0,0.2,0,0.3c0,0.2,0,0.3,0,0.5c0,0.1,0,0.1,0,0.2c0,0.1-0.1,0.2-0.3,0.2
			c-0.1,0-0.2,0-0.3,0C32.1,18.4,31.8,18.4,31.6,18.4z"/>
		<path class="st4" d="M24.2,17.2c0-0.3,0-0.8,0-1.1c0,0,0,0,0-0.1l0,0c0,0,0,0,0.1,0c0.8,0,1.5,0,2.2,0c0.1,0,0.1,0,0.1,0.1
			s0,0.2,0,0.3s0,0.1-0.1,0.1c-0.1,0-0.1,0-0.2,0c-0.5,0-1,0-1.5,0c-0.1,0-0.1,0-0.1,0.1c0,0.2,0,0.3,0,0.4c0,0.1,0,0.1,0.1,0.1
			c0.3,0,0.6,0,0.9,0c0.1,0,0.1,0,0.1,0.1c0,0.1,0,0.2,0,0.3c0,0.1,0,0.1-0.1,0.1c-0.3,0-0.6,0-0.9,0c-0.1,0-0.1,0-0.1,0.1
			c0,0.2,0,0.3,0,0.4c0,0.1,0,0.1,0.1,0.1c0.5,0,0.9,0,1.5,0c0.1,0,0.2,0,0.3,0c0,0,0.1,0,0.1,0.1c0,0.1,0,0.3,0,0.3
			c0,0,0,0.1-0.1,0l0,0c-0.8,0-1.5,0-2.2,0l0,0c-0.1,0-0.1,0-0.1-0.1C24.2,18,24.2,17.6,24.2,17.2z"/>
		<path class="st4" d="M14.9,16L14.9,16c0.3,0,0.4,0,0.6,0h0.1c0.2,0.2,0.3,0.3,0.4,0.5c0.1,0.1,0.2,0.2,0.3,0.3c0,0,0,0,0.1,0
			c0.2-0.3,0.4-0.5,0.6-0.8l0.1-0.1c0.2,0,0.3,0,0.5,0c0,0,0,0,0.1,0c0,0,0,0-0.1,0.1c-0.3,0.3-0.6,0.7-0.9,1c0,0,0,0,0,0.1
			c0.2,0.2,0.3,0.3,0.5,0.5c0.3,0.3,0.4,0.4,0.7,0.7c0,0,0,0,0,0.1l0,0c-0.2,0-0.4,0-0.6,0h-0.1c-0.3-0.3-0.5-0.6-0.8-0.9
			c0,0,0,0-0.1-0.1c-0.1,0.1-0.2,0.2-0.2,0.3c-0.2,0.3-0.3,0.4-0.5,0.7c0,0,0,0-0.1,0c-0.2,0-0.3,0-0.6,0l0,0l0,0
			c0.2-0.3,0.4-0.5,0.6-0.7c0.2-0.2,0.3-0.3,0.4-0.4c0,0,0,0,0-0.1c-0.2-0.2-0.3-0.3-0.4-0.4C15.4,16.6,15.2,16.3,14.9,16L14.9,16z"
			/>
		<path class="st5" d="M32.2,19.7L32.2,19.7c0.2-0.2,0.3-0.3,0.3-0.4l0.1-0.1c0.1,0,0.1,0,0.1,0.1c0,0.2,0,0.4,0,0.6
			c0,0.1,0,0.1-0.1,0.1h-0.1v-0.1c0-0.2,0-0.3,0-0.4c0,0,0,0-0.1,0.1c-0.1,0.1-0.2,0.3-0.3,0.3c0,0.1-0.1,0.1-0.1,0
			c-0.1-0.1-0.2-0.3-0.3-0.3l0,0c0,0,0,0,0,0.1c0,0.2,0,0.3,0,0.4c0,0.1,0,0.1-0.1,0.1s-0.1,0-0.1-0.1c0-0.2,0-0.4,0-0.6
			c0-0.1,0-0.1,0.1-0.1s0.1,0,0.2,0.1C32,19.5,32.1,19.5,32.2,19.7L32.2,19.7z"/>
		<path class="st5" d="M17.4,19.8c0-0.2,0-0.3,0-0.5c0.1,0,0.1,0,0.2,0l0,0c0,0.1,0,0.1,0,0.2c0,0.2,0,0.3,0,0.5
			c0,0.1,0,0.1-0.1,0.1s-0.1,0-0.2-0.1c-0.2-0.2-0.3-0.3-0.5-0.4l0,0v0.1c0,0.1,0,0.3,0,0.3c0,0.1,0,0.1-0.1,0.1
			c-0.2,0-0.1,0-0.1-0.1c0-0.2,0-0.4,0-0.6c0-0.1,0-0.1,0.1-0.1c0.1,0,0.1,0,0.1,0.1C17,19.5,17.2,19.6,17.4,19.8z"/>
		<path class="st5" d="M23,19.8c0-0.2,0-0.3,0-0.5c0.1,0,0.1,0,0.2,0l0,0c0,0.1,0,0.1,0,0.2c0,0.2,0,0.3,0,0.5c0,0.1,0,0.1-0.1,0.1
			c-0.1,0-0.1,0-0.2-0.1c-0.2-0.2-0.3-0.3-0.5-0.4l0,0v0.1c0,0.1,0,0.3,0,0.3c0,0.1,0,0.1-0.1,0.1c-0.1,0-0.1,0-0.1-0.1
			c0-0.2,0-0.4,0-0.6c0-0.1,0-0.1,0.1-0.1c0.1,0,0.1,0,0.1,0.1C22.7,19.5,22.9,19.6,23,19.8z"/>
		<path class="st5" d="M19.3,19.8C19.3,19.7,19.3,19.7,19.3,19.8c0-0.2,0-0.3,0-0.4c0-0.1,0-0.1,0.1-0.1h0.1l0,0l0,0
			c0,0.3,0,0.4,0,0.7c0,0.1,0,0.1-0.1,0.1c-0.1,0-0.1,0-0.1,0c-0.2-0.2-0.3-0.3-0.6-0.5l0,0c0,0.2,0,0.3,0,0.4c0,0.1,0,0.1-0.1,0.1
			h-0.1V20c0-0.2,0-0.4,0-0.6c0-0.1,0-0.1,0.1-0.1c0.1,0,0.1,0,0.1,0C18.9,19.5,19.1,19.6,19.3,19.8C19.3,19.7,19.3,19.8,19.3,19.8z
			"/>
		<path class="st5" d="M30,19.8c0-0.2,0-0.3,0-0.4c0,0,0,0,0-0.1l0,0l0,0c0.2,0,0.2,0,0.2,0.1c0,0.2,0,0.4,0,0.6
			c0,0.1,0,0.1-0.1,0.1c-0.1,0-0.1,0-0.1-0.1c-0.2-0.2-0.3-0.3-0.5-0.4l0,0c0,0,0,0,0,0.1c0,0.2,0,0.3,0,0.4c0,0.1,0,0.1-0.1,0.1
			h-0.1l0,0l0,0c0-0.3,0-0.4,0-0.7c0-0.1,0-0.1,0.1-0.1s0.1,0,0.1,0C29.6,19.5,29.8,19.6,30,19.8L30,19.8z"/>
		<path class="st5" d="M27.6,20.1c-0.1,0-0.3,0-0.3,0c-0.1,0-0.1,0-0.1-0.1c0-0.3,0-0.4,0-0.7c0,0,0-0.1,0.1-0.1c0.3,0,0.4,0,0.7,0
			c0.1,0,0.1,0,0.1,0.1c0,0.1,0,0.1-0.1,0.1c-0.2,0-0.3,0-0.5,0c-0.1,0-0.1,0-0.1,0.1v0.1h0.1c0.1,0,0.2,0,0.2,0l0,0
			c0,0.1,0,0.1-0.1,0.1c-0.1,0-0.2,0-0.2,0c-0.1,0-0.1,0-0.1,0.1v0.1l0,0c0.1,0,0.2,0,0.3,0c0.1,0,0.3,0,0.3,0c0,0,0.1,0,0.1,0.1
			c0,0.1,0,0.1-0.1,0.1C27.7,20.1,27.7,20.1,27.6,20.1z"/>
		<path class="st5" d="M23.6,19.6c0-0.1,0-0.3,0-0.3c0,0,0-0.1,0,0h0.1l0,0C23.7,19.4,23.7,19.5,23.6,19.6c0.1,0,0.1,0,0.2,0
			c0.2,0,0.3,0,0.5,0c0.1,0,0.1,0,0.1-0.1c0-0.1,0-0.2,0-0.3l0,0h0.1c0.1,0,0.1,0,0.1,0.1c0,0.2,0,0.4,0,0.6v0.1l0,0h-0.1l0,0
			c0-0.1,0-0.2,0-0.3l0,0c-0.2,0-0.3,0-0.5,0c0,0,0,0,0,0.1c0,0.1,0,0.2,0,0.3c0,0.1,0,0.1-0.1,0.1h-0.1c0,0-0.1,0-0.1-0.1
			C23.6,19.9,23.6,19.7,23.6,19.6z"/>
		<path class="st5" d="M20.7,19.6c0,0.1,0,0.3,0,0.3c0,0.1,0,0.1-0.1,0.1c-0.1,0-0.1,0-0.2,0V20c0-0.1,0-0.1,0-0.2l0,0
			c-0.2,0-0.3,0-0.5,0l0,0c0,0.1,0,0.2,0,0.3s0,0.1-0.1,0.1h-0.1l0,0l0,0c0-0.2,0-0.4,0-0.6l0,0l0,0l0,0c0.1,0,0.1,0,0.2,0
			c0,0,0,0.1,0,0.2v0.1l0,0c0.2,0,0.3,0,0.5,0l0,0c0-0.1,0-0.2,0-0.3l0,0h0.1l0,0C20.7,19.4,20.7,19.5,20.7,19.6z"/>
		<path class="st5" d="M25.4,19.3c0.1,0,0.1,0,0.2,0c0,0,0,0,0.1,0c0.1,0.2,0.2,0.3,0.3,0.4c0,0,0,0,0,0.1l0,0
			c0.1-0.2,0.2-0.3,0.3-0.4c0,0,0-0.1,0.1-0.1h0.1c0,0,0,0,0,0.1c-0.1,0.3-0.3,0.4-0.3,0.7c0,0,0,0.1-0.1,0.1h-0.1
			C25.7,19.7,25.5,19.5,25.4,19.3L25.4,19.3z"/>
		<path class="st5" d="M15.4,19.3c0.2,0,0.3,0,0.4,0c0.1,0,0.1,0,0.1,0.1c0,0.1,0,0.1-0.1,0.1s-0.2,0-0.2,0c-0.1,0-0.1,0-0.1,0.1
			c0,0.2,0,0.3,0,0.5c0,0,0,0,0,0.1l0,0h-0.1l0,0v-0.1c0-0.2,0-0.3,0-0.4c0-0.1,0-0.1-0.1-0.1s-0.2,0-0.3,0l0,0c0-0.1,0-0.1,0.1-0.1
			C15.2,19.3,15.3,19.3,15.4,19.3z"/>
		<path class="st5" d="M28.6,19.3c0.2,0,0.3,0,0.4,0h0.1c0,0.1,0,0.1-0.1,0.1c-0.1,0-0.2,0-0.2,0c-0.1,0-0.1,0-0.1,0.1
			c0,0.2,0,0.3,0,0.5c0,0,0,0,0,0.1c0,0.1,0,0.1-0.1,0.1c0,0,0,0-0.1,0c-0.1,0-0.1,0-0.1-0.1c0-0.2,0-0.3,0-0.4c0-0.1,0-0.1,0-0.2
			L28.6,19.3c-0.2,0.1-0.3,0.1-0.3,0.1c-0.1,0-0.1,0-0.1-0.1c0-0.1,0-0.1,0.1-0.1C28.3,19.3,28.4,19.3,28.6,19.3z"/>
		<path class="st5" d="M16.2,19.6c0,0.1,0,0.3,0,0.3c0,0.1,0,0.1-0.1,0.1H16V20c0-0.2,0-0.4,0-0.6c0-0.1,0-0.1,0.1-0.1h0.1
			c0.1,0,0.1,0,0.1,0.1C16.2,19.4,16.2,19.5,16.2,19.6z"/>
		<path class="st5" d="M26.7,19.6c0,0.1,0,0.3,0,0.3c0,0.1,0,0.1-0.1,0.1h-0.1c0,0,0,0,0-0.1c0-0.3,0-0.4,0-0.7c0,0,0-0.1,0.1,0h0.1
			l0,0C26.7,19.4,26.7,19.5,26.7,19.6L26.7,19.6z"/>
		<path class="st4" d="M6,16.8c0,0.1,0,0.1,0,0.2c0,0.1,0,0.2,0,0.2c0,0.4,0,0.9,0,1.3l0,0l0,0c-0.2,0-0.3,0-0.4,0l0,0l0,0
			c0-0.8,0-1.5,0-2.2c0-0.1,0-0.1,0.1-0.1s0.2,0,0.3,0H6c0.3,0.2,0.5,0.4,0.7,0.6C7,17,7.3,17.2,7.6,17.6c0.1,0.1,0.2,0.1,0.2,0.2
			l0,0c0-0.1,0-0.2,0-0.2c0-0.1,0-0.2,0-0.3c0-0.4,0-0.8,0-1.2l0,0c0,0,0,0,0.1,0c0.2,0,0.3,0,0.4,0c0.1,0,0.1,0,0.1,0.1l0,0
			c0,0.8,0,1.5,0,2.2c0,0.1,0,0.1-0.1,0.1c-0.1,0-0.2,0-0.3,0H7.9c-0.2-0.2-0.3-0.3-0.5-0.4c-0.3-0.3-0.6-0.5-0.9-0.7
			C6.4,17.2,6.2,17.1,6,16.8L6,16.8L6,16.8L6,16.8L6,16.8z"/>
		<path class="st4" d="M5.2,16.1c0,0.1-0.1,0.2-0.2,0.3c-0.2,0.3-0.4,0.8-0.6,1.1s-0.3,0.7-0.5,0.9c0,0.1-0.1,0.1-0.1,0.1
			c-0.1,0-0.2,0-0.3,0H3.5c-0.2-0.3-0.3-0.5-0.4-0.7c-0.3-0.5-0.6-1.1-0.9-1.6c0,0,0,0,0-0.1c0,0,0,0,0.1,0c0.2,0,0.3,0,0.5,0
			c0,0,0.1,0,0.1,0.1C3,16.5,3.1,16.7,3.2,17c0.2,0.3,0.3,0.6,0.5,0.9l0,0l0,0C4,17.4,4.2,17,4.4,16.6c0.1-0.2,0.2-0.3,0.2-0.4
			c0,0,0-0.1,0.1-0.1C4.9,16.1,5,16.1,5.2,16.1L5.2,16.1z"/>
		<path class="st6" d="M9.5,17.5c0-0.7,0-1.5,0-2.1c0-0.1,0-0.2,0.1-0.3C9.6,15,9.6,15,9.7,15c0.1,0,0.1,0,0.2,0c1.3,0,2.6,0,3.8,0
			c0.1,0,0.2,0,0.3,0.1c0,0,0.1,0.1,0.1,0.2s0,0.1,0,0.2c0,0.2,0,0.4,0,0.6c0,0.1,0,0.2-0.1,0.3c0,0.1-0.1,0.1-0.2,0.1s-0.1,0-0.2,0
			c-0.9,0-1.7,0-2.6,0c-0.1,0-0.1,0-0.1,0.1c0,0.1,0,0.2,0,0.3c0,0.1,0,0.1,0.1,0.1c0.3,0,0.6,0,0.9,0c0.2,0,0.3,0,0.5,0
			c0.1,0,0.1,0,0.2,0c0.1,0,0.1,0.1,0.2,0.2c0,0.1,0,0.1,0,0.2c0,0.3,0,0.4,0,0.7c0,0.1,0,0.2-0.1,0.3c0,0.1-0.1,0.1-0.2,0.1
			c-0.1,0-0.1,0-0.2,0c-0.4,0-0.9,0-1.4,0l0,0c-0.1,0-0.1,0-0.1,0.1c0,0.2,0,0.3,0,0.4c0,0.1,0,0.1,0.1,0.1c0.2,0,0.3,0,0.5,0
			c0.8,0,1.5,0,2.2,0c0.1,0,0.2,0,0.3,0.1c0.1,0,0.1,0.1,0.1,0.2c0,0.1,0,0.1,0,0.2c0,0.3,0,0.5,0,0.7c0,0.1,0,0.2-0.1,0.2
			c0,0.1-0.1,0.1-0.2,0.1s-0.1,0-0.2,0c-1.3,0-2.6,0-3.9,0c-0.1,0-0.2,0-0.3-0.1c-0.1,0-0.1-0.1-0.1-0.2c0-0.1,0-0.1,0-0.2
			C9.5,19,9.5,18.2,9.5,17.5z M9.8,17.5c0,0.7,0,1.5,0,2.1c0,0.1,0,0.1,0.1,0.1c1.3,0,2.6,0,3.8,0c0,0,0,0,0.1,0l0,0c0,0,0,0,0-0.1
			c0-0.3,0-0.4,0-0.7c0-0.1,0-0.1-0.1-0.1c-1,0-2,0-3,0c0,0,0,0-0.1,0l0,0l0,0c0-0.3,0-0.7,0-0.9c0-0.1,0-0.1,0.1-0.1l0,0
			c0.5,0,1.1,0,1.6,0c0.1,0,0.1,0,0.1-0.1c0-0.2,0-0.4,0-0.6c0-0.1,0-0.1-0.1-0.1c-0.5,0-1.1,0-1.6,0c0,0,0,0-0.1,0l0,0l0,0
			c0-0.3,0-0.6,0-0.9l0,0l0,0c0,0,0,0,0.1,0c0.3,0,0.5,0,0.8,0c0.8,0,1.5,0,2.2,0c0.1,0,0.1,0,0.1-0.1c0-0.2,0-0.4,0-0.6
			c0-0.1,0-0.1-0.1-0.1c-0.9,0-1.7,0-2.6,0c-0.4,0-0.9,0-1.3,0c-0.1,0-0.1,0-0.1,0.1l0,0C9.8,16.1,9.8,16.8,9.8,17.5z"/>
		<path class="st4" d="M22.7,17.5C22.7,17.5,22.8,17.5,22.7,17.5c0.2,0,0.2,0,0.3,0s0.2,0,0.3-0.1c0.1,0,0.2-0.1,0.2-0.2
			c0-0.1,0.1-0.2,0.1-0.2c0-0.1,0-0.2,0-0.3c0-0.2,0-0.3,0-0.4c0-0.3-0.1-0.3-0.3-0.3c-0.1,0-0.2,0-0.3,0c-0.6,0-1.2,0-1.8,0
			C21,16,21,16,21,16c0,0.8,0,1.5,0,2.2l0,0c0,0.1,0,0.1,0.1,0.1c0.2,0,0.3,0,0.4,0c0.1,0,0.1,0,0.1-0.1v-0.1c0-0.3,0-0.5,0-0.7
			c0-0.1,0-0.1,0.1-0.1s0.3,0,0.3,0s0.1,0,0.1,0.1c0.3,0.3,0.5,0.5,0.9,0.9H23c0.3,0,0.4,0,0.7,0c0,0,0,0,0.1,0
			C23.4,18.1,23,17.8,22.7,17.5z M21.6,17.1L21.6,17.1c-0.1-0.3-0.1-0.4-0.1-0.6c0-0.1,0-0.1,0.1-0.1c0.4,0,0.8,0,1.2,0h0.1
			c0.1,0,0.1,0.1,0.2,0.2c0,0.1,0,0.3,0,0.3C23,17,23,17,23,17.1h-0.1c-0.2,0-0.3,0-0.5,0C22,17.1,21.9,17.1,21.6,17.1z"/>
		<path class="st4" d="M20.6,16.5c0-0.1,0-0.1,0-0.2c0-0.2-0.1-0.3-0.3-0.3c-0.1,0-0.2,0-0.3,0c-0.3,0-0.6,0-0.9,0l0,0
			c-0.3,0-0.7,0-0.9,0c-0.1,0-0.1,0-0.1,0.1c0,0.8,0,1.5,0,2.2l0,0c0,0.1,0,0.1,0.1,0.1c0.2,0,0.3,0,0.4,0h0.1c0,0,0,0,0-0.1
			c0-0.3,0-0.5,0-0.8c0,0,0,0,0-0.1l0,0c0,0,0,0,0.1,0c0.4,0,0.9,0,1.4,0c0.1,0,0.1,0,0.2,0c0.2-0.1,0.3-0.2,0.3-0.3
			c0-0.1,0-0.1,0-0.2C20.6,16.9,20.6,16.6,20.6,16.5z M20.1,16.9L20.1,16.9c0,0.2-0.1,0.2-0.2,0.2h-0.1c-0.3,0-0.8,0-1.1,0l0,0l0,0
			l0,0c0-0.2,0-0.3,0-0.5c0-0.1,0-0.1,0.1-0.1c0.2,0,0.3,0,0.6,0l0,0c0.2,0,0.3,0,0.6,0h0.1c0.1,0,0.1,0.1,0.1,0.1v0.1
			C20.1,16.7,20.1,16.8,20.1,16.9z"/>
		<path class="st5" d="M31.4,20c-0.1-0.2-0.3-0.4-0.3-0.6c0,0,0-0.1-0.1-0.1h-0.1h-0.1c-0.1,0.1-0.2,0.3-0.2,0.3
			c-0.1,0.1-0.2,0.3-0.2,0.3c0.1,0,0.1,0,0.2,0c0,0,0,0,0.1,0c0,0,0-0.1,0.1-0.1c0,0,0,0,0.1,0C31.1,19.9,31.2,19.9,31.4,20
			C31.3,19.9,31.3,19.9,31.4,20C31.4,19.9,31.4,20,31.4,20L31.4,20C31.3,20.1,31.3,20.1,31.4,20L31.4,20z M30.7,19.7
			c0.1-0.1,0.1-0.2,0.2-0.3c0.1,0.1,0.1,0.2,0.2,0.3C31,19.7,30.8,19.7,30.7,19.7z"/>
		<path class="st5" d="M22,20c-0.1-0.2-0.3-0.4-0.3-0.6c0,0,0-0.1-0.1-0.1h-0.1c0,0-0.1,0-0.1,0.1c-0.1,0.3-0.3,0.4-0.3,0.7
			c0,0,0,0,0,0.1c0.1,0,0.1,0,0.2,0l0,0c0,0,0-0.1,0.1-0.1c0,0,0,0,0.1,0c0.2,0,0.3,0,0.4,0C21.9,20.1,21.9,20.1,22,20
			c-0.1,0.1-0.1,0.2,0,0.2l0,0C21.9,20.1,22,20.1,22,20C22.1,20,22,20,22,20z M21.5,19.7c-0.1,0-0.1,0-0.2,0
			c0.1-0.1,0.1-0.2,0.2-0.3c0.1,0.1,0.1,0.2,0.2,0.3C21.7,19.7,21.6,19.7,21.5,19.7z"/>
		<path class="st3" d="M9.8,17.5c0-0.7,0-1.4,0-2.1l0,0c0-0.1,0-0.1,0.1-0.1c0.4,0,0.9,0,1.3,0c0.9,0,1.7,0,2.6,0
			c0.1,0,0.1,0,0.1,0.1c0,0.2,0,0.4,0,0.6c0,0.1,0,0.1-0.1,0.1c-0.8,0-1.5,0-2.2,0c-0.3,0-0.5,0-0.8,0c0,0,0,0-0.1,0l0,0l0,0
			c0,0.3,0,0.6,0,0.9l0,0l0,0c0,0,0,0,0.1,0c0.5,0,1.1,0,1.6,0c0.1,0,0.1,0,0.1,0.1c0,0.2,0,0.4,0,0.6c0,0.1,0,0.1-0.1,0.1
			c-0.5,0-1.1,0-1.6,0l0,0c-0.1,0-0.1,0-0.1,0.1c0,0.3,0,0.7,0,0.9l0,0l0,0c0,0,0,0,0.1,0c1,0,2,0,3,0c0.1,0,0.1,0,0.1,0.1
			c0,0.3,0,0.4,0,0.7c0,0,0,0,0,0.1l0,0c0,0,0,0-0.1,0c-1.3,0-2.6,0-3.8,0c-0.1,0-0.1,0-0.1-0.1C9.8,19,9.8,18.2,9.8,17.5z"/>
	</g>
</g>
</svg>
