<?xml version="1.0" encoding="utf-8"?>
<!-- Generator: Adobe Illustrator 21.0.0, SVG Export Plug-In . SVG Version: 6.00 Build 0)  -->
<svg version="1.1" id="Layer_1" xmlns="http://www.w3.org/2000/svg" xmlns:xlink="http://www.w3.org/1999/xlink" x="0px" y="0px"
	 width="35px" height="35px" viewBox="0 0 35 35" style="enable-background:new 0 0 35 35;" xml:space="preserve">
<style type="text/css">
	.st0{fill:#FFFFFF;}
	.st1{fill:#0B4A14;}
	.st2{fill:#A0A0A0;}
	.st3{fill:#9F234F;}
	.st4{fill:#929494;}
	.st5{fill:#535353;}
	.st6{fill:#FDFBFB;}
	.st7{fill:#E32C22;}
	.st8{fill:#0F70B4;}
	.st9{fill:#CD2027;}
	.st10{fill:#273889;}
	.st11{fill:#545456;}
	.st12{fill:#01AEF0;}
	.st13{fill:#ED008C;}
	.st14{fill:#743093;}
</style>
<g>
	<path id="rect3758-1_7_" class="st0" d="M17.5,0L17.5,0C27.1,0,35,7.9,35,17.5l0,0C35,27.1,27.1,35,17.5,35l0,0
		C7.9,35,0,27.1,0,17.5l0,0C0,7.9,7.9,0,17.5,0z"/>
	<g>
		<path class="st9" d="M32.7,16.5c-0.2,0.3-0.5,0.5-0.7,0.8c0,0,0,0.1,0,0.2c0,0.8,0,1.5,0,2.3c0,0.1,0,0.2,0.2,0.2
			c0.2,0,0.3,0,0.5,0c-0.2,0.3-0.4,0.5-0.6,0.7c0,0-0.1,0-0.1,0c-0.3,0-0.6,0-0.9,0c0-0.1,0-0.2,0-0.2c0-1.5,0-3.1,0-4.6
			c0-0.1,0-0.2,0.1-0.3c0.2-0.2,0.4-0.5,0.6-0.7c0,0,0.1,0,0.1,0.1c0,0.1,0,0.2,0,0.3c0,0.3,0,0.7,0,1c0,0.1,0,0.2,0.2,0.2
			C32.3,16.5,32.5,16.5,32.7,16.5C32.7,16.4,32.7,16.5,32.7,16.5z"/>
		<path class="st9" d="M2.3,16.2c1.7,0,3.4,0,5.1,0c0,1.5,0,3,0,4.6c0.3-0.2,0.5-0.4,0.8-0.6c0,0.2,0,0.3,0,0.5c0,0.1,0,0.2,0.2,0.2
			h0c0.5,0.1,1,0,1.3-0.6c0,0,0,0,0.1-0.1c0,0.2,0,0.3,0,0.5c0,0.1,0,0.2,0.2,0.2c0.3,0,0.6,0,0.9,0c-1.2,1-2.3,2-3.5,3.1
			C6.4,20.9,5,18.2,2.3,16.2z"/>
		<path class="st10" d="M24.6,19.9c-0.2,0.3-0.4,0.5-0.6,0.7c0,0-0.1,0-0.1,0c-0.2,0-0.4,0-0.6,0c0-0.1,0-0.2,0-0.2
			c0-0.9,0-1.7,0-2.6c0-0.4-0.2-0.6-0.4-0.8c-0.2,0.1-0.3,0.2-0.3,0.5c0,1,0,2,0,2.9c0,0.1,0,0.1,0,0.2c-0.2,0-0.5,0-0.8,0
			c0-0.1,0-0.2,0-0.2c0-0.9,0-1.7,0-2.6c0-0.5,0-0.5-0.4-0.8c-0.2,0.1-0.3,0.3-0.3,0.5c0,1,0,1.9,0,2.9c0,0.1,0,0.2,0,0.3
			c-0.3,0-0.5,0-0.8,0c0-0.1,0-0.1,0-0.2c0-1.1,0-2.1,0-3.2c0-0.1,0-0.2,0.1-0.3c0.2-0.2,0.4-0.4,0.7-0.7c0,0.3,0,0.5,0,0.7
			c0.2-0.2,0.5-0.5,0.8-0.7c0.2,0.3,0.4,0.5,0.6,0.8c0.3-0.3,0.6-0.5,0.8-0.8c0.2,0.2,0.4,0.4,0.5,0.7c0,0.1,0.1,0.1,0.1,0.2
			c0,0.8,0,1.7,0,2.5c0,0.3,0,0.3,0.3,0.3C24.4,19.9,24.5,19.9,24.6,19.9z"/>
		<path class="st9" d="M24.9,8.7c-2.8,2.5-5.7,5-8.5,7.4c-0.1-0.1-0.1-0.1-0.2-0.2c-0.2,0.2-0.5,0.5-0.7,0.7c0-0.3,0-0.6,0-0.9
			c-0.1,0.1-0.1,0.1-0.1,0.1c-0.3,0.4-0.7,0.7-1,1.1c-0.1,0.1-0.1,0.2-0.1,0.3c0,0.1,0,0.2,0,0.4c0.1,0.4-0.1,0.7-0.5,0.9
			c0-0.2,0-0.5,0-0.7c0-0.3,0.1-0.5,0.3-0.7c0.2-0.2,0.4-0.5,0.7-0.8c-0.2,0-0.4,0-0.5,0c0,0,0,0,0-0.1
			C17.7,13.6,21.3,11.2,24.9,8.7C24.9,8.6,24.9,8.7,24.9,8.7z"/>
		<path class="st9" d="M10.7,14.5c0,0.9-0.7,1.6-1.6,1.6s-1.6-0.7-1.6-1.6c0-0.9,0.7-1.6,1.6-1.6C10,12.9,10.7,13.6,10.7,14.5z"/>
		<path class="st10" d="M15.9,20.7c0-1,0-2,0-2.9c0-0.4,0-0.4-0.3-0.7c-0.2,0.2-0.4,0.3-0.4,0.7c0,0.9,0,1.8,0,2.7
			c0,0.1,0,0.1,0,0.2c-0.3,0-0.5,0-0.8,0c0-0.1,0-0.1,0-0.2c0-1.1,0-2.1,0-3.2c0-0.1,0-0.2,0.1-0.3c0.2-0.2,0.5-0.5,0.7-0.8
			c0,0.3,0,0.6,0,0.9c0.3-0.3,0.6-0.6,0.9-0.9c0.2,0.3,0.4,0.5,0.5,0.7c0,0,0,0.1,0,0.2c0,0.9,0,1.7,0,2.6c0,0.2,0,0.3,0.2,0.2
			c0.1,0,0.1,0,0.3,0c-0.2,0.3-0.4,0.5-0.6,0.7c0,0-0.1,0-0.1,0C16.3,20.7,16.1,20.7,15.9,20.7z"/>
		<path class="st9" d="M26.2,16.3c0,0.2,0,0.5,0,0.8c0.3-0.3,0.6-0.6,0.9-0.9c0.2,0.3,0.4,0.5,0.5,0.7c0,0.1,0,0.2,0,0.2
			c0,0.8,0,1.7,0,2.5c0,0.1,0,0.2,0,0.3c0.2,0,0.3,0,0.5,0c-0.2,0.3-0.4,0.5-0.6,0.7c0,0-0.1,0-0.1,0c-0.2,0-0.4,0-0.6,0
			c0-0.1,0-0.2,0-0.2c0-0.9,0-1.8,0-2.7c0-0.3-0.1-0.5-0.3-0.7c-0.3,0.2-0.4,0.4-0.4,0.8c0,0.8,0,1.7,0,2.5c0,0.1,0,0.2,0,0.3
			c-0.3,0-0.5,0-0.8,0c0-0.1,0-0.1,0-0.2c0-1,0-2.1,0-3.2c0-0.1,0.1-0.3,0.1-0.3C25.8,16.7,26,16.5,26.2,16.3z"/>
		<path class="st10" d="M18.8,17.5c-0.2-0.2-0.4-0.4-0.5-0.6c0,0,0,0-0.1,0c0,0.1,0,0.3,0,0.4c0,0.1-0.1,0.1-0.1,0.1
			c-0.2,0-0.5,0-0.8,0c0.1-0.1,0.1-0.2,0.1-0.2c0.4-0.4,0.9-0.7,1.3-1.1c0.3,0.3,0.6,0.5,0.9,0.8c0,0,0,0.1,0,0.2c0,0.8,0,1.6,0,2.4
			c0,0.1,0,0.1,0,0.2c0.2,0,0.3,0,0.5,0c-0.2,0.3-0.4,0.5-0.6,0.7c0,0-0.1,0-0.1,0c-0.2,0-0.4,0-0.7,0c0-0.2,0-0.4,0-0.7
			c-0.2,0.2-0.3,0.3-0.5,0.4c-0.2,0.2-0.4,0.3-0.7,0.3c-0.1,0-0.2,0-0.3,0c0-0.4,0-0.9,0-1.3c0-0.4,0.1-0.7,0.4-0.9
			C18.1,18.2,18.5,17.8,18.8,17.5z M18.8,17.8c-0.4,0.3-0.7,0.5-0.6,1.1c0.1,0.3,0,0.7,0,1.1c0.2,0,0.3,0,0.5,0c0,0,0.1-0.1,0.1-0.1
			C18.8,19.1,18.8,18.5,18.8,17.8z"/>
		<path class="st10" d="M13.4,14.8c0,0.5,0,0.9,0,1.3c0,0.2,0.1,0.3,0.2,0.2c0.1,0,0.3,0,0.5,0c-0.2,0.2-0.3,0.4-0.5,0.5
			c-0.2,0.2-0.3,0.4-0.3,0.7c0,0.7,0,1.3,0,2c0,0.2,0,0.2,0.2,0.2c0.1,0,0.3,0,0.5,0c-0.2,0.3-0.4,0.5-0.6,0.7c0,0-0.1,0-0.1,0
			c-0.3,0-0.6,0-0.9,0c0-0.1,0-0.2,0-0.2c0-1.5,0-3.1,0-4.6c0-0.1,0-0.3,0.2-0.4C12.9,15.3,13.2,15.1,13.4,14.8z"/>
		<path class="st9" d="M29.9,16.3c0.3,0.4,0.6,0.8,0.8,1.2c-0.4,0.5-0.8,0.9-1.2,1.4c-0.3,0.3-0.1,0.6-0.1,0.9c0,0,0.1,0.1,0.2,0.1
			c0.3,0,0.6,0,1,0c-0.3,0.3-0.5,0.5-0.7,0.7c0,0-0.1,0-0.1,0c-0.4,0-0.8,0-1.2,0c0-0.1,0-0.1,0-0.2c0-0.9,0-1.8,0-2.7
			c0-0.1,0-0.2,0.1-0.2C29,17.1,29.4,16.7,29.9,16.3z M29.4,18.8L29.4,18.8c0.2-0.2,0.5-0.5,0.7-0.7c-0.2-0.3-0.4-0.7-0.7-1l0,0
			C29.4,17.6,29.4,18.2,29.4,18.8z"/>
		<path class="st10" d="M10.8,19.9c0.4,0,0.8,0,1.2,0c-0.2,0.3-0.5,0.5-0.7,0.7c0,0-0.1,0-0.1,0c-0.4,0-0.8,0-1.2,0
			c0-0.1,0-0.1,0-0.2c0-0.9,0-1.8,0-2.7c0-0.1,0.1-0.2,0.1-0.3c0.4-0.4,0.8-0.8,1.2-1.2c0.3,0.4,0.6,0.8,0.8,1.2c0,0,0,0.1-0.1,0.2
			c-0.4,0.4-0.7,0.8-1.1,1.3c-0.1,0.1-0.2,0.3-0.2,0.5C10.8,19.5,10.8,19.7,10.8,19.9z M10.8,17c0,0.6,0,1.2,0,1.9
			c0.2-0.3,0.4-0.5,0.6-0.7c0,0,0-0.1,0-0.2C11.3,17.6,11.1,17.3,10.8,17z"/>
		<path class="st9" d="M32.4,21.2c0.1,0.2-0.1,0.2-0.2,0.2c-5.7,0-11.4,0-17,0c-0.8,0-1.5,0-2.3,0c-0.1,0-0.2,0-0.2,0
			c0-0.1,0-0.2,0-0.2C19.2,21.2,25.8,21.2,32.4,21.2z"/>
		<path class="st10" d="M9.2,19.9c0.2,0,0.3,0,0.5,0c-0.2,0.3-0.4,0.5-0.6,0.7c0,0-0.1,0-0.1,0c-0.2,0-0.4,0-0.6,0
			c0-0.1,0-0.1,0-0.2c0-1.1,0-2.1,0-3.2c0-0.1,0.1-0.2,0.1-0.3c0.2-0.2,0.4-0.5,0.7-0.8C9.2,17.5,9.2,18.7,9.2,19.9z"/>
		<path class="st9" d="M12.4,17.6c0,0.7,0,1.3,0,1.9c0,0.1-0.1,0.2-0.2,0.2c-0.4,0-0.7,0-1.1,0c0-0.3-0.1-0.5,0.2-0.8
			C11.6,18.5,12,18.1,12.4,17.6z"/>
		<path class="st9" d="M9.8,19.7c-0.1,0-0.2,0-0.3,0c-0.1-0.3-0.1-0.3,0.3-0.6C9.8,19.3,9.8,19.5,9.8,19.7z"/>
		<path class="st0" d="M18.8,17.8c0,0.7,0,1.4,0,2c0,0-0.1,0.1-0.1,0.1c-0.2,0-0.3,0-0.5,0c0-0.4,0-0.7,0-1.1
			C18.1,18.3,18.5,18,18.8,17.8z"/>
		<path class="st0" d="M29.4,18.8c0-0.6,0-1.1,0-1.7l0,0c0.2,0.3,0.4,0.7,0.7,1C29.8,18.3,29.6,18.6,29.4,18.8
			C29.4,18.8,29.4,18.8,29.4,18.8z"/>
		<path class="st0" d="M10.8,17c0.2,0.4,0.4,0.7,0.6,1c0,0,0,0.1,0,0.2c-0.2,0.2-0.4,0.5-0.6,0.7C10.8,18.2,10.8,17.6,10.8,17z"/>
	</g>
</g>
</svg>
