<?xml version="1.0" encoding="utf-8"?>
<!-- Generator: Adobe Illustrator 21.0.0, SVG Export Plug-In . SVG Version: 6.00 Build 0)  -->
<svg version="1.1" id="Layer_1" xmlns="http://www.w3.org/2000/svg" xmlns:xlink="http://www.w3.org/1999/xlink" x="0px" y="0px"
	 width="35px" height="35px" viewBox="0 0 35 35" style="enable-background:new 0 0 35 35;" xml:space="preserve">
<style type="text/css">
	.st0{fill:#FFFFFF;}
	.st1{fill:#0B4A14;}
	.st2{fill:#A0A0A0;}
	.st3{fill:#9F234F;}
	.st4{fill:#929494;}
	.st5{fill:#535353;}
	.st6{fill:#FDFBFB;}
	.st7{fill:#E32C22;}
	.st8{fill:#0F70B4;}
	.st9{fill:#CD2027;}
	.st10{fill:#273889;}
	.st11{fill:#545456;}
	.st12{fill:#01AEF0;}
	.st13{fill:#ED008C;}
	.st14{fill:#743093;}
</style>
<g>
	<path id="rect3758-1_4_" class="st0" d="M17.5,0L17.5,0C27.1,0,35,7.9,35,17.5l0,0C35,27.1,27.1,35,17.5,35l0,0
		C7.9,35,0,27.1,0,17.5l0,0C0,7.9,7.9,0,17.5,0z"/>
	<g>
		<path class="st1" d="M17.6,13.1l0.1,3.1l-2.3-3.1h-1.8v4.3l-1.5-4.2h-1l0.7,0.6h-1.5l0.7-0.6H9.8l-1.1,3.1c0,0,0.1-2.9-2.6-3.2
			c-0.3,0-3.1,0-3.1,0v6.3h2.5c0,0,1.5,0.1,2.5-1c-0.1,0.3-0.3,1-0.3,1h2.1l0.3-1h1.8l0.3,1h3.4v-3l2.2,3h1.8v-6.2L17.6,13.1z
			 M5.6,17.6H5v-2.6c0,0,0.4,0,0.7,0c0.9,0.3,0.9,1.1,0.9,1.4C6.6,17.5,5.6,17.6,5.6,17.6z M10.5,16.6l0.4-1.4l0.4,1.4H10.5z"/>
		<path class="st1" d="M31.2,13.9h-0.7l0.7-0.9H32h-2.1c0,0,0,1.2,0,1.6c-0.1-1.6-1.8-1.6-1.8-1.6h-7.8v1.9h1.4v4.4h2.2l-0.1-4.4H25
			v4.4h2v-1.6l0.9,1.6h4v-6.3L31.2,13.9z M27.4,15.8H27v-1c0,0,0.3,0,0.4,0c0.3,0.2,0.3,0.3,0.4,0.5C27.8,15.8,27.4,15.8,27.4,15.8z
			 M29.9,18.6L28.7,17c0,0,0.9-0.2,1.2-1.3V18.6z"/>
		<g>
			<g>
				<path class="st2" d="M3,21.7L3,21.7L3,21.7c0.1,0,0.2,0,0.2-0.1v-0.1v-0.7c0-0.1,0-0.1,0-0.1H3.1H3l0,0h0.5c0.2,0,0.3,0,0.4,0.1
					c0.1,0,0.2,0.1,0.3,0.2c0.1,0.1,0.1,0.2,0.1,0.3c0,0.2-0.1,0.3-0.2,0.3c-0.2,0.1-0.3,0.2-0.6,0.2L3,21.7L3,21.7z M3.4,21.6
					c0.1,0,0.2,0,0.3,0c0.2,0,0.3,0,0.4-0.1c0.1-0.1,0.2-0.2,0.2-0.3c0-0.2-0.1-0.3-0.2-0.3c-0.1-0.1-0.3-0.1-0.4-0.1
					c-0.1,0-0.2,0-0.2,0L3.4,21.6L3.4,21.6z"/>
				<path class="st2" d="M5.1,21.6L5.1,21.6H4.5l0,0h0.1c0.1,0,0.1,0,0.1,0v-0.1v-0.7c0-0.1,0-0.1,0-0.1l0,0H4.6H4.5l0,0h0.6l0,0H5
					c-0.1,0-0.1,0-0.1,0v0.1v0.7c0,0.1,0,0.1,0,0.1l0,0C5,21.6,5,21.6,5.1,21.6L5.1,21.6z"/>
				<path class="st2" d="M5.5,20.7v0.4h0.3c0.1,0,0.2,0,0.2,0L6.1,21l0,0v0.3l0,0c0-0.1,0-0.1,0-0.1s0,0-0.1,0H6H5.5v0.3
					c0,0.1,0,0.1,0,0.1l0,0c0,0,0,0,0.1,0h0.3c0.1,0,0.2,0,0.2,0s0.1,0,0.1-0.1c0,0,0.1-0.1,0.1-0.2l0,0l-0.1,0.3H5.2l0,0h0.1h0.1
					c0,0,0,0,0.1,0v-0.1v-0.7c0-0.1,0-0.1,0-0.1H5.4H5.2l0,0h1v0.3l0,0c0-0.1,0-0.1-0.1-0.1c0,0,0,0-0.1-0.1c0,0-0.1,0-0.2,0H5.5
					V20.7z M5.5,20.4L5.5,20.4c0-0.1,0-0.1,0.2-0.1h0.1h0.1c0.1,0,0.1,0,0.1,0c0.1,0,0.1,0,0.1-0.1l0,0c0,0.1,0,0.1-0.1,0.1H5.9
					c-0.1,0-0.1,0-0.2,0C5.7,20.3,5.7,20.3,5.5,20.4C5.6,20.3,5.6,20.3,5.5,20.4C5.5,20.3,5.5,20.4,5.5,20.4z M5.7,20.4h0.2l0.2,0.1
					l0,0L5.7,20.4L5.7,20.4L5.7,20.4L5.7,20.4z"/>
				<path class="st2" d="M6.4,20.7h0.3l0.9,0.8v-0.6c0-0.1,0-0.1,0-0.1H7.5H7.3l0,0h0.5l0,0H7.8c-0.1,0-0.1,0-0.1,0v0.1v0.9l0,0
					l-0.9-0.9v0.6c0,0.1,0,0.1,0,0.1h0.1h0.1l0,0H6.4l0,0h0.1c0.1,0,0.1,0,0.1,0v-0.1v-0.7L6.4,20.7L6.4,20.7L6.4,20.7L6.4,20.7z"/>
				<path class="st2" d="M8.5,21.7L8.5,21.7L8.5,21.7c0.1,0,0.2,0,0.2-0.1v-0.1v-0.3H8.5v-0.1h0.2v-0.3c0-0.1,0-0.1,0-0.1H8.5H8.5
					l0,0H9c0.2,0,0.3,0,0.4,0.1c0.1,0,0.2,0.1,0.3,0.2c0.1,0.1,0.1,0.2,0.1,0.3c0,0.2-0.1,0.3-0.2,0.3c-0.1,0.1-0.3,0.2-0.6,0.2
					L8.5,21.7L8.5,21.7z M8.8,21.6c0.1,0,0.2,0,0.3,0c0.2,0,0.3,0,0.4-0.1c0.1-0.1,0.2-0.2,0.2-0.3c0-0.2-0.1-0.3-0.2-0.3
					c-0.1-0.1-0.3-0.1-0.4-0.1c-0.1,0-0.2,0-0.2,0v0.3h0.4v0.1H8.9L8.8,21.6L8.8,21.6z"/>
				<path class="st2" d="M10.8,21.3h-0.5l-0.1,0.2v0.1l0,0h0.1l0,0H9.9l0,0c0.1,0,0.1,0,0.1,0s0.1-0.1,0.1-0.2l0.5-0.9l0,0l0.5,0.9
					c0,0.1,0.1,0.1,0.1,0.2c0,0,0.1,0,0.2,0l0,0h-0.5l0,0c0.1,0,0.1,0,0.1,0l0,0v-0.1L10.8,21.3z M10.8,21.3l-0.3-0.4l-0.3,0.4H10.8
					z M10.4,20.3h0.3l0.1,0.3l0,0L10.4,20.3z"/>
				<path class="st2" d="M11.4,20.7h0.3l0.9,0.8v-0.6c0-0.1,0-0.1,0-0.1h-0.1h-0.1l0,0h0.4l0,0l0,0c-0.1,0-0.1,0-0.1,0v0.1v0.9l0,0
					l-0.9-0.9v0.6c0,0.1,0,0.1,0,0.1h0.1H12l0,0h-0.5l0,0h0.1c0.1,0,0.1,0,0.1,0v-0.1v-0.7l-0.1-0.1H11.4L11.4,20.7L11.4,20.7z"/>
				<path class="st2" d="M13.4,21.7L13.4,21.7L13.4,21.7c0.1,0,0.2,0,0.2-0.1v-0.1v-0.7c0-0.1,0-0.1,0-0.1h-0.1h-0.1l0,0h0.5
					c0.2,0,0.3,0,0.4,0.1c0.1,0,0.2,0.1,0.3,0.2c0.1,0.1,0.1,0.2,0.1,0.3c0,0.2-0.1,0.3-0.2,0.3c-0.2,0.1-0.3,0.2-0.6,0.2L13.4,21.7
					L13.4,21.7z M13.7,21.6c0.1,0,0.2,0,0.3,0c0.2,0,0.3,0,0.4-0.1c0.1-0.1,0.2-0.2,0.2-0.3c0-0.2-0.1-0.3-0.2-0.3
					c-0.1-0.1-0.3-0.1-0.4-0.1c-0.1,0-0.2,0-0.2,0L13.7,21.6L13.7,21.6z"/>
				<path class="st2" d="M15.8,21.3h-0.5l-0.1,0.2v0.1l0,0h0.1l0,0h-0.4l0,0c0.1,0,0.1,0,0.1,0s0.1-0.1,0.1-0.2l0.5-0.9l0,0l0.5,0.9
					c0,0.1,0.1,0.1,0.1,0.2c0,0,0.1,0,0.2,0l0,0h-0.5l0,0c0.1,0,0.1,0,0.1,0l0,0v-0.1L15.8,21.3z M15.8,21.3l-0.3-0.4l-0.3,0.4H15.8
					z M15.5,20.3h0.2l0.2,0.3l0,0L15.5,20.3l-0.1,0.3l0,0L15.5,20.3z"/>
				<path class="st2" d="M16.3,20.7h0.3l0.9,0.8v-0.6c0-0.1,0-0.1,0-0.1h-0.1h-0.1l0,0h0.5l0,0h-0.1c-0.1,0-0.1,0-0.1,0v0.1v0.9l0,0
					l-0.9-0.9v0.6c0,0.1,0,0.1,0,0.1h0.1h0.1l0,0h-0.5l0,0h0.1c0.1,0,0.1,0,0.1,0v-0.1v-0.7l-0.1-0.1H16.3L16.3,20.7L16.3,20.7z"/>
				<path class="st2" d="M19.5,20.7v0.3l0,0v-0.1V20.7c-0.1,0.1-0.2,0.1-0.3,0.1H19v0.8c0,0.1,0,0.1,0,0.1h0.1h0.1l0,0h-0.6l0,0h0.1
					c0.1,0,0.1,0,0.1,0v-0.1v-0.8h-0.2c-0.1,0-0.1,0-0.2,0c0,0-0.1,0-0.1,0.1c0,0,0,0.1-0.1,0.1l0,0v-0.3H19.5z"/>
				<path class="st2" d="M20.9,21.7h-0.3l-0.4-0.5h-0.1l0,0l0,0v0.3c0,0.1,0,0.1,0,0.1h0.1h0.1l0,0h-0.6l0,0l0,0c0.1,0,0.1,0,0.1,0
					v-0.1v-0.7c0-0.1,0-0.1,0-0.1h-0.1h-0.1l0,0h0.5c0.2,0,0.3,0,0.3,0c0.1,0,0.1,0.1,0.2,0.1c0.1,0.1,0.1,0.1,0.1,0.2
					c0,0.1,0,0.1-0.1,0.2c-0.1,0.1-0.2,0.1-0.3,0.1l0.3,0.3c0.1,0.1,0.1,0.1,0.2,0.2C20.8,21.6,20.8,21.6,20.9,21.7L20.9,21.7z
					 M20,21.2L20,21.2C20,21.2,20.1,21.2,20,21.2c0.2,0,0.3,0,0.3-0.1c0.1,0,0.1-0.1,0.1-0.2c0-0.1,0-0.1-0.1-0.2
					c-0.1,0-0.1-0.1-0.2-0.1c0,0-0.1,0-0.2,0L20,21.2z"/>
				<path class="st2" d="M21.6,21.6L21.6,21.6H21l0,0h0.1c0.1,0,0.1,0,0.1,0v-0.1v-0.7c0-0.1,0-0.1,0-0.1l0,0h-0.1H21l0,0h0.6l0,0
					h-0.1c-0.1,0-0.1,0-0.1,0v0.1v0.7c0,0.1,0,0.1,0,0.1l0,0C21.4,21.6,21.5,21.6,21.6,21.6L21.6,21.6z M21.5,20.3l-0.3,0.3l0,0
					l0.1-0.3H21.5z"/>
				<path class="st2" d="M23.6,20.7L23.6,20.7C23.5,20.7,23.5,20.7,23.6,20.7l-0.2,0.2l-0.5,0.9l0,0l-0.5-0.9c0-0.1-0.1-0.1-0.1-0.1
					s0,0-0.1,0h-0.1l0,0h0.6l0,0c-0.1,0-0.1,0-0.1,0s0,0,0,0.1c0,0,0,0.1,0.1,0.1l0.3,0.6l0.3-0.6c0-0.1,0.1-0.1,0.1-0.1l0,0h-0.1
					l0,0l0,0h0.2V20.7z"/>
				<path class="st2" d="M24.2,21.6L24.2,21.6h-0.6l0,0h0.1c0.1,0,0.1,0,0.1,0v-0.1v-0.7c0-0.1,0-0.1,0-0.1l0,0h-0.1h-0.1l0,0h0.6
					l0,0h-0.1c-0.1,0-0.1,0-0.1,0v0.1v0.7c0,0.1,0,0.1,0,0.1l0,0C24.1,21.6,24.2,21.6,24.2,21.6L24.2,21.6z"/>
				<path class="st2" d="M24.7,20.7v0.4H25c0.1,0,0.2,0,0.2,0l0.1-0.1l0,0v0.3l0,0c0-0.1,0-0.1,0-0.1s0,0-0.1,0h-0.1h-0.3v0.3
					c0,0.1,0,0.1,0,0.1l0,0c0,0,0,0,0.1,0h0.3c0.1,0,0.2,0,0.2,0s0.1,0,0.1-0.1c0,0,0.1-0.1,0.1-0.2l0,0l-0.1,0.3h-1l0,0h0.1h0.1
					c0,0,0,0,0.1,0v-0.1v-0.7c0-0.1,0-0.1,0-0.1h-0.1h-0.1l0,0h1v0.3l0,0c0-0.1,0-0.1-0.1-0.1c0,0,0,0-0.1-0.1c0,0-0.1,0-0.2,0h-0.4
					V20.7z M24.8,20.4H25l0.2,0.1l0,0L24.8,20.4l-0.2,0.1l0,0L24.8,20.4z M24.8,21.8C24.9,21.8,24.9,21.8,24.8,21.8
					C24.9,21.8,24.9,21.9,24.8,21.8l0.1,0.2h-0.1h-0.1C24.8,21.9,24.8,21.9,24.8,21.8C24.8,21.9,24.8,21.8,24.8,21.8L24.8,21.8z"/>
				<path class="st2" d="M26.7,20.7v0.3l0,0v-0.1V20.7c-0.1,0.1-0.2,0.1-0.3,0.1h-0.2v0.8c0,0.1,0,0.1,0,0.1h0.1h0.1l0,0h-0.6l0,0
					H26c0.1,0,0.1,0,0.1,0v-0.1v-0.8h-0.2c-0.1,0-0.1,0-0.2,0c0,0-0.1,0-0.1,0.1c0,0,0,0.1-0.1,0.1l0,0v-0.3H26.7z"/>
				<path class="st2" d="M27.2,20.7h0.3l0.9,0.8v-0.6c0-0.1,0-0.1,0-0.1h-0.1h-0.1l0,0h0.5l0,0h-0.1c-0.1,0-0.1,0-0.1,0v0.1v0.9l0,0
					l-0.9-0.9v0.6c0,0.1,0,0.1,0,0.1h0.1h0.1l0,0h-0.5l0,0l0,0c0.1,0,0.1,0,0.1,0v-0.1v-0.7L27.2,20.7L27.2,20.7
					C27.3,20.7,27.2,20.7,27.2,20.7L27.2,20.7z"/>
				<path class="st2" d="M29.7,21.3h-0.5L29,21.5v0.1l0,0h0.1l0,0h-0.4l0,0c0.1,0,0.1,0,0.1,0s0.1-0.1,0.1-0.2l0.5-0.9l0,0l0.5,0.9
					c0,0.1,0.1,0.1,0.1,0.2c0,0,0.1,0,0.2,0l0,0h-0.5l0,0c0.1,0,0.1,0,0.1,0l0,0v-0.1L29.7,21.3z M29.6,21.3l-0.3-0.4l-0.3,0.4H29.6
					z"/>
				<path class="st2" d="M31.1,21.7l-0.5-0.9v0.7c0,0.1,0,0.1,0,0.1h0.1h0.1l0,0h-0.5l0,0h0.1c0.1,0,0.1,0,0.1,0v-0.1v-0.7
					c0-0.1,0-0.1,0-0.1s0,0-0.1,0h-0.1l0,0h0.4l0.5,0.8l0.5-0.8h0.4l0,0H32c-0.1,0-0.1,0-0.1,0v0.1v0.7c0,0.1,0,0.1,0,0.1H32h0.1
					l0,0h-0.6l0,0h0.1c0.1,0,0.1,0,0.1,0v-0.1v-0.7L31.1,21.7L31.1,21.7z"/>
			</g>
		</g>
	</g>
</g>
</svg>
