<?xml version="1.0" encoding="utf-8"?>
<!-- Generator: Adobe Illustrator 21.0.0, SVG Export Plug-In . SVG Version: 6.00 Build 0)  -->
<svg version="1.1" id="Layer_1" xmlns="http://www.w3.org/2000/svg" xmlns:xlink="http://www.w3.org/1999/xlink" x="0px" y="0px"
	 width="35px" height="35px" viewBox="0 0 35 35" style="enable-background:new 0 0 35 35;" xml:space="preserve">
<style type="text/css">
	.st0{fill:#FFFFFF;}
	.st1{fill:#0B4A14;}
	.st2{fill:#A0A0A0;}
	.st3{fill:#9F234F;}
	.st4{fill:#929494;}
	.st5{fill:#535353;}
	.st6{fill:#FDFBFB;}
	.st7{fill:#E32C22;}
	.st8{fill:#0F70B4;}
	.st9{fill:#CD2027;}
	.st10{fill:#273889;}
	.st11{fill:#545456;}
	.st12{fill:#01AEF0;}
	.st13{fill:#ED008C;}
	.st14{fill:#743093;}
</style>
<g>
	<path id="rect3758-1_6_" class="st0" d="M17.5,0L17.5,0C27.1,0,35,7.9,35,17.5l0,0C35,27.1,27.1,35,17.5,35l0,0
		C7.9,35,0,27.1,0,17.5l0,0C0,7.9,7.9,0,17.5,0z"/>
	<g>
		<path class="st7" d="M30.9,19.3c0.1,0.8-0.6,1.9-1.4,2.3c-0.8,0.4-1.8,0.3-2.4-0.4c-0.6-0.6-0.9-1.2-1-2c0-0.2-0.1-0.4-0.3-0.5
			c-0.2-0.1-0.4-0.2-0.6-0.4c0,0.3,0,0.7,0,1c-0.8-0.5-1.5-0.4-2.1,0.1c0-1.3,0-2.7,0-4c0.7,0,1.4,0,2.1,0c0,0.1,0,0.3,0,0.5
			c0.3-0.3,0.6-0.6,1-0.6c0.4,0,0.7,0.2,1,0.4c0.3-0.1,0.6-0.3,0.9-0.4c0.6-0.2,1.1,0,1.5,0.3c1,0.7,1.3,1.6,1.3,2.8
			c-0.8,0-1.6,0-2.4,0C28.8,19.5,29.7,19.7,30.9,19.3z M28.6,17.6c0.2,0,0.4,0,0.6,0c0-0.2-0.1-0.5-0.3-0.4
			C28.6,17.2,28.6,17.4,28.6,17.6z"/>
		<path class="st7" d="M7.2,13.5c0,0.5,0,1,0,1.5c0,0.4,0,0.4,0.4,0.5c0,0.6,0,1.3,0,2c-0.1,0-0.2,0-0.4,0c0,0.4,0,0.8,0,1.2
			c0,0.2,0.2,0.3,0.4,0.2c0,0.6,0,1.1,0,1.7c0,0.5-0.5,0.9-1,0.9c-0.6,0.1-1.2-0.2-1.4-0.8c-0.1-0.2-0.1-0.4-0.1-0.6
			c0-0.7,0-1.5,0-2.3c0-0.1,0-0.2,0-0.3c-0.3,0-0.6,0-1,0C5.1,16.1,6.1,14.8,7.2,13.5C7.2,13.5,7.2,13.5,7.2,13.5z"/>
		<path class="st8" d="M15.2,21.4c0.1-0.4,0.2-0.8,0.3-1.2c0-0.2,0.1-0.3-0.2-0.3c-0.2,0-0.2,0.2-0.2,0.3c0,1-0.7,1.5-1.8,1.3
			c-0.5-0.1-0.6-0.5-0.5-1.1c0.2-0.8,0.9-1,1.8-0.9c0.2,0,0.3,0,0.5,0c0.1,0,0.2,0,0.3-0.1c0.4,0,0.4,0,0.6,0.3
			c0.2-0.2,0.6-0.4,0.9-0.3c0.3,0,0.5,0.2,0.5,0.5c0,0.2-0.1,0.5-0.1,0.7c0,0.1-0.1,0.3,0.1,0.3c0.3,0.1,0.5,0,0.5-0.2
			c0.1-0.6,0.3-1.2,0.4-1.8c0-0.2,0.1-0.3,0.1-0.5c0-0.2,0.2-0.3,0.4-0.3c0.2,0,0.2,0.1,0.2,0.2c-0.2,0.7-0.3,1.4-0.5,2.1
			c0,0,0,0.1,0,0.1c0,0.1-0.1,0.3,0.1,0.3c0.3,0.1,0.4,0,0.5-0.2c0.1-0.3,0.2-0.6,0.2-1c0.1-0.4,0.2-0.5,0.6-0.3
			c-0.1,0.4-0.2,0.7-0.2,1.1c-0.1,0.4,0,0.4,0.3,0.4c0.2,0,0.2-0.1,0.3-0.2c0.1-0.3,0.2-0.7,0.2-1c0.1-0.3,0.2-0.4,0.5-0.3
			c0,0.1,0,0.2,0.1,0.2c0.2-0.1,0.4-0.2,0.7-0.3c0.5-0.1,0.8,0.2,0.7,0.7c0,0.2-0.1,0.4-0.1,0.6s0,0.3,0.2,0.3
			c0.2,0,0.3,0.1,0.3-0.2c0-0.7,0.3-1.2,0.9-1.4c0.2-0.1,0.6-0.1,0.8,0c0.2,0,0.4,0.2,0.5,0.4s-0.1,0.4-0.4,0.5
			c-0.3,0.1-0.6,0.1-0.9,0.2c-0.2,0-0.4,0-0.4,0.2c0,0.2,0.2,0.3,0.4,0.3c0.3,0,0.7,0,1,0c0.2,0,0.3,0,0.3,0.2
			c0,0.1-0.2,0.2-0.3,0.2c-0.9,0-1.8,0-2.7,0c-0.3,0-0.4-0.2-0.4-0.5c0.1-0.2,0.1-0.5,0.2-0.8c0-0.3-0.1-0.4-0.4-0.3
			c-0.3,0.1-0.5,0.4-0.5,0.6c-0.1,0.2-0.1,0.5-0.2,0.7c0,0.1-0.2,0.2-0.2,0.2c-1.2,0-2.4,0-3.6,0c-0.2,0-0.3-0.1-0.3-0.3
			c0-0.3,0.1-0.5,0.1-0.8c0-0.2,0-0.3-0.1-0.5c-0.2,0-0.4,0-0.5,0.2c-0.2,0.2-0.3,0.4-0.4,0.6c-0.1,0.1-0.1,0.3-0.1,0.4
			C15.8,21.5,15.8,21.5,15.2,21.4z M13.5,20.7c0,0.4,0.3,0.6,0.7,0.4c0.3-0.2,0.4-0.5,0.4-0.8c0.1-0.4-0.2-0.6-0.6-0.5
			C13.7,19.9,13.5,20.3,13.5,20.7z M23.7,20.2c0.2,0,0.5,0,0.7-0.1c0.1,0,0.1-0.2,0.2-0.2c-0.1-0.1-0.2-0.2-0.3-0.2
			C24.1,19.6,23.8,19.9,23.7,20.2z"/>
		<path class="st7" d="M22.5,13.6c0,0.5,0,0.9,0,1.4c0,0.5,0,0.5,0.5,0.6c0,0.6,0,1.3,0,2l0,0c-0.4,0.1-0.4,0.1-0.4,0.5
			c0,0.2,0,0.4,0,0.6c0,0.3,0.2,0.4,0.5,0.4c0,0.3,0.1,0.6-0.1,1c0-0.2,0-0.3-0.1-0.4c-0.2-0.4-0.6-0.6-1.1-0.5c-0.2,0-0.3,0-0.5,0
			c-0.3-0.1-0.6,0-0.7,0.2c0-0.6,0-1.2,0-1.9c-0.4,0-0.7,0-1.1,0C20.4,16.2,21.5,14.9,22.5,13.6C22.5,13.6,22.5,13.6,22.5,13.6z"/>
		<path class="st7" d="M17.4,14.3c0-0.3,0.1-0.6,0.3-0.9c0.3-0.3,0.6-0.3,0.9,0c0.4,0.4,0.4,1.3,0,1.7c-0.3,0.3-0.7,0.3-1,0
			C17.5,14.9,17.4,14.6,17.4,14.3C17.4,14.3,17.4,14.3,17.4,14.3z"/>
		<path class="st7" d="M15.8,15.2c0.1-0.2,0.1-0.4-0.1-0.6c-0.1-0.2,0-0.3,0.1-0.5s0.3-0.1,0.5,0s0.2,0.3,0.1,0.5
			C16.2,14.8,16,15,15.8,15.2C15.8,15.2,15.8,15.2,15.8,15.2z"/>
		<path class="st7" d="M28.8,15.1c0.1-0.2,0.1-0.4-0.1-0.6c-0.1-0.2-0.1-0.4,0.1-0.5c0.2-0.1,0.3-0.1,0.5,0.1c0.2,0.2,0.2,0.3,0,0.5
			C29.2,14.8,29.1,15,28.8,15.1C28.8,15.2,28.8,15.2,28.8,15.1z"/>
		<path class="st7" d="M14.9,14.3c0.2,0.3,0.3,0.6,0.5,0.9c-0.3,0-0.7,0-1,0C14.6,14.9,14.7,14.6,14.9,14.3z"/>
		<path class="st7" d="M21.7,20.1c-0.1,0.3-0.2,0.5-0.2,0.8c0,0.2,0,0.5,0.1,0.7c-0.1,0-0.3-0.1-0.5-0.1
			C21.3,21,21.2,20.4,21.7,20.1z"/>
		<path class="st8" d="M20.2,18.9c0,0.2-0.1,0.3-0.3,0.3c-0.2,0-0.3-0.1-0.3-0.3c0-0.2,0.1-0.3,0.3-0.3
			C20.1,18.6,20.2,18.7,20.2,18.9z"/>
		<path class="st7" d="M16.1,21.1c0.1-0.4,0.1-0.7,0.5-0.9C16.6,20.6,16.5,20.9,16.1,21.1z"/>
		<path class="st7" d="M25.3,20.4c0,0.1,0,0.2,0,0.3c-0.2,0-0.5,0-0.7,0C24.8,20.7,25,20.6,25.3,20.4z"/>
		<path class="st0" d="M14.6,18.5c0.1-0.2,0.1-0.4,0.2-0.6c0.1-0.2,0.2-0.2,0.3,0c0.2,0.2,0.2,0.9,0,1.1c-0.1,0.1-0.2,0.2-0.3,0
			C14.7,18.8,14.7,18.6,14.6,18.5z"/>
		<path class="st0" d="M28.6,17.6c0-0.2,0.1-0.4,0.3-0.4c0.2,0,0.3,0.2,0.3,0.4C29,17.6,28.8,17.6,28.6,17.6z"/>
		<path class="st0" d="M13.5,20.7c0-0.4,0.2-0.7,0.5-0.8c0.4-0.1,0.7,0.1,0.6,0.5c0,0.3-0.2,0.6-0.4,0.8
			C13.8,21.3,13.5,21.1,13.5,20.7z M14.3,20.1c-0.3,0-0.5,0.1-0.5,0.4c0,0.1,0,0.2,0.1,0.3c0.1,0,0.2,0,0.3-0.1
			C14.3,20.6,14.4,20.3,14.3,20.1z"/>
		<path class="st0" d="M23.7,20.2c0.1-0.4,0.3-0.6,0.6-0.6c0.1,0,0.2,0.1,0.3,0.2c-0.1,0.1-0.1,0.2-0.2,0.2
			C24.2,20.2,24,20.2,23.7,20.2z"/>
		<path class="st7" d="M14.3,20.1c0.1,0.2,0,0.5-0.2,0.6c-0.1,0.1-0.2,0.1-0.3,0.1c0-0.1-0.1-0.2-0.1-0.3
			C13.8,20.2,14,20.1,14.3,20.1z"/>
		<path class="st7" d="M17.2,15.5c0,0.6,0,1.2,0,1.9c-0.8-1.5-1.3-2-2.3-2c-1.3,0-1.9,0.9-2.3,2c0-0.6,0-1.2,0-1.8
			c-0.7,0-1.4,0-2.1,0c0,0.1,0,0.2,0,0.3c0,0.9,0,1.8,0,2.7c0,0.2-0.1,0.3-0.2,0.3C10,19,10,18.8,10,18.6c0-0.1,0-0.2,0-0.2
			c0-0.8,0-1.7,0-2.5c0-0.1,0-0.2,0-0.3c-0.1,0-0.2,0-0.3,0c-0.6,0-1.2,0-1.9,0c0,0.1,0,0.2,0,0.3c0,1.3,0,2.6,0,3.9
			c0,0.2,0,0.4,0,0.6c0.1,0.6,0.4,0.9,1,1c0.5,0.1,0.8-0.1,1.2-0.3c0.1-0.1,0.3-0.2,0.4-0.3c0,0.2,0,0.4,0,0.6c0.7,0,1.4,0,2.1,0
			c0-0.6,0-1.2,0-1.9h0c0.1,0.1,0.1,0.2,0.2,0.4c0,0,0.1,0,0.1,0c0.5-0.7,1.2-0.8,2-0.6c0.1,0,0.2,0,0.3,0c0.4-0.1,0.8-0.1,1.1,0.1
			c0.1,0,0.2-0.1,0.2-0.1c0.4-0.2,0.7-0.2,1,0.1c0.3,0.2,0.3,0.6,0.2,1c0,0.2-0.1,0.3-0.1,0.4c0.1,0,0.1-0.1,0.1-0.1
			c0.2-0.6,0.3-1.2,0.4-1.8c0.1-0.5,0.2-1,0.8-0.8c0-0.8,0-1.6,0-2.5C18.4,15.8,17.9,15.8,17.2,15.5z M14.9,19.1
			c-0.2,0-0.3-0.3-0.3-0.7s0.1-0.7,0.3-0.7s0.3,0.3,0.3,0.7C15.2,18.8,15.1,19.1,14.9,19.1z"/>
		<ellipse class="st7" cx="18.1" cy="14.3" rx="0.8" ry="1.1"/>
	</g>
</g>
</svg>
