<?xml version="1.0" encoding="utf-8"?>
<!-- Generator: Adobe Illustrator 21.0.0, SVG Export Plug-In . SVG Version: 6.00 Build 0)  -->
<svg version="1.1" id="Layer_1" xmlns="http://www.w3.org/2000/svg" xmlns:xlink="http://www.w3.org/1999/xlink" x="0px" y="0px"
	 width="35px" height="35px" viewBox="0 0 35 35" style="enable-background:new 0 0 35 35;" xml:space="preserve">
<style type="text/css">
	.st0{fill:#FFFFFF;}
	.st1{fill:#FF0000;}
	.st2{fill:#FFFFFF;stroke:#FF0000;stroke-width:0.1;stroke-miterlimit:10;}
</style>
<g>
	<path id="rect3758-1_2_" class="st0" d="M17.5,0L17.5,0C27.1,0,35,7.9,35,17.5l0,0C35,27.1,27.1,35,17.5,35l0,0
		C7.9,35,0,27.1,0,17.5l0,0C0,7.9,7.9,0,17.5,0z"/>
	<g>
		<g>
			<path class="st1" d="M1.8,18.5l0.2-1.2c0.2,0.3,0.4,0.5,0.5,0.5c0.1,0,0.2-0.1,0.2-0.2c0-0.1-0.1-0.2-0.2-0.3c0,0-0.1,0-0.1,0
				C2.1,17,1.9,16.6,1.9,16c0-0.5,0.1-0.9,0.3-1.2c0.2-0.3,0.4-0.4,0.6-0.4c0.2,0,0.5,0.1,0.7,0.4l-0.2,1.2
				c-0.1-0.1-0.2-0.2-0.2-0.3c-0.1-0.1-0.1-0.1-0.2-0.1c-0.1,0-0.2,0.1-0.2,0.2c0,0.1,0.1,0.2,0.3,0.3c0,0,0,0,0.1,0
				c0.1,0.1,0.3,0.2,0.3,0.4c0.1,0.2,0.1,0.5,0.1,0.8c0,0.5-0.1,0.9-0.3,1.2C3.2,18.9,2.9,19,2.7,19C2.4,19,2.1,18.9,1.8,18.5z"/>
			<path class="st1" d="M5.9,15.8v1.1c0,0.6,0,1-0.1,1.3C5.5,18.7,5.3,19,4.9,19c-0.4,0-0.7-0.3-0.9-0.9c0-0.1-0.1-0.3-0.1-0.5
				c0-0.2,0-0.5,0-0.8v-2.4h0.8v2.4c0,0.2,0,0.4,0,0.5c0,0.2,0.1,0.2,0.2,0.2c0.1,0,0.2-0.1,0.2-0.2c0-0.1,0-0.3,0-0.5v-2.4h0.8v1"
				/>
			<path class="st1" d="M7.9,16.2c-0.1-0.3-0.3-0.4-0.5-0.4c-0.1,0-0.2,0.1-0.3,0.2C7,16.2,7,16.4,7,16.7c0,0.3,0,0.5,0.1,0.6
				c0.1,0.2,0.2,0.2,0.3,0.2c0.1,0,0.3-0.1,0.5-0.4l0,1.7C7.7,19,7.5,19,7.3,19c-0.2,0-0.4-0.1-0.6-0.3c-0.4-0.5-0.6-1.1-0.6-2
				c0-0.7,0.1-1.2,0.3-1.7c0.2-0.4,0.5-0.7,0.8-0.7c0.2,0,0.3,0.1,0.5,0.2V16.2z"/>
			<g>
				<path class="st1" d="M8.2,18.9v-4.4h0.8v1.9l0.5-1.9h0.9l-0.6,2.2l0.7,2.3H9.4l-0.5-1.9v1.9H8.2z"/>
				<path class="st1" d="M10.4,18.9v-4.4h0.8v1.5h0.5v-1.5h0.8v4.4h-0.8v-1.6h-0.5v1.6H10.4z"/>
				<path class="st1" d="M15,16.7c0,0.3,0,0.6-0.1,0.9c-0.1,0.3-0.1,0.5-0.2,0.8c-0.2,0.4-0.5,0.7-0.8,0.7c-0.3,0-0.6-0.2-0.8-0.7
					c-0.2-0.4-0.3-1-0.3-1.7c0-0.7,0.1-1.2,0.3-1.7c0.2-0.4,0.5-0.7,0.8-0.7c0.3,0,0.6,0.2,0.8,0.7C14.9,15.5,15,16,15,16.7z
					 M13.9,17.5c0.1,0,0.2-0.1,0.3-0.2c0.1-0.2,0.1-0.3,0.1-0.6c0-0.2,0-0.4-0.1-0.6c-0.1-0.2-0.2-0.2-0.3-0.2
					c-0.1,0-0.2,0.1-0.3,0.2c-0.1,0.2-0.1,0.4-0.1,0.6c0,0.2,0,0.4,0.1,0.6C13.7,17.5,13.8,17.5,13.9,17.5z"/>
				<path class="st1" d="M15.4,18.9v-4.4h1.4v1.2h-0.7v0.4h0.6v1.1h-0.6v0.5h0.7v1.2H15.4z"/>
			</g>
			<path class="st1" d="M18.4,18.9v-1.7h-0.2v-1h0.2v-1.7H19c0.4,0,0.7,0.1,0.8,0.3c0.4,0.4,0.6,1.1,0.6,1.9c0,0.9-0.2,1.5-0.6,1.9
				c-0.2,0.2-0.5,0.3-0.9,0.3H18.4z M19.1,17.7C19.1,17.7,19.1,17.7,19.1,17.7L19.1,17.7c0.4,0,0.6-0.3,0.6-1c0-0.7-0.2-1-0.5-1h0
				c0,0,0,0,0,0l0,0.5h0.3v1h-0.3V17.7z"/>
			<path class="st1" d="M22.8,15.7c0.1,0.3,0.1,0.6,0.1,1v0c0,0.3,0,0.6-0.1,0.9c-0.1,0.3-0.1,0.5-0.2,0.8c-0.2,0.4-0.5,0.7-0.8,0.7
				c-0.3,0-0.6-0.2-0.8-0.7c-0.2-0.4-0.3-1-0.3-1.7c0-0.7,0.1-1.2,0.3-1.7c0.2-0.4,0.5-0.7,0.8-0.7c0.2,0,0.3,0.1,0.4,0.2
				c0.1,0.1,0.3,0.3,0.4,0.5c0.1,0.1,0.1,0.2,0.1,0.3 M21.8,17.5c0.1,0,0.2-0.1,0.3-0.2c0.1-0.2,0.1-0.3,0.1-0.6
				c0-0.2,0-0.4-0.1-0.6c-0.1-0.2-0.2-0.2-0.3-0.2c-0.1,0-0.2,0.1-0.3,0.2c-0.1,0.2-0.1,0.4-0.1,0.6c0,0.2,0,0.4,0.1,0.6
				C21.6,17.5,21.6,17.5,21.8,17.5z"/>
			<path class="st1" d="M23.2,18.9v-4.4H24v4.4H23.2z"/>
			<g>
				<path class="st1" d="M24.2,18.5l0.2-1.2c0.2,0.3,0.4,0.5,0.5,0.5c0.1,0,0.2-0.1,0.2-0.2c0-0.1-0.1-0.2-0.2-0.3c0,0-0.1,0-0.1,0
					c-0.3-0.2-0.5-0.6-0.5-1.2c0-0.5,0.1-0.9,0.3-1.2c0.2-0.3,0.4-0.4,0.6-0.4c0.2,0,0.5,0.1,0.7,0.4l-0.2,1.2
					c-0.1-0.1-0.2-0.2-0.2-0.3c-0.1-0.1-0.1-0.1-0.2-0.1c-0.1,0-0.2,0.1-0.2,0.2c0,0.1,0.1,0.2,0.3,0.3c0,0,0,0,0.1,0
					c0.1,0.1,0.2,0.2,0.3,0.4c0.1,0.2,0.1,0.5,0.1,0.8c0,0.5-0.1,0.9-0.3,1.2C25.5,18.9,25.2,19,25,19C24.7,19,24.5,18.9,24.2,18.5z
					"/>
				<path class="st1" d="M28.3,16.7c0,0.3,0,0.6-0.1,0.9c-0.1,0.3-0.1,0.5-0.2,0.8c-0.2,0.4-0.5,0.7-0.8,0.7c-0.3,0-0.6-0.2-0.8-0.7
					c-0.2-0.4-0.3-1-0.3-1.7c0-0.7,0.1-1.2,0.3-1.7c0.2-0.4,0.5-0.7,0.8-0.7c0.3,0,0.6,0.2,0.8,0.7C28.2,15.5,28.3,16,28.3,16.7z
					 M26.8,14.2l0.2-0.4h0.3l0.2,0.4h-0.2L27.1,14L27,14.2H26.8z M27.2,17.5c0.1,0,0.2-0.1,0.3-0.2c0.1-0.2,0.1-0.3,0.1-0.6
					c0-0.2,0-0.4-0.1-0.6c-0.1-0.2-0.2-0.2-0.3-0.2c-0.1,0-0.2,0.1-0.3,0.2c-0.1,0.2-0.1,0.4-0.1,0.6c0,0.2,0,0.4,0.1,0.6
					C27,17.5,27.1,17.5,27.2,17.5z M28.4,13.7l-0.7,0.5l-0.2-0.1l0.5-0.6L28.4,13.7z"/>
				<path class="st1" d="M28.6,18.9v-4.4h0.7l0.6,2.3c0-0.2,0-0.5,0-0.8v-1.5h0.7v4.4h-0.7l-0.6-2.3c0,0.2,0,0.4,0,0.7v1.6H28.6z"/>
				<path class="st1" d="M32.3,17.3H32v-1h1.1c0,0.1,0,0.1,0,0.2v0.1c0,0.5,0,0.9-0.1,1.3c-0.1,0.4-0.2,0.7-0.4,0.9
					c-0.2,0.2-0.4,0.3-0.6,0.3c-0.3,0-0.6-0.2-0.8-0.7c-0.2-0.4-0.3-1-0.3-1.7c0-0.7,0.1-1.2,0.3-1.7c0.2-0.4,0.5-0.7,0.8-0.7
					c0.4,0,0.8,0.4,1,1.2l-0.7,0.5c-0.1-0.2-0.2-0.4-0.3-0.4c-0.1,0-0.2,0.1-0.3,0.3c-0.1,0.2-0.1,0.4-0.1,0.7c0,0.3,0,0.5,0.1,0.7
					c0.1,0.2,0.2,0.3,0.3,0.3C32.2,17.7,32.3,17.6,32.3,17.3z"/>
			</g>
			<polygon class="st1" points="5.6,13.6 4.9,14.1 4.8,14 5.3,13.4 			"/>
			<polygon class="st1" points="21.7,13.5 22.3,14.1 22.2,14.2 21.5,13.7 			"/>
			<path class="st1" d="M22.5,14.4h0.4c0,0,0.2,0.5-0.5,0.8l0-0.1c0,0,0.3-0.2,0.3-0.4h-0.2V14.4z"/>
			<path class="st1" d="M5.9,14.4h0.4c0,0,0.2,0.5-0.5,0.8l0-0.1c0,0,0.3-0.2,0.3-0.4H5.9V14.4z"/>
			<g>
				<path class="st1" d="M14.1,14.2l0-0.3h0c0,0,0,0,0.1,0c0,0,0,0,0-0.1c0,0,0,0,0,0c0,0,0,0,0,0c0,0,0,0,0,0.1h-0.3
					c0-0.1,0-0.2,0.1-0.2s0.1-0.1,0.2-0.1c0.1,0,0.2,0,0.2,0.1s0.1,0.1,0.1,0.3c0,0.1,0,0.2-0.1,0.2S14.3,14.2,14.1,14.2L14.1,14.2z
					"/>
			</g>
		</g>
		<g>
			<path class="st2" d="M17.9,18.7c-0.2,0.2-0.4,0.2-0.7,0.2c-0.2,0-0.4-0.1-0.5-0.2c-0.2-0.1-0.2-0.3-0.2-0.5c0-0.2,0-0.3,0.1-0.4
				s0.2-0.2,0.4-0.2c-0.1-0.1-0.2-0.3-0.2-0.4c0-0.2,0.1-0.4,0.3-0.5c0.1-0.1,0.3-0.1,0.5-0.1c0.2,0,0.4,0.1,0.5,0.2
				c0.2,0.1,0.2,0.3,0.2,0.5c0,0.1,0,0.2-0.1,0.3c-0.1,0.1-0.2,0.2-0.3,0.2l0.2,0.2c0.1-0.1,0.2-0.2,0.3-0.4l0.4,0.5
				c-0.1,0.1-0.2,0.2-0.3,0.3l0.5,0.6h-0.9L17.9,18.7z M17.5,18.2l-0.2-0.3c-0.1,0-0.1,0.1-0.1,0.2c0,0.1,0,0.1,0.1,0.1s0.1,0,0.1,0
				C17.4,18.3,17.4,18.3,17.5,18.2z M17.5,17.3c0.1-0.1,0.1-0.1,0.1-0.2c0,0,0-0.1,0-0.1c0,0,0,0-0.1,0c0,0-0.1,0-0.1,0
				c0,0,0,0.1,0,0.1C17.4,17.2,17.4,17.3,17.5,17.3z"/>
		</g>
		<g>
			<path d="M3.5,20.5H3.2c0-0.1,0-0.1-0.1-0.1c0-0.1-0.1-0.1-0.2-0.1c-0.1,0-0.1,0-0.2,0.1c-0.1,0.1-0.1,0.2-0.1,0.3
				c0,0.1,0,0.2,0.1,0.3c0.1,0.1,0.1,0.1,0.2,0.1c0.1,0,0.1,0,0.2-0.1c0,0,0.1-0.1,0.1-0.2h0.3c0,0.1-0.1,0.2-0.2,0.3
				c-0.1,0.1-0.2,0.1-0.4,0.1c-0.2,0-0.3-0.1-0.4-0.2c-0.1-0.1-0.2-0.3-0.2-0.5c0-0.2,0.1-0.4,0.2-0.5c0.1-0.1,0.2-0.2,0.4-0.2
				c0.2,0,0.3,0,0.4,0.1C3.4,20.3,3.5,20.4,3.5,20.5z"/>
			<path d="M4.6,20.2C4.6,20.2,4.7,20.1,4.6,20.2c0.1-0.1,0.1-0.1,0.1-0.1H4.6v-0.1h0.2V20c0,0,0,0.1,0,0.1
				C4.8,20.2,4.7,20.2,4.6,20.2c0.1,0.1,0.1,0.2,0.2,0.2c0,0.1,0,0.2,0,0.3c0,0.2,0,0.3-0.1,0.4c-0.1,0.1-0.1,0.1-0.2,0.2
				c-0.1,0-0.1,0-0.2,0c-0.1,0-0.2,0-0.2,0c-0.1,0-0.2-0.1-0.2-0.2c-0.1-0.1-0.1-0.2-0.1-0.4c0-0.2,0-0.3,0.1-0.4
				c0.1-0.1,0.1-0.1,0.2-0.2c0.1,0,0.1,0,0.2,0c0.1,0,0.1,0,0.2,0C4.5,20.1,4.6,20.1,4.6,20.2z M3.9,20.7C3.9,20.8,4,21,4,21
				c0.1,0.1,0.1,0.1,0.2,0.1c0.1,0,0.2,0,0.2-0.1c0.1-0.1,0.1-0.2,0.1-0.3c0-0.2,0-0.3-0.1-0.3c-0.1-0.1-0.1-0.1-0.2-0.1
				c-0.1,0-0.2,0-0.2,0.1C4,20.4,3.9,20.5,3.9,20.7z"/>
			<path d="M6.6,21.2l-0.1,0.1l-0.1-0.1c-0.1,0-0.1,0.1-0.2,0.1c0,0-0.1,0-0.1,0c-0.1,0-0.2,0-0.2,0c-0.1,0-0.2-0.1-0.2-0.2
				c-0.1-0.1-0.1-0.2-0.1-0.4c0-0.2,0-0.3,0.1-0.4c0.1-0.1,0.1-0.1,0.2-0.2c0.1,0,0.1,0,0.2,0c0.1,0,0.1,0,0.2,0
				c0.1,0,0.2,0.1,0.2,0.2c0.1,0.1,0.1,0.2,0.1,0.4c0,0.1,0,0.2,0,0.2s-0.1,0.1-0.1,0.2L6.6,21.2z M6,21l0.1-0.1l0.1,0.1
				c0-0.1,0.1-0.2,0.1-0.3c0-0.2,0-0.3-0.1-0.3c-0.1-0.1-0.1-0.1-0.2-0.1c-0.1,0-0.2,0-0.2,0.1c-0.1,0.1-0.1,0.2-0.1,0.3
				c0,0.2,0,0.3,0.1,0.3c0.1,0.1,0.1,0.1,0.2,0.1c0,0,0,0,0.1,0c0,0,0,0,0.1,0L6,21z"/>
			<path d="M7.8,20.1v0.8c0,0.2,0,0.3-0.1,0.3c-0.1,0.1-0.2,0.1-0.4,0.1c-0.1,0-0.1,0-0.2,0c-0.1,0-0.1-0.1-0.2-0.1
				c-0.1-0.1-0.1-0.2-0.1-0.3v-0.8h0.3v0.8c0,0.1,0,0.1,0.1,0.2c0,0,0.1,0.1,0.2,0.1c0.1,0,0.1,0,0.2-0.1c0,0,0.1-0.1,0.1-0.2v-0.8
				H7.8z"/>
			<path d="M8.2,21l-0.1,0.2H7.8l0.4-1.2h0.3L9,21.3H8.7L8.6,21H8.2z M8.2,20.8h0.3l-0.2-0.5L8.2,20.8z"/>
			<path d="M9.9,20.1h0.2v1.2H9.8l-0.5-0.9l0,0.9H9.1v-1.2h0.3l0.5,0.8L9.9,20.1z"/>
			<path d="M11.6,20.1h0.2v1.2h-0.3l-0.5-0.9l0,0.9h-0.2v-1.2h0.3l0.5,0.8L11.6,20.1z"/>
			<path d="M12.7,20.8v-0.2h0.5v0.6H13l0-0.2c0,0.1-0.1,0.1-0.1,0.1c-0.1,0-0.2,0.1-0.2,0.1c-0.2,0-0.3-0.1-0.4-0.2
				c-0.1-0.1-0.2-0.3-0.2-0.5c0-0.2,0-0.3,0.1-0.4c0.1-0.1,0.3-0.2,0.4-0.2c0.2,0,0.3,0,0.4,0.1c0.1,0.1,0.1,0.2,0.1,0.3h-0.3
				c0,0,0-0.1-0.1-0.1c-0.1-0.1-0.1-0.1-0.2-0.1c-0.1,0-0.2,0-0.2,0.1c-0.1,0.1-0.1,0.2-0.1,0.3c0,0.2,0,0.3,0.1,0.3
				c0.1,0.1,0.1,0.1,0.2,0.1c0.1,0,0.1,0,0.2-0.1c0.1,0,0.1-0.1,0.1-0.2H12.7z"/>
			<path d="M13.4,20.7c0-0.2,0-0.3,0.1-0.4c0.1-0.1,0.1-0.1,0.2-0.2c0.1,0,0.1,0,0.2,0c0.1,0,0.1,0,0.2,0c0.1,0,0.2,0.1,0.2,0.2
				c0.1,0.1,0.1,0.2,0.1,0.4c0,0.2,0,0.3-0.1,0.4c-0.1,0.1-0.1,0.1-0.2,0.2c-0.1,0-0.1,0-0.2,0c-0.1,0-0.2,0-0.2,0
				c-0.1,0-0.2-0.1-0.2-0.2C13.5,21,13.4,20.9,13.4,20.7z M13.7,20.7c0,0.2,0,0.3,0.1,0.3c0.1,0.1,0.1,0.1,0.2,0.1
				c0.1,0,0.2,0,0.2-0.1c0.1-0.1,0.1-0.2,0.1-0.3c0-0.2,0-0.3-0.1-0.3c-0.1-0.1-0.1-0.1-0.2-0.1c-0.1,0-0.2,0-0.2,0.1
				C13.7,20.4,13.7,20.5,13.7,20.7z M14.1,19.7l0.2,0.2h-0.2L14,19.8L13.9,20h-0.2l0.2-0.2H14.1z"/>
			<path d="M15.5,20.1h0.2v1.2h-0.3L15,20.4l0,0.9h-0.2v-1.2H15l0.5,0.8L15.5,20.1z"/>
			<path d="M16.7,20.1v1h0.6v0.2h-0.8v-1.2H16.7z"/>
			<path d="M18.5,20.1v0.8c0,0.2,0,0.3-0.1,0.3c-0.1,0.1-0.2,0.1-0.4,0.1c-0.1,0-0.1,0-0.2,0c-0.1,0-0.1-0.1-0.2-0.1
				c-0.1-0.1-0.1-0.2-0.1-0.3v-0.8h0.3v0.8c0,0.1,0,0.1,0.1,0.2c0,0,0.1,0.1,0.2,0.1c0.1,0,0.1,0,0.2-0.1c0,0,0.1-0.1,0.1-0.2v-0.8
				H18.5z"/>
			<path d="M19,21l-0.1,0.2h-0.3l0.4-1.2h0.3l0.4,1.2h-0.3L19.4,21H19z M19.3,19.7l0.2,0.2h-0.2l-0.1-0.1L19.1,20h-0.2l0.2-0.2H19.3
				z M19,20.8h0.3l-0.2-0.5L19,20.8z M19.3,21.4v0.2h-0.2v-0.2H19.3z"/>
			<path d="M20.7,20.1h0.2v1.2h-0.3l-0.5-0.9l0,0.9h-0.2v-1.2h0.3l0.5,0.8L20.7,20.1z"/>
			<path d="M22.7,20.5h-0.3c0-0.1,0-0.1-0.1-0.1c0-0.1-0.1-0.1-0.2-0.1c-0.1,0-0.1,0-0.2,0.1c-0.1,0.1-0.1,0.2-0.1,0.3
				c0,0.1,0,0.2,0.1,0.3c0.1,0.1,0.1,0.1,0.2,0.1c0.1,0,0.1,0,0.2-0.1c0,0,0.1-0.1,0.1-0.2h0.3c0,0.1-0.1,0.2-0.2,0.3
				c-0.1,0.1-0.2,0.1-0.4,0.1c-0.2,0-0.3-0.1-0.4-0.2c-0.1-0.1-0.2-0.3-0.2-0.5c0-0.2,0.1-0.4,0.2-0.5c0.1-0.1,0.2-0.2,0.4-0.2
				c0.2,0,0.3,0,0.4,0.1C22.7,20.3,22.7,20.4,22.7,20.5z"/>
			<path d="M23.9,20.1v0.8c0,0.2,0,0.3-0.1,0.3c-0.1,0.1-0.2,0.1-0.4,0.1c-0.1,0-0.1,0-0.2,0c-0.1,0-0.1-0.1-0.2-0.1
				c-0.1-0.1-0.1-0.2-0.1-0.3v-0.8h0.3v0.8c0,0.1,0,0.1,0.1,0.2c0,0,0.1,0.1,0.2,0.1c0.1,0,0.1,0,0.2-0.1c0,0,0.1-0.1,0.1-0.2v-0.8
				H23.9z M23.5,20h-0.1c0-0.1,0-0.1,0-0.1c0,0,0-0.1,0.1-0.1c0,0,0,0,0-0.1c0,0,0,0,0,0c0,0,0,0,0,0c0,0,0,0-0.1,0c0,0,0,0,0,0.1
				l-0.1,0c0-0.1,0-0.1,0.1-0.2c0,0,0.1,0,0.1,0c0,0,0.1,0,0.1,0c0.1,0,0.1,0.1,0.1,0.1c0,0,0,0.1,0,0.1c0,0,0,0-0.1,0.1
				C23.5,19.9,23.5,19.9,23.5,20z"/>
			<path d="M24.4,21l-0.1,0.2H24l0.4-1.2h0.3l0.4,1.2h-0.3L24.8,21H24.4z M24.4,20.8h0.3l-0.2-0.5L24.4,20.8z"/>
			<path d="M25.8,21.3v-1.2h0.6c0.1,0,0.2,0,0.3,0.1c0,0.1,0.1,0.1,0.1,0.2c0,0.1,0,0.1-0.1,0.2c0,0-0.1,0-0.1,0.1
				c0.1,0,0.1,0.1,0.1,0.1c0,0,0,0.1,0,0.2c0,0,0,0.1,0,0.1s0,0.1-0.1,0.1c0,0-0.1,0.1-0.1,0.1c-0.1,0-0.1,0-0.3,0H25.8z M26.1,20.3
				v0.3h0.3c0.1,0,0.1,0,0.1,0c0,0,0.1-0.1,0.1-0.1c0,0,0-0.1,0-0.1c0,0-0.1,0-0.1,0H26.1z M26.1,20.8v0.3h0.3c0.1,0,0.1,0,0.1,0
				c0,0,0-0.1,0-0.1c0,0,0-0.1-0.1-0.1c0,0-0.1,0-0.1,0H26.1z"/>
			<path d="M27,20.7c0-0.2,0-0.3,0.1-0.4c0.1-0.1,0.1-0.1,0.2-0.2c0.1,0,0.1,0,0.2,0c0.1,0,0.1,0,0.2,0c0.1,0,0.2,0.1,0.2,0.2
				c0.1,0.1,0.1,0.2,0.1,0.4c0,0.2,0,0.3-0.1,0.4c-0.1,0.1-0.1,0.1-0.2,0.2c-0.1,0-0.1,0-0.2,0c-0.1,0-0.2,0-0.2,0
				c-0.1,0-0.2-0.1-0.2-0.2C27.1,21,27,20.9,27,20.7z M27.3,20.7c0,0.2,0,0.3,0.1,0.3c0.1,0.1,0.1,0.1,0.2,0.1c0.1,0,0.2,0,0.2-0.1
				c0.1-0.1,0.1-0.2,0.1-0.3c0-0.2,0-0.3-0.1-0.3c-0.1-0.1-0.1-0.1-0.2-0.1c-0.1,0-0.2,0-0.2,0.1C27.3,20.4,27.3,20.5,27.3,20.7z
				 M27.7,19.7l0.2,0.2h-0.2l-0.1-0.1L27.5,20h-0.2l0.2-0.2H27.7z M27.7,21.4v0.2h-0.2v-0.2H27.7z"/>
			<path d="M29.4,20.8v0.5h-0.3v-0.5l-0.4-0.7H29l0.3,0.5l0.2-0.5h0.3L29.4,20.8z"/>
			<path d="M31,20.3v1h-0.3v-1h-0.4v-0.2h1v0.2H31z"/>
			<path d="M32.4,20.1v0.2h-0.6v0.3h0.6v0.2h-0.6v0.3h0.7v0.2h-0.9v-1.2H32.4z M32.1,19.7l0.2,0.2h-0.2L32,19.8L31.9,20h-0.2
				l0.2-0.2H32.1z M32.6,19.5l-0.2,0.2h-0.2l0.2-0.2H32.6z"/>
		</g>
	</g>
</g>
</svg>
