<?xml version="1.0" encoding="utf-8"?>
<!-- Generator: Adobe Illustrator 22.0.0, SVG Export Plug-In . SVG Version: 6.00 Build 0)  -->
<svg version="1.1" id="Layer_1" xmlns="http://www.w3.org/2000/svg" xmlns:xlink="http://www.w3.org/1999/xlink" x="0px" y="0px"
	 width="150px" height="55px" viewBox="0 0 150 55" style="enable-background:new 0 0 150 55;" xml:space="preserve">
<style type="text/css">
	.st0{fill:#F3F3F3;}
	.st1{clip-path:url(#SVGID_2_);}
	.st2{fill:url(#SVGID_7_);}
	.st3{fill:url(#SVGID_8_);}
	.st4{fill:url(#SVGID_9_);}
	.st5{fill:url(#SVGID_10_);}
	.st6{fill:url(#SVGID_11_);}
	.st7{fill:#FFFFFF;}
	.st8{fill:url(#SVGID_12_);}
	.st9{fill:url(#SVGID_13_);}
	.st10{fill:url(#SVGID_14_);}
	.st11{fill:url(#SVGID_15_);}
	.st12{fill:url(#SVGID_16_);}
	.st13{fill:#1D516B;}
	.st14{fill-rule:evenodd;clip-rule:evenodd;fill:#1D516B;}
	.st15{fill:#3FB067;}
	.st16{fill:#FFCA36;}
	.st17{fill:#FCCC34;}
	.st18{fill:#D1B69D;}
	.st19{fill:#26A867;}
	.st20{clip-path:url(#SVGID_20_);}
	.st21{fill:none;stroke:#26A867;stroke-width:3;stroke-miterlimit:10;}
	.st22{fill:#F98903;}
	.st23{fill:#333333;}
	.st24{fill-rule:evenodd;clip-rule:evenodd;fill:#333333;}
	.st25{fill-rule:evenodd;clip-rule:evenodd;fill:#01192B;}
	.st26{fill-rule:evenodd;clip-rule:evenodd;fill:#EC6A07;}
	.st27{fill:#EC6A07;}
	.st28{fill-rule:evenodd;clip-rule:evenodd;fill:#E9501F;}
	.st29{fill-rule:evenodd;clip-rule:evenodd;fill:#FFFFFF;}
	.st30{fill-rule:evenodd;clip-rule:evenodd;fill:#F2961C;}
	.st31{fill-rule:evenodd;clip-rule:evenodd;fill:#231916;}
	.st32{fill:#01AAEF;}
	.st33{fill:#02AAEF;}
	.st34{fill-rule:evenodd;clip-rule:evenodd;fill:#4267B2;}
	.st35{fill:#11A9E1;}
	.st36{fill:#13AAE1;}
</style>
<g>
	<rect class="st7" width="150" height="55"/>
	<g>
		<path class="st25" d="M21.5,10.8h1.7v20.1h9.1l-0.8,1.7c-3.3,0-6.7,0-10,0V10.8z"/>
		<path class="st25" d="M44.4,10.8h-1.7l-9.5,21.8H35l2.5-5.7c0.3-0.6,1-1.1,1.9-1.5c1.4-0.7,3.5-1.1,5.7-1.1c2,0,4.8,0.4,6.6,1.6
			l1.1-1.3c-0.4-0.3-0.8-0.5-1.2-0.7c-0.5-0.2-1-0.4-1.6-0.6L44.4,10.8L44.4,10.8z M38.8,23.7l4.8-11L48,22.8
			c-0.9-0.2-1.9-0.2-3-0.2C42.6,22.5,40.4,23,38.8,23.7L38.8,23.7z M49.3,25.7c0.4,0.1,0.7,0.3,1.1,0.4c0.2,0.1,0.3,0.1,0.4,0.2
			c0.1,0.1,0.2,0.1,0.3,0.2l0.4,0.3l2.5,5.7h-1.7L49.3,25.7z"/>
		<path class="st25" d="M80.5,10.8h-1.7l-9.5,21.8H71l2.5-5.7c0.3-0.6,1-1.1,1.9-1.5c1.4-0.7,3.5-1.1,5.7-1.1c2,0,4.8,0.4,6.6,1.6
			l1.1-1.3c-0.4-0.3-0.8-0.5-1.2-0.7c-0.5-0.2-1-0.4-1.6-0.6L80.5,10.8L80.5,10.8z M74.8,23.7l4.8-11L84,22.8
			c-0.9-0.2-1.9-0.2-3-0.2C78.7,22.5,76.5,23,74.8,23.7L74.8,23.7z M85.3,25.7c0.4,0.1,0.7,0.3,1.1,0.4c0.2,0.1,0.3,0.1,0.4,0.2
			c0.1,0.1,0.2,0.1,0.3,0.2l0.4,0.3l2.5,5.7h-1.7L85.3,25.7z"/>
		<path class="st25" d="M118.9,10.8h-1.7l-9.5,21.8h1.7l2.5-5.7c0.3-0.6,1-1.1,1.9-1.5c1.4-0.7,3.5-1.1,5.7-1.1c2,0,4.8,0.4,6.6,1.6
			l1.1-1.3c-0.4-0.3-0.8-0.5-1.2-0.7c-0.5-0.2-1-0.4-1.6-0.6L118.9,10.8L118.9,10.8z M113.2,23.7l4.8-11l4.4,10.1
			c-0.9-0.2-1.9-0.2-3-0.2C117,22.5,114.9,23,113.2,23.7L113.2,23.7z M123.7,25.7c0.4,0.1,0.7,0.3,1.1,0.4c0.2,0.1,0.3,0.1,0.4,0.2
			c0.1,0.1,0.2,0.1,0.3,0.2l0.4,0.3l2.5,5.7h-1.7L123.7,25.7z"/>
		<polygon class="st25" points="56.1,12.5 55.3,10.8 69.1,10.8 69.1,12.5 57.5,30.8 68.4,30.8 67.6,32.5 55.8,32.5 55.4,31.6 
			67,12.5 		"/>
		<path class="st25" d="M91.8,21.6V10.8h4.4c3.2,0,5.5,0.3,6.9,0.8c2.1,0.7,3.7,2,4.8,3.8c1.1,1.8,1.7,3.8,1.7,6.2
			c0,2.4-0.6,4.5-1.7,6.2c-1.2,1.8-2.8,3.1-4.8,3.8c-1.4,0.5-3.8,0.8-6.9,0.8h-4.4V21.6L91.8,21.6z M93.4,30.9H96
			c3.1,0,5.2-0.2,6.4-0.6c1.7-0.6,3-1.6,4-3.1c1-1.5,1.6-3.4,1.6-5.5c0-2.2-0.7-4-1.6-5.5c-1-1.5-2.3-2.5-4-3.1
			c-1.2-0.4-3.3-0.6-6.4-0.6h-2.6V30.9z"/>
		<rect x="21.5" y="37.6" class="st26" width="86.4" height="6.6"/>
		<path class="st26" d="M111.7,40.2c0.6,0,1,0.5,1,1s-0.5,1-1,1c-0.6,0-1-0.5-1-1S111.2,40.2,111.7,40.2L111.7,40.2z"/>
		<g>
			<path class="st27" d="M116.7,44.2l-2.5-6.6h1.5l1,3c0.3,0.8,0.5,1.6,0.7,2.4h0c0.2-0.8,0.5-1.6,0.8-2.4l1.1-3h1.5l-2.6,6.6H116.7
				z"/>
			<path class="st27" d="M122.5,44.2v-6.6h1.6l2,2.8c0.5,0.7,0.9,1.5,1.3,2.2h0c-0.1-0.9-0.1-1.7-0.1-2.7v-2.3h1.3v6.6H127l-2-2.9
				c-0.5-0.7-1-1.5-1.4-2.3l0,0c0.1,0.9,0.1,1.7,0.1,2.8v2.4H122.5z"/>
		</g>
	</g>
</g>
</svg>
