<?xml version="1.0" encoding="utf-8"?>
<!-- Generator: Adobe Illustrator 22.0.0, SVG Export Plug-In . SVG Version: 6.00 Build 0)  -->
<svg version="1.1" id="Layer_1" xmlns="http://www.w3.org/2000/svg" xmlns:xlink="http://www.w3.org/1999/xlink" x="0px" y="0px"
	 width="150px" height="55px" viewBox="0 0 150 55" style="enable-background:new 0 0 150 55;" xml:space="preserve">
<style type="text/css">
	.st0{fill:#F3F3F3;}
	.st1{clip-path:url(#SVGID_2_);}
	.st2{fill:url(#SVGID_7_);}
	.st3{fill:url(#SVGID_8_);}
	.st4{fill:url(#SVGID_9_);}
	.st5{fill:url(#SVGID_10_);}
	.st6{fill:url(#SVGID_11_);}
	.st7{fill:#FFFFFF;}
	.st8{fill:url(#SVGID_12_);}
	.st9{fill:url(#SVGID_13_);}
	.st10{fill:url(#SVGID_14_);}
	.st11{fill:url(#SVGID_15_);}
	.st12{fill:url(#SVGID_16_);}
	.st13{fill:#1D516B;}
	.st14{fill-rule:evenodd;clip-rule:evenodd;fill:#1D516B;}
	.st15{fill:#3FB067;}
	.st16{fill:#FFCA36;}
	.st17{fill:#FCCC34;}
	.st18{fill:#D1B69D;}
	.st19{fill:#26A867;}
	.st20{clip-path:url(#SVGID_20_);}
	.st21{fill:none;stroke:#26A867;stroke-width:3;stroke-miterlimit:10;}
	.st22{fill:#F98903;}
	.st23{fill:#333333;}
	.st24{fill-rule:evenodd;clip-rule:evenodd;fill:#333333;}
	.st25{fill-rule:evenodd;clip-rule:evenodd;fill:#01192B;}
	.st26{fill-rule:evenodd;clip-rule:evenodd;fill:#EC6A07;}
	.st27{fill:#EC6A07;}
	.st28{fill-rule:evenodd;clip-rule:evenodd;fill:#E9501F;}
	.st29{fill-rule:evenodd;clip-rule:evenodd;fill:#FFFFFF;}
	.st30{fill-rule:evenodd;clip-rule:evenodd;fill:#F2961C;}
	.st31{fill-rule:evenodd;clip-rule:evenodd;fill:#231916;}
	.st32{fill:#01AAEF;}
	.st33{fill:#02AAEF;}
	.st34{fill-rule:evenodd;clip-rule:evenodd;fill:#4267B2;}
	.st35{fill:#11A9E1;}
	.st36{fill:#13AAE1;}
</style>
<g>
	<rect class="st7" width="150" height="55"/>
	<path class="st34" d="M60.9,29.5c-0.1-1.8,0.2-2.7,2.1-2.7c1.7,0.1,2,0.9,1.9,2.7C63.6,29.5,62.3,29.5,60.9,29.5L60.9,29.5z
		 M133.9,39.4c-0.5-1.1-1.7-2.8-2.4-4c-3.1-5.1-3.1-3.3-0.1-8.1c0.4-0.7,2.2-3.4,2.4-4l-5.3,0c-1.3,2.1-2.9,5-4.5,6.8l0-14.1
		c-1.3-0.1-3.6,0.6-5,0.7l0,22.7l4.9,0l0-7.3c0.3,0.2,0.2,0.1,0.4,0.5c0.9,1.5,3.1,5.6,4.2,6.8L133.9,39.4L133.9,39.4z M108.2,34
		c-0.2-0.9-0.2-5.3,0.3-6c0.9-1.2,3.8-1.1,4.1,0.7c0.2,1.2,0.3,5.2-0.3,6C111.4,36,108.5,35.7,108.2,34L108.2,34z M103.2,29.6
		c0,5.5-0.4,10,7.8,10c3.4,0,5.8-1.7,6.5-4.5c0.5-2,0.6-7.4-1-9.6c-0.7-1-1.9-1.8-3.5-2.1C108.8,22.4,103.2,23.5,103.2,29.6
		L103.2,29.6z M96.8,30.2c0,2.4,0.7,6-2.9,5.2c-2-0.4-1.5-2.1-1.5-4.2c0-2-0.3-3.6,1.6-3.9C96.8,26.8,96.8,28.6,96.8,30.2L96.8,30.2
		z M94.5,23.1c-2,0.2-3.9,0-5.7,2.1c-1.4,1.7-1.4,3.7-1.4,6.4c0,2.8,0.2,4.6,1.7,6.1c1.3,1.3,3.4,1.9,6,1.8c6.4-0.1,6.8-4.1,6.9-8.7
		c0-2.7-0.2-4.6-1.7-6C99,23.7,96.6,22.9,94.5,23.1L94.5,23.1z M76.5,27.9c0.8-0.5,2.5-1,3.6-0.5c1.1,0.5,0.9,2.1,0.9,3.6
		c0,1.4,0.2,3.2-0.6,3.9c-0.7,0.6-2.9,0.9-3.8,0.4C76.3,34.4,76.5,29.4,76.5,27.9L76.5,27.9z M71.6,39c2.4,0.6,7,0.9,9.6,0.4
		c3.2-0.6,4.5-2.1,4.8-5.6c0.2-2.7,0.3-7.7-1.1-9.2c-0.9-1-1.9-1.3-3.7-1.5c-0.9-0.1-1.7,0-2.6,0.1c-0.6,0.1-1.5,0.4-2,0.3
		c-0.3-1.2,0-5.8-0.1-7.6l-4.9,0.8L71.6,39L71.6,39z M35.6,35.3c-3.9,2.3-4.9-1.6-2.5-1.7l2.5,0.1L35.6,35.3L35.6,35.3z M42.1,30.2
		l0,2.8c0,9.2,12.1,6.2,12.2,6c0.4-0.3,0.2-3.8,0.1-4c-1.3,0.2-3.6,0.7-4.8,0.5c-2.9-0.3-2.5-0.5-2.5-5.6c0-2.2,0.5-2.8,3.1-2.7
		l4.2,0.5l0-4c-2.2-0.8-6.5-0.9-8.7-0.1C43.3,24.6,42.1,26.9,42.1,30.2L42.1,30.2z M23.6,23.3c-0.1-4.6-0.1-3.3,3.7-3.7l0-4
		c-4.1-0.4-7.8-0.2-8.6,3.7c-0.2,1.3,0.1,2.9-0.1,4l-2.4,0l0,0.7c-0.1,4.2-0.5,3.5,2.4,3.5l0.1,11.9l3.8,0c0.5,0,0.8,0,1-0.2
		c0.3-0.5,0.1-10.2,0.1-11.7l3.1-0.1c0.4-0.5,0.6-3.5,0.6-4.1L23.6,23.3L23.6,23.3z M28.9,23.4c-0.2,0.5-0.3,2.7-0.4,3.3
		c-0.1,0.8,0.1,0.8,0.8,0.8c3.7,0,6.8-0.9,6.1,2.8c-2.8,0-6.6-0.4-8,1.8c-0.8,1.3-0.8,3.8-0.1,5.1c2.2,4.4,7.9,1.5,8.8,1.3l0.3,0.9
		l4.1-0.1l0-5.4c0-7.2,0.7-10.7-7-10.7C32.7,23.3,29.5,23.1,28.9,23.4L28.9,23.4z M68.5,32.8c1.2,0,1.5,0.3,1.5-0.7
		c0-3.6,0.1-6.2-2.3-7.8c-1.9-1.3-5.9-1.7-8.3-0.7c-2.6,1.1-3.5,2.9-3.5,6.4c0,5.7,0.4,9.6,7.9,9.6c1.8,0,4.3-0.1,5.8-0.6l0-3.1
		c0-1.5-0.4-0.8-2.6-0.6c-1,0.1-1.9,0.2-2.9,0.2c-2.3,0-3.2-0.2-3.1-2.7L68.5,32.8z"/>
</g>
</svg>
