<?xml version="1.0" encoding="utf-8"?>
<!-- Generator: Adobe Illustrator 22.0.0, SVG Export Plug-In . SVG Version: 6.00 Build 0)  -->
<svg version="1.1" id="Layer_1" xmlns="http://www.w3.org/2000/svg" xmlns:xlink="http://www.w3.org/1999/xlink" x="0px" y="0px"
	 width="150px" height="55px" viewBox="0 0 150 55" style="enable-background:new 0 0 150 55;" xml:space="preserve">
<style type="text/css">
	.st0{fill:#F3F3F3;}
	.st1{clip-path:url(#SVGID_2_);}
	.st2{fill:url(#SVGID_7_);}
	.st3{fill:url(#SVGID_8_);}
	.st4{fill:url(#SVGID_9_);}
	.st5{fill:url(#SVGID_10_);}
	.st6{fill:url(#SVGID_11_);}
	.st7{fill:#FFFFFF;}
	.st8{fill:url(#SVGID_12_);}
	.st9{fill:url(#SVGID_13_);}
	.st10{fill:url(#SVGID_14_);}
	.st11{fill:url(#SVGID_15_);}
	.st12{fill:url(#SVGID_16_);}
	.st13{fill:#1D516B;}
	.st14{fill-rule:evenodd;clip-rule:evenodd;fill:#1D516B;}
	.st15{fill:#3FB067;}
	.st16{fill:#FFCA36;}
	.st17{fill:#FCCC34;}
	.st18{fill:#D1B69D;}
	.st19{fill:#26A867;}
	.st20{clip-path:url(#SVGID_20_);}
	.st21{fill:none;stroke:#26A867;stroke-width:3;stroke-miterlimit:10;}
	.st22{fill:#F98903;}
	.st23{fill:#333333;}
	.st24{fill-rule:evenodd;clip-rule:evenodd;fill:#333333;}
	.st25{fill-rule:evenodd;clip-rule:evenodd;fill:#01192B;}
	.st26{fill-rule:evenodd;clip-rule:evenodd;fill:#EC6A07;}
	.st27{fill:#EC6A07;}
	.st28{fill-rule:evenodd;clip-rule:evenodd;fill:#E9501F;}
	.st29{fill-rule:evenodd;clip-rule:evenodd;fill:#FFFFFF;}
	.st30{fill-rule:evenodd;clip-rule:evenodd;fill:#F2961C;}
	.st31{fill-rule:evenodd;clip-rule:evenodd;fill:#231916;}
	.st32{fill:#01AAEF;}
	.st33{fill:#02AAEF;}
	.st34{fill-rule:evenodd;clip-rule:evenodd;fill:#4267B2;}
	.st35{fill:#11A9E1;}
	.st36{fill:#13AAE1;}
</style>
<g>
	<rect class="st7" width="150" height="55"/>
	<g>
		<g>
			<path class="st28" d="M54.6,38.7c-0.4-0.3-0.5-0.8-0.2-1.1c0.3-0.4,0.8-0.5,1.1-0.2c0.2,0.2,0.5,0.3,0.7,0.5
				c1.9,1.1,3.6,1.7,5,1.7c1.3,0,2.4-0.5,3-1.5v0c0-0.1,0.1-0.1,0.1-0.1c0.2-0.3,0.3-0.6,0.4-1c0.2-0.7,0.2-1.3-0.1-2
				c-0.3-0.7-0.8-1.3-1.7-1.8l0,0c-0.6-0.3-1.3-0.7-2.1-0.9c-2.2-0.6-3.8-1.5-4.7-2.7c-1-1.3-1-2.8,0-4.7c0.7-1.2,2.1-2,3.8-2.2
				c1.5-0.1,3.3,0.2,5.2,1.2c0.4,0.2,0.6,0.7,0.4,1.1c-0.2,0.4-0.7,0.6-1.1,0.4c-1.6-0.8-3.1-1.1-4.3-1c-1.2,0.1-2.1,0.6-2.5,1.3
				c-0.7,1.2-0.7,2.2-0.1,3c0.6,0.9,2,1.5,3.8,2.1c1,0.3,1.8,0.6,2.5,1.1h0c1.2,0.7,1.9,1.6,2.3,2.5c0.4,1,0.5,2,0.2,3
				c-0.1,0.5-0.3,0.9-0.6,1.4c-0.1,0.1-0.1,0.2-0.1,0.2l0,0c-1,1.5-2.5,2.2-4.4,2.2c-1.7,0-3.7-0.6-5.9-1.9
				C55.2,39,54.9,38.9,54.6,38.7z"/>
			<path class="st28" d="M69.1,23.5c0-0.4,0.4-0.8,0.8-0.8c0.5,0,0.8,0.3,0.8,0.8v16.8c0,0.4-0.4,0.8-0.8,0.8
				c-0.5,0-0.8-0.3-0.8-0.8V23.5z"/>
			<path class="st28" d="M70.8,34c-0.3,0.3-0.8,0.4-1.1,0.1c-0.3-0.3-0.4-0.8-0.1-1.1c1.2-1.5,2.7-2.5,4-2.9c1-0.3,2-0.3,2.8-0.1
				c0.9,0.2,1.7,0.8,2.2,1.5c0.5,0.7,0.8,1.7,0.8,2.8v6c0,0.5-0.4,0.8-0.8,0.8c-0.5,0-0.8-0.4-0.8-0.8v-6c0-0.8-0.2-1.4-0.5-1.8
				c-0.3-0.4-0.8-0.7-1.3-0.9c-0.6-0.2-1.2-0.1-1.9,0.1C73,32,71.8,32.7,70.8,34z"/>
			<path class="st28" d="M87.4,29.9c1.6,0,3,0.6,4,1.6l0,0c1,1,1.6,2.4,1.6,4c0,1.6-0.6,3-1.7,4c-1,1-2.4,1.6-4,1.6
				c-1.6,0-3-0.6-4-1.6v0c-1-1-1.6-2.4-1.6-4c0-1.6,0.6-3,1.6-4v0C84.4,30.5,85.8,29.9,87.4,29.9L87.4,29.9z M90.2,32.6
				c-0.7-0.7-1.7-1.2-2.8-1.2c-1.1,0-2.1,0.5-2.8,1.2l0,0c-0.7,0.7-1.2,1.7-1.2,2.8c0,1.1,0.5,2.1,1.2,2.8l0,0
				c0.7,0.7,1.7,1.2,2.8,1.2c1.1,0,2.1-0.5,2.8-1.2c0.7-0.7,1.2-1.7,1.2-2.8C91.4,34.4,91,33.4,90.2,32.6z"/>
			<path class="st28" d="M95.3,30.7c0-0.5,0.4-0.8,0.8-0.8c0.5,0,0.8,0.4,0.8,0.8v1c0.1-0.1,0.1-0.1,0.2-0.2v0c1-1,2.4-1.6,4-1.6
				c1.6,0,3,0.6,4,1.6l0,0c1,1,1.6,2.4,1.6,4c0,1.6-0.6,3-1.7,4c-1,1-2.4,1.6-4,1.6c-1.6,0-3-0.6-4-1.6v0c-0.1-0.1-0.1-0.1-0.2-0.2
				v7.4c0,0.5-0.4,0.8-0.8,0.8c-0.5,0-0.8-0.4-0.8-0.8V30.7L95.3,30.7z M104,32.6c-0.7-0.7-1.7-1.2-2.8-1.2c-1.1,0-2.1,0.5-2.8,1.2
				l0,0c-0.7,0.7-1.2,1.7-1.2,2.8c0,1.1,0.5,2.1,1.2,2.8l0,0c0.7,0.7,1.7,1.2,2.8,1.2c1.1,0,2.1-0.5,2.8-1.2
				c0.7-0.7,1.2-1.7,1.2-2.8C105.2,34.4,104.7,33.4,104,32.6z"/>
			<path class="st28" d="M114.5,29.8c1.4,0,2.7,0.5,3.6,1.5c0.8,0.8,1.1,1.5,1.4,2.4c0.7,2.3-0.6,2.2-1,2.2h-7.5
				c0.1,0.6,0.2,1,0.4,1.5c0.3,0.7,0.7,1.2,1.3,1.6c0.6,0.4,1.3,0.5,2.1,0.5c0.9,0,2-0.2,3.1-0.7c0.4-0.2,0.9,0,1.1,0.4
				c0.2,0.4,0,0.9-0.4,1.1c-1.4,0.6-2.6,0.8-3.8,0.9c-1.2,0-2.2-0.3-3-0.8c-0.8-0.5-1.6-1.3-1.9-2.3c-0.8-2.3-0.8-4.6,1.2-6.7
				C111.8,30.4,113.1,29.8,114.5,29.8L114.5,29.8z M116.9,32.5c-0.7-0.6-1.5-1-2.4-1c-0.9,0-1.8,0.4-2.4,1c-0.5,0.5-0.9,1.1-1.1,1.7
				h7C117.7,33.6,117.4,33,116.9,32.5z"/>
			<path class="st28" d="M126.8,29.8c1.4,0,2.7,0.5,3.6,1.5c0.8,0.8,1.1,1.5,1.4,2.4c0.7,2.3-0.6,2.2-1,2.2h-7.5
				c0.1,0.6,0.2,1,0.4,1.5c0.3,0.7,0.7,1.2,1.3,1.6c0.6,0.4,1.3,0.5,2.1,0.5c0.9,0,2-0.2,3.1-0.7c0.4-0.2,0.9,0,1.1,0.4
				c0.2,0.4,0,0.9-0.4,1.1c-1.4,0.6-2.6,0.8-3.8,0.9c-1.2,0-2.2-0.3-3-0.8c-0.8-0.5-1.6-1.3-1.9-2.3c-0.8-2.3-0.8-4.6,1.2-6.7
				C124.2,30.4,125.5,29.8,126.8,29.8L126.8,29.8z M129.3,32.5c-0.7-0.6-1.5-1-2.4-1c-0.9,0-1.8,0.4-2.4,1c-0.5,0.5-0.9,1.1-1.1,1.7
				h7C130.1,33.6,129.8,33,129.3,32.5z"/>
		</g>
		<path class="st28" d="M19.7,18.2h7.7c0.2-2.6,1-5,2-6.8C30.8,9,32.8,7.5,35,7.5c2.2,0,4.2,1.5,5.6,3.9c1,1.8,1.8,4.2,2,6.8h7.7
			c0.9,0,1.7,0.8,1.7,1.7l-1.6,21.6c-0.2,2.7-1.9,4.3-4.4,4.3H24c-2.8,0-4.2-1.9-4.4-4.3L18,19.8C18,18.9,18.8,18.2,19.7,18.2
			L19.7,18.2z M29.4,18.2h11.3c-0.2-2.3-0.9-4.3-1.7-5.8c-1-1.8-2.4-2.9-3.9-2.9c-1.5,0-2.9,1.1-3.9,2.9
			C30.2,13.9,29.6,15.9,29.4,18.2z"/>
		<path class="st29" d="M29.4,38.1c-0.4-0.2-0.5-0.7-0.2-1.1c0.2-0.4,0.7-0.5,1.1-0.2c0.2,0.2,0.5,0.3,0.7,0.5
			c1.8,1.1,3.5,1.6,4.9,1.6c1.3,0,2.3-0.5,2.9-1.4v0c0-0.1,0.1-0.1,0.1-0.1c0.2-0.3,0.3-0.6,0.4-0.9c0.2-0.6,0.2-1.3-0.1-1.9
			c-0.3-0.6-0.8-1.2-1.6-1.7l0,0c-0.6-0.3-1.2-0.6-2.1-0.9c-2.1-0.6-3.7-1.4-4.5-2.6c-0.9-1.2-1-2.7,0-4.6c0.7-1.2,2-1.9,3.7-2.1
			c1.5-0.1,3.2,0.2,5,1.2c0.4,0.2,0.5,0.7,0.3,1.1c-0.2,0.4-0.7,0.5-1.1,0.3c-1.5-0.8-3-1.1-4.2-1c-1.2,0.1-2,0.5-2.4,1.3
			c-0.7,1.2-0.6,2.1-0.1,2.9c0.6,0.8,1.9,1.5,3.7,2c1,0.3,1.8,0.6,2.5,1h0c1.1,0.7,1.9,1.5,2.3,2.5c0.4,1,0.5,2,0.2,2.9
			c-0.1,0.4-0.3,0.9-0.6,1.3c-0.1,0.1-0.1,0.2-0.1,0.2l0,0c-1,1.4-2.4,2.1-4.2,2.1c-1.7,0-3.6-0.6-5.7-1.9
			C30,38.5,29.7,38.3,29.4,38.1z"/>
	</g>
</g>
</svg>
