<?xml version="1.0" encoding="utf-8"?>
<!-- Generator: Adobe Illustrator 22.0.0, SVG Export Plug-In . SVG Version: 6.00 Build 0)  -->
<svg version="1.1" id="Layer_1" xmlns="http://www.w3.org/2000/svg" xmlns:xlink="http://www.w3.org/1999/xlink" x="0px" y="0px"
	 width="150px" height="55px" viewBox="0 0 150 55" style="enable-background:new 0 0 150 55;" xml:space="preserve">
<style type="text/css">
	.st0{fill:#F3F3F3;}
	.st1{clip-path:url(#SVGID_2_);}
	.st2{fill:url(#SVGID_7_);}
	.st3{fill:url(#SVGID_8_);}
	.st4{fill:url(#SVGID_9_);}
	.st5{fill:url(#SVGID_10_);}
	.st6{fill:url(#SVGID_11_);}
	.st7{fill:#FFFFFF;}
	.st8{fill:url(#SVGID_12_);}
	.st9{fill:url(#SVGID_13_);}
	.st10{fill:url(#SVGID_14_);}
	.st11{fill:url(#SVGID_15_);}
	.st12{fill:url(#SVGID_16_);}
	.st13{fill:#1D516B;}
	.st14{fill-rule:evenodd;clip-rule:evenodd;fill:#1D516B;}
	.st15{fill:#3FB067;}
	.st16{fill:#FFCA36;}
	.st17{fill:#FCCC34;}
	.st18{fill:#D1B69D;}
	.st19{fill:#26A867;}
	.st20{clip-path:url(#SVGID_20_);}
	.st21{fill:none;stroke:#26A867;stroke-width:3;stroke-miterlimit:10;}
	.st22{fill:#F98903;}
	.st23{fill:#333333;}
	.st24{fill-rule:evenodd;clip-rule:evenodd;fill:#333333;}
	.st25{fill-rule:evenodd;clip-rule:evenodd;fill:#01192B;}
	.st26{fill-rule:evenodd;clip-rule:evenodd;fill:#EC6A07;}
	.st27{fill:#EC6A07;}
	.st28{fill-rule:evenodd;clip-rule:evenodd;fill:#E9501F;}
	.st29{fill-rule:evenodd;clip-rule:evenodd;fill:#FFFFFF;}
	.st30{fill-rule:evenodd;clip-rule:evenodd;fill:#F2961C;}
	.st31{fill-rule:evenodd;clip-rule:evenodd;fill:#231916;}
	.st32{fill:#01AAEF;}
	.st33{fill:#02AAEF;}
	.st34{fill-rule:evenodd;clip-rule:evenodd;fill:#4267B2;}
	.st35{fill:#11A9E1;}
	.st36{fill:#13AAE1;}
</style>
<g>
	<g>
		<defs>
			<rect id="SVGID_1_" x="362.1" y="-652.6" width="1903" height="444.5"/>
		</defs>
		<clipPath id="SVGID_2_">
			<use xlink:href="#SVGID_1_"  style="overflow:visible;"/>
		</clipPath>
		<g id="_x32_4296179_x5F_328508680964502_x5F_429158694198968320_x5F_n__x28_resized_x29_.tif" class="st1">
			
				<image style="overflow:visible;" width="2000" height="1334" id="_x32_4296179_x5F_328508680964502_x5F_429158694198968320_x5F_n__x28_resized_x29_" xlink:href="E18F61B3.html"  transform="matrix(1.0987 0 0 1.0987 102.9433 -878.6252)">
			</image>
		</g>
	</g>
</g>
<g>
	<rect class="st7" width="150" height="55"/>
	<g>
		<path class="st35" d="M63.7,37.4c0.3,2.2-1.2,3.9-3.4,3.9c-4.3,0-8.6,0-12.9,0c-0.7,0-1.3,0.2-1.8,0.6c-1.5,1.1-3,2.2-4.5,3.4
			c-0.2,0.2-0.4,0.4-0.7,0.3c-0.3-0.1-0.2-0.5-0.2-0.7c0-0.9-0.1-1.8,0-2.7c0-0.7-0.2-0.9-0.9-0.8c-1.2,0-2.4,0-3.6,0
			c-2.1,0-3.6-1.4-3.6-3.6c0-8.3,0-16.5,0-24.8c0-2.1,1.5-3.5,3.6-3.5c8.2,0,16.4,0,24.6,0c1.8,0,3.2,1.2,3.5,2.8
			c0.1,0.5,0.1,0.7-0.5,0.5c-0.5-0.2-1.1-0.2-1.6-0.2c-5.1,0-10.2,0-15.3,0c-2.7,0-4,1.6-3.6,4.3c0.3,1.7,1.5,2.7,3.2,2.7
			c2.2,0,4.3,0,6.5,0c0.2,0,0.5-0.1,0.6,0.1c0.1,0.2-0.1,0.4-0.2,0.5c-3.3,4.5-6.5,9-9.8,13.5c-0.7,1-0.8,2-0.4,3
			c0.5,1.1,1.4,1.5,2.5,1.5c3.1,0,6.2,0,9.2,0c2.2,0,4.3,0,6.5,0C61.9,38.2,62.8,37.9,63.7,37.4z"/>
		<path class="st35" d="M83.4,28.6c0,2.2,0,4.5,0,6.7c0,1.9-1.3,3-3.1,2.8c-0.8-0.1-1.4-0.5-1.8-1.1c-0.2-0.4-0.4-0.5-0.8-0.1
			c-2,2.2-6.5,2.1-9-0.2c-4.4-3.9-4.6-11.7-0.3-15.8c1.8-1.8,4-2.5,6.6-2c1.1,0.2,2,0.7,2.8,1.5c0.2,0.3,0.4,0.4,0.7,0
			c0.9-1.2,1.9-1.5,3.1-1.1c1.1,0.4,1.8,1.4,1.8,2.8C83.4,24.3,83.4,26.5,83.4,28.6C83.4,28.6,83.4,28.6,83.4,28.6z M70.8,28.7
			c-0.1,1,0.2,1.9,0.6,2.8c0.6,1.1,1.6,1.8,2.9,1.8c1.4,0,2.4-0.6,3-1.8c1-1.9,1-3.9,0-5.8c-1.2-2.3-4.4-2.4-5.7-0.1
			C71,26.6,70.8,27.6,70.8,28.7z"/>
		<path class="st35" d="M92.5,28.8c0-2.6,0.6-4.7,1.9-6.5c2.3-3.1,5.4-4.1,9.1-3.3c3.9,0.9,6,3.6,6.7,7.4c0.6,3.3,0.2,6.4-2,9.1
			c-2.4,2.9-5.7,3.7-9.2,2.8c-3.6-1-5.5-3.7-6.3-7.2C92.6,30.2,92.5,29.4,92.5,28.8z M105.1,28.7c0-1.1-0.2-2.2-0.8-3.2
			c-1.3-2-4.1-2.1-5.5-0.1c-1.2,1.7-1.3,4.6-0.2,6.3c1.4,2.1,4.3,2.1,5.7,0C104.9,30.8,105.2,29.8,105.1,28.7z"/>
		<path class="st36" d="M90.9,24.7c0,3.5,0,7,0,10.5c0,1.9-1,3-2.7,3c-1.6,0-2.7-1.2-2.7-3c0-7.1,0-14.1,0-21.2
			c0-1.5,0.8-2.6,2.1-2.9c1.2-0.3,2.4,0.3,3,1.3c0.3,0.5,0.3,1.1,0.3,1.6C90.9,17.6,90.9,21.1,90.9,24.7z"/>
		<path class="st36" d="M63.7,32.1c-0.9-0.5-1.8-0.6-2.7-0.6c-2.2,0-4.5,0-6.7,0.1c-0.3,0-0.6,0-1,0c3.5-4.8,6.9-9.6,10.5-14.5
			C63.7,22.2,63.7,27.1,63.7,32.1z"/>
		<path class="st36" d="M116.7,21.4c0-3.8-2.8-9-8.5-9c-0.4,0-0.8-0.1-0.8-0.6c0-0.5,0.5-0.6,0.9-0.6c2.8,0,5.2,1,7,3.2
			c1.7,2.1,2.6,4.6,2.7,7.4c0,0.1,0,0.3,0,0.4c0,0.5-0.2,0.9-0.7,0.8c-0.5,0-0.6-0.5-0.5-0.9C116.7,21.8,116.7,21.5,116.7,21.4z"/>
		<path class="st36" d="M115.2,21.8c0,0.2,0,0.4-0.1,0.7c-0.1,0.3-0.3,0.5-0.6,0.4c-0.3,0-0.4-0.2-0.4-0.5c0-0.3,0-0.5-0.1-0.8
			c0-0.7-0.2-1.4-0.4-2.1c-0.8-2.7-2.4-4-5.2-4.2c-0.5,0-1.1,0-1-0.7c0.1-0.6,0.7-0.7,1.2-0.6c3.1,0.4,5.1,2,6,5
			C114.9,19.9,115.1,20.8,115.2,21.8z"/>
		<path class="st36" d="M112.6,21.6c0,0.5-0.1,1-0.7,1c-0.6,0-0.6-0.5-0.6-0.9c-0.2-2.5-0.5-2.9-3-3.7c-0.4-0.1-0.6-0.4-0.6-0.8
			c0.1-0.5,0.5-0.5,0.8-0.5c1.5,0.1,3.1,1.3,3.7,2.9C112.5,20.3,112.5,21,112.6,21.6z"/>
	</g>
</g>
</svg>
