<?xml version="1.0" encoding="utf-8"?>
<!-- Generator: Adobe Illustrator 22.0.0, SVG Export Plug-In . SVG Version: 6.00 Build 0)  -->
<svg version="1.1" id="Layer_1" xmlns="http://www.w3.org/2000/svg" xmlns:xlink="http://www.w3.org/1999/xlink" x="0px" y="0px"
	 width="150px" height="55px" viewBox="0 0 150 55" style="enable-background:new 0 0 150 55;" xml:space="preserve">
<style type="text/css">
	.st0{fill:#F3F3F3;}
	.st1{clip-path:url(#SVGID_2_);}
	.st2{fill:url(#SVGID_7_);}
	.st3{fill:url(#SVGID_8_);}
	.st4{fill:url(#SVGID_9_);}
	.st5{fill:url(#SVGID_10_);}
	.st6{fill:url(#SVGID_11_);}
	.st7{fill:#FFFFFF;}
	.st8{fill:url(#SVGID_12_);}
	.st9{fill:url(#SVGID_13_);}
	.st10{fill:url(#SVGID_14_);}
	.st11{fill:url(#SVGID_15_);}
	.st12{fill:url(#SVGID_16_);}
	.st13{fill:#1D516B;}
	.st14{fill-rule:evenodd;clip-rule:evenodd;fill:#1D516B;}
	.st15{fill:#3FB067;}
	.st16{fill:#FFCA36;}
	.st17{fill:#FCCC34;}
	.st18{fill:#D1B69D;}
	.st19{fill:#26A867;}
	.st20{clip-path:url(#SVGID_20_);}
	.st21{fill:none;stroke:#26A867;stroke-width:3;stroke-miterlimit:10;}
	.st22{fill:#F98903;}
	.st23{fill:#333333;}
	.st24{fill-rule:evenodd;clip-rule:evenodd;fill:#333333;}
	.st25{fill-rule:evenodd;clip-rule:evenodd;fill:#01192B;}
	.st26{fill-rule:evenodd;clip-rule:evenodd;fill:#EC6A07;}
	.st27{fill:#EC6A07;}
	.st28{fill-rule:evenodd;clip-rule:evenodd;fill:#E9501F;}
	.st29{fill-rule:evenodd;clip-rule:evenodd;fill:#FFFFFF;}
	.st30{fill-rule:evenodd;clip-rule:evenodd;fill:#F2961C;}
	.st31{fill-rule:evenodd;clip-rule:evenodd;fill:#231916;}
	.st32{fill:#01AAEF;}
	.st33{fill:#02AAEF;}
	.st34{fill-rule:evenodd;clip-rule:evenodd;fill:#4267B2;}
	.st35{fill:#11A9E1;}
	.st36{fill:#13AAE1;}
</style>
<g>
	<g>
		<defs>
			<rect id="SVGID_1_" x="361.3" y="-571.6" width="1903" height="444.5"/>
		</defs>
		<clipPath id="SVGID_2_">
			<use xlink:href="#SVGID_1_"  style="overflow:visible;"/>
		</clipPath>
		<g id="_x32_4296179_x5F_328508680964502_x5F_429158694198968320_x5F_n__x28_resized_x29_.tif" class="st1">
			
				<image style="overflow:visible;" width="2000" height="1334" id="_x32_4296179_x5F_328508680964502_x5F_429158694198968320_x5F_n__x28_resized_x29_" xlink:href="B36464D6.html"  transform="matrix(1.0987 0 0 1.0987 102.1807 -797.6252)">
			</image>
		</g>
	</g>
</g>
<g>
	<rect class="st7" width="150" height="55"/>
	<g>
		<path class="st30" d="M85.6,36.5c-6.2,4.5-15.1,7-22.8,7c-10.8,0-20.5-4-27.8-10.6c-0.6-0.5-0.1-1.2,0.6-0.8
			c7.9,4.6,17.7,7.4,27.8,7.4c6.8,0,14.3-1.4,21.2-4.3C85.8,34.6,86.6,35.7,85.6,36.5z"/>
		<path class="st30" d="M88.2,33.6c-0.8-1-5.2-0.5-7.2-0.2c-0.6,0.1-0.7-0.5-0.2-0.8c3.5-2.5,9.3-1.8,10-0.9
			c0.7,0.8-0.2,6.6-3.5,9.4c-0.5,0.4-1,0.2-0.8-0.4C87.3,38.7,89,34.6,88.2,33.6z"/>
		<path class="st31" d="M81.1,15v-2.4c0-0.4,0.3-0.6,0.6-0.6h10.8c0.3,0,0.6,0.3,0.6,0.6l0,2.1c0,0.3-0.3,0.8-0.8,1.5l-5.6,8
			c2.1,0,4.3,0.3,6.1,1.3c0.4,0.2,0.5,0.6,0.6,0.9V29c0,0.4-0.4,0.8-0.8,0.6c-3.3-1.7-7.7-1.9-11.4,0c-0.4,0.2-0.8-0.2-0.8-0.6v-2.4
			c0-0.4,0-1.1,0.4-1.7l6.5-9.3h-5.6C81.4,15.6,81.1,15.4,81.1,15z"/>
		<path class="st31" d="M41.8,30h-3.3c-0.3,0-0.6-0.3-0.6-0.6l0-16.8c0-0.3,0.3-0.6,0.6-0.6l3.1,0c0.3,0,0.6,0.3,0.6,0.6v2.2h0.1
			c0.8-2.1,2.3-3.1,4.3-3.1c2,0,3.3,1,4.3,3.1c0.8-2.1,2.6-3.1,4.5-3.1c1.4,0,2.9,0.6,3.8,1.8c1,1.4,0.8,3.5,0.8,5.3l0,10.6
			c0,0.3-0.3,0.6-0.6,0.6h-3.3c-0.3,0-0.6-0.3-0.6-0.6v-8.9c0-0.7,0.1-2.5-0.1-3.1c-0.2-1.1-1-1.5-1.9-1.5c-0.8,0-1.6,0.5-2,1.4
			c-0.3,0.8-0.3,2.3-0.3,3.2v8.9c0,0.3-0.3,0.6-0.6,0.6h-3.3c-0.3,0-0.6-0.3-0.6-0.6l0-8.9c0-1.9,0.3-4.6-2-4.6
			c-2.4,0-2.3,2.7-2.3,4.6l0,8.9C42.5,29.8,42.2,30,41.8,30z"/>
		<path class="st31" d="M102.4,11.7c4.9,0,7.5,4.2,7.5,9.5c0,5.1-2.9,9.2-7.5,9.2c-4.8,0-7.4-4.2-7.4-9.4
			C95,15.8,97.7,11.7,102.4,11.7L102.4,11.7z M102.4,15.1L102.4,15.1c-2.4,0-2.6,3.3-2.6,5.3c0,2.1,0,6.4,2.5,6.4
			c2.5,0,2.7-3.5,2.7-5.7c0-1.4-0.1-3.1-0.5-4.5C104.2,15.6,103.5,15.1,102.4,15.1z"/>
		<path class="st31" d="M116.2,30h-3.3c-0.3,0-0.6-0.3-0.6-0.6l0-16.8c0-0.3,0.3-0.5,0.6-0.5l3,0c0.3,0,0.5,0.2,0.6,0.5v2.6h0.1
			c0.9-2.3,2.2-3.4,4.5-3.4c1.5,0,2.9,0.5,3.8,2c0.9,1.3,0.9,3.6,0.9,5.2v10.6c0,0.3-0.3,0.5-0.6,0.5h-3.3c-0.3,0-0.5-0.2-0.6-0.5
			v-9.1c0-1.8,0.2-4.5-2-4.5c-0.8,0-1.5,0.5-1.9,1.3c-0.5,1-0.5,2.1-0.5,3.2v9.1C116.8,29.8,116.6,30,116.2,30z"/>
		<path class="st31" d="M29.6,22c0,1.3,0,2.3-0.6,3.5c-0.5,0.9-1.4,1.5-2.3,1.5c-1.3,0-2-1-2-2.4c0-2.8,2.5-3.3,4.9-3.3V22L29.6,22z
			 M32.9,30L32.9,30c0.7-0.6,1.9-1.6,2.5-2.2c0.3-0.2,0.2-0.6,0-0.9c-0.6-0.8-1.2-1.5-1.2-3v-5.1c0-2.2,0.2-4.1-1.4-5.6
			c-1.3-1.2-3.3-1.6-4.9-1.6c-3.1,0-6.6,1.2-7.3,5c-0.1,0.4,0.2,0.6,0.5,0.7l3.2,0.3c0.3,0,0.5-0.3,0.6-0.6c0.3-1.3,1.4-2,2.6-2
			c0.7,0,1.4,0.2,1.8,0.9c0.5,0.7,0.4,1.6,0.4,2.4v0.4c-1.9,0.2-4.4,0.4-6.2,1.1c-2.1,0.9-3.5,2.7-3.5,5.4c0,3.4,2.1,5.1,4.9,5.1
			c2.3,0,3.6-0.6,5.4-2.4c0.6,0.9,0.8,1.3,1.9,2.2C32.3,30.2,32.7,30.2,32.9,30L32.9,30z"/>
		<path class="st31" d="M72.5,22c0,1.3,0,2.3-0.6,3.5c-0.5,0.9-1.3,1.5-2.3,1.5c-1.3,0-2-1-2-2.4c0-2.8,2.5-3.3,4.9-3.3V22L72.5,22z
			 M75.8,30L75.8,30c0.7-0.6,1.9-1.6,2.5-2.2c0.3-0.2,0.2-0.6,0-0.9c-0.6-0.8-1.2-1.5-1.2-3v-5.1c0-2.2,0.2-4.1-1.4-5.6
			c-1.3-1.2-3.3-1.6-4.9-1.6c-3.1,0-6.6,1.2-7.3,5c-0.1,0.4,0.2,0.6,0.5,0.7l3.2,0.3c0.3,0,0.5-0.3,0.6-0.6c0.3-1.3,1.4-2,2.6-2
			c0.7,0,1.4,0.2,1.8,0.9c0.5,0.7,0.4,1.6,0.4,2.4v0.4c-1.9,0.2-4.4,0.4-6.2,1.1c-2.1,0.9-3.5,2.7-3.5,5.4c0,3.4,2.1,5.1,4.9,5.1
			c2.3,0,3.6-0.6,5.4-2.4c0.6,0.9,0.8,1.3,1.9,2.2C75.3,30.2,75.6,30.2,75.8,30L75.8,30z"/>
		<path class="st31" d="M128.4,12.3c0.8,0,1.4,0.6,1.4,1.4c0,0.8-0.6,1.4-1.4,1.4c-0.8,0-1.4-0.6-1.4-1.4
			C126.9,12.9,127.6,12.3,128.4,12.3L128.4,12.3z M128.4,12L128.4,12c-0.9,0-1.7,0.7-1.7,1.7c0,1,0.8,1.7,1.7,1.7
			c0.9,0,1.7-0.8,1.7-1.7C130.1,12.8,129.3,12,128.4,12L128.4,12z M127.7,14.7L127.7,14.7h0.4v-0.8h0.3l0.2,0.2l0.1,0.6h0.4
			l-0.1-0.5c0-0.2-0.1-0.4-0.3-0.4c0.1,0,0.4-0.1,0.4-0.5c0-0.5-0.4-0.5-0.7-0.5h-0.7V14.7L127.7,14.7z M128.1,13.1v0.5h0.3
			c0.2,0,0.3-0.2,0.3-0.3c0-0.3-0.2-0.3-0.3-0.3H128.1L128.1,13.1z"/>
	</g>
</g>
</svg>
