<?xml version="1.0" encoding="utf-8"?>
<!-- Generator: Adobe Illustrator 22.0.0, SVG Export Plug-In . SVG Version: 6.00 Build 0)  -->
<svg version="1.1" id="Layer_1" xmlns="http://www.w3.org/2000/svg" xmlns:xlink="http://www.w3.org/1999/xlink" x="0px" y="0px"
	 width="50px" height="50px" viewBox="0 0 50 50" style="enable-background:new 0 0 50 50;" xml:space="preserve">
<style type="text/css">
	.st0{fill:url(#SVGID_1_);}
	.st1{fill:#030206;}
	.st2{fill:#FFFFFF;}
	.st3{fill:none;stroke:#823E97;stroke-width:2;stroke-miterlimit:10;}
	.st4{fill:#823E97;}
	.st5{fill:#F3F3F3;}
	.st6{opacity:0.3;fill:#E294FF;}
	.st7{fill:#F2F2F2;}
	.st8{fill:#FFFFFF;stroke:#CCCCCC;stroke-miterlimit:10;}
	.st9{fill:#FFFFFF;stroke:#CCCCCC;stroke-width:1.4993;stroke-miterlimit:10;}
	.st10{fill:url(#SVGID_2_);}
	.st11{fill:url(#SVGID_4_);}
	.st12{fill:url(#SVGID_5_);}
	.st13{opacity:0.3;fill:none;stroke:#000000;stroke-width:0.4433;stroke-miterlimit:10;}
	.st14{fill:#F8E6FE;}
	.st15{fill:#4D4D4D;}
	.st16{opacity:7.000000e-02;}
	.st17{clip-path:url(#SVGID_10_);}
	.st18{fill:#242424;}
	.st19{fill:url(#SVGID_19_);}
	.st20{fill:none;stroke:#823E97;stroke-width:0.75;stroke-miterlimit:10;}
	.st21{fill:#FCD6AC;}
	.st22{fill:#F79321;}
	.st23{fill:none;stroke:#F79321;stroke-width:0.75;stroke-miterlimit:10;}
	.st24{fill:#FFE161;}
	.st25{fill:#333333;}
	.st26{fill:none;stroke:#333333;stroke-width:0.75;stroke-miterlimit:10;}
	.st27{fill:#CBE6ED;}
	.st28{fill:none;stroke:#4080A0;stroke-width:0.75;stroke-miterlimit:10;}
	.st29{fill:#4080A0;}
	.st30{fill:#FFE8E1;}
	.st31{fill:url(#SVGID_20_);}
</style>
<rect y="0" class="st24" width="50" height="50"/>
<g>
	<g>
		<path class="st25" d="M34.9,23.2c1.2,0.3,2.1,0.9,2.9,1.9c0.7,0.9,1.1,2,1.1,3.2v2c0,0.7-0.3,1.3-0.8,1.9
			c-0.5,0.5-1.1,0.8-1.9,0.8H13.5c-0.7,0-1.3-0.3-1.9-0.8c-0.5-0.5-0.8-1.1-0.8-1.9v-2c0-1.2,0.4-2.3,1.1-3.2
			c0.7-0.9,1.7-1.6,2.9-1.9l3.9-1c1.7,1.2,3.6,1.9,5.8,2c2.4,0.1,4.5-0.6,6.4-2L34.9,23.2z M24.9,4.9c-1.6,0-3,0.4-4.4,1.2
			S18.1,8,17.3,9.3c-0.8,1.3-1.2,2.8-1.2,4.4s0.4,3,1.2,4.4c0.8,1.3,1.8,2.4,3.2,3.2c1.3,0.8,2.8,1.2,4.4,1.2s3-0.4,4.4-1.2
			c1.3-0.8,2.4-1.8,3.2-3.2c0.8-1.3,1.2-2.8,1.2-4.4s-0.4-3-1.2-4.4c-0.8-1.3-1.8-2.4-3.2-3.2S26.5,4.9,24.9,4.9z"/>
	</g>
</g>
<g>
	<path class="st25" d="M7.2,44.1H5.8v-3.8l0-0.6l0-0.7c-0.2,0.2-0.4,0.4-0.5,0.5l-0.8,0.6L4,39.2l2.1-1.7h1.1V44.1z"/>
	<path class="st25" d="M11.3,37.5c0.6,0,1.1,0.1,1.5,0.4c0.4,0.3,0.6,0.7,0.6,1.2c0,0.3-0.1,0.6-0.3,0.9s-0.5,0.5-0.9,0.7
		c0.5,0.3,0.8,0.5,1.1,0.8c0.2,0.3,0.3,0.6,0.3,0.9c0,0.5-0.2,1-0.6,1.3c-0.4,0.3-1,0.5-1.7,0.5c-0.7,0-1.3-0.2-1.7-0.5S9,43,9,42.4
		c0-0.4,0.1-0.7,0.3-1s0.5-0.5,1-0.8c-0.4-0.2-0.6-0.5-0.8-0.8c-0.2-0.3-0.2-0.6-0.2-0.9c0-0.5,0.2-0.8,0.6-1.1S10.6,37.5,11.3,37.5
		z M10.2,42.4c0,0.3,0.1,0.5,0.3,0.6s0.4,0.2,0.7,0.2c0.3,0,0.6-0.1,0.8-0.2s0.3-0.3,0.3-0.6c0-0.2-0.1-0.4-0.3-0.6
		c-0.2-0.2-0.4-0.4-0.8-0.6C10.6,41.5,10.2,41.9,10.2,42.4z M11.3,38.5c-0.2,0-0.4,0.1-0.6,0.2s-0.2,0.3-0.2,0.5
		c0,0.2,0.1,0.3,0.2,0.5c0.1,0.1,0.3,0.3,0.6,0.4c0.3-0.1,0.5-0.3,0.6-0.4s0.2-0.3,0.2-0.5c0-0.2-0.1-0.4-0.2-0.5
		C11.7,38.5,11.5,38.5,11.3,38.5z"/>
	<path class="st25" d="M18.8,40.8c0,1.1-0.2,2-0.6,2.5c-0.4,0.5-1,0.8-1.7,0.8c-0.8,0-1.3-0.3-1.7-0.8c-0.4-0.6-0.6-1.4-0.6-2.5
		c0-1.2,0.2-2,0.6-2.6c0.4-0.5,0.9-0.8,1.7-0.8c0.8,0,1.3,0.3,1.7,0.9S18.8,39.7,18.8,40.8z M15.6,40.8c0,0.8,0.1,1.4,0.2,1.7
		c0.1,0.3,0.4,0.5,0.7,0.5c0.3,0,0.6-0.2,0.7-0.5c0.1-0.4,0.2-0.9,0.2-1.7c0-0.8-0.1-1.4-0.2-1.7c-0.1-0.4-0.4-0.5-0.7-0.5
		c-0.3,0-0.6,0.2-0.7,0.5C15.6,39.4,15.6,40,15.6,40.8z"/>
	<path class="st25" d="M24,40.8c0,1.1-0.2,2-0.6,2.5c-0.4,0.5-1,0.8-1.7,0.8c-0.8,0-1.3-0.3-1.7-0.8c-0.4-0.6-0.6-1.4-0.6-2.5
		c0-1.2,0.2-2,0.6-2.6c0.4-0.5,0.9-0.8,1.7-0.8c0.8,0,1.3,0.3,1.7,0.9S24,39.7,24,40.8z M20.8,40.8c0,0.8,0.1,1.4,0.2,1.7
		c0.1,0.3,0.4,0.5,0.7,0.5c0.3,0,0.6-0.2,0.7-0.5c0.1-0.4,0.2-0.9,0.2-1.7c0-0.8-0.1-1.4-0.2-1.7c-0.1-0.4-0.4-0.5-0.7-0.5
		c-0.3,0-0.6,0.2-0.7,0.5C20.9,39.4,20.8,40,20.8,40.8z"/>
	<path class="st25" d="M29.2,44.1h-1.4v-3.8l0-0.6l0-0.7c-0.2,0.2-0.4,0.4-0.5,0.5l-0.8,0.6L26,39.2l2.1-1.7h1.1V44.1z"/>
	<path class="st25" d="M35.6,40.8c0,1.1-0.2,2-0.6,2.5c-0.4,0.5-1,0.8-1.7,0.8c-0.8,0-1.3-0.3-1.7-0.8c-0.4-0.6-0.6-1.4-0.6-2.5
		c0-1.2,0.2-2,0.6-2.6c0.4-0.5,0.9-0.8,1.7-0.8c0.8,0,1.3,0.3,1.7,0.9S35.6,39.7,35.6,40.8z M32.4,40.8c0,0.8,0.1,1.4,0.2,1.7
		c0.1,0.3,0.4,0.5,0.7,0.5c0.3,0,0.6-0.2,0.7-0.5c0.1-0.4,0.2-0.9,0.2-1.7c0-0.8-0.1-1.4-0.2-1.7c-0.1-0.4-0.4-0.5-0.7-0.5
		c-0.3,0-0.6,0.2-0.7,0.5C32.5,39.4,32.4,40,32.4,40.8z"/>
	<path class="st25" d="M40.6,39c0,0.4-0.1,0.8-0.4,1c-0.2,0.3-0.6,0.5-1,0.6v0c0.5,0.1,0.9,0.2,1.2,0.5c0.3,0.3,0.4,0.6,0.4,1
		c0,0.6-0.2,1.1-0.7,1.5c-0.5,0.4-1.1,0.5-2,0.5c-0.7,0-1.3-0.1-1.9-0.4v-1.2c0.3,0.1,0.5,0.2,0.8,0.3c0.3,0.1,0.6,0.1,0.9,0.1
		c0.5,0,0.8-0.1,1-0.2c0.2-0.2,0.3-0.4,0.3-0.7c0-0.3-0.1-0.5-0.4-0.7c-0.3-0.1-0.6-0.2-1.2-0.2h-0.5v-1.1h0.5
		c0.5,0,0.9-0.1,1.1-0.2c0.2-0.1,0.4-0.4,0.4-0.7c0-0.5-0.3-0.7-0.9-0.7c-0.2,0-0.4,0-0.7,0.1c-0.2,0.1-0.5,0.2-0.7,0.4l-0.6-1
		c0.6-0.4,1.3-0.6,2.1-0.6c0.7,0,1.2,0.1,1.6,0.4C40.4,38.1,40.6,38.5,40.6,39z"/>
	<path class="st25" d="M46,40.8c0,1.1-0.2,2-0.6,2.5c-0.4,0.5-1,0.8-1.7,0.8c-0.8,0-1.3-0.3-1.7-0.8c-0.4-0.6-0.6-1.4-0.6-2.5
		c0-1.2,0.2-2,0.6-2.6c0.4-0.5,0.9-0.8,1.7-0.8c0.8,0,1.3,0.3,1.7,0.9S46,39.7,46,40.8z M42.8,40.8c0,0.8,0.1,1.4,0.2,1.7
		c0.1,0.3,0.4,0.5,0.7,0.5c0.3,0,0.6-0.2,0.7-0.5c0.1-0.4,0.2-0.9,0.2-1.7c0-0.8-0.1-1.4-0.2-1.7c-0.1-0.4-0.4-0.5-0.7-0.5
		c-0.3,0-0.6,0.2-0.7,0.5C42.9,39.4,42.8,40,42.8,40.8z"/>
</g>
<path class="st26" d="M46,45.8H4c-1.3,0-2.4-1.1-2.4-2.4v-5.2c0-1.3,1.1-2.4,2.4-2.4h42c1.3,0,2.4,1.1,2.4,2.4v5.2
	C48.4,44.7,47.3,45.8,46,45.8z"/>
</svg>
