<?xml version="1.0" encoding="utf-8"?>
<!-- Generator: Adobe Illustrator 22.0.0, SVG Export Plug-In . SVG Version: 6.00 Build 0)  -->
<svg version="1.1" id="Layer_1" xmlns="http://www.w3.org/2000/svg" xmlns:xlink="http://www.w3.org/1999/xlink" x="0px" y="0px"
	 width="14px" height="13.8px" viewBox="0 0 14 13.8" style="enable-background:new 0 0 14 13.8;" xml:space="preserve">
<style type="text/css">
	.st0{fill:#333333;}
	.st1{fill:#C9C9C9;}
	.st2{fill:#C62727;}
	.st3{fill:#FFFF00;}
	.st4{fill:#231F20;}
	.st5{fill:#FFFFFF;}
	.st6{fill:#FED700;}
	.st7{clip-path:url(#SVGID_1_);}
	.st8{opacity:0.5;fill:#FFFFFF;}
	.st9{fill:#F98903;}
	.st10{fill:#FFFFFF;stroke:#4D4D4D;stroke-width:0.25;stroke-miterlimit:10;}
	.st11{fill:#4D4D4D;}
</style>
<path class="st0" d="M14,6.7c0,0.1,0,0.3,0,0.4c0,0.1,0,0.2,0,0.2c-0.1,0.4-0.1,0.8-0.2,1.1c-0.7,2.7-2.3,4.4-5,5.2
	c-0.2,0.1-0.4,0.1-0.6,0.1c0-0.5,0-0.9,0-1.3c0-0.1,0-0.3,0.1-0.4c0.1-0.6,0.4-1.1,0.9-1.6C9.6,10.1,9.7,9.6,9.6,9
	C9.5,7.9,8.4,7.3,7.4,7.8c-0.2,0.1-0.5,0.1-0.7,0C6.3,7.6,6,7.6,5.7,7.6C5,7.7,4.4,8.4,4.3,9.1c0,0.6,0.2,1,0.6,1.4
	c0.4,0.4,0.7,0.9,0.8,1.5c0.1,0.4,0.1,0.9,0.1,1.3c0,0.2,0,0.3,0,0.5C2.7,13.3-0.4,10.3,0,6.1c0.2-1.8,1-3.3,2.4-4.5
	c0.9-0.8,2-1.3,3.3-1.5c0,0.3,0,0.6,0,0.8c0,0.9-0.3,1.6-0.9,2.2C4.5,3.4,4.3,3.8,4.3,4.4c0,1.1,1.2,1.9,2.3,1.4
	c0.3-0.1,0.5-0.1,0.8,0c0.3,0.2,0.7,0.2,1,0.1c0.6-0.2,1-0.5,1.2-1.1c0.2-0.6,0-1.2-0.4-1.6C9,2.9,8.9,2.7,8.7,2.5
	C8.2,1.8,8.2,0.9,8.2,0c0,0,0,0,0,0c0.1,0,0.2,0,0.3,0.1c1.6,0.4,2.9,1.2,3.9,2.5c0.8,1,1.3,2.2,1.5,3.6C14,6.3,14,6.5,14,6.7z"/>
</svg>
