<?xml version="1.0" encoding="utf-8"?>
<!-- Generator: Adobe Illustrator 22.0.0, SVG Export Plug-In . SVG Version: 6.00 Build 0)  -->
<svg version="1.1" id="Layer_1" xmlns="http://www.w3.org/2000/svg" xmlns:xlink="http://www.w3.org/1999/xlink" x="0px" y="0px"
	 width="103px" height="103px" viewBox="0 0 103 103" style="enable-background:new 0 0 103 103;" xml:space="preserve">
<style type="text/css">
	.st0{fill:#F3F3F3;}
	.st1{clip-path:url(#SVGID_2_);}
	.st2{fill:url(#SVGID_7_);}
	.st3{fill:url(#SVGID_8_);}
	.st4{fill:url(#SVGID_9_);}
	.st5{fill:url(#SVGID_10_);}
	.st6{fill:url(#SVGID_11_);}
	.st7{fill:#FFFFFF;}
	.st8{fill:url(#SVGID_12_);}
	.st9{fill:url(#SVGID_13_);}
	.st10{fill:url(#SVGID_14_);}
	.st11{fill:url(#SVGID_15_);}
	.st12{fill:url(#SVGID_16_);}
	.st13{fill:#1D516B;}
	.st14{fill-rule:evenodd;clip-rule:evenodd;fill:#1D516B;}
	.st15{fill:#3FB067;}
	.st16{fill:#FFCA36;}
	.st17{fill:#FCCC34;}
	.st18{fill:#D1B69D;}
	.st19{fill:#26A867;}
	.st20{clip-path:url(#SVGID_20_);}
	.st21{fill:none;stroke:#26A867;stroke-width:3;stroke-miterlimit:10;}
	.st22{fill:#F98903;}
	.st23{fill:#333333;}
	.st24{fill-rule:evenodd;clip-rule:evenodd;fill:#333333;}
	.st25{fill-rule:evenodd;clip-rule:evenodd;fill:#01192B;}
	.st26{fill-rule:evenodd;clip-rule:evenodd;fill:#EC6A07;}
	.st27{fill:#EC6A07;}
	.st28{fill-rule:evenodd;clip-rule:evenodd;fill:#E9501F;}
	.st29{fill-rule:evenodd;clip-rule:evenodd;fill:#FFFFFF;}
	.st30{fill-rule:evenodd;clip-rule:evenodd;fill:#F2961C;}
	.st31{fill-rule:evenodd;clip-rule:evenodd;fill:#231916;}
	.st32{fill:#01AAEF;}
	.st33{fill:#02AAEF;}
	.st34{fill-rule:evenodd;clip-rule:evenodd;fill:#4267B2;}
	.st35{fill:#11A9E1;}
	.st36{fill:#13AAE1;}
</style>
<g>
	<g>
		<path class="st22" d="M29.4,59.8c0.7-0.1-0.4,0,6.5-0.2c1.3,0,1.2,0.5,1.3,1.7c3.7,0,8.4-0.6,12.2,1.5c5.9,3.3,11.7,0.2,11.8,3.8
			c0.1,1.1-0.7,2-1.9,2.1c-9.3,0.5-10.6-0.2-10.6,0.9c0,1.1,0.8,0.7,10,0.6c2.3,0,2.9-1.3,3.5-1.5c9.6-3.8,9.4-3.7,10.2-3.7
			c1.5,0,1.7,1.9,0.2,2.7c-4.8,2.7-9.6,5.3-14.5,8c-2.1,1.2-4.4,1.3-6.7,0.7c-3.9-1-6.6-1.9-14-4c0,1.4,0.2,1.9-3,1.7
			c-0.2,0-0.5-0.2-0.6-0.4C30,67.7,29.8,62.9,29.4,59.8z"/>
		<path class="st22" d="M66.7,55.5c0.5-2.7,1.1-5.3,1.6-8c0.4,0.3,2.7,2.6,4.8,4.7c0.8,0.8,0.6,1.7-0.6,1.9
			C69.1,54.9,67.3,55.4,66.7,55.5z"/>
		<path class="st22" d="M49.5,47.5c1.4,8.1,2,8.1,1.1,7.9c-1.9-0.4-3.8-0.8-5.6-1.3c-0.8-0.2-1.1-1.1-0.5-1.6
			C44.7,52.3,49.2,47.7,49.5,47.5z"/>
		<path class="st22" d="M59.7,27c-1-1.2-1.2-0.4-5.1,4.1c-4.7,5.4-4.3,10.9-2.7,19.6c0.5,2.8,1.2,5.6,2.1,8.3c0.6,1.7,1.1,1.3,8,1.3
			c1,0,1.6-0.4,1.9-1.4c1.9-5.8,3-11.7,3.2-17.9C67.2,34.7,63.9,32,59.7,27z M58,45.8c0-1.2,1.8-1.2,1.8,0
			C59.8,47.1,58,47.1,58,45.8z M58.9,43c-1.2,0-1.2-1.8,0-1.8C60.1,41.2,60.1,43,58.9,43z M58.9,39.3c-1.2,0-1.2-1.8,0-1.8
			C60.1,37.5,60.1,39.3,58.9,39.3z"/>
	</g>
	<g>
		<path class="st22" d="M51.5,103C23.1,103,0,79.9,0,51.5S23.1,0,51.5,0S103,23.1,103,51.5S79.9,103,51.5,103z M51.5,3
			C24.8,3,3,24.8,3,51.5S24.8,100,51.5,100S100,78.2,100,51.5S78.2,3,51.5,3z"/>
	</g>
</g>
</svg>
