<?xml version="1.0" encoding="utf-8"?>
<!-- Generator: Adobe Illustrator 22.0.0, SVG Export Plug-In . SVG Version: 6.00 Build 0)  -->
<svg version="1.1" id="Layer_1" xmlns="http://www.w3.org/2000/svg" xmlns:xlink="http://www.w3.org/1999/xlink" x="0px" y="0px"
	 width="14.7px" height="14.7px" viewBox="0 0 14.7 14.7" style="enable-background:new 0 0 14.7 14.7;" xml:space="preserve">
<style type="text/css">
	.st0{fill:#333333;}
	.st1{fill:#C9C9C9;}
	.st2{fill:#C62727;}
	.st3{fill:#FFFF00;}
	.st4{fill:#231F20;}
	.st5{fill:#FFFFFF;}
	.st6{fill:#FED700;}
	.st7{clip-path:url(#SVGID_1_);}
	.st8{opacity:0.5;fill:#FFFFFF;}
	.st9{fill:#F98903;}
	.st10{fill:#FFFFFF;stroke:#4D4D4D;stroke-width:0.25;stroke-miterlimit:10;}
	.st11{fill:#4D4D4D;}
</style>
<g>
	<path class="st5" d="M13,14.7c-0.1,0-0.2,0-0.2,0c-3.2,0-6.3,0-9.5,0c-1.6,0-2.9-1.1-3.2-2.7C0,11.8,0,11.6,0,11.4C0,8.7,0,6,0,3.3
		C0,1.5,1.4,0,3.2,0c1.5,0,3,0,4.5,0c3.2,0.1,6.1,2.4,6.8,5.5c0.6,2.3,0.1,4.4-1.3,6.3C13.1,11.9,13,12,13,12.1c0,0.7,0,1.4,0,2.2
		C13,14.4,13,14.5,13,14.7z M7.3,11.4c2.3,0,4.1-1.8,4.1-4.1c0-2.2-1.8-4.1-4-4.1c-2.3,0-4.1,1.8-4.1,4.1C3.3,9.6,5.1,11.4,7.3,11.4
		z"/>
	<path class="st5" d="M7.3,4.9c1.4,0,2.5,1.1,2.4,2.5c0,1.3-1.1,2.4-2.4,2.4C6,9.8,4.9,8.7,4.9,7.3C4.9,6,6,4.9,7.3,4.9z"/>
</g>
</svg>
