<?xml version="1.0" encoding="utf-8"?>
<!-- Generator: Adobe Illustrator 22.0.0, SVG Export Plug-In . SVG Version: 6.00 Build 0)  -->
<svg version="1.1" id="Layer_1" xmlns="http://www.w3.org/2000/svg" xmlns:xlink="http://www.w3.org/1999/xlink" x="0px" y="0px"
	 width="12.8px" height="15.2px" viewBox="0 0 12.8 15.2" style="enable-background:new 0 0 12.8 15.2;" xml:space="preserve">
<style type="text/css">
	.st0{fill:#333333;}
	.st1{fill:#C9C9C9;}
	.st2{fill:#C62727;}
	.st3{fill:#FFFF00;}
	.st4{fill:#231F20;}
	.st5{fill:#FFFFFF;}
	.st6{fill:#FED700;}
	.st7{clip-path:url(#SVGID_1_);}
	.st8{opacity:0.5;fill:#FFFFFF;}
	.st9{fill:#F98903;}
	.st10{fill:#FFFFFF;stroke:#4D4D4D;stroke-width:0.25;stroke-miterlimit:10;}
	.st11{fill:#4D4D4D;}
</style>
<g>
	<path class="st0" d="M6.8,11.6c0.3,0,0.6,0,0.8-0.1c3-0.6,5.1-3.2,5.2-6.2c0-0.2-0.1-0.3-0.3-0.3c-0.2,0-0.5,0-0.7,0
		c-0.1-1.4-0.7-2.6-1.7-3.6C9,0.4,7.7,0,6.3,0C5,0,3.9,0.5,2.9,1.3c-1.2,1-1.8,2.4-1.9,4c-0.3,0-0.5,0-0.7,0C0.1,5.3,0,5.4,0,5.5
		C0.1,6,0.1,6.4,0.2,6.8c0.7,2.7,2.9,4.6,5.6,4.8c0.3,0,0.3,0,0.3,0.4c0,0.1,0,0.2-0.2,0.2c-0.6,0.1-1.2,0.1-1.8,0.2
		c-0.4,0-0.7,0.2-1,0.3c-0.2,0.1-0.3,0.3-0.3,0.6c0,0.3,0,0.6,0,0.9c0,0.2,0.1,0.4,0.3,0.5c0.1,0.1,0.2,0.1,0.3,0.2
		c0.5,0.2,1,0.3,1.5,0.3c0.3,0,0.6,0.1,1,0.1c0.4,0,0.8,0,1.2,0c0.1,0,0.1,0,0.2,0c0.5-0.1,0.9-0.1,1.4-0.2c0.4-0.1,0.7-0.2,1.1-0.3
		c0.2-0.1,0.4-0.3,0.3-0.6c0-0.3,0-0.6,0-0.8c0-0.2-0.1-0.4-0.2-0.5c-0.2-0.1-0.3-0.2-0.5-0.3c-0.6-0.2-1.1-0.3-1.7-0.3
		c-0.3,0-0.5,0-0.8,0c0-0.1,0-0.3,0-0.4C6.6,11.7,6.7,11.6,6.8,11.6z M6.4,0.9c2.4,0,4.3,1.9,4.3,4.3c0,2.4-1.9,4.3-4.3,4.3
		C4,9.6,2.1,7.7,2.1,5.3C2,2.9,4,0.9,6.4,0.9z M3.5,10.4c-1.8-1-2.7-2.6-2.9-4.6c0.2,0,0.3,0,0.5,0c0,0,0.1,0.1,0.1,0.1
		C1.2,7.1,1.7,8.2,2.6,9c1.5,1.5,3.3,1.9,5.4,1.3c2-0.6,3.2-2,3.7-4c0.1-0.3,0.1-0.5,0.1-0.8c0.2,0,0.3,0,0.5,0
		c-0.1,2-1,3.5-2.6,4.6C7.6,11.4,5.5,11.5,3.5,10.4z"/>
	<path class="st0" d="M6.4,9.1c2.1,0,3.8-1.7,3.8-3.9c0-2.1-1.7-3.8-3.8-3.8c-2.1,0-3.8,1.7-3.8,3.8C2.6,7.4,4.3,9.1,6.4,9.1z
		 M8.4,5.4c0.1,0.1,0,0.2,0,0.3c-0.5,0.5-1,1-1.5,1.5c0,0-0.1,0.1-0.2,0.1C6.6,7.3,6.5,7.2,6.4,7.1c-0.1-0.1,0-0.2,0-0.3
		c0.1-0.1,0.2-0.2,0.3-0.3C7.2,6.1,7.6,5.8,8,5.4C8.1,5.2,8.3,5.3,8.4,5.4z M7.7,3.6C7.8,3.5,7.9,3.4,8,3.5c0.1,0,0.1,0.1,0.2,0.2
		C8.1,3.8,8.1,3.9,8.1,3.9c-1,1-2,2-3,3C5,7.1,4.8,7.1,4.7,7c-0.1-0.1-0.1-0.3,0-0.4C5.7,5.6,6.7,4.6,7.7,3.6z M4.4,4.8
		c0.1-0.1,0.2-0.2,0.2-0.3c0.4-0.4,0.8-0.8,1.2-1.2C6,3.2,6.1,3.2,6.2,3.3c0.1,0,0.1,0.1,0.2,0.2c0,0.1,0,0.2-0.1,0.2
		c-0.5,0.5-1,1-1.5,1.5c0,0-0.1,0.1-0.2,0.1C4.5,5.2,4.4,5.2,4.4,5.1C4.4,5,4.4,4.9,4.4,4.8z"/>
</g>
</svg>
