<?xml version="1.0" encoding="utf-8"?>
<!-- Generator: Adobe Illustrator 22.0.0, SVG Export Plug-In . SVG Version: 6.00 Build 0)  -->
<svg version="1.1" id="Layer_1" xmlns="http://www.w3.org/2000/svg" xmlns:xlink="http://www.w3.org/1999/xlink" x="0px" y="0px"
	 width="103px" height="103px" viewBox="0 0 103 103" style="enable-background:new 0 0 103 103;" xml:space="preserve">
<style type="text/css">
	.st0{fill:#F3F3F3;}
	.st1{clip-path:url(#SVGID_2_);}
	.st2{fill:url(#SVGID_7_);}
	.st3{fill:url(#SVGID_8_);}
	.st4{fill:url(#SVGID_9_);}
	.st5{fill:url(#SVGID_10_);}
	.st6{fill:url(#SVGID_11_);}
	.st7{fill:#FFFFFF;}
	.st8{fill:url(#SVGID_12_);}
	.st9{fill:url(#SVGID_13_);}
	.st10{fill:url(#SVGID_14_);}
	.st11{fill:url(#SVGID_15_);}
	.st12{fill:url(#SVGID_16_);}
	.st13{fill:#1D516B;}
	.st14{fill-rule:evenodd;clip-rule:evenodd;fill:#1D516B;}
	.st15{fill:#3FB067;}
	.st16{fill:#FFCA36;}
	.st17{fill:#FCCC34;}
	.st18{fill:#D1B69D;}
	.st19{fill:#26A867;}
	.st20{clip-path:url(#SVGID_20_);}
	.st21{fill:none;stroke:#26A867;stroke-width:3;stroke-miterlimit:10;}
	.st22{fill:#F98903;}
	.st23{fill:#333333;}
	.st24{fill-rule:evenodd;clip-rule:evenodd;fill:#333333;}
	.st25{fill-rule:evenodd;clip-rule:evenodd;fill:#01192B;}
	.st26{fill-rule:evenodd;clip-rule:evenodd;fill:#EC6A07;}
	.st27{fill:#EC6A07;}
	.st28{fill-rule:evenodd;clip-rule:evenodd;fill:#E9501F;}
	.st29{fill-rule:evenodd;clip-rule:evenodd;fill:#FFFFFF;}
	.st30{fill-rule:evenodd;clip-rule:evenodd;fill:#F2961C;}
	.st31{fill-rule:evenodd;clip-rule:evenodd;fill:#231916;}
	.st32{fill:#01AAEF;}
	.st33{fill:#02AAEF;}
	.st34{fill-rule:evenodd;clip-rule:evenodd;fill:#4267B2;}
	.st35{fill:#11A9E1;}
	.st36{fill:#13AAE1;}
</style>
<g>
	<g>
		<path class="st22" d="M51.5,103C23.1,103,0,79.9,0,51.5S23.1,0,51.5,0S103,23.1,103,51.5S79.9,103,51.5,103z M51.5,3
			C24.8,3,3,24.8,3,51.5S24.8,100,51.5,100S100,78.2,100,51.5S78.2,3,51.5,3z"/>
	</g>
	<g>
		<path class="st22" d="M30.2,47.3c0-1.1,0.6-2.2,0-3.4c-0.3-0.6,0.1-1,0.7-1c0.3,0,0.6,0,0.9,0c0.6,0,1,0.4,0.7,0.9
			c-0.4,0.9-0.2,1.6,0.1,3.7c0.1-0.3,0.2-0.4,0.2-0.5c1.4-4.4,1.2-4.7,2.2-4.7c4.1,0.4,3.1,0.1,5,0.9c4.6,1.9,3,2.1,10.2,0
			c3.1-0.9,4.5,3.2,1.5,4.4c-2.2,0.9-4.6,1.5-6.9,1.8c-1.5,0.2-2.6-0.3-6.6-1.8c-0.2,1.2-0.7,21.5-0.8,23.4
			c-0.1,2.3-1.7,4.1-4.2,4.4c-1.3,0.1-2.6,0.1-3.9,0c-2.5-0.3-4.1-2.2-4.2-4.8c-0.1-3.5-0.2-6.9-0.2-10.4c0-2.2-1.8-2-1.8-5.2
			c0.1-9.9-0.1-6.7,0.2-10.3c0.1-1.1,0.7-1.1,4.3-2.3c0.9-0.3,0.8,0.1,2.3,4.8C30.1,47.3,30.2,47.3,30.2,47.3z"/>
		<path class="st22" d="M61.3,30.9c4.7,0,9.5,0.1,14.2,0c2.5,0,4.2,2,4.2,4.2c0,0-0.1,22.2-0.1,22.2c0,2-1.7,3.8-3.9,3.8
			c-24.6,0-20.8,0-29.2-0.1c-1.9,0-3.5-1.6-3.5-3.6c0-6.4-0.3-5.8,1-5.7c1.3,0.1,0.8-0.3,1,4.8c0.1,1.6,1.2,2.5,2.9,2.5
			c2.9,0,2.1,0,27,0c1.9,0,2.9-1,2.9-2.9c0-5.6,0-11.3,0-16.9c0-0.8,0-0.8-0.8-0.8c-1.3,0-1.2,0.2-1.1-2.3c0-0.9-0.2-0.7-6.5-0.7
			c-0.4,0-0.6,0.2-0.6,0.7c0,0.5,0,1.1,0,1.6c0.1,1,1.7,0.8-23,0.7c-0.5,0-0.7,0.1-0.7,0.7c0,1,0,1.9,0,2.9c0,0.6-0.3,0.7-0.9,0.5
			c-1.5-0.3-1.1,0.5-1.1-7.7c0-2.3,1.6-3.9,3.9-3.9C51.7,30.9,56.5,30.9,61.3,30.9C61.3,30.9,61.3,30.9,61.3,30.9z M51.7,33.4
			c-0.9,0-1.6,0.7-1.6,1.6c0,0.8,0.7,1.6,1.5,1.6C53.6,36.6,53.8,33.4,51.7,33.4z M45.4,35.1c0,0.8,0.8,1.6,1.6,1.6
			c0.8,0,1.6-0.7,1.6-1.5c0-0.9-0.8-1.7-1.6-1.7C46,33.5,45.4,34.2,45.4,35.1z M57.9,35.1c0-0.9-0.7-1.6-1.6-1.7
			c-0.8,0-1.6,0.7-1.6,1.6c0,0.9,0.7,1.6,1.6,1.6C57.1,36.6,57.9,35.9,57.9,35.1z"/>
		<path class="st22" d="M31.5,40.6c-2.6,0-4.9-2.3-4.9-4.9c0-2.6,2.2-4.8,4.9-4.8c2.7,0,4.9,2.2,4.8,4.8
			C36.3,38.3,34,40.6,31.5,40.6z"/>
	</g>
</g>
</svg>
