<?xml version="1.0" encoding="utf-8"?>
<!-- Generator: Adobe Illustrator 22.0.0, SVG Export Plug-In . SVG Version: 6.00 Build 0)  -->
<svg version="1.1" id="Layer_1" xmlns="http://www.w3.org/2000/svg" xmlns:xlink="http://www.w3.org/1999/xlink" x="0px" y="0px"
	 width="103px" height="103px" viewBox="0 0 103 103" style="enable-background:new 0 0 103 103;" xml:space="preserve">
<style type="text/css">
	.st0{fill:#F3F3F3;}
	.st1{clip-path:url(#SVGID_2_);}
	.st2{fill:url(#SVGID_7_);}
	.st3{fill:url(#SVGID_8_);}
	.st4{fill:url(#SVGID_9_);}
	.st5{fill:url(#SVGID_10_);}
	.st6{fill:url(#SVGID_11_);}
	.st7{fill:#FFFFFF;}
	.st8{fill:url(#SVGID_12_);}
	.st9{fill:url(#SVGID_13_);}
	.st10{fill:url(#SVGID_14_);}
	.st11{fill:url(#SVGID_15_);}
	.st12{fill:url(#SVGID_16_);}
	.st13{fill:#1D516B;}
	.st14{fill-rule:evenodd;clip-rule:evenodd;fill:#1D516B;}
	.st15{fill:#3FB067;}
	.st16{fill:#FFCA36;}
	.st17{fill:#FCCC34;}
	.st18{fill:#D1B69D;}
	.st19{fill:#26A867;}
	.st20{clip-path:url(#SVGID_20_);}
	.st21{fill:none;stroke:#26A867;stroke-width:3;stroke-miterlimit:10;}
	.st22{fill:#F98903;}
	.st23{fill:#333333;}
	.st24{fill-rule:evenodd;clip-rule:evenodd;fill:#333333;}
	.st25{fill-rule:evenodd;clip-rule:evenodd;fill:#01192B;}
	.st26{fill-rule:evenodd;clip-rule:evenodd;fill:#EC6A07;}
	.st27{fill:#EC6A07;}
	.st28{fill-rule:evenodd;clip-rule:evenodd;fill:#E9501F;}
	.st29{fill-rule:evenodd;clip-rule:evenodd;fill:#FFFFFF;}
	.st30{fill-rule:evenodd;clip-rule:evenodd;fill:#F2961C;}
	.st31{fill-rule:evenodd;clip-rule:evenodd;fill:#231916;}
	.st32{fill:#01AAEF;}
	.st33{fill:#02AAEF;}
	.st34{fill-rule:evenodd;clip-rule:evenodd;fill:#4267B2;}
	.st35{fill:#11A9E1;}
	.st36{fill:#13AAE1;}
</style>
<g>
	<g>
		<defs>
			<rect id="SVGID_1_" x="318.9" y="-215.3" width="1903" height="444.5"/>
		</defs>
		<clipPath id="SVGID_2_">
			<use xlink:href="#SVGID_1_"  style="overflow:visible;"/>
		</clipPath>
		<g id="_x32_4296179_x5F_328508680964502_x5F_429158694198968320_x5F_n__x28_resized_x29_.tif" class="st1">
			
				<image style="overflow:visible;" width="2000" height="1334" id="_x32_4296179_x5F_328508680964502_x5F_429158694198968320_x5F_n__x28_resized_x29_" xlink:href="87FE29B7.html"  transform="matrix(1.0987 0 0 1.0987 59.6978 -441.2544)">
			</image>
		</g>
	</g>
</g>
<g>
	<g>
		<path class="st22" d="M33.9,71.8c12.9-12.3,25.7-24.6,38.6-36.9c6.8,7.9,9.3,23-0.8,34.4C61.4,80.9,44.2,80.9,33.9,71.8z
			 M68.7,65.3c-0.3-0.6-0.4-0.2-0.3-2.2c0-0.1,0.1-0.4,0.2-0.4c1.5-0.1,1.2,0.1,1.5,0.6c4.2-6.8,4.4-14.7,1.5-20.9
			c-1.2,1.1-3.1,3-6.5,6.1c-0.3,0.3-0.5,0.6-0.5,1c0.1,0.4-0.1,0.6-0.5,0.5c-0.4-0.1-0.7,0.1-1,0.4c-3.5,3.4-3.8,3.3-3.7,4.1
			c0.1,0.4-0.1,0.5-0.5,0.5c-0.5-0.1-0.8,0.1-1.1,0.5c-3.4,3.4-3.8,3.3-3.7,4c0.1,0.4-0.1,0.5-0.5,0.5c-0.4-0.1-0.7,0.1-1,0.4
			c-3.5,3.4-3.8,3.4-3.7,4.1c0.1,0.4-0.1,0.5-0.5,0.5c-0.5-0.1-0.8,0.1-1.1,0.4c-6.2,6-5.4,5.1-6,5.5c0.5,0.5-0.3,0.1,5.5,2.1
			c0.1,0,0.3-0.1,0.4-0.1c1-0.2,1.7-0.4,1.6,0.3c0,0.2,3,0.2,3.2,0.2c0.1,0,0.4-0.2,0.4-0.4c0-0.3,0.2-0.4,0.4-0.4
			c0.3,0,1.1-0.1,1.1,0.2c0.1,0.5,0.5,0.4,0.8,0.3c2.4-0.4,4.7-1.1,6.9-2.2c3-1.5-0.2-3.5,2.5-3.3c0.5,0,0.4,0.4,0.5,1.4
			C66.3,68,67.6,66.7,68.7,65.3z"/>
		<path class="st22" d="M30.4,68.1c-5.4-6.4-7.9-17.2-3.8-27c4.3-10.4,14-15.9,22.4-16.5c0,26.4,0.2,25.6-0.3,26
			C47.4,51.9,31.2,67.5,30.4,68.1z M32.1,40.4c4.1,2.7,8.1,5.4,12.2,8.2c0.1-1.4,0-2.2,0.1-4.2c0-0.8,0.5-0.2-9.5-6.9
			c-0.1-0.1-0.3-0.2-0.5-0.3C33.5,38.3,32.8,39.3,32.1,40.4z M31.3,41.9c-1.2,3.7-1.5,3.7-1,4.1c10.3,6.9,9.6,6.7,10,6.2
			c1.1-1.1,2.2-2.1,2.6-2.6C39.1,47.1,35.2,44.5,31.3,41.9z M38.9,53.7c-3.1-2.1-6.1-4.1-9.3-6.2c-0.3,4.2-0.5,4.4,0.1,4.8
			c4.6,3,5.5,3.7,6.3,4.2C36.9,55.5,37.9,54.6,38.9,53.7z M35.4,35.9c3,2,5.9,3.9,8.8,5.9c0.1-0.1,0.1-0.1,0.1-0.1
			c0-4.1,0.2-4.4-0.3-4.6c-1.7-1.2-3.5-2.3-5.2-3.5c-0.1-0.1-0.3-0.1-0.4,0C37.4,34.3,36.4,35.1,35.4,35.9z M34.7,57.6
			c-1.8-1.2-3.5-2.3-5.3-3.5c0.3,2.4,0.9,4.6,1.9,6.7C32.5,59.7,33.5,58.7,34.7,57.6z M44.3,30.3c-1.5,0.7-2.8,1.3-4.2,1.9
			c1.5,1,2.8,1.9,4.2,2.9C44.3,33.5,44.3,32,44.3,30.3z"/>
		<path class="st22" d="M54,45.6c0-7.1,0-14,0-20.9c5.7,0.6,10.7,2.7,15.1,6.5C64.1,36,59.1,40.7,54,45.6z"/>
		<path class="st22" d="M52.6,68.9c0-1.4-0.2-1.2,1.1-1.2c0.4,0,0.6,0.1,0.5,0.5c-0.1,1.8,0.4,2-1.4,1.9
			C52.5,70.1,52.6,69.2,52.6,68.9C52.6,68.9,52.6,68.9,52.6,68.9z"/>
		<path class="st22" d="M54.3,63.9c0,1.2,0,1.2-1.3,1.1c-0.1,0-0.3-0.2-0.4-0.4c0-0.4-0.1-1.9,0.2-1.9c0.4,0,0.8,0,1.1,0
			C54.3,62.8,54.3,63.6,54.3,63.9z"/>
		<path class="st22" d="M63.1,53.8c0-1.2,0-1.2,1.2-1.1c0.1,0,0.4,0.2,0.4,0.4c0,0.5,0,1.1,0,1.6c0,0.1-0.2,0.4-0.4,0.4
			C63.1,55.2,63.1,55.2,63.1,53.8z"/>
		<path class="st22" d="M68.4,53.5c0-0.9,0-0.9,0.9-0.9c0.7,0,0.7,0,0.7,0.7c0,0.5,0.1,1.6-0.4,1.7C68.3,55.2,68.4,55.2,68.4,53.5z"
			/>
		<path class="st22" d="M48.9,69.1c0,1.1-0.2,1.2-1.2,1c-0.1,0-0.3-0.3-0.3-0.4c0-0.5,0-1.1,0-1.6c0-0.1,0.2-0.3,0.4-0.4
			C49,67.6,48.9,67.6,48.9,69.1z"/>
		<path class="st22" d="M57.9,68.9c0-1.4-0.2-1.2,1.2-1.2c0.1,0,0.4,0.2,0.4,0.4c0,0.6,0,1.1,0,1.7c0,0.1-0.2,0.3-0.3,0.3
			C57.7,70.3,57.9,70,57.9,68.9C57.9,68.9,57.9,68.9,57.9,68.9z"/>
		<path class="st22" d="M70,48.9c0,1.2,0,1.3-1.2,1.1c-0.5-0.1-0.4-1.1-0.4-1.6c0-0.7,0-0.7,0.7-0.7C70.1,47.7,70,47.7,70,48.9
			C70,48.9,70,48.9,70,48.9z"/>
		<path class="st22" d="M58.6,57.7c1,0,0.9-0.1,0.9,0.9c0,1.6,0.2,1.4-1.1,1.4c-0.3,0-0.5-0.1-0.5-0.5C58,58.3,57.6,57.7,58.6,57.7z
			"/>
		<path class="st22" d="M63.1,58.7c0-1.1-0.2-1,1-1c0.8,0,0.5,0.4,0.6,1.8c0,0.4-0.1,0.5-0.5,0.5C63,60,63.1,60.3,63.1,58.7z"/>
		<path class="st22" d="M70,59c0,1.2,0,1.2-1.2,1.1c-0.1,0-0.3-0.2-0.4-0.3c0-0.5,0-1.1,0-1.6c0-0.1,0.2-0.3,0.4-0.3
			C70,57.6,70,57.6,70,59z"/>
		<path class="st22" d="M59.5,63.9c0,0.7,0.2,1.2-0.7,1.2c-1,0-0.9,0-0.9-1.3c0-1.1,0-1.1,1.1-1C59.6,62.8,59.5,63.1,59.5,63.9
			C59.5,63.9,59.5,63.9,59.5,63.9z"/>
		<path class="st22" d="M64.7,64c0,1.1-0.1,1.2-1.2,1c-0.1,0-0.3-0.2-0.3-0.3c0-0.5,0-1.1,0-1.6c0-0.1,0.3-0.4,0.4-0.4
			C64.9,62.7,64.7,62.6,64.7,64z"/>
	</g>
	<g>
		<path class="st22" d="M51.5,103C23.1,103,0,79.9,0,51.5S23.1,0,51.5,0S103,23.1,103,51.5S79.9,103,51.5,103z M51.5,3
			C24.8,3,3,24.8,3,51.5S24.8,100,51.5,100S100,78.2,100,51.5S78.2,3,51.5,3z"/>
	</g>
</g>
</svg>
