<?xml version="1.0" encoding="utf-8"?>
<!-- Generator: Adobe Illustrator 22.0.0, SVG Export Plug-In . SVG Version: 6.00 Build 0)  -->
<svg version="1.1" id="Layer_1" xmlns="http://www.w3.org/2000/svg" xmlns:xlink="http://www.w3.org/1999/xlink" x="0px" y="0px"
	 width="13.2px" height="14px" viewBox="0 0 13.2 14" style="enable-background:new 0 0 13.2 14;" xml:space="preserve">
<style type="text/css">
	.st0{fill:#333333;}
	.st1{fill:#C9C9C9;}
	.st2{fill:#C62727;}
	.st3{fill:#FFFF00;}
	.st4{fill:#231F20;}
	.st5{fill:#FFFFFF;}
	.st6{fill:#FED700;}
	.st7{clip-path:url(#SVGID_1_);}
	.st8{opacity:0.5;fill:#FFFFFF;}
	.st9{fill:#F98903;}
	.st10{fill:#FFFFFF;stroke:#4D4D4D;stroke-width:0.25;stroke-miterlimit:10;}
	.st11{fill:#4D4D4D;}
</style>
<g>
	<path class="st0" d="M4.9,4.2c0,0-0.1-0.1-0.1-0.1c0,0,0.1-0.1,0.1-0.1C6.2,2.8,5.7,0.7,4,0.1C3.9,0.1,3.7,0,3.5,0C3.4,0,3.2,0,3,0
		C2.9,0,2.8,0,2.7,0.1C1.8,0.3,1.3,0.9,1,1.7C0.8,2.6,1,3.4,1.7,4c0,0,0.1,0.1,0.1,0.1c0,0,0,0,0,0c0,0-0.1,0.1-0.1,0.1
		C0.6,4.8,0,5.8,0,7c0,1,0,2.1,0,3.1c0,0,0,0.1,0,0.1c0.3,0,0.6,0,0.9,0c0,0,0,0.1,0,0.1c0,1.2,0,2.4,0,3.6c0,0,0,0,0,0.1
		c1.6,0,3.1,0,4.7,0c0-1.2,0-2.5,0-3.7c0.3,0,0.6,0,0.9,0c0-0.1,0-0.1,0-0.1c0-1,0-2.1,0-3.1C6.5,5.8,6,4.8,4.9,4.2z"/>
	<path class="st0" d="M13.2,0.9c-1.6,0-3.2,0-4.8,0c0,0.3,0,0.6,0,0.9c1.6,0,3.2,0,4.8,0C13.2,1.5,13.2,1.2,13.2,0.9z"/>
	<path class="st0" d="M8.4,6.5c0,0.3,0,0.6,0,0.9c1.6,0,3.2,0,4.8,0c0-0.3,0-0.6,0-0.9C11.6,6.5,10,6.5,8.4,6.5z"/>
	<path class="st0" d="M8.4,13.1c1.6,0,3.2,0,4.8,0c0-0.3,0-0.6,0-0.9c-1.6,0-3.2,0-4.8,0C8.4,12.5,8.4,12.8,8.4,13.1z"/>
	<path class="st0" d="M13.2,3.7c-0.1,0-0.1,0-0.2,0c-0.8,0-1.7,0-2.5,0c-0.6,0-1.3,0-1.9,0c-0.1,0-0.2,0-0.2,0.1c0,0.3,0,0.6,0,0.9
		c1.6,0,3.2,0,4.8,0C13.2,4.4,13.2,4.1,13.2,3.7z"/>
	<path class="st0" d="M8.4,9.4c0,0.3,0,0.6,0,0.9c1.6,0,3.2,0,4.8,0c0-0.3,0-0.6,0-0.9C11.6,9.4,10,9.4,8.4,9.4z"/>
</g>
</svg>
