<?xml version="1.0" encoding="utf-8"?>
<!-- Generator: Adobe Illustrator 22.0.0, SVG Export Plug-In . SVG Version: 6.00 Build 0)  -->
<svg version="1.1" id="Layer_1" xmlns="http://www.w3.org/2000/svg" xmlns:xlink="http://www.w3.org/1999/xlink" x="0px" y="0px"
	 width="14px" height="13px" viewBox="0 0 14 13" style="enable-background:new 0 0 14 13;" xml:space="preserve">
<style type="text/css">
	.st0{fill:#333333;}
	.st1{fill:#C9C9C9;}
	.st2{fill:#C62727;}
	.st3{fill:#FFFF00;}
	.st4{fill:#231F20;}
	.st5{fill:#FFFFFF;}
	.st6{fill:#FED700;}
	.st7{clip-path:url(#SVGID_1_);}
	.st8{opacity:0.5;fill:#FFFFFF;}
	.st9{fill:#F98903;}
	.st10{fill:#FFFFFF;stroke:#4D4D4D;stroke-width:0.25;stroke-miterlimit:10;}
	.st11{fill:#4D4D4D;}
</style>
<path class="st2" d="M3.5,2.7c0-0.5,0-1.1,0-1.6c0-0.3,0.1-0.5,0.3-0.8C4,0.1,4.3,0,4.6,0c1.6,0,3.2,0,4.8,0c0.6,0,1.1,0.5,1.1,1.1
	c0,0.5,0,1,0,1.4c0,0.1,0,0.1,0,0.2c0.1,0,0.1,0,0.2,0c0.7,0,1.4,0,2.1,0c0.7,0,1.2,0.5,1.2,1.1c0,2.7,0,5.4,0,8
	c0,0.7-0.5,1.1-1.2,1.1c-3.9,0-7.7,0-11.6,0C0.5,13,0,12.5,0,11.8c0-2.7,0-5.3,0-8c0-0.7,0.5-1.1,1.2-1.1c0.7,0,1.4,0,2.1,0
	C3.4,2.7,3.4,2.7,3.5,2.7z M5.5,9.2c0,0.4,0,0.8,0,1.3c0,0.4,0.3,0.6,0.7,0.6c0.5,0,1,0,1.5,0c0.4,0,0.7-0.2,0.7-0.6
	c0-0.4,0-0.7,0-1.1c0-0.1,0-0.1,0-0.2c0.5,0,0.9,0,1.3,0c0.4,0,0.7-0.2,0.7-0.6c0-0.5,0-1,0-1.5c0-0.4-0.3-0.6-0.7-0.6
	c-0.4,0-0.8,0-1.2,0c-0.1,0-0.1,0-0.2,0c0-0.4,0-0.8,0-1.2c0-0.4-0.3-0.6-0.7-0.6c-0.5,0-1,0-1.5,0c-0.5,0-0.7,0.2-0.7,0.7
	c0,0.3,0,0.7,0,1c0,0.1,0,0.1,0,0.2c-0.5,0-0.9,0-1.3,0c-0.5,0-0.7,0.2-0.7,0.7c0,0.4,0,0.9,0,1.3c0,0.5,0.2,0.7,0.8,0.7
	C4.7,9.2,5.1,9.2,5.5,9.2z M5,2.7c1.4,0,2.7,0,4.1,0c0,0,0,0,0-0.1c0-0.2,0-0.5,0-0.7c0-0.3-0.3-0.6-0.6-0.6c-0.9,0-1.9,0-2.8,0
	C5.3,1.4,5,1.6,5,1.9C4.9,2.1,5,2.4,5,2.7z"/>
</svg>
