<?xml version="1.0" encoding="utf-8"?>
<!-- Generator: Adobe Illustrator 22.0.0, SVG Export Plug-In . SVG Version: 6.00 Build 0)  -->
<svg version="1.1" id="Layer_1" xmlns="http://www.w3.org/2000/svg" xmlns:xlink="http://www.w3.org/1999/xlink" x="0px" y="0px"
	 width="14px" height="14.9px" viewBox="0 0 14 14.9" style="enable-background:new 0 0 14 14.9;" xml:space="preserve">
<style type="text/css">
	.st0{fill:#333333;}
	.st1{fill:#C9C9C9;}
	.st2{fill:#C62727;}
	.st3{fill:#FFFF00;}
	.st4{fill:#231F20;}
	.st5{fill:#FFFFFF;}
	.st6{fill:#FED700;}
	.st7{clip-path:url(#SVGID_1_);}
	.st8{opacity:0.5;fill:#FFFFFF;}
	.st9{fill:#F98903;}
	.st10{fill:#FFFFFF;stroke:#4D4D4D;stroke-width:0.25;stroke-miterlimit:10;}
	.st11{fill:#4D4D4D;}
</style>
<g>
	<path class="st0" d="M11,2c0.2-0.2,0.4-0.4,0.6-0.6c-0.1,0-0.2,0-0.4,0c-0.2,0-0.2-0.1-0.2-0.2c0-0.3,0-0.6,0-0.9
		C11,0.1,11.1,0,11.3,0c0.5,0,1.1,0,1.6,0c0.3,0,0.6,0,0.9,0C13.9,0,14,0.1,14,0.3c0,0.8,0,1.6,0,2.4C14,2.9,13.9,3,13.7,3
		c-0.3,0-0.5,0-0.8,0c-0.2,0-0.3-0.1-0.3-0.3c0-0.1,0-0.2,0-0.3C12.4,2.6,12.2,2.8,12,3c1,1.6,1.1,3.3,0.1,5c-0.9,1.4-2.4,2-3.5,2
		c0,0,0-0.1,0-0.1C8.9,9.5,9,9.1,9.2,8.7c0-0.1,0.1-0.1,0.2-0.2c1.1-0.4,1.8-1.2,2-2.3c0.3-1.6-0.8-3.3-2.5-3.6
		C7.2,2.3,5.7,3.4,5.4,5.1C5.2,6.2,5.7,7.5,6.7,8.1c0.1,0.1,0.1,0.1,0.1,0.3C6.7,8.7,6.5,9,6.2,9.3C6.1,9.4,6.1,9.4,6,9.3
		C4.9,8.6,4.2,7.5,4,6.2C3.7,3.8,5.3,1.7,7.6,1.2c1.2-0.2,2.3,0,3.3,0.7C10.9,1.9,10.9,2,11,2C11,2,11,2,11,2z"/>
	<path class="st0" d="M4.2,3C4,3.5,3.8,3.9,3.7,4.3C3.6,4.5,3.6,4.6,3.4,4.6c-1.3,0.5-2.1,1.8-2,3c0.1,1.5,1.2,2.6,2.5,2.8
		c1.9,0.3,3.7-1.2,3.6-3.1c-0.1-1-0.5-1.8-1.4-2.4c0,0-0.1,0-0.1-0.1c0,0,0,0,0,0C6.1,4.4,6.3,4,6.7,3.7c0,0,0.1,0,0.2,0
		c0.9,0.6,1.6,1.5,1.9,2.6c0.7,2.5-0.9,5-3.4,5.5c-0.1,0-0.1,0-0.2,0c0,0.2,0,0.5,0,0.8c0.1,0,0.2,0,0.3,0c0.7,0,0.6-0.1,0.7,0.7
		c0,0.1,0,0.3,0,0.4C6.1,13.9,6,14,5.7,14c-0.2,0-0.4,0-0.6,0c0,0.2,0,0.4,0,0.7c0,0.2-0.1,0.3-0.3,0.3c-0.3,0-0.6,0-0.8,0
		c-0.2,0-0.3-0.1-0.3-0.3c0-0.2,0-0.4,0-0.7c-0.2,0-0.4,0-0.6,0c-0.2,0-0.3-0.1-0.3-0.3c0-0.3,0-0.5,0-0.8c0-0.2,0.1-0.3,0.3-0.3
		c0.2,0,0.3,0,0.5,0c0.1,0,0.2,0,0.2-0.2c0-0.1,0-0.3,0-0.4c0-0.1,0-0.2-0.2-0.2c-1.3-0.3-2.3-1-3-2.2c-1.5-2.6,0-5.9,2.9-6.5
		C3.7,3.1,4,3.1,4.2,3z"/>
</g>
</svg>
