<?xml version="1.0" encoding="utf-8"?>
<!-- Generator: Adobe Illustrator 22.0.0, SVG Export Plug-In . SVG Version: 6.00 Build 0)  -->
<svg version="1.1" id="Layer_1" xmlns="http://www.w3.org/2000/svg" xmlns:xlink="http://www.w3.org/1999/xlink" x="0px" y="0px"
	 width="103px" height="103px" viewBox="0 0 103 103" style="enable-background:new 0 0 103 103;" xml:space="preserve">
<style type="text/css">
	.st0{fill:#F3F3F3;}
	.st1{clip-path:url(#SVGID_2_);}
	.st2{fill:url(#SVGID_7_);}
	.st3{fill:url(#SVGID_8_);}
	.st4{fill:url(#SVGID_9_);}
	.st5{fill:url(#SVGID_10_);}
	.st6{fill:url(#SVGID_11_);}
	.st7{fill:#FFFFFF;}
	.st8{fill:url(#SVGID_12_);}
	.st9{fill:url(#SVGID_13_);}
	.st10{fill:url(#SVGID_14_);}
	.st11{fill:url(#SVGID_15_);}
	.st12{fill:url(#SVGID_16_);}
	.st13{fill:#1D516B;}
	.st14{fill-rule:evenodd;clip-rule:evenodd;fill:#1D516B;}
	.st15{fill:#3FB067;}
	.st16{fill:#FFCA36;}
	.st17{fill:#FCCC34;}
	.st18{fill:#D1B69D;}
	.st19{fill:#26A867;}
	.st20{clip-path:url(#SVGID_20_);}
	.st21{fill:none;stroke:#26A867;stroke-width:3;stroke-miterlimit:10;}
	.st22{fill:#F98903;}
	.st23{fill:#333333;}
	.st24{fill-rule:evenodd;clip-rule:evenodd;fill:#333333;}
	.st25{fill-rule:evenodd;clip-rule:evenodd;fill:#01192B;}
	.st26{fill-rule:evenodd;clip-rule:evenodd;fill:#EC6A07;}
	.st27{fill:#EC6A07;}
	.st28{fill-rule:evenodd;clip-rule:evenodd;fill:#E9501F;}
	.st29{fill-rule:evenodd;clip-rule:evenodd;fill:#FFFFFF;}
	.st30{fill-rule:evenodd;clip-rule:evenodd;fill:#F2961C;}
	.st31{fill-rule:evenodd;clip-rule:evenodd;fill:#231916;}
	.st32{fill:#01AAEF;}
	.st33{fill:#02AAEF;}
	.st34{fill-rule:evenodd;clip-rule:evenodd;fill:#4267B2;}
	.st35{fill:#11A9E1;}
	.st36{fill:#13AAE1;}
</style>
<g>
	<g>
		<path class="st22" d="M34.8,65c1.4,3.1,1.9,3.5,0.5,4.7c1,1.7,2,3.3,3,5.1c-1.3,0.6-2.6,1.1-4,1.7c-5.7-9.4-5.3-9.1-5.9-9.1
			c-0.9,0-1.6-0.5-2.2-1.1C26,66.2,25.7,66,25.5,66c-4.9-0.2-6.2-7.7-3.9-9.6c0.3-0.2,0.4-0.4,0.3-0.8c-0.3-1.6,0.4-2.8,1.9-3.4
			c12.1-4.9,11.3-3.8,15-8.8c0.5-0.6,0.9-1.2,1.2-1.9c1.8-3.8,6.6-4.2,11.1,3c6.7,10.9,4.5,23.1-2.9,19.6C42.5,61.3,39.7,63,34.8,65
			z M51.9,57.7c-0.5-5.8-2.7-12.3-7.4-15.6c-0.7-0.5-1.2-0.3-1.5,0.5C40.1,51,50.1,65,51.4,60.5C51.7,59.4,51.8,58.3,51.9,57.7z"/>
		<path class="st22" d="M51.7,32.1c0-2.5,1.9-4.3,4.4-4.3c2.3,0,4.1,2,4.1,4.3c0,2.4-1.9,4.2-4.5,4.2C53.6,36.4,51.7,34.4,51.7,32.1
			z"/>
		<path class="st22" d="M76.9,33.1c0,2.4-1.9,4.4-4.3,4.4c-2.3,0-4.3-1.9-4.3-4.2C68.3,27.5,76.8,27.5,76.9,33.1z"/>
		<path class="st22" d="M78.2,42.4c2.4,0,4.4,1.9,4.3,4.3c0,2.3-2,4.3-4.4,4.2c-2.4,0-4.2-2-4.2-4.4C74,44.3,75.8,42.4,78.2,42.4z"
			/>
		<path class="st22" d="M67.3,54.9c1.9-0.1,4.3,1.4,4.3,4.2c0,2.7-2.2,4.3-4.3,4.3C61.6,63.5,61.4,55,67.3,54.9z"/>
		<path class="st22" d="M61.6,41.4c2.4,0,4.3,1.9,4.3,4.2c0,2.4-2,4.3-4.3,4.3C56,49.9,55.9,41.4,61.6,41.4z"/>
	</g>
	<g>
		<path class="st22" d="M51.5,103C23.1,103,0,79.9,0,51.5S23.1,0,51.5,0S103,23.1,103,51.5S79.9,103,51.5,103z M51.5,3
			C24.8,3,3,24.8,3,51.5S24.8,100,51.5,100S100,78.2,100,51.5S78.2,3,51.5,3z"/>
	</g>
</g>
</svg>
