<?xml version="1.0" encoding="utf-8"?>
<!-- Generator: Adobe Illustrator 22.0.0, SVG Export Plug-In . SVG Version: 6.00 Build 0)  -->
<svg version="1.1" id="Layer_1" xmlns="http://www.w3.org/2000/svg" xmlns:xlink="http://www.w3.org/1999/xlink" x="0px" y="0px"
	 width="14px" height="13.3px" viewBox="0 0 14 13.3" style="enable-background:new 0 0 14 13.3;" xml:space="preserve">
<style type="text/css">
	.st0{fill:#333333;}
	.st1{fill:#C9C9C9;}
	.st2{fill:#C62727;}
	.st3{fill:#FFFF00;}
	.st4{fill:#231F20;}
	.st5{fill:#FFFFFF;}
	.st6{fill:#FED700;}
	.st7{clip-path:url(#SVGID_1_);}
	.st8{opacity:0.5;fill:#FFFFFF;}
	.st9{fill:#F98903;}
	.st10{fill:#FFFFFF;stroke:#4D4D4D;stroke-width:0.25;stroke-miterlimit:10;}
	.st11{fill:#4D4D4D;}
</style>
<g>
	<path class="st2" d="M0,4.8c0-0.3,0-0.7,0-1c0.1-0.3,0.1-0.6,0.2-0.9C0.4,1.9,1,1,1.9,0.5C2.7,0,3.6-0.1,4.6,0.1
		c0.8,0.1,1.4,0.5,2,1.1C6.7,1.4,6.8,1.5,7,1.7c0.2-0.2,0.3-0.4,0.5-0.5C8.1,0.5,8.9,0.1,9.9,0c0.7,0,1.4,0,2,0.4
		c1,0.5,1.6,1.4,1.9,2.5c0.1,0.3,0.1,0.6,0.2,0.9c0,0.3,0,0.7,0,1c0,0,0,0.1,0,0.1c-0.1,0.5-0.2,1-0.4,1.5c0,0.1-0.1,0.1-0.2,0.1
		c-1,0-1.9,0-2.9,0c-0.1,0-0.2,0-0.2,0.1C10,6.8,9.8,7,9.5,7.3C9.5,7.3,9.4,7.4,9.4,7.5C8.7,6.2,8.1,5,7.5,3.7
		C6.9,4.9,6.3,6.1,5.7,7.3C5.1,6.5,4.6,5.6,4,4.8C4,4.9,4,4.9,3.9,4.9C3.6,5.4,3.3,5.9,3,6.3c0,0.1-0.1,0.1-0.2,0.1
		c-0.8,0-1.5,0-2.3,0c-0.1,0-0.1,0-0.1-0.1C0.3,6.1,0.2,5.8,0.2,5.6C0.1,5.3,0.1,5,0,4.8z"/>
	<path class="st2" d="M0.9,7.3c0.1,0,0.1,0,0.2,0c0.7,0,1.4,0,2.2,0c0.1,0,0.2,0,0.3-0.2c0.1-0.2,0.3-0.4,0.4-0.6
		c0.1-0.1,0.1-0.1,0.2,0c0.5,0.8,1,1.5,1.5,2.3C5.7,8.9,5.8,9,5.8,9c0.6-1.1,1.1-2.2,1.7-3.4C8,6.8,8.6,7.8,9.1,9
		c0-0.1,0.1-0.1,0.1-0.2c0.5-0.5,0.9-0.9,1.4-1.4c0,0,0.1-0.1,0.2-0.1c0.7,0,1.5,0,2.2,0c0,0,0,0,0.1,0c0,0.1-0.1,0.1-0.1,0.2
		c-0.6,1-1.3,1.9-2.1,2.7c-1.2,1.2-2.5,2.2-3.8,3.1c-0.1,0-0.1,0.1-0.2,0c-1.6-1.1-3.1-2.3-4.4-3.8C1.9,8.9,1.4,8.2,1,7.5
		C0.9,7.4,0.9,7.4,0.9,7.3z"/>
</g>
</svg>
