<?xml version="1.0" encoding="utf-8"?>
<!-- Generator: Adobe Illustrator 21.0.0, SVG Export Plug-In . SVG Version: 6.00 Build 0)  -->
<svg version="1.1" id="Layer_1" xmlns="http://www.w3.org/2000/svg" xmlns:xlink="http://www.w3.org/1999/xlink" x="0px" y="0px"
	 width="150px" height="55px" viewBox="0 0 150 55" style="enable-background:new 0 0 150 55;" xml:space="preserve">
<style type="text/css">
	.st0{fill:#FFFFFF;}
	.st1{fill:#FF8000;}
</style>
<g>
	<rect class="st0" width="150" height="55"/>
	<g>
		<g>
			<g>
				<g>
					<path class="st1" d="M18.9,35.6c-2.8,0-4.9-0.8-6.4-2.6c-1.8-2.2-2.7-4.7-2.7-7.9c0-2.3,0.5-4.1,1.8-5.3
						c0.9-0.9,2.3-1.5,4.3-1.5h4.3l0.8,3.9h-4.7c-0.9,0-1.6,0.3-2.2,0.7c-0.5,0.5-0.8,1.4-0.8,2.6c0,1.6,0.4,3,1.1,4.2
						c0.8,1.1,1.8,1.8,3.1,1.9v-3.9H16V24h5v11.7H18.9z"/>
					<path class="st1" d="M31.8,28.2c1.2,2.8,2.6,5.3,3.9,7.2l-2.8,2.7c-2-2.8-3.8-6.4-5.3-10.6c2-1.8,3.1-3.1,3.1-4.1
						c0-0.7-0.4-1.1-1.1-1.1h-6.5l0.8-3.8h6.4c1.2,0,2.2,0.3,3,0.9c0.8,0.8,1.4,1.9,1.4,3.4C34.6,24.9,33.7,26.7,31.8,28.2z
						 M23.8,23h3.7v12.6h-3.7V23z"/>
					<path class="st1" d="M42.1,18.3c2,0,3.5,0.5,4.5,1.4c1.1,1.1,1.6,2.8,1.6,5.3c0,3.4-0.8,6.2-2.3,8.5c-1.1,1.6-2.3,2.4-3.9,2.4
						c-1.5,0-2.8-0.8-3.9-2.4c-1.5-2.3-2.3-5.2-2.3-8.5c0-2.4,0.5-4.2,1.6-5.3C38.5,18.7,40,18.3,42.1,18.3z M39.5,25.2
						c0,1.6,0.3,3.3,0.8,4.7c0.5,1.4,1.1,2.2,1.8,2.2c0.4,0,0.8-0.3,1.2-0.9c0.8-1.6,1.4-3.7,1.4-5.8c0-1.2-0.1-1.9-0.5-2.4
						c-0.4-0.4-0.9-0.7-1.9-0.7c-0.9,0-1.5,0.3-1.9,0.7C39.8,23.3,39.5,24.1,39.5,25.2z"/>
					<path class="st1" d="M54.1,29.9l1.8-11.5h3.5l1.8,11.5l1.6-11.5h3.8l-3.5,17.2h-3.8l-1.6-9.5L56,35.6h-3.8l-3.5-17.1h3.8
						L54.1,29.9z"/>
					<path class="st1" d="M74.1,35.6V23h3.7v4.2c1.9-1.2,2.8-2.4,2.8-3.5c0-0.9-0.4-1.4-1.2-1.4h-5.8l0.8-3.8H80
						c1.2,0,2.3,0.4,3.1,1.2c0.8,0.8,1.2,2,1.2,3.7c0,3.4-2.2,6.2-6.5,8.4v3.8H74.1z"/>
					<path class="st1" d="M91.3,18.3c2,0,3.5,0.5,4.5,1.4c1.1,1.1,1.6,2.8,1.6,5.3c0,3.4-0.8,6.2-2.3,8.5c-1.1,1.6-2.3,2.4-3.9,2.4
						c-1.5,0-2.8-0.8-3.9-2.4c-1.5-2.3-2.3-5.2-2.3-8.5c0-2.4,0.5-4.2,1.6-5.3C87.8,18.7,89.3,18.3,91.3,18.3z M88.7,25.2
						c0,1.6,0.3,3.3,0.8,4.7c0.5,1.4,1.1,2.2,1.8,2.2c0.4,0,0.8-0.3,1.2-0.9c0.8-1.6,1.4-3.7,1.4-5.8c0-1.2-0.1-1.9-0.5-2.4
						c-0.4-0.4-0.9-0.7-1.9-0.7c-0.9,0-1.5,0.3-1.9,0.7C89,23.3,88.7,24.1,88.7,25.2z"/>
					<path class="st1" d="M103.4,29.9l1.8-11.5h3.5l1.8,11.5l1.6-11.5h3.8l-3.5,17.2h-3.8l-1.6-9.5l-1.6,9.5h-3.8l-3.5-17.1h3.8
						L103.4,29.9z"/>
					<path class="st1" d="M126.1,22.2h-5.4v2.7h5l-0.9,3.8h-4.1v3h5.8l-0.9,3.8h-8.5V18.4h8.3L126.1,22.2z"/>
					<path class="st1" d="M136.2,28.2c1.2,2.8,2.6,5.3,3.9,7.2l-2.8,2.7c-2-2.8-3.8-6.4-5.3-10.6c2-1.8,3.1-3.1,3.1-4.1
						c0-0.7-0.4-1.1-1.1-1.1h-6.4l0.8-3.8h6.4c1.2,0,2.2,0.3,3,0.9c0.8,0.8,1.4,1.9,1.4,3.4C139,24.9,138.1,26.7,136.2,28.2z
						 M128.3,23h3.7v12.6h-3.7V23z"/>
				</g>
			</g>
		</g>
	</g>
</g>
</svg>
