<?xml version="1.0" encoding="utf-8"?>
<!-- Generator: Adobe Illustrator 21.0.0, SVG Export Plug-In . SVG Version: 6.00 Build 0)  -->
<svg version="1.1" id="Layer_1" xmlns="http://www.w3.org/2000/svg" xmlns:xlink="http://www.w3.org/1999/xlink" x="0px" y="0px"
	 width="150px" height="55px" viewBox="0 0 150 55" style="enable-background:new 0 0 150 55;" xml:space="preserve">
<style type="text/css">
	.st0{fill:#FFFFFF;}
	.st1{fill:#1D74AA;}
</style>
<g>
	<rect class="st0" width="150" height="55"/>
	<g>
		<path class="st1" d="M23.9,34.8c0,1.5-0.5,2.8-1.5,4c-1,1.2-2.3,1.7-3.7,1.7h-5.3V16.9h5.3c1.4,0,2.7,0.5,3.7,1.7
			c1,1.2,1.5,2.4,1.5,4V34.8z M16.7,36.9h2.1c0.5,0,1-0.3,1.4-0.6c0.4-0.4,0.5-0.9,0.5-1.4V22.5c0-0.5-0.1-1-0.5-1.4
			c-0.4-0.4-0.8-0.6-1.3-0.6h-2.1v16.4H16.7z"/>
		<path class="st1" d="M30.8,16.6c1.5,0,2.7,0.5,3.7,1.7c1,1.2,1.5,2.4,1.5,4v12.8c0,1.5-0.5,3-1.5,4c-1,1.2-2.3,1.7-3.7,1.7
			c-1.5,0-2.7-0.5-3.7-1.7c-1-1.2-1.5-2.4-1.5-4V22.3c0-1.5,0.5-3,1.5-4C28.2,17.1,29.4,16.6,30.8,16.6z M32.8,22.1
			c0-0.5-0.1-1-0.5-1.4c-0.4-0.4-0.8-0.6-1.4-0.6c-0.5,0-1,0.3-1.4,0.6c-0.4,0.4-0.5,0.9-0.5,1.4v13c0,0.5,0.1,1,0.5,1.4
			c0.4,0.4,0.9,0.6,1.4,0.6c0.5,0,1-0.3,1.4-0.6c0.4-0.4,0.5-0.9,0.5-1.4V22.1z"/>
		<path class="st1" d="M43.2,40.8c-1.5,0-2.7-0.5-3.7-1.7c-1-1.2-1.5-2.4-1.5-4V22.3c0-1.5,0.5-3,1.5-4c1-1.2,2.3-1.7,3.7-1.7
			c1.5,0,2.7,0.5,3.7,1.7c1,1.2,1.5,2.4,1.5,4V25H45v-2.8c0-0.5-0.1-1-0.5-1.4c-0.4-0.4-0.9-0.6-1.4-0.6c-0.5,0-1,0.3-1.4,0.6
			c-0.4,0.4-0.5,0.9-0.5,1.4v13c0,0.5,0.1,1,0.5,1.4c0.4,0.4,0.8,0.6,1.4,0.6c0.5,0,1-0.3,1.4-0.6c0.4-0.4,0.5-0.9,0.5-1.4v-3.2h3.5
			v3.3c0,1.5-0.5,3-1.5,4C45.9,40.2,44.7,40.8,43.2,40.8z"/>
		<path class="st1" d="M53.2,20.5h-3.6v-3.6h10.5v3.6h-3.6v20h-3.3V20.5z"/>
		<path class="st1" d="M66.4,16.6c1.5,0,2.7,0.5,3.7,1.7c1,1.2,1.5,2.4,1.5,4v12.8c0,1.5-0.5,3-1.5,4c-1,1.2-2.3,1.7-3.7,1.7
			c-1.5,0-2.7-0.5-3.7-1.7c-1-1.2-1.5-2.4-1.5-4V22.3c0-1.5,0.5-3,1.5-4C63.7,17.1,65,16.6,66.4,16.6z M68.3,22.1
			c0-0.5-0.1-1-0.5-1.4c-0.4-0.4-0.8-0.6-1.4-0.6c-0.5,0-1,0.3-1.4,0.6c-0.4,0.4-0.5,0.9-0.5,1.4v13c0,0.5,0.1,1,0.5,1.4
			c0.4,0.4,0.9,0.6,1.4,0.6s1-0.3,1.4-0.6s0.5-0.9,0.5-1.4V22.1z"/>
		<path class="st1" d="M78.8,16.9c1.9,0,3.2,0.5,4.1,1.7c0.8,0.9,1.2,2.3,1.2,4V26c0,1.7-0.6,3.1-1.8,4.2l2.4,10.3h-3.6l-2.1-8.9
			c-0.1,0-0.3,0-0.3,0h-1.9v8.9h-3.3V16.9H78.8z M80.8,22.5c0-1.4-0.6-2.1-1.9-2.1h-2.1V28h2.1c0.5,0,1-0.3,1.4-0.6s0.5-0.9,0.5-1.4
			V22.5z"/>
		<path class="st1" d="M96.4,16.9c1.7,0,3,0.5,3.8,1.7c0.9,1,1.4,2.3,1.4,4V26c0,1.5-0.5,2.8-1.5,4c-1,1.2-2.3,1.7-3.7,1.7h-1.9v8.9
			h-3.3V16.9H96.4z M98.5,22.5c0-0.6-0.1-1.2-0.5-1.5c-0.4-0.4-0.8-0.5-1.4-0.5h-2.1V28h2.1c0.5,0,1-0.3,1.4-0.6s0.5-0.9,0.5-1.4
			V22.5z"/>
		<path class="st1" d="M112.2,40.5h-9.1V16.9h3.3v20h5.8V40.5z"/>
		<path class="st1" d="M118.6,40.8c-1.5,0-2.7-0.5-3.7-1.7c-1-1.2-1.5-2.4-1.5-4V16.9h3.3v18.2c0,0.5,0.1,1,0.5,1.4s0.9,0.6,1.4,0.6
			s1-0.3,1.4-0.6c0.4-0.4,0.5-0.9,0.5-1.4V16.9h3.5v18.2c0,1.5-0.5,3-1.5,4C121.3,40.2,120,40.8,118.6,40.8z"/>
		<path class="st1" d="M136.6,34.6c0,1.7-0.4,3.1-1.2,4.2c-0.5,0.8-1.3,1.4-2.3,1.7c-0.5,0.1-1.2,0.3-1.9,0.3c-1.3,0-2.4-0.4-3.2-1
			c-0.8-0.5-1.3-1.3-1.7-2.3c-0.4-1-0.6-2.1-0.8-3.3l3.2-0.3c0.1,1.4,0.5,2.3,1,3c0.4,0.5,0.9,0.6,1.4,0.6c0.8,0,1.3-0.4,1.8-1.2
			c0.3-0.4,0.4-0.9,0.4-1.5c0-1-0.4-1.9-1.3-3c-0.6-0.6-1.7-1.7-3-3c-1.2-1.2-1.9-2.2-2.3-3.1c-0.5-1-0.8-2.2-0.8-3.3
			c0-2.2,0.6-3.7,2.1-4.9c0.9-0.6,1.9-1,3.1-1s2.2,0.3,3.1,0.9c0.6,0.4,1.2,1,1.7,1.8c0.4,0.8,0.6,1.7,0.8,2.7l-3.2,0.6
			c-0.1-1-0.4-1.7-0.8-2.3c-0.3-0.4-0.8-0.6-1.3-0.6c-0.6,0-1,0.3-1.4,0.9c-0.3,0.5-0.4,1-0.4,1.7c0,1,0.4,2.2,1.3,3.3
			c0.4,0.4,0.8,0.9,1.5,1.5c0.8,0.6,1.3,1.2,1.5,1.4c0.8,0.9,1.4,1.8,1.9,2.6c0.3,0.4,0.4,0.8,0.5,1.2
			C136.4,33.2,136.6,33.9,136.6,34.6z"/>
	</g>
</g>
</svg>
