<?xml version="1.0" encoding="utf-8"?>
<!-- Generator: Adobe Illustrator 21.0.0, SVG Export Plug-In . SVG Version: 6.00 Build 0)  -->
<svg version="1.1" id="Layer_1" xmlns="http://www.w3.org/2000/svg" xmlns:xlink="http://www.w3.org/1999/xlink" x="0px" y="0px"
	 width="150px" height="55px" viewBox="0 0 150 55" style="enable-background:new 0 0 150 55;" xml:space="preserve">
<style type="text/css">
	.st0{fill:#FFFFFF;}
	.st1{fill:#F6921E;}
	.st2{fill:url(#SVGID_1_);stroke:#FF0500;stroke-width:0.7611;stroke-miterlimit:10;}
	.st3{fill:url(#SVGID_2_);stroke:#FF0500;stroke-width:0.7611;stroke-miterlimit:10;}
	.st4{fill:url(#SVGID_3_);stroke:#FF0500;stroke-width:0.7611;stroke-miterlimit:10;}
	.st5{fill:url(#SVGID_4_);stroke:#FF0500;stroke-width:0.7611;stroke-miterlimit:10;}
</style>
<g>
	<rect class="st0" width="150" height="55"/>
	<g>
		<g>
			<polygon class="st1" points="87.1,17.7 87.1,14.5 85.9,14.5 85.9,13.8 89.1,13.8 89.1,14.5 87.9,14.5 87.9,17.7 			"/>
			<polygon class="st1" points="89.5,17.7 89.5,13.8 90.7,13.8 91.6,16.5 92.2,13.8 93.4,13.8 93.4,17.7 92.6,17.7 92.6,14.6 
				91.8,17.7 91.2,17.7 90.3,14.6 90.3,17.7 			"/>
			<path class="st1" d="M26.6,29.5v-9.4V20c0-0.3,0-0.4,0.1-0.5c0-0.1,0.1-0.3,0.3-0.3c0.1,0,0.3,0.1,0.3,0.3s0,0.4,0,0.7v4.3v9.5
				v7.4c-1.9-1.9-3.9-3.8-6.2-5.6c-1.9-1.6-3.9-3.4-6.3-5.4v9.8c0,0.1,0,0.3-0.1,0.4c-0.1,0.1-0.1,0.3-0.3,0.3
				c-0.1,0-0.3-0.1-0.3-0.5V18.5c1.5,1.3,3.1,2.8,4.7,4.3c1.5,1.3,3.1,2.7,4.8,4.2L26.6,29.5z"/>
			<path class="st1" d="M34.7,19.3v20.5h0.9c2,0,3.5-0.5,4.3-1.7c0.8-1.2,1.3-3.2,1.3-6.2V19.8c0-0.5,0.1-0.8,0.4-0.8
				s0.4,0.3,0.4,0.8v12c0,3.1-0.4,5.2-1.3,6.7c-1.1,1.6-2.8,2.4-5.5,2.4c-2.3,0-3.9-0.5-4.8-1.6c-1.1-1.3-1.6-3.6-1.6-7.1v-5.2v-7.5
				h5.9V19.3z"/>
			<path class="st1" d="M53.5,20.4v0.8v18.5v0.4v0.1h-6V20.4h-3.6c-0.1,0-0.3,0-0.3,0s0-0.1,0-0.4c0-0.4,0.1-0.7,0.5-0.7h13
				c0.1,0,0.3,0,0.4,0.1c0,0.1,0,0.3,0,0.5v0.4c-0.1,0-0.1,0-0.3,0H53.5z"/>
			<path class="st1" d="M68.3,38.1c0.3,0.1,0.5,0.4,0.8,0.5c0.7,0.4,1.5,0.8,2.4,1.1c0.3,0,0.3,0.3,0.3,0.4c0,0.4-0.1,0.5-0.4,0.5
				c-0.8,0-1.9-0.5-3.1-1.5L68.3,38.1L68.3,38.1z M68.3,20.1c0.3,0.1,0.7,0.3,0.9,0.4c1.1,0.7,1.9,1.7,2.4,3.1
				c0.5,1.5,0.9,3.1,0.9,4.8c0,1.6-0.3,3.1-0.9,4.6c-0.7,1.5-1.5,2.4-2.4,3.1c-0.4,0.3-0.7,0.4-0.9,0.5v-1.1c0.8-0.4,1.5-0.9,2-1.7
				c1.1-1.5,1.5-3.2,1.5-5.4c0-1.6-0.3-3.2-0.9-4.6c-0.7-1.3-1.5-2.3-2.4-2.7c-0.1,0-0.1-0.1-0.3-0.1v-0.9H68.3z M67,36.9
				c0.4,0.4,0.8,0.8,1.3,1.2v1.2c-0.4-0.3-0.8-0.7-1.3-1.2c-0.7-0.7-1.3-1.5-2.3-2.4v4.7h-6V19.3h4c1.7,0,3.1,0.1,4,0.3
				c0.5,0.1,1.1,0.3,1.5,0.4V21c-0.4-0.1-0.9-0.4-1.5-0.4c-0.5-0.1-1.3-0.1-2.1-0.1v13.8c0.3,0.4,0.4,0.7,0.5,0.8
				c0.1,0.1,0.4,0.4,0.7,0.8h0.5c0.7,0,1.2-0.1,1.7-0.4v1.1c-0.1,0-0.1,0-0.1,0.1C67.9,36.9,67.5,36.9,67,36.9z"/>
			<rect x="73.7" y="19.3" class="st1" width="6.2" height="21"/>
			<path class="st1" d="M90.6,20c1.1,0.4,2,1.3,2.8,2.8c0.9,1.6,1.3,3.4,1.3,5.4c0,2.6-0.5,4.6-1.6,6.2c-0.7,1.1-1.6,1.7-2.6,2.1
				v-0.9c0.8-0.4,1.5-0.9,2-1.9c1.1-1.5,1.5-3.4,1.5-5.5c0-1.2-0.3-2.6-0.7-3.6c-0.4-1.2-1.1-2.1-1.7-2.7c-0.3-0.3-0.7-0.5-1.1-0.7
				C90.6,21.2,90.6,20,90.6,20z M87.1,36.5v3.9h-6V19.3h4.6c1.1,0,1.9,0,2.7,0.1s1.5,0.3,2,0.4c0.1,0,0.3,0.1,0.4,0.1V21
				c-0.3-0.1-0.7-0.3-1.1-0.4c-0.8-0.1-1.6-0.3-2.6-0.3v15c0.5,0.3,1.2,0.4,2,0.4c0.5,0,1.1-0.1,1.5-0.3v0.9
				c-0.5,0.1-1.1,0.3-1.6,0.3c-0.3,0-0.7,0-0.9-0.1C87.8,36.6,87.4,36.6,87.1,36.5z"/>
		</g>
		<g>
			<g>
				
					<linearGradient id="SVGID_1_" gradientUnits="userSpaceOnUse" x1="103.9098" y1="31.5849" x2="103.9098" y2="14.6978" gradientTransform="matrix(1 0 0 -1 0 56)">
					<stop  offset="0" style="stop-color:#FFFF00"/>
					<stop  offset="4.290477e-02" style="stop-color:#FFFF0B"/>
					<stop  offset="0.1177" style="stop-color:#FFFF27"/>
					<stop  offset="0.2153" style="stop-color:#FFFF56"/>
					<stop  offset="0.3322" style="stop-color:#FFFF96"/>
					<stop  offset="0.4639" style="stop-color:#FFFFE7"/>
					<stop  offset="0.5" style="stop-color:#FFFFFF"/>
					<stop  offset="0.5175" style="stop-color:#FEFEEB"/>
					<stop  offset="0.5649" style="stop-color:#FBFDBB"/>
					<stop  offset="0.615" style="stop-color:#F9FC8F"/>
					<stop  offset="0.6669" style="stop-color:#F7FB6B"/>
					<stop  offset="0.7211" style="stop-color:#F5FA4E"/>
					<stop  offset="0.7782" style="stop-color:#F4FA37"/>
					<stop  offset="0.8396" style="stop-color:#F3F927"/>
					<stop  offset="0.9084" style="stop-color:#F2F91D"/>
					<stop  offset="1" style="stop-color:#F2F91A"/>
				</linearGradient>
				<path class="st2" d="M104.2,31.4h3.8v5.4c0,2.7-1.3,4.3-4,4.3c-2.7,0-4-1.6-4-4.3v-8.9c0-2.7,1.3-4.3,4-4.3c2.7,0,4,1.6,4,4.3
					v1.6h-2.6v-1.9c0-1.2-0.5-1.6-1.3-1.6s-1.3,0.4-1.3,1.6v9.1c0,1.2,0.5,1.6,1.3,1.6s1.3-0.4,1.3-1.6v-3.1h-1.2V31.4z"/>
				
					<linearGradient id="SVGID_2_" gradientUnits="userSpaceOnUse" x1="113.4456" y1="31.5849" x2="113.4456" y2="14.6978" gradientTransform="matrix(1 0 0 -1 0 56)">
					<stop  offset="0" style="stop-color:#FFFF00"/>
					<stop  offset="4.290477e-02" style="stop-color:#FFFF0B"/>
					<stop  offset="0.1177" style="stop-color:#FFFF27"/>
					<stop  offset="0.2153" style="stop-color:#FFFF56"/>
					<stop  offset="0.3322" style="stop-color:#FFFF96"/>
					<stop  offset="0.4639" style="stop-color:#FFFFE7"/>
					<stop  offset="0.5" style="stop-color:#FFFFFF"/>
					<stop  offset="0.5175" style="stop-color:#FEFEEB"/>
					<stop  offset="0.5649" style="stop-color:#FBFDBB"/>
					<stop  offset="0.615" style="stop-color:#F9FC8F"/>
					<stop  offset="0.6669" style="stop-color:#F7FB6B"/>
					<stop  offset="0.7211" style="stop-color:#F5FA4E"/>
					<stop  offset="0.7782" style="stop-color:#F4FA37"/>
					<stop  offset="0.8396" style="stop-color:#F3F927"/>
					<stop  offset="0.9084" style="stop-color:#F2F91D"/>
					<stop  offset="1" style="stop-color:#F2F91A"/>
				</linearGradient>
				<path class="st3" d="M109.4,27.9c0-2.7,1.5-4.3,4-4.3c2.7,0,4,1.6,4,4.3v8.9c0,2.7-1.5,4.3-4,4.3c-2.7,0-4-1.6-4-4.3V27.9z
					 M112.1,36.9c0,1.2,0.5,1.6,1.3,1.6c0.8,0,1.3-0.4,1.3-1.6v-9.1c0-1.2-0.5-1.6-1.3-1.6c-0.8,0-1.3,0.4-1.3,1.6V36.9z"/>
				
					<linearGradient id="SVGID_3_" gradientUnits="userSpaceOnUse" x1="122.78" y1="31.5841" x2="122.78" y2="14.6981" gradientTransform="matrix(1 0 0 -1 0 56)">
					<stop  offset="0" style="stop-color:#FFFF00"/>
					<stop  offset="4.290477e-02" style="stop-color:#FFFF0B"/>
					<stop  offset="0.1177" style="stop-color:#FFFF27"/>
					<stop  offset="0.2153" style="stop-color:#FFFF56"/>
					<stop  offset="0.3322" style="stop-color:#FFFF96"/>
					<stop  offset="0.4639" style="stop-color:#FFFFE7"/>
					<stop  offset="0.5" style="stop-color:#FFFFFF"/>
					<stop  offset="0.5175" style="stop-color:#FEFEEB"/>
					<stop  offset="0.5649" style="stop-color:#FBFDBB"/>
					<stop  offset="0.615" style="stop-color:#F9FC8F"/>
					<stop  offset="0.6669" style="stop-color:#F7FB6B"/>
					<stop  offset="0.7211" style="stop-color:#F5FA4E"/>
					<stop  offset="0.7782" style="stop-color:#F4FA37"/>
					<stop  offset="0.8396" style="stop-color:#F3F927"/>
					<stop  offset="0.9084" style="stop-color:#F2F91D"/>
					<stop  offset="1" style="stop-color:#F2F91A"/>
				</linearGradient>
				<path class="st4" d="M119.2,23.9h2.7v14.5h4.4v2.4h-7.1V23.9z"/>
				
					<linearGradient id="SVGID_4_" gradientUnits="userSpaceOnUse" x1="131.7115" y1="31.5841" x2="131.7115" y2="14.6981" gradientTransform="matrix(1 0 0 -1 0 56)">
					<stop  offset="0" style="stop-color:#FFFF00"/>
					<stop  offset="4.290477e-02" style="stop-color:#FFFF0B"/>
					<stop  offset="0.1177" style="stop-color:#FFFF27"/>
					<stop  offset="0.2153" style="stop-color:#FFFF56"/>
					<stop  offset="0.3322" style="stop-color:#FFFF96"/>
					<stop  offset="0.4639" style="stop-color:#FFFFE7"/>
					<stop  offset="0.5" style="stop-color:#FFFFFF"/>
					<stop  offset="0.5175" style="stop-color:#FEFEEB"/>
					<stop  offset="0.5649" style="stop-color:#FBFDBB"/>
					<stop  offset="0.615" style="stop-color:#F9FC8F"/>
					<stop  offset="0.6669" style="stop-color:#F7FB6B"/>
					<stop  offset="0.7211" style="stop-color:#F5FA4E"/>
					<stop  offset="0.7782" style="stop-color:#F4FA37"/>
					<stop  offset="0.8396" style="stop-color:#F3F927"/>
					<stop  offset="0.9084" style="stop-color:#F2F91D"/>
					<stop  offset="1" style="stop-color:#F2F91A"/>
				</linearGradient>
				<path class="st5" d="M127.5,23.9h4.3c2.7,0,4,1.5,4,4.2v8.6c0,2.7-1.3,4.2-4,4.2h-4.3V23.9z M130.2,26.3v12.1h1.5
					c0.8,0,1.3-0.4,1.3-1.6v-8.9c0-1.2-0.5-1.6-1.3-1.6C131.7,26.3,130.2,26.3,130.2,26.3z"/>
			</g>
		</g>
	</g>
</g>
</svg>
