<?xml version="1.0" encoding="utf-8"?>
<!-- Generator: Adobe Illustrator 21.0.0, SVG Export Plug-In . SVG Version: 6.00 Build 0)  -->
<svg version="1.1" id="Layer_1" xmlns="http://www.w3.org/2000/svg" xmlns:xlink="http://www.w3.org/1999/xlink" x="0px" y="0px"
	 width="150px" height="55px" viewBox="0 0 150 55" style="enable-background:new 0 0 150 55;" xml:space="preserve">
<style type="text/css">
	.st0{fill:#FFFFFF;}
	.st1{fill:#F2228E;}
	.st2{fill:#070606;}
</style>
<g>
	<rect class="st0" width="150" height="55"/>
	<g>
		<g>
			<path class="st1" d="M30.7,23.5h-2.1l-10.3-8.9v8.9h-1.7V7.1h1.9l10.5,9v-9h1.7V23.5z"/>
			<path class="st1" d="M47.6,7.1V18c0,1.4-0.1,2.4-0.3,3c-0.5,1.2-1.4,2-2.7,2.4c-0.9,0.3-2.1,0.4-3.8,0.4c-1.6,0-2.8-0.1-3.7-0.3
				c-1.6-0.4-2.7-1.2-3.4-2.4c-0.4-0.7-0.6-1.7-0.6-3V7.1h5.8v11.5c0,1.3,0.2,2.2,0.7,2.7c0.6,0.6,1.5,0.9,2.7,0.9
				c1.5,0,2.6-0.4,3.2-1.3c0.3-0.5,0.5-1.4,0.5-2.7V7.1H47.6z"/>
			<path class="st1" d="M49.9,23.5V7.1h8c1.8,0,3,0.2,3.8,0.6c1,0.6,1.5,1.5,1.5,2.7c0,0.9-0.3,1.7-0.9,2.4
				c-0.3,0.4-0.8,0.7-1.5,1.1c0.9,0.3,1.7,0.6,2.2,0.9c1.3,0.8,2,2.1,2,3.7c0,1.7-0.8,3.1-2.3,4c-1.1,0.6-2.6,1-4.5,1H49.9z
				 M55.7,13.1c1.4,0,2.1-0.7,2.1-2.2c0-0.8-0.2-1.3-0.5-1.7C57,9,56.5,8.8,55.7,8.8V13.1z M55.7,21.7c0.2,0,0.3,0,0.4,0
				c0.9,0,1.5-0.4,1.7-1.2c0.2-0.4,0.2-1.2,0.2-2.3c0-1.1-0.1-1.9-0.3-2.4c-0.3-0.7-0.9-1.1-1.9-1.1h-0.2V21.7z"/>
			<path class="st1" d="M78.8,23.5H66.4V7.1h12.1L79,8.7h-6.7v1.5h7l-0.7,1.9c-0.5-0.2-1.2-0.3-2-0.3h-4.3v9.8h6.6V23.5z"/>
			<path class="st1" d="M92.5,9c-0.4,0.6-1.1,1.1-1.9,1.3C89.7,9,88.5,8.4,87,8.4c-1.3,0-1.9,0.4-1.9,1.1c0,0.4,0.2,0.7,0.7,0.9
				c0.2,0.1,0.8,0.3,1.8,0.5c2.5,0.7,4.2,1.4,5,2.1c1.3,1.1,2,2.6,2,4.5c0,1.9-0.6,3.5-1.9,4.6c-1.3,1.2-3.2,1.7-5.5,1.7
				c-1.8,0-3.3-0.4-4.7-1.1C80.9,21.9,80,20.6,80,19c0-1.1,0.5-2,1.4-2.9c0.9,0.3,1.8,0.8,2.8,1.6c-1,0.6-1.5,1.2-1.5,1.7
				c0,0.9,0.5,1.6,1.5,2.2c0.8,0.4,1.7,0.6,2.7,0.6c1.3,0,2.4-0.2,3.1-0.6c0.8-0.4,1.1-1,1.1-1.8c0-0.8-0.4-1.4-1.2-1.9
				c-0.6-0.3-1.5-0.7-2.8-1c-1.6-0.4-2.6-0.8-3-0.9c-0.6-0.2-1.1-0.5-1.6-0.9c-1.2-1-1.8-2.2-1.8-3.6c0-3.1,2-4.6,6-4.6
				C89.7,6.7,91.6,7.5,92.5,9z"/>
			<path class="st1" d="M104.7,23.5h-5.8V8.7h-4.5V7.1h14.9v1.6h-4.5V23.5z"/>
			<path class="st2" d="M64,48.3c-0.9-0.2-1.5-0.6-2-1.3c-0.3-0.5-0.6-1.2-1-2.2l-2.7-8.5c-0.4-1.3-0.9-2.3-1.5-3h3.1
				c0,0.4,0.1,0.8,0.2,1.3l3.4,10.9l2.9-9.2c0.2-0.7,0.3-1.2,0.3-1.5c0-0.4-0.2-0.8-0.7-1.5h3c0,0.8,0.2,1.7,0.5,2.7l2.9,9.4
				l2.8-8.8c0.2-0.7,0.3-1.3,0.3-1.7c0-0.5-0.3-1.1-0.8-1.6h3.2l-5,15c-1.3-0.3-2.3-1.3-2.8-3l-2.5-7.9L64,48.3z"/>
			<path class="st2" d="M82.2,45.3c0,1.2,0.3,2.1,0.9,2.6h-4c0.6-0.5,0.9-1.4,0.9-2.6v-9.5c0-1.2-0.3-2.1-0.9-2.6h4
				c-0.6,0.5-0.9,1.4-0.9,2.6v3.3h7.9v-3.3c0-1.2-0.3-2.1-0.9-2.6h4c-0.6,0.5-0.9,1.4-0.9,2.6v9.5c0,1.2,0.3,2.1,0.9,2.6h-4
				c0.6-0.5,0.9-1.4,0.9-2.6v-4.5h-7.9V45.3z"/>
			<path class="st2" d="M98.8,45.3c0,1.2,0.3,2.1,0.9,2.6h-4c0.6-0.5,0.9-1.4,0.9-2.6v-9.5c0-1.2-0.3-2.1-0.9-2.6h4
				c-0.6,0.5-0.9,1.4-0.9,2.6V45.3z"/>
			<path class="st2" d="M107.8,45.3c0,1.2,0.3,2.1,0.9,2.6h-4c0.6-0.5,0.9-1.4,0.9-2.6V34.9h-1.2c-1.6,0-2.6,0.3-3.2,0.8l0.7-2.4
				h10.5l-0.7,2.4c-0.4-0.5-1.2-0.8-2.2-0.8h-1.6V45.3z"/>
			<path class="st2" d="M113.9,47.9c0.6-0.5,0.9-1.4,0.9-2.6v-9.5c0-1.2-0.3-2.1-0.9-2.6h8v2.3c-0.7-0.5-1.6-0.8-2.7-0.8
				c-0.6,0-1.3,0.1-2.2,0.3v4.1h3.6v2.1c-0.3-0.4-1-0.5-2.1-0.5H117V46c1.1,0.2,2,0.3,2.7,0.3c1.4,0,2.8-0.4,4.1-1.2l-1,2.9H113.9z"
				/>
		</g>
		<g>
			<path class="st2" d="M125.5,29.3c0-0.2-0.1-0.4-0.3-0.4c-0.3,0-0.6,0.4-0.9,1.2V28c0.1,0.1,0.2,0.1,0.4,0.1h2.8
				c0.1,0,0.3,0,0.4-0.1v2.2c-0.3-0.8-0.6-1.2-0.9-1.2c-0.2,0-0.3,0.1-0.3,0.4v2.3c0,0.3,0.1,0.6,0.3,0.7h-1.8
				c0.2-0.2,0.3-0.4,0.3-0.7V29.3z"/>
			<path class="st2" d="M128.2,32.4c0.2-0.2,0.3-0.4,0.3-0.7v-2.8c0-0.3-0.1-0.5-0.3-0.7h2c0,0,0,0.1,0,0.1c0,0,0,0,0,0.1l0.4,1.5
				c0.1,0.3,0.1,0.6,0.2,0.9c0-0.3,0.1-0.6,0.2-0.9l0.4-1.5c0,0,0,0,0-0.1c0,0,0-0.1,0-0.1h1.9c-0.2,0.2-0.3,0.4-0.3,0.7v2.8
				c0,0.3,0.1,0.6,0.3,0.7h-1.7c0.2-0.2,0.3-0.4,0.3-0.7v-1.7c0-0.3,0-0.6,0.1-0.9c-0.1,0.3-0.1,0.6-0.2,0.8l-0.7,2.3
				c0,0.1,0,0.1,0,0.2c0,0,0,0.1,0,0.1h-0.9c0-0.1,0-0.1,0-0.1c0-0.1,0-0.1,0-0.2l-0.6-2.3c-0.1-0.3-0.2-0.6-0.2-0.8
				c0.1,0.3,0.1,0.6,0.1,0.9v1.7c0,0.3,0.1,0.5,0.3,0.7H128.2z"/>
		</g>
	</g>
</g>
</svg>
