<?xml version="1.0" encoding="utf-8"?>
<!-- Generator: Adobe Illustrator 22.0.0, SVG Export Plug-In . SVG Version: 6.00 Build 0)  -->
<svg version="1.1" id="Layer_1" xmlns="http://www.w3.org/2000/svg" xmlns:xlink="http://www.w3.org/1999/xlink" x="0px" y="0px"
	 width="141.9px" height="52.5px" viewBox="0 0 141.9 52.5" style="enable-background:new 0 0 141.9 52.5;" xml:space="preserve">
<style type="text/css">
	.st0{fill:#333333;}
	.st1{fill:#C9C9C9;}
	.st2{fill:#C62727;}
	.st3{fill:#FFFF00;}
	.st4{fill:#231F20;}
	.st5{fill:#FFFFFF;}
	.st6{fill:#FED700;}
	.st7{clip-path:url(#SVGID_1_);}
	.st8{opacity:0.5;fill:#FFFFFF;}
	.st9{fill:#F98903;}
	.st10{fill:#FFFFFF;stroke:#4D4D4D;stroke-width:0.25;stroke-miterlimit:10;}
	.st11{fill:#4D4D4D;}
</style>
<g>
	<g>
		<rect x="0.1" y="0.1" class="st3" width="141.7" height="52.2"/>
		<path class="st4" d="M141.9,52.5H0V0h141.9V52.5z M0.3,52.2h141.4v-52H0.3V52.2z"/>
	</g>
	<g>
		<g>
			<g>
				<path class="st4" d="M30.3,37.6h-7.4V18.1h-5.8v-2.2h19v2.2h-5.8V37.6z"/>
			</g>
			<g>
				<path class="st4" d="M47,37.6h-1.6l-8.7-21.7h8l4.4,10.8l4.4-10.8h2.4L47,37.6z"/>
			</g>
			<g>
				<path class="st4" d="M56.9,37.6V15.9h10.2c2.3,0,3.9,0.3,4.8,0.8c1.3,0.8,2,2,2,3.6c0,1.2-0.4,2.3-1.1,3.2c-0.4,0.5-1,1-1.9,1.5
					c1.2,0.4,2.1,0.8,2.8,1.2c1.7,1.1,2.6,2.7,2.6,4.9c0,2.3-1,4.1-2.9,5.2c-1.4,0.8-3.3,1.3-5.7,1.3H56.9z M64.3,24
					c1.8,0,2.7-1,2.7-2.9c0-1-0.2-1.8-0.6-2.2c-0.4-0.4-1.1-0.6-2.1-0.7V24z M64.3,35.3c0.2,0,0.4,0,0.6,0c1.1,0,1.9-0.5,2.2-1.5
					c0.2-0.6,0.3-1.6,0.3-3c0-1.5-0.1-2.5-0.4-3.1c-0.4-0.9-1.2-1.4-2.4-1.4h-0.3V35.3z"/>
			</g>
			<g>
				<path class="st4" d="M96.7,15.9v14.4c0,1.9-0.1,3.2-0.4,4c-0.6,1.6-1.8,2.7-3.5,3.2c-1.1,0.4-2.7,0.5-4.9,0.5
					c-2,0-3.6-0.2-4.7-0.5c-2.1-0.6-3.5-1.6-4.3-3.1c-0.5-0.9-0.7-2.2-0.7-4V15.9h7.4v15.2c0,1.7,0.3,2.9,0.9,3.6
					c0.7,0.8,1.9,1.2,3.5,1.2c2,0,3.3-0.6,4.1-1.7c0.4-0.6,0.6-1.8,0.6-3.5V15.9H96.7z"/>
			</g>
			<g>
				<path class="st4" d="M110.8,37.6h-7.4V25.8l-5.7-9.8h8.6l3.7,6.4l4-6.4h2.5l-5.8,9.4V37.6z"/>
			</g>
		</g>
		<g>
			<g id="circle3_3_">
				<g>
					<path d="M121.8,18.4c-1.6,0-3-1.3-3-3c0-1.6,1.3-3,3-3c1.6,0,3,1.3,3,3C124.8,17,123.5,18.4,121.8,18.4z M121.8,12.6
						c-1.5,0-2.8,1.3-2.8,2.8c0,1.5,1.3,2.8,2.8,2.8c1.5,0,2.8-1.3,2.8-2.8C124.6,13.9,123.4,12.6,121.8,12.6z"/>
				</g>
			</g>
			<g>
				<g>
					<path class="st4" d="M120.6,17v-3.2h1.3c0.3,0,0.6,0,0.7,0.1c0.2,0.1,0.3,0.2,0.4,0.3c0.1,0.1,0.1,0.3,0.1,0.5
						c0,0.2-0.1,0.4-0.2,0.6c-0.1,0.2-0.3,0.3-0.6,0.3c0.1,0.1,0.2,0.2,0.3,0.3c0.1,0.1,0.2,0.3,0.4,0.5l0.4,0.6h-0.8l-0.5-0.7
						c-0.2-0.2-0.3-0.4-0.3-0.5c-0.1-0.1-0.1-0.1-0.2-0.1c-0.1,0-0.2,0-0.3,0h-0.1V17H120.6z M121.3,15.2h0.5c0.3,0,0.5,0,0.6,0
						c0.1,0,0.1-0.1,0.2-0.1c0-0.1,0.1-0.1,0.1-0.2c0-0.1,0-0.2-0.1-0.3c-0.1-0.1-0.1-0.1-0.2-0.1c-0.1,0-0.2,0-0.5,0h-0.5V15.2z"/>
				</g>
			</g>
		</g>
	</g>
</g>
</svg>
