<?xml version="1.0" encoding="utf-8"?>
<!-- Generator: Adobe Illustrator 21.0.0, SVG Export Plug-In . SVG Version: 6.00 Build 0)  -->
<svg version="1.1" id="Layer_1" xmlns="http://www.w3.org/2000/svg" xmlns:xlink="http://www.w3.org/1999/xlink" x="0px" y="0px"
	 width="150px" height="55px" viewBox="0 0 150 55" style="enable-background:new 0 0 150 55;" xml:space="preserve">
<style type="text/css">
	.st0{fill:#FFFFFF;}
	.st1{fill:#070606;}
	.st2{fill:url(#SVGID_1_);}
	.st3{fill:url(#SVGID_2_);}
	.st4{fill:none;stroke:#FFFFFF;stroke-width:2.3252;stroke-linecap:square;stroke-linejoin:bevel;stroke-miterlimit:2.6131;}
	.st5{fill:#A31F01;}
	.st6{fill:none;stroke:#FFFFFF;stroke-width:2.0927;stroke-linecap:square;stroke-linejoin:round;stroke-miterlimit:2.6131;}
	.st7{fill:#008837;}
</style>
<g>
	<rect class="st0" width="150" height="55"/>
	<g>
		<g>
			<g>
				<path class="st1" d="M37.8,50.1v-5.6h0.8v2.3h2.5v-2.3H42v5.6h-0.8v-2.5h-2.7v2.5H37.8z"/>
				<path class="st1" d="M47.1,48.4c-0.1,0.5-0.3,1-0.7,1.3c-0.4,0.3-0.8,0.5-1.5,0.5s-1.1-0.2-1.5-0.6c-0.4-0.4-0.6-0.8-0.6-1.4
					c0-0.5,0.2-1.1,0.6-1.4c0.4-0.4,1-0.6,1.5-0.6c0.8,0,1.6,0.4,2,1.2l-2.8,1.4l-0.3-0.5l2-1.1c-0.2-0.2-0.5-0.4-1-0.4
					s-0.7,0.1-1,0.4c-0.2,0.2-0.3,0.5-0.3,1c0,0.3,0.1,0.6,0.3,1c0.2,0.3,0.6,0.4,1,0.4c0.4,0,0.7-0.1,1-0.3
					c0.2-0.2,0.3-0.5,0.4-0.8L47.1,48.4z"/>
				<path class="st1" d="M51.1,50.1v-1.9c0-0.4-0.1-0.7-0.3-1c-0.2-0.3-0.5-0.4-1-0.4s-0.7,0.1-1,0.4c-0.2,0.2-0.3,0.5-0.3,1
					c0,0.4,0.1,0.7,0.4,1c0.2,0.3,0.6,0.4,1.1,0.4c0.3,0,0.7-0.1,1.1-0.3V50c-0.3,0.2-0.7,0.3-1.2,0.3c-0.6,0-1.1-0.2-1.5-0.6
					c-0.4-0.4-0.6-0.8-0.6-1.4s0.2-1.1,0.6-1.5s1-0.5,1.5-0.5c0.5,0,1,0.1,1.4,0.4c0.4,0.3,0.6,0.6,0.7,1.1c0,0.2,0,0.4,0,0.7v1.6
					C52.1,50.1,51.1,50.1,51.1,50.1z"/>
				<path class="st1" d="M52.8,50.1v-5.6h0.7v5.6H52.8z"/>
				<path class="st1" d="M54.6,45.2h0.7v1.1h1.3v0.6h-1.3v1.7c0,0.4,0.1,0.6,0.3,0.7s0.5,0.1,1,0.1v0.6h-0.2c-1.2,0-1.8-0.5-1.8-1.5
					V45.2z"/>
				<path class="st1" d="M57.4,50.1v-5.6h0.7v2.1c0.3-0.3,0.7-0.4,1.2-0.4c0.5,0,1,0.2,1.3,0.5C60.8,47,61,47.4,61,48v2.1h-0.7v-2.2
					c0-0.7-0.3-1.1-1-1.1c-0.3,0-0.6,0.1-0.8,0.3s-0.2,0.5-0.2,0.8v2.1H57.4z"/>
				<path class="st1" d="M68.3,49.8c-0.5,0.3-1,0.4-1.5,0.4c-0.6,0-1.3-0.2-1.8-0.6c-0.5-0.4-0.7-1-0.7-1.6c0-0.8,0.3-1.5,1.1-1.9
					c-0.2-0.2-0.3-0.3-0.3-0.4c-0.1-0.1-0.1-0.3-0.1-0.4c0-0.3,0.1-0.4,0.4-0.6c0.2-0.1,0.4-0.2,0.7-0.2h2.2v0.7h-2.2
					c-0.1,0-0.2,0-0.2,0.1v0.1l2.4,3.2c0.1-0.2,0.1-0.4,0.1-0.6c0-0.4-0.2-0.8-0.5-1.2l0.5-0.5c0.5,0.5,0.8,1.1,0.8,1.7
					c0,0.4-0.1,1-0.4,1.3l0.7,1h-1L68.3,49.8z M65.9,46.6c-0.5,0.3-0.7,0.7-0.7,1.3c0,0.4,0.2,0.8,0.5,1.1c0.3,0.3,0.7,0.4,1.2,0.4
					s0.7-0.1,1.1-0.3L65.9,46.6z"/>
				<path class="st1" d="M73,50.1v-3.6c0-0.6,0.1-1.2,0.4-1.5c0.3-0.4,0.8-0.6,1.5-0.6c0.5,0,1,0.1,1.4,0.4c0.4,0.3,0.6,0.6,0.6,1.2
					s-0.2,0.8-0.7,1.2c0.6,0.2,1,0.7,1,1.4c0,0.5-0.2,1-0.6,1.3c-0.4,0.3-0.8,0.4-1.5,0.4h-1.1v-0.7H75c0.3,0,0.6-0.1,0.8-0.2
					c0.2-0.2,0.3-0.4,0.3-0.7c0-0.3-0.1-0.5-0.3-0.7c-0.2-0.1-0.5-0.2-0.8-0.2h-1.1v-0.6c0.5,0,0.8,0,0.8,0c0.3,0,0.6-0.1,0.7-0.2
					c0.2-0.1,0.3-0.3,0.3-0.6c0-0.3-0.1-0.5-0.3-0.6c-0.2-0.2-0.4-0.2-0.7-0.2c-0.4,0-0.7,0.1-1,0.3c-0.2,0.2-0.3,0.5-0.3,0.8v3.8
					H73V50.1z"/>
				<path class="st1" d="M82,48.4c-0.1,0.5-0.3,1-0.7,1.3c-0.4,0.3-0.8,0.5-1.5,0.5c-0.6,0-1.1-0.2-1.5-0.6
					c-0.4-0.4-0.6-0.8-0.6-1.4c0-0.5,0.2-1.1,0.6-1.4c0.4-0.4,1-0.6,1.5-0.6c0.8,0,1.6,0.4,2,1.2L79,48.7l-0.3-0.5l2-1.1
					c-0.2-0.2-0.5-0.4-1-0.4s-0.7,0.1-1,0.4c-0.2,0.2-0.3,0.5-0.3,1c0,0.3,0.1,0.6,0.3,1c0.2,0.3,0.6,0.4,1,0.4c0.4,0,0.7-0.1,1-0.3
					c0.2-0.2,0.3-0.5,0.4-0.8L82,48.4z"/>
				<path class="st1" d="M85.9,50.1v-1.9c0-0.4-0.1-0.7-0.3-1c-0.2-0.3-0.5-0.4-1-0.4c-0.4,0-0.7,0.1-1,0.4c-0.2,0.2-0.3,0.5-0.3,1
					c0,0.4,0.1,0.7,0.4,1c0.2,0.3,0.6,0.4,1.1,0.4c0.3,0,0.7-0.1,1.1-0.3V50c-0.3,0.2-0.7,0.3-1.2,0.3c-0.6,0-1.1-0.2-1.5-0.6
					c-0.6-0.4-0.7-1-0.7-1.5c0-0.5,0.2-1.1,0.6-1.5c0.4-0.4,1-0.5,1.5-0.5c0.5,0,1,0.1,1.4,0.4c0.4,0.3,0.6,0.6,0.7,1.1
					c0,0.2,0,0.4,0,0.7V50h-0.8V50.1z"/>
				<path class="st1" d="M91.2,46.3v2.1c0,0.5-0.1,1-0.4,1.3c-0.3,0.3-0.7,0.5-1.4,0.5c-0.5,0-1.1-0.2-1.4-0.5
					c-0.3-0.3-0.4-0.7-0.4-1.3v-2.1h0.7v2.2c0,0.3,0.1,0.5,0.3,0.7c0.2,0.2,0.4,0.3,0.7,0.3c0.3,0,0.5-0.1,0.7-0.3
					c0.2-0.2,0.3-0.4,0.3-0.7v-2.2H91.2z"/>
				<path class="st1" d="M92.2,45.2h0.7v1.1h1.3v0.6h-1.3v1.7c0,0.4,0.1,0.6,0.3,0.7c0.2,0.1,0.5,0.1,1,0.1v0.6H94
					c-1.2,0-1.8-0.5-1.8-1.5L92.2,45.2L92.2,45.2z"/>
				<path class="st1" d="M98.6,46.3v2.1c0,1-0.4,1.6-1.4,1.8v1.7h-0.8v-1.7c-1-0.2-1.4-0.8-1.4-1.8v-2.1h0.7v2.2
					c0,0.3,0.1,0.5,0.3,0.7s0.4,0.3,0.7,0.3c0.3,0,0.5-0.1,0.7-0.3c0.2-0.2,0.3-0.4,0.3-0.7v-2.2H98.6z"/>
				<path class="st1" d="M105.6,45.1c-0.1,0-0.2,0-0.3,0c-0.7,0-1.4,0.2-1.9,0.5c-0.5,0.4-0.7,1-0.7,1.6c0,0.7,0.3,1.3,0.8,1.6
					c0.5,0.3,1.1,0.5,1.9,0.5c0.1,0,0.2,0,0.3,0V50h-0.2c-0.4,0-0.8,0-1.2-0.1c-0.7-0.1-1.3-0.4-1.7-1c-0.4-0.5-0.6-1.1-0.6-1.8
					c0-0.6,0.2-1.3,0.6-1.8s1.1-0.8,1.7-1c0.3-0.1,0.8-0.1,1.5-0.1v0.8H105.6z"/>
				<path class="st1" d="M109.6,50.1v-1.9c0-0.4-0.1-0.7-0.3-1c-0.2-0.3-0.5-0.4-1-0.4s-0.7,0.1-1,0.4c-0.2,0.2-0.3,0.5-0.3,1
					c0,0.4,0.1,0.7,0.4,1c0.2,0.3,0.6,0.4,1.1,0.4c0.3,0,0.7-0.1,1.1-0.3V50c-0.3,0.2-0.7,0.3-1.2,0.3c-0.6,0-1.1-0.2-1.5-0.6
					c-0.4-0.4-0.6-0.8-0.6-1.4s0.2-1.1,0.6-1.5s1-0.5,1.5-0.5s1,0.1,1.4,0.4c0.4,0.3,0.6,0.6,0.7,1.1c0,0.2,0,0.4,0,0.7v1.6
					C110.6,50.1,109.6,50.1,109.6,50.1z"/>
				<path class="st1" d="M111.3,50.1v-3.9h0.7v0.5c0.1-0.3,0.4-0.4,0.7-0.5c0.2-0.1,0.5-0.1,1-0.1v0.6c-0.5,0-1,0.1-1.3,0.3
					c-0.2,0.2-0.3,0.6-0.3,1.2V50h-0.8V50.1z"/>
				<path class="st1" d="M118.2,48.4c-0.1,0.5-0.3,1-0.7,1.3c-0.4,0.3-0.8,0.5-1.5,0.5s-1.1-0.2-1.5-0.6c-0.4-0.4-0.6-0.8-0.6-1.4
					c0-0.5,0.2-1.1,0.6-1.4c0.4-0.4,1-0.6,1.5-0.6c0.8,0,1.6,0.4,2,1.2l-2.8,1.4l-0.3-0.5l2-1.1c-0.2-0.2-0.5-0.4-1-0.4
					s-0.7,0.1-1,0.4c-0.2,0.2-0.3,0.5-0.3,1c0,0.3,0.1,0.6,0.4,1c0.2,0.3,0.6,0.4,1,0.4c0.4,0,0.7-0.1,1-0.3
					c0.2-0.2,0.3-0.5,0.4-0.8L118.2,48.4z"/>
			</g>
		</g>
		<g>
			<g>
				<g>
					<g>
						
							<linearGradient id="SVGID_1_" gradientUnits="userSpaceOnUse" x1="99.0945" y1="39.0218" x2="122.796" y2="61.1238" gradientTransform="matrix(1 0 0 -1 7.9996 64)">
							<stop  offset="0" style="stop-color:#FF6600"/>
							<stop  offset="1" style="stop-color:#F7FB16"/>
						</linearGradient>
						<path class="st2" d="M124.6,3.1c-13.6,6.2-15.7,13.3-12.3,21C119.9,23.9,126.8,18.1,124.6,3.1z"/>
						<path class="st0" d="M112.5,24.6c1-6.5,3.4-11.4,6.6-13.1c-5,7-4.7,10.3-5,13.1H112.5z"/>
					</g>
					<g>
						<g>
							
								<linearGradient id="SVGID_2_" gradientUnits="userSpaceOnUse" x1="108.3435" y1="40.4372" x2="76.7139" y2="51.3282" gradientTransform="matrix(1 0 0 -1 7.9996 64)">
								<stop  offset="0" style="stop-color:#FF6600"/>
								<stop  offset="1" style="stop-color:#F7FB16"/>
							</linearGradient>
							<path class="st3" d="M91.2,10.9c14.6,0,19.5,5.4,19.8,13.6C104.3,27.4,95.8,25.1,91.2,10.9z"/>
						</g>
						<path class="st0" d="M111.4,24c-4.8-5.4-3.7-5.8-11.2-8.1c7,3.2,7.3,4.9,10,9.2L111.4,24z"/>
					</g>
				</g>
				<g>
					<g>
						<path class="st4" d="M39.4,34.2v-6.8c0-1.3-0.1-2.3-0.2-3c-0.1-0.6-0.3-1.2-0.6-1.5c-0.3-0.3-0.8-0.5-1.6-0.5v-1
							c1.3,0.1,2.4,0.3,3.5,0.6c1-0.3,2.1-0.5,3.4-0.6v1c-0.5,0-1.1,0.1-1.4,0.4c-0.3,0.3-0.5,0.7-0.7,1.4c-0.1,0.6-0.2,1.4-0.3,2.2
							c0,0.8-0.1,2.1-0.1,3.7v6.2c0,0.6,0,2.1,0.1,4.2l-1.1-0.3l-1.7,0.1c-1-1.3-1.9-2.4-3-3.8c-1-1.3-1.9-2.4-2.7-3.4
							c-0.7-1-1.7-2.1-2.7-3.3c-1.1-1.3-1.9-2.3-2.8-3.2v3.6c0,1.1,0,2.1,0,3.3c0,1.2,0.1,2.1,0.1,2.8c0,0.6,0.1,1.1,0.2,1.4
							c0.2,1,1.1,1.5,2.4,1.6v0.8c-0.4,0-0.8-0.1-1.3-0.1c-0.4-0.1-1-0.1-1.4-0.2c-0.5-0.1-0.8-0.2-1.2-0.2
							c-1.3,0.3-2.4,0.5-3.5,0.6v-0.8c0.7,0,1.4-0.2,1.7-0.6c0.3-0.4,0.6-1.1,0.7-1.9s0.1-2,0.1-3.7v-4.7c0-1.6,0-2.8-0.1-3.5
							c-0.1-0.7-0.3-1.4-0.6-1.7c-0.3-0.4-1-0.6-1.7-0.7v-1c1,0,2,0.2,3.2,0.5c1.1-0.4,1.8-0.5,2.2-0.5c0.2,0,0.6,0.2,1.1,0.8
							c0.5,0.5,1.4,1.6,2.5,3.3c1.3,1.6,2.3,3,3.3,4.1C36.4,30.9,37.7,32.4,39.4,34.2L39.4,34.2z M58.1,27.2l0.7,0.4
							c-0.2,1.3-0.2,2.5-0.2,3.9v3c0,0.8,0,1.6,0.1,2.1c0.1,0.5,0.3,1,0.5,1.3c0.2,0.3,0.5,0.4,1,0.4c0,0,0.2,0,0.5,0l0.1,1
							c-1,0.3-2.1,0.4-3.6,0.4h-0.4c-0.5,0.2-0.8,0.5-1.3,0.8L55,39.9c-0.1-0.5-0.2-1.2-0.2-2c-0.2,0.5-0.5,1-1,1.4
							c-0.4,0.4-1,0.6-1.6,0.8c-0.6,0.2-1.3,0.3-2,0.3c-0.8,0-1.5-0.1-2-0.4c-0.5-0.2-1-0.6-1.3-1.2s-0.5-1.2-0.6-1.9
							c-0.1-0.7-0.2-1.7-0.2-2.7v-1.6c0-1,0-1.6-0.1-2c0-0.4-0.2-0.7-0.4-0.8c-0.2-0.2-0.5-0.3-1.1-0.3v-0.8
							c1.2-0.2,2.4-0.3,3.6-0.3c0.4-0.4,1-0.7,1.5-1.1l0.7,0.5c-0.1,1-0.2,2.5-0.2,4.9v1.4c0,1.1,0.1,2,0.2,2.7
							c0.1,0.6,0.3,1.2,0.6,1.5c0.3,0.3,0.7,0.5,1.2,0.5c0.7,0,1.3-0.3,1.7-1c0.4-0.6,0.6-1.6,0.6-2.9V33c0-1,0-1.7-0.1-2.1
							c0-0.4-0.2-0.7-0.4-1c-0.2-0.2-0.5-0.3-1.1-0.3v-0.8c1.1-0.2,2.1-0.3,3.2-0.3h0.4C57.2,27.8,57.6,27.5,58.1,27.2z"/>
						<path class="st5" d="M39.4,34.2v-6.8c0-1.3-0.1-2.3-0.2-3c-0.1-0.6-0.3-1.2-0.6-1.5c-0.3-0.3-0.8-0.5-1.6-0.5v-1
							c1.3,0.1,2.4,0.3,3.5,0.6c1-0.3,2.1-0.5,3.4-0.6v1c-0.5,0-1.1,0.1-1.4,0.4c-0.3,0.3-0.5,0.7-0.7,1.4c-0.1,0.6-0.2,1.4-0.3,2.2
							c0,0.8-0.1,2.1-0.1,3.7v6.2c0,0.6,0,2.1,0.1,4.2l-1.1-0.3l-1.7,0.1c-1-1.3-1.9-2.4-3-3.8c-1-1.3-1.9-2.4-2.7-3.4
							c-0.7-1-1.7-2.1-2.7-3.3c-1.1-1.3-1.9-2.3-2.8-3.2v3.6c0,1.1,0,2.1,0,3.3c0,1.2,0.1,2.1,0.1,2.8c0,0.6,0.1,1.1,0.2,1.4
							c0.2,1,1.1,1.5,2.4,1.6v0.8c-0.4,0-0.8-0.1-1.3-0.1c-0.4-0.1-1-0.1-1.4-0.2c-0.5-0.1-0.8-0.2-1.2-0.2
							c-1.3,0.3-2.4,0.5-3.5,0.6v-0.8c0.7,0,1.4-0.2,1.7-0.6c0.3-0.4,0.6-1.1,0.7-1.9s0.1-2,0.1-3.7v-4.7c0-1.6,0-2.8-0.1-3.5
							c-0.1-0.7-0.3-1.4-0.6-1.7c-0.3-0.4-1-0.6-1.7-0.7v-1c1,0,2,0.2,3.2,0.5c1.1-0.4,1.8-0.5,2.2-0.5c0.2,0,0.6,0.2,1.1,0.8
							c0.5,0.5,1.4,1.6,2.5,3.3c1.3,1.6,2.3,3,3.3,4.1C36.4,30.9,37.7,32.4,39.4,34.2L39.4,34.2z M58.1,27.2l0.7,0.4
							c-0.2,1.3-0.2,2.5-0.2,3.9v3c0,0.8,0,1.6,0.1,2.1c0.1,0.5,0.3,1,0.5,1.3c0.2,0.3,0.5,0.4,1,0.4c0,0,0.2,0,0.5,0l0.1,1
							c-1,0.3-2.1,0.4-3.6,0.4h-0.4c-0.5,0.2-0.8,0.5-1.3,0.8L55,39.9c-0.1-0.5-0.2-1.2-0.2-2c-0.2,0.5-0.5,1-1,1.4
							c-0.4,0.4-1,0.6-1.6,0.8c-0.6,0.2-1.3,0.3-2,0.3c-0.8,0-1.5-0.1-2-0.4c-0.5-0.2-1-0.6-1.3-1.2s-0.5-1.2-0.6-1.9
							c-0.1-0.7-0.2-1.7-0.2-2.7v-1.6c0-1,0-1.6-0.1-2c0-0.4-0.2-0.7-0.4-0.8c-0.2-0.2-0.5-0.3-1.1-0.3v-0.8
							c1.2-0.2,2.4-0.3,3.6-0.3c0.4-0.4,1-0.7,1.5-1.1l0.7,0.5c-0.1,1-0.2,2.5-0.2,4.9v1.4c0,1.1,0.1,2,0.2,2.7
							c0.1,0.6,0.3,1.2,0.6,1.5c0.3,0.3,0.7,0.5,1.2,0.5c0.7,0,1.3-0.3,1.7-1c0.4-0.6,0.6-1.6,0.6-2.9V33c0-1,0-1.7-0.1-2.1
							c0-0.4-0.2-0.7-0.4-1c-0.2-0.2-0.5-0.3-1.1-0.3v-0.8c1.1-0.2,2.1-0.3,3.2-0.3h0.4C57.2,27.8,57.6,27.5,58.1,27.2z"/>
					</g>
					<g>
						<path class="st6" d="M68.5,29.5c0.4,0,0.6,0,0.7,0c1.1,0,1.8-0.3,2.3-0.8c0.5-0.5,0.8-1.4,0.8-2.4c0-0.7-0.1-1.5-0.4-2
							c-0.2-0.5-0.6-1-1.1-1.3s-1.1-0.4-1.7-0.4c-0.2,0-0.4,0-0.7,0.1c-0.1,0.5-0.1,1.4-0.1,2.4v4.5H68.5z M73,29.8v0.1
							c1.8,0.1,3.2,0.6,4.1,1.5c1,0.8,1.5,2,1.5,3.5c0,1.1-0.3,2-0.8,2.9s-1.5,1.4-2.5,1.8c-1.2,0.4-2.5,0.6-4.1,0.6
							c-1.9,0-3.5-0.2-5-0.7c-1.4,0.4-2.9,0.6-4.4,0.7v-0.8c0.7-0.1,1.3-0.3,1.6-0.6s0.5-0.8,0.6-1.6c0.1-0.6,0.1-1.7,0.1-3v-6.3
							c0-1.4,0-2.4-0.1-3.1c-0.1-0.6-0.3-1.3-0.6-1.6c-0.3-0.4-0.8-0.6-1.6-0.7v-0.8c1.5,0.1,3,0.3,4.4,0.7c1.5-0.5,3.1-0.7,4.9-0.7
							c1.1,0,1.9,0.1,2.8,0.2c0.7,0.2,1.5,0.4,1.9,0.7c0.5,0.3,1,0.7,1.2,1.3c0.2,0.5,0.4,1.1,0.4,1.8c0,0.7-0.2,1.4-0.5,1.9
							s-0.7,1.1-1.5,1.5C74.6,29.3,73.8,29.6,73,29.8L73,29.8z M68.5,30.7v4.9c0,0.6,0,1.2,0.1,1.6c0,0.4,0.1,0.7,0.2,1.1
							c0.1,0.3,0.3,0.5,0.5,0.6c0.2,0.1,0.6,0.2,1.1,0.2c1,0,1.8-0.3,2.3-1c0.5-0.6,0.8-1.6,0.8-2.8c0-3.1-1.5-4.6-4.4-4.6
							c-0.1,0-0.2,0-0.3,0C68.7,30.7,68.6,30.7,68.5,30.7L68.5,30.7z M88.1,31.6c0.3,0,0.4,0,0.5-0.1s0.1-0.2,0.1-0.4
							c0-0.7-0.2-1.4-0.6-1.9c-0.4-0.5-1-0.8-1.5-0.8c-0.6,0-1.1,0.2-1.5,0.7c-0.2,0.6-0.4,1.3-0.4,2.1c0,0.1,0,0.2,0,0.2
							c0,0.1,0,0.1,0,0.2L88.1,31.6L88.1,31.6z M92.6,32.8H86c-0.3,0-0.6,0-0.7,0.1C85.1,33,85,33,85,33.2c-0.1,0.1-0.1,0.3-0.1,0.5
							c0,0.8,0.2,1.7,0.5,2.4c0.3,0.7,0.8,1.3,1.6,1.7c0.6,0.4,1.4,0.6,2.2,0.6c0.6,0,1.2-0.1,1.8-0.3c0.6-0.2,1.2-0.5,1.7-1.1
							l0.4,0.8c-0.6,0.7-1.5,1.4-2.5,1.9c-1.1,0.4-2.2,0.6-3.6,0.6c-1,0-1.8-0.1-2.7-0.4c-0.7-0.3-1.5-0.7-2-1.3
							c-0.5-0.5-1-1.3-1.3-2c-0.3-0.7-0.4-1.7-0.4-2.7c0-1.3,0.3-2.4,0.8-3.5c0.5-1.1,1.4-1.9,2.4-2.4c1.1-0.5,2.1-0.8,3.4-0.8
							c1.1,0,2,0.2,2.9,0.6c0.8,0.4,1.5,1.1,1.9,1.8s0.7,1.5,0.7,2.4C92.6,32.3,92.6,32.5,92.6,32.8L92.6,32.8z M104.5,29.8
							c0.1,0.5,0.2,1.2,0.2,1.7h-1.1c-0.1-0.6-0.4-1.3-0.6-1.7c-0.3-0.4-0.6-0.8-1.1-1.1c-0.4-0.2-0.8-0.3-1.4-0.3s-1,0.1-1.3,0.4
							c-0.3,0.2-0.5,0.6-0.5,1.1c0,0.3,0.1,0.6,0.3,0.8c0.2,0.2,0.4,0.4,0.8,0.6s0.8,0.4,1.5,0.6c1,0.4,1.8,0.7,2.3,1.2
							c0.5,0.3,1,0.7,1.3,1.3c0.3,0.5,0.4,1.1,0.4,1.8c0,1.3-0.5,2.3-1.6,3.1s-2.5,1.1-4.5,1.1c-1.5,0-2.5-0.1-3.4-0.4
							c-0.8-0.3-1.2-0.7-1.2-1.2c0-0.2,0.1-0.5,0.3-0.8C95,37.2,95,36.4,95,35.7h1.2c0.1,0.7,0.2,1.5,0.5,2c0.3,0.5,0.7,1,1.2,1.3
							c0.5,0.3,1.1,0.4,1.7,0.4s1.2-0.1,1.6-0.4c0.4-0.3,0.5-0.7,0.5-1.3c0-0.3-0.1-0.6-0.2-0.8s-0.3-0.4-0.6-0.5
							c-0.2-0.1-0.6-0.3-1.1-0.5c-0.4-0.2-1-0.3-1.4-0.5c-1.2-0.5-2-1.1-2.5-1.7c-0.5-0.6-0.7-1.4-0.7-2.2c0-0.8,0.2-1.5,0.6-2.1
							s1.1-1.1,1.9-1.4c0.8-0.3,1.8-0.4,3.1-0.4c0.8,0,1.6,0.1,2.2,0.2s1.2,0.3,1.6,0.5c0.3,0.2,0.5,0.5,0.5,0.7
							C104.8,29.2,104.7,29.4,104.5,29.8L104.5,29.8z M111,24.6h1.9v3.7h2.8v1.6l-2.8-0.1v5.5c0,1.1,0.1,1.9,0.4,2.4
							s0.7,0.7,1.5,0.7c0.6,0,1.2-0.2,1.8-0.8l0.5,1c-1.2,1.2-2.5,1.8-4.2,1.8c-1,0-1.7-0.1-2.2-0.4c-0.5-0.3-1-0.6-1.3-1.2
							c-0.3-0.5-0.5-1.2-0.6-1.9c-0.1-0.7-0.1-1.7-0.1-2.8v-4.4h-1.4v-1.1c1.2-0.1,2-0.5,2.7-1.2C110.4,26.9,110.9,25.9,111,24.6z"
							/>
						<path class="st7" d="M86.7,40.4v-2.7l0.1,0.1c0.6,0.4,1.4,0.6,2.2,0.6c0.6,0,1.2-0.1,1.8-0.3s1.2-0.5,1.7-1.1l0.4,0.8
							c-0.6,0.7-1.5,1.4-2.5,1.9c-1.1,0.4-2.2,0.6-3.6,0.6h-0.1V40.4z M86.7,32.8v-1.2h1.4c0.3,0,0.4,0,0.5-0.1s0.1-0.2,0.1-0.4
							c0-0.7-0.2-1.4-0.6-1.9c-0.4-0.5-0.8-0.7-1.4-0.8v-1.2c0.1,0,0.3,0,0.4,0c1.1,0,2,0.2,2.9,0.6c0.8,0.4,1.5,1.1,1.9,1.8
							s0.7,1.5,0.7,2.4c0,0.2,0,0.4,0,0.7H86.7L86.7,32.8z M104.5,29.8c0.1,0.5,0.2,1.2,0.2,1.7h-1.1c-0.1-0.6-0.4-1.3-0.6-1.7
							c-0.3-0.4-0.6-0.8-1.1-1.1c-0.4-0.2-0.8-0.3-1.4-0.3s-1,0.1-1.3,0.4c-0.3,0.2-0.5,0.6-0.5,1.1c0,0.3,0.1,0.6,0.3,0.8
							c0.2,0.2,0.4,0.4,0.8,0.6s0.8,0.4,1.5,0.6c1,0.4,1.8,0.7,2.3,1.2c0.5,0.3,1,0.7,1.3,1.3c0.3,0.5,0.4,1.1,0.4,1.8
							c0,1.3-0.5,2.3-1.6,3.1s-2.5,1.1-4.5,1.1c-1.5,0-2.5-0.1-3.4-0.4c-0.8-0.3-1.2-0.7-1.2-1.2c0-0.2,0.1-0.5,0.3-0.8
							C95,37.2,95,36.4,95,35.7h1.2c0.1,0.7,0.2,1.5,0.5,2c0.3,0.5,0.7,1,1.2,1.3c0.5,0.3,1.1,0.4,1.7,0.4s1.2-0.1,1.6-0.4
							c0.4-0.3,0.5-0.7,0.5-1.3c0-0.3-0.1-0.6-0.2-0.8s-0.3-0.4-0.6-0.5c-0.2-0.1-0.6-0.3-1.1-0.5c-0.4-0.2-1-0.3-1.4-0.5
							c-1.2-0.5-2-1.1-2.5-1.7c-0.5-0.6-0.7-1.4-0.7-2.2c0-0.8,0.2-1.5,0.6-2.1s1.1-1.1,1.9-1.4c0.8-0.3,1.8-0.4,3.1-0.4
							c0.8,0,1.6,0.1,2.2,0.2s1.2,0.3,1.6,0.5c0.3,0.2,0.5,0.5,0.5,0.7C104.8,29.2,104.7,29.4,104.5,29.8L104.5,29.8z M111,24.6h1.9
							v3.7h2.8v1.6l-2.8-0.1v5.5c0,1.1,0.1,1.9,0.4,2.4s0.7,0.7,1.5,0.7c0.6,0,1.2-0.2,1.8-0.8l0.5,1c-1.2,1.2-2.5,1.8-4.2,1.8
							c-1,0-1.7-0.1-2.2-0.4c-0.5-0.3-1-0.6-1.3-1.2c-0.3-0.5-0.5-1.2-0.6-1.9c-0.1-0.7-0.1-1.7-0.1-2.8v-4.4h-1.4v-1.1
							c1.2-0.1,2-0.5,2.7-1.2C110.4,26.9,110.9,25.9,111,24.6z M70.4,29.4c0.4-0.1,0.8-0.3,1.2-0.7c0.5-0.5,0.8-1.4,0.8-2.4
							c0-0.7-0.1-1.5-0.4-2c-0.2-0.5-0.6-1-1.1-1.3c-0.2-0.1-0.3-0.2-0.5-0.2v-1.4c0.1,0,0.3,0,0.4,0c1.1,0,1.9,0.1,2.8,0.2
							c0.7,0.2,1.5,0.4,1.9,0.7c0.5,0.3,1,0.7,1.2,1.3c0.2,0.5,0.4,1.1,0.4,1.8s-0.2,1.4-0.5,1.9c-0.3,0.5-0.7,1.1-1.5,1.5
							c-0.6,0.4-1.4,0.7-2.3,1v0.1c1.8,0.1,3.2,0.6,4.1,1.5c1,0.8,1.5,2,1.5,3.5c0,1.1-0.3,2-0.8,2.9c-0.5,0.8-1.5,1.4-2.5,1.8
							c-1.2,0.4-2.5,0.6-4.1,0.6c-0.2,0-0.3,0-0.5,0V39c1,0,1.7-0.3,2.2-1c0.5-0.6,0.8-1.6,0.8-2.8c0-2.5-1.1-4-3.1-4.5v-1.4H70.4z
							 M86.7,27.3v1.2h-0.1c-0.6,0-1.1,0.2-1.5,0.7c-0.2,0.5-0.4,1.2-0.4,2c0,0.1,0,0.2,0,0.2c0,0.1,0,0.1,0,0.2h2v1.2h-0.7
							c-0.3,0-0.6,0-0.7,0.1C85,33,84.9,33,84.9,33.2c-0.1,0.1-0.1,0.3-0.1,0.5c0,0.8,0.2,1.7,0.5,2.4c0.3,0.6,0.8,1.3,1.4,1.7v2.7
							c-1,0-1.7-0.2-2.5-0.4c-0.7-0.3-1.5-0.7-2-1.3c-0.5-0.5-1-1.3-1.3-2c-0.3-0.7-0.4-1.7-0.4-2.7c0-1.3,0.3-2.4,0.8-3.5
							c0.5-1.1,1.4-1.9,2.4-2.4C84.7,27.6,85.6,27.3,86.7,27.3z M68.5,29.5c0.4,0,0.6,0,0.7,0c0.4,0,0.8,0,1.2-0.1v1.4
							c-0.4-0.1-0.8-0.1-1.3-0.1c-0.1,0-0.2,0-0.3,0c-0.1,0-0.2,0-0.3,0v4.9c0,0.6,0,1.2,0.1,1.6c0,0.4,0.1,0.7,0.2,1.1
							c0.1,0.3,0.3,0.5,0.5,0.6c0.2,0.1,0.6,0.2,1.1,0.2h0.2v1.2c-1.7,0-3.2-0.3-4.5-0.7c-1.4,0.4-2.9,0.6-4.4,0.7v-0.8
							c0.7-0.1,1.3-0.3,1.6-0.6c0.3-0.3,0.5-0.8,0.6-1.6c0.1-0.6,0.1-1.7,0.1-3v-6.3c0-1.4,0-2.4-0.1-3.1c-0.1-0.6-0.3-1.3-0.6-1.6
							c-0.3-0.4-0.8-0.6-1.6-0.7v-0.8c1.5,0.1,3,0.3,4.4,0.7c1.3-0.5,2.8-0.7,4.5-0.7V23c-0.3-0.1-0.7-0.2-1.2-0.2
							c-0.2,0-0.4,0-0.7,0.1c-0.1,0.5-0.1,1.4-0.1,2.4v4.1H68.5z"/>
					</g>
				</g>
			</g>
			<g>
				<g>
					<path class="st7" d="M118.3,29.9l0.1-1.9h0.7c0.2,0,0.3,0,0.4,0.1c0.1,0,0.1,0.1,0.2,0.2c0,0.1,0.1,0.2,0.1,0.3s0,0.2-0.1,0.3
						c-0.1,0.1-0.2,0.1-0.3,0.1c0.1,0,0.1,0.1,0.2,0.2c0,0.1,0.1,0.2,0.2,0.3l0.2,0.4h-0.4l-0.2-0.4c-0.1-0.1-0.1-0.2-0.2-0.3
						l-0.1-0.1c0,0-0.1,0-0.2,0h-0.1v0.7L118.3,29.9z M118.7,28.9h0.3c0.2,0,0.3,0,0.3,0s0.1,0,0.1-0.1v-0.1c0-0.1,0-0.1,0-0.1
						l-0.1-0.1c0,0-0.1,0-0.3,0h-0.3V28.9z"/>
				</g>
				<path class="st7" d="M118.9,27.6L118.9,27.6c-0.2,0-0.5,0.1-0.7,0.2s-0.4,0.3-0.5,0.5c-0.1,0.2-0.2,0.4-0.2,0.7
					c0,0.2,0.1,0.5,0.2,0.7c0.1,0.2,0.3,0.4,0.5,0.5c0.2,0.1,0.5,0.2,0.7,0.2s0.5-0.1,0.7-0.2c0.2-0.1,0.4-0.3,0.5-0.5
					c0.1-0.2,0.2-0.4,0.2-0.7c0-0.2-0.1-0.5-0.2-0.7c-0.1-0.2-0.3-0.4-0.5-0.5S119.3,27.6,118.9,27.6 M118.9,27.3
					c0.3,0,0.6,0.1,1,0.2c0.3,0.1,0.5,0.4,0.6,0.6c0.2,0.3,0.2,0.6,0.2,0.8c0,0.3-0.1,0.6-0.2,0.8c-0.2,0.3-0.4,0.5-0.7,0.6
					c-0.3,0.2-0.6,0.2-1,0.2c-0.3,0-0.6-0.1-1-0.2s-0.5-0.4-0.6-0.6c-0.2-0.3-0.2-0.5-0.2-0.8c0-0.3,0.1-0.6,0.2-0.8
					c0.2-0.3,0.4-0.5,0.6-0.6C118.3,27.4,118.6,27.3,118.9,27.3z"/>
			</g>
		</g>
	</g>
</g>
</svg>
