<?xml version="1.0" encoding="utf-8"?>
<!-- Generator: Adobe Illustrator 21.0.0, SVG Export Plug-In . SVG Version: 6.00 Build 0)  -->
<svg version="1.1" id="Layer_1" xmlns="http://www.w3.org/2000/svg" xmlns:xlink="http://www.w3.org/1999/xlink" x="0px" y="0px"
	 width="150px" height="55px" viewBox="0 0 150 55" style="enable-background:new 0 0 150 55;" xml:space="preserve">
<style type="text/css">
	.st0{fill:#FFFFFF;}
	.st1{stroke:#FFFFFF;stroke-width:1.0729;stroke-linejoin:round;stroke-miterlimit:22.9256;}
</style>
<g>
	<rect class="st0" width="150" height="55"/>
	<g>
		<g>
			<path class="st1" d="M42.6,26.2V13.7v-0.3c0-0.3,0-0.5,0.1-0.8c0.1-0.3,0.3-0.3,0.5-0.3c0.4,0,0.5,0.1,0.6,0.3
				c0,0.3,0.1,0.5,0.1,0.9v5.7v12.7v9.9c-3.8-2.4-8-4.9-12.5-7.6c-3.8-2.2-8-4.4-12.8-7.1v13c0,0.3-0.1,0.4-0.3,0.5
				c-0.1,0.1-0.4,0.3-0.5,0.3c-0.3,0-0.5-0.3-0.6-0.6V11.6c3,1.9,6.2,3.8,9.6,5.7c2.9,1.6,6.2,3.5,9.9,5.6L42.6,26.2L42.6,26.2z
				 M57,37.7V23.3h8.1v17.3H57v-1.9c-0.4,0.1-0.9,0.5-1.6,1c-1.3,0.9-2.3,1.3-3,1.3c-2.3,0-3.8-0.5-4.7-1.5c-0.9-1-1.4-2.7-1.4-4.9
				V23.4h8.1l-0.1,4.8v7.7c0,1.1,0,1.9,0.1,2c0.1,0.3,0.5,0.4,1,0.4c0.1,0,0.4,0,0.6-0.1C56.5,38,56.8,37.8,57,37.7L57,37.7z
				 M77,24.2v16.5h-8.1V24.2l-0.5,0.1h-1c-0.4,0-0.6-0.1-0.6-0.5s0.3-0.5,0.6-0.5h1.6c0.3-1.9,1.1-3.4,2.4-4.3
				c1.3-0.8,2.9-1.3,4.9-1.3c1.1,0,2.2,0.1,3.2,0.5c0.9,0.4,1.4,0.8,1.4,1.3c0,0.5-0.3,0.8-0.8,0.8c-0.3,0-0.5-0.1-0.9-0.5
				c-0.4-0.4-0.6-0.5-0.9-0.5c-0.5,0-0.9,0.3-1.1,0.9c-0.3,0.6-0.4,1.6-0.4,3.3h2.4c0.4,0,0.6,0.1,0.6,0.5c0,0.4-0.3,0.5-0.8,0.5H77
				V24.2z M93.7,30.2v-3c0-1.3-0.1-2.2-0.5-2.5s-1.1-0.5-2.3-0.5c-1.3,0-2.3,0.3-3.2,0.9c-0.8,0.6-1.6,1.4-2.4,2
				c-0.3,0-0.4-0.1-0.5-0.3c-0.1-0.1-0.3-0.4-0.3-0.6c0-0.6,0.6-1.4,2-2c0.6-0.4,1.4-0.6,2.3-0.8c0.9-0.1,1.9-0.3,3-0.3
				c1.9,0,3.7,0.3,5.2,0.6c1.6,0.4,2.7,1.1,3.3,2c0.5,0.8,0.8,2.3,0.8,4.2v6.3l-0.1,1.8c0,0.6,0,1,0.1,1.4c0.1,0.3,0.3,0.6,0.5,1.1
				h-8v-1.5c-0.9,0.6-1.8,1.1-2.7,1.5c-0.9,0.3-1.8,0.5-2.7,0.5c-1.6,0-3-0.6-4.2-1.8s-1.8-2.5-1.8-4.3s0.6-3.2,1.9-4.3
				c1.3-1.1,2.9-1.6,4.9-1.6c0.9,0,1.6,0.1,2.2,0.3C92.2,29.5,92.8,29.7,93.7,30.2L93.7,30.2z M93.7,31.2c-0.5-0.4-1-0.5-1.4-0.6
				c-0.5-0.3-1-0.3-1.4-0.3c-0.5,0-0.9,0.1-1,0.5c-0.1,0.4-0.3,1.1-0.3,2.5V38c0,0.5,0.1,0.9,0.3,1.1c0.1,0.3,0.5,0.3,0.9,0.3
				c0.4,0,0.9-0.1,1.4-0.4c0.5-0.3,1-0.6,1.5-1.1L93.7,31.2L93.7,31.2z M111.3,18.8v21.6h-8.1V18.8H111.3L111.3,18.8z M124.7,30.2
				v-3c0-1.3-0.1-2.2-0.5-2.5s-1.1-0.5-2.3-0.5c-1.3,0-2.3,0.3-3.2,0.9c-0.8,0.6-1.6,1.4-2.4,2c-0.3,0-0.4-0.1-0.5-0.3
				c-0.1-0.1-0.3-0.4-0.3-0.6c0-0.6,0.6-1.4,2-2c0.6-0.4,1.4-0.6,2.3-0.8c0.9-0.1,1.9-0.3,3-0.3c1.9,0,3.7,0.3,5.2,0.6
				c1.6,0.4,2.7,1.1,3.3,2c0.5,0.8,0.8,2.3,0.8,4.2v6.3l-0.1,1.8c0,0.6,0,1,0.1,1.4c0.1,0.3,0.3,0.6,0.5,1.1h-8v-1.5
				c-0.9,0.6-1.8,1.1-2.7,1.5c-0.9,0.3-1.8,0.5-2.7,0.5c-1.6,0-3-0.6-4.2-1.8s-1.8-2.5-1.8-4.3s0.6-3.2,1.9-4.3
				c1.3-1.1,2.9-1.6,4.9-1.6c0.9,0,1.6,0.1,2.2,0.3C123.1,29.5,123.9,29.7,124.7,30.2L124.7,30.2z M124.7,31.2
				c-0.5-0.4-1-0.5-1.4-0.6c-0.5-0.3-1-0.3-1.4-0.3c-0.5,0-0.9,0.1-1,0.5c-0.1,0.4-0.3,1.1-0.3,2.5V38c0,0.5,0.1,0.9,0.3,1.1
				c0.1,0.3,0.5,0.3,0.9,0.3c0.4,0,0.9-0.1,1.4-0.4s1-0.6,1.5-1.1L124.7,31.2L124.7,31.2z"/>
			<path d="M42.6,26.2V13.7v-0.3c0-0.3,0-0.5,0.1-0.8c0.1-0.3,0.3-0.3,0.5-0.3c0.4,0,0.5,0.1,0.6,0.3c0,0.3,0.1,0.5,0.1,0.9v5.7
				v12.7v9.9c-3.8-2.4-8-4.9-12.5-7.6c-3.8-2.2-8-4.4-12.8-7.1v13c0,0.3-0.1,0.4-0.3,0.5c-0.1,0.1-0.4,0.3-0.5,0.3
				c-0.3,0-0.5-0.3-0.6-0.6V11.6c3,1.9,6.2,3.8,9.6,5.7c2.9,1.6,6.2,3.5,9.9,5.6L42.6,26.2L42.6,26.2z M57,37.7V23.3h8.1v17.3H57
				v-1.9c-0.4,0.1-0.9,0.5-1.6,1c-1.3,0.9-2.3,1.3-3,1.3c-2.3,0-3.8-0.5-4.7-1.5c-0.9-1-1.4-2.7-1.4-4.9V23.4h8.1l-0.1,4.8v7.7
				c0,1.1,0,1.9,0.1,2c0.1,0.3,0.5,0.4,1,0.4c0.1,0,0.4,0,0.6-0.1C56.5,38,56.8,37.8,57,37.7L57,37.7z M77,24.2v16.5h-8.1V24.2
				l-0.5,0.1h-1c-0.4,0-0.6-0.1-0.6-0.5s0.3-0.5,0.6-0.5h1.6c0.3-1.9,1.1-3.4,2.4-4.3c1.3-0.8,2.9-1.3,4.9-1.3
				c1.1,0,2.2,0.1,3.2,0.5c0.9,0.4,1.4,0.8,1.4,1.3c0,0.5-0.3,0.8-0.8,0.8c-0.3,0-0.5-0.1-0.9-0.5c-0.4-0.4-0.6-0.5-0.9-0.5
				c-0.5,0-0.9,0.3-1.1,0.9c-0.3,0.6-0.4,1.6-0.4,3.3h2.4c0.4,0,0.6,0.1,0.6,0.5c0,0.4-0.3,0.5-0.8,0.5H77V24.2z M93.7,30.2v-3
				c0-1.3-0.1-2.2-0.5-2.5s-1.1-0.5-2.3-0.5c-1.3,0-2.3,0.3-3.2,0.9c-0.8,0.6-1.6,1.4-2.4,2c-0.3,0-0.4-0.1-0.5-0.3
				c-0.1-0.1-0.3-0.4-0.3-0.6c0-0.6,0.6-1.4,2-2c0.6-0.4,1.4-0.6,2.3-0.8c0.9-0.1,1.9-0.3,3-0.3c1.9,0,3.7,0.3,5.2,0.6
				c1.6,0.4,2.7,1.1,3.3,2c0.5,0.8,0.8,2.3,0.8,4.2v6.3l-0.1,1.8c0,0.6,0,1,0.1,1.4c0.1,0.3,0.3,0.6,0.5,1.1h-8v-1.5
				c-0.9,0.6-1.8,1.1-2.7,1.5c-0.9,0.3-1.8,0.5-2.7,0.5c-1.6,0-3-0.6-4.2-1.8s-1.8-2.5-1.8-4.3s0.6-3.2,1.9-4.3
				c1.3-1.1,2.9-1.6,4.9-1.6c0.9,0,1.6,0.1,2.2,0.3C92.2,29.5,92.8,29.7,93.7,30.2L93.7,30.2z M93.7,31.2c-0.5-0.4-1-0.5-1.4-0.6
				c-0.5-0.3-1-0.3-1.4-0.3c-0.5,0-0.9,0.1-1,0.5c-0.1,0.4-0.3,1.1-0.3,2.5V38c0,0.5,0.1,0.9,0.3,1.1c0.1,0.3,0.5,0.3,0.9,0.3
				c0.4,0,0.9-0.1,1.4-0.4c0.5-0.3,1-0.6,1.5-1.1L93.7,31.2L93.7,31.2z M111.3,18.8v21.6h-8.1V18.8H111.3L111.3,18.8z M124.7,30.2
				v-3c0-1.3-0.1-2.2-0.5-2.5s-1.1-0.5-2.3-0.5c-1.3,0-2.3,0.3-3.2,0.9c-0.8,0.6-1.6,1.4-2.4,2c-0.3,0-0.4-0.1-0.5-0.3
				c-0.1-0.1-0.3-0.4-0.3-0.6c0-0.6,0.6-1.4,2-2c0.6-0.4,1.4-0.6,2.3-0.8c0.9-0.1,1.9-0.3,3-0.3c1.9,0,3.7,0.3,5.2,0.6
				c1.6,0.4,2.7,1.1,3.3,2c0.5,0.8,0.8,2.3,0.8,4.2v6.3l-0.1,1.8c0,0.6,0,1,0.1,1.4c0.1,0.3,0.3,0.6,0.5,1.1h-8v-1.5
				c-0.9,0.6-1.8,1.1-2.7,1.5c-0.9,0.3-1.8,0.5-2.7,0.5c-1.6,0-3-0.6-4.2-1.8s-1.8-2.5-1.8-4.3s0.6-3.2,1.9-4.3
				c1.3-1.1,2.9-1.6,4.9-1.6c0.9,0,1.6,0.1,2.2,0.3C123.1,29.5,123.9,29.7,124.7,30.2L124.7,30.2z M124.7,31.2
				c-0.5-0.4-1-0.5-1.4-0.6c-0.5-0.3-1-0.3-1.4-0.3c-0.5,0-0.9,0.1-1,0.5c-0.1,0.4-0.3,1.1-0.3,2.5V38c0,0.5,0.1,0.9,0.3,1.1
				c0.1,0.3,0.5,0.3,0.9,0.3c0.4,0,0.9-0.1,1.4-0.4s1-0.6,1.5-1.1L124.7,31.2L124.7,31.2z"/>
			<path d="M42.6,26.2V13.7v-0.3c0-0.3,0-0.5,0.1-0.8c0.1-0.3,0.3-0.3,0.5-0.3c0.4,0,0.5,0.1,0.6,0.3c0,0.3,0.1,0.5,0.1,0.9v5.7v10
				c-7.1-1.1-14.2-1.6-21.3,0c-1.3-0.8-2.7-1.4-4.1-2.2v3.4c-0.5,0.1-0.9,0.4-1.4,0.5V11.6c3,1.9,6.2,3.8,9.6,5.7
				c2.9,1.6,6.2,3.5,9.9,5.6L42.6,26.2L42.6,26.2z M46.4,29.7c2.7,0.5,5.3,1,8,1.5v-3.2l0.1-4.8h-8.1L46.4,29.7L46.4,29.7z M57,31.8
				c1.5,0.3,3,0.5,4.6,0.8c1.1,0.1,2.3,0.3,3.5,0.4v-9.7H57L57,31.8L57,31.8z M68.9,33c2.5,0,5.2-0.1,8.1-0.4v-8.5h2.3
				c0.5,0,0.8-0.1,0.8-0.5c0-0.3-0.3-0.5-0.6-0.5H77c0-1.5,0.1-2.7,0.4-3.3c0.3-0.6,0.6-0.9,1.1-0.9c0.3,0,0.6,0.1,0.9,0.5
				c0.4,0.4,0.6,0.5,0.9,0.5c0.5,0,0.8-0.3,0.8-0.8s-0.5-0.9-1.4-1.3s-1.9-0.5-3.2-0.5c-2,0-3.7,0.4-4.9,1.3
				c-1.4,0.9-2.2,2.3-2.4,4.3h-1.8c-0.4,0-0.6,0.1-0.6,0.5c0,0.3,0.3,0.5,0.6,0.5h1l0.5-0.1L68.9,33L68.9,33z M83.4,32
				c2.2-0.3,4.3-0.5,6.5-0.8c0-0.3,0.1-0.4,0.1-0.5c0.1-0.4,0.5-0.5,1-0.5c0.5,0,0.9,0.1,1.4,0.3c0.3,0.1,0.5,0.1,0.8,0.4
				c1.8-0.3,3.5-0.4,5.2-0.6c0.9-0.1,1.9-0.1,2.8-0.3v-0.3c0-2-0.3-3.4-0.8-4.2c-0.5-1-1.6-1.6-3.3-2c-1.6-0.4-3.3-0.6-5.2-0.6
				c-1.1,0-2.2,0.1-3,0.3c-0.9,0.1-1.6,0.4-2.3,0.8c-1.4,0.6-2,1.4-2,2c0,0.3,0.1,0.4,0.3,0.6c0.1,0.1,0.4,0.3,0.5,0.3
				c0.8-0.6,1.5-1.3,2.4-2c0.9-0.6,2-0.9,3.2-0.9s1.9,0.1,2.3,0.5c0.4,0.4,0.5,1.3,0.5,2.5v3c-0.9-0.4-1.6-0.8-2.2-0.9
				c-0.6-0.1-1.4-0.3-2.2-0.3c-2,0-3.7,0.5-4.9,1.6C84,31.1,83.6,31.6,83.4,32L83.4,32z M103.4,30.1c2.7,0,5.4,0,8.1,0.3V19h-8.1
				V30.1L103.4,30.1z M115.5,30.6c1.8,0.1,3.5,0.4,5.2,0.5c0-0.1,0-0.1,0.1-0.3c0.1-0.4,0.5-0.5,1-0.5c0.5,0,0.9,0.1,1.4,0.3
				c0.4,0.1,0.8,0.4,1.4,0.6l0,0c2.8,0.1,5.3,0,7.3-0.4v-1c0-2-0.3-3.4-0.8-4.2c-0.5-1-1.6-1.6-3.3-2c-1.6-0.4-3.3-0.6-5.2-0.6
				c-1.1,0-2.2,0.1-3,0.3c-0.9,0.1-1.6,0.4-2.3,0.8c-1.4,0.6-2,1.4-2,2c0,0.3,0.1,0.4,0.3,0.6c0.1,0.1,0.4,0.3,0.5,0.3
				c0.8-0.6,1.5-1.3,2.4-2c0.9-0.6,2-0.9,3.2-0.9s1.9,0.1,2.3,0.5s0.5,1.3,0.5,2.5v3c-0.9-0.4-1.6-0.8-2.2-0.9
				c-0.6-0.1-1.4-0.3-2.2-0.3C118.4,29.1,116.8,29.6,115.5,30.6L115.5,30.6z"/>
		</g>
	</g>
</g>
</svg>
