<?xml version="1.0" encoding="utf-8"?>
<!-- Generator: Adobe Illustrator 21.0.0, SVG Export Plug-In . SVG Version: 6.00 Build 0)  -->
<svg version="1.1" id="Layer_1" xmlns="http://www.w3.org/2000/svg" xmlns:xlink="http://www.w3.org/1999/xlink" x="0px" y="0px"
	 width="150px" height="55px" viewBox="0 0 150 55" style="enable-background:new 0 0 150 55;" xml:space="preserve">
<style type="text/css">
	.st0{fill:#FFFFFF;}
	.st1{fill:#8F9111;}
	.st2{clip-path:url(#SVGID_2_);}
	.st3{fill:#A9D82A;}
</style>
<g>
	<rect class="st0" width="150" height="55"/>
	<g>
		<g>
			<path class="st1" d="M71.3,36.2L71,36.8c-0.1,0-0.1,0.1-0.1,0.3c0,0.1,0,0.2-0.1,0.2s-0.2,0.1-0.3,0.1h0.1h0.1v0.1
				c0,0.1-0.1,0.1-0.2,0.1s-0.1,0-0.1,0.1s0,0.1,0,0.1s0,0,0.1,0l0,0c0,0.1-0.1,0.1-0.2,0.1s-0.2,0-0.2,0c0,0.1,0,0.1,0.1,0.2
				l0.1-0.1c0,0.1,0,0.1,0,0.2c0.1,0,0.1,0,0.1,0.1s-0.1,0.1-0.1,0.1s-0.1,0-0.1-0.1c-0.1,0-0.1-0.1-0.1-0.1s-0.1,0-0.1,0.1v0.1
				c0,0.1,0.1,0.1,0.1,0.1l0.4,0.1c0.1,0,0.1,0,0.1,0.1c-0.1,0-0.2,0-0.4,0.1c0,0,0,0.1,0,0.2c0,0.1,0.1,0.1,0,0.2
				c0,0-0.1,0.1-0.2,0.2c-0.1,0.1-0.2,0.1-0.2,0.2c0,0,0,0.1,0.1,0.1v0.1l-0.1,0.5v0.1c0,0,0,0,0.1-0.1c0.2,0,0.3,0.1,0.3,0.2
				c-0.1,0.3-0.1,0.8-0.2,1.3c0,1,0.1,2.1,0.3,3.3c0,0,0.1,0.2,0.2,0.4c0.2,0.3,0.2,0.5,0.2,0.7c0,0.1,0,0.3-0.1,0.4
				c-0.3,0.8-0.8,1.2-1.5,1.2c-0.5,0-0.8-0.2-1-0.5c-0.1-0.2-0.2-0.6-0.2-1.1c0-0.6,0-1,0-1.2l-0.3-1.5c-0.2-1-0.6-2.1-1.3-3.4
				c-0.2-0.4-0.5-0.9-0.8-1.4c0,0,0,0-0.1,0v0.2L65.3,39c0.1,0.5,0.3,1.1,0.5,1.7l-0.2,2.8c0,0.6,0,1.2,0.2,1.8
				c0.1,0.2,0.3,0.8,0.7,1.7c0.1,0.4,0.2,0.8,0.1,1.3S66.4,49,66,49c-0.3,0-0.7-0.2-1.1-0.5s-0.7-0.6-0.8-0.9C64,47.4,64,47.2,64,47
				c0-0.4,0.1-1,0.4-1.7c0.3-0.8,0.5-1.4,0.5-1.7c0-0.5,0-1.6-0.2-3.1c-0.1-1.5-0.2-2.3-0.2-2.5s-0.1-0.3-0.3-0.4
				c-0.2-0.1-0.5-0.2-0.7-0.3c-0.3-0.1-0.4-0.8-0.4-2c0-1,0.1-1.6,0.4-1.8c0.1-0.1,0.3-0.1,0.4-0.1c0.4,0,0.8,0.4,1.2,1.1
				c0.1,0.1,0.3,0.6,0.7,1.5c0.2,0.4,0.5,1.2,0.9,2.3s0.6,1.7,0.6,1.9c0,0.1,0,0.1-0.1,0.2c0,0-0.1,0-0.2,0c0,0,0,0,0,0.1
				c0.1,0.1,0.3,0.4,0.6,1l0.4,1.2l0,0l0,0c0-1.7,0.4-3.5,1.2-5.4c0.8-2,1.8-3.4,2.9-4.3l1.1-0.9c0,0,0,0,0.1,0v0.1h-0.1V32h-0.1
				c-0.3,0.4-0.5,0.6-0.5,0.6c0.2,0,0.5-0.2,0.9-0.6c0.5-0.5,0.8-0.7,1-0.6c0.1,0,0.1,0.1,0.1,0.1c0,0.2-0.1,0.4-0.4,0.6
				c-1.1,0.8-1.8,1.5-2.3,2.3l-0.7,1.1c-0.2,0.2-0.4,0.4-0.6,0.7C71.1,36.1,71.2,36.2,71.3,36.2L71.3,36.2z M65.8,39.6
				c0,0,0-0.2-0.1-0.6c0,0,0,0,0.1,0V39.6C65.9,39.6,65.9,39.6,65.8,39.6z M69.9,40.6L69.9,40.6c0-0.1-0.1-0.1-0.2-0.1
				s-0.1,0-0.1,0.1C69.6,40.6,69.7,40.6,69.9,40.6z M69.7,41.7C69.7,41.7,69.7,41.8,69.7,41.7c-0.1,0.1,0,0.2,0,0.2
				C69.8,41.8,69.8,41.8,69.7,41.7z M69.7,40.3C69.7,40.3,69.7,40.3,69.7,40.3l0.1-0.2c0,0,0-0.1,0,0C69.7,40.1,69.7,40.2,69.7,40.3
				z M70,41.2l0.1-0.6c0,0,0,0-0.1,0s-0.1,0-0.2,0.1s-0.1,0.1-0.1,0.2c0,0.2,0,0.3,0.1,0.4C70,41.2,70,41.2,70,41.2z"/>
			<path class="st1" d="M74.6,44.2c0-0.1,0-0.2,0-0.2c0-0.2,0.1-0.3,0.2-0.3c0.1-0.1,0.2-0.1,0.4-0.1c0.3,0,0.5,0.1,0.8,0.2
				c0.3,0.1,0.4,0.3,0.5,0.5c0.2,0.5,0.4,1,0.6,1.5c0.4,0.8,0.7,1.1,1,1.1c0.9,0,1.8-0.6,2.6-1.9c0.2-0.4,0.4-0.5,0.5-0.5
				s0.2,0.1,0.5,0.2c0.4,0.2,0.7,0.4,1.1,0.5c0.3,0.1,0.4,0.3,0.4,0.4c0,0.1,0,0.2-0.1,0.4S83,46.3,83,46.4c0,0.6,0.1,0.9,0.2,1
				c0,0,0.1,0.1,0.2,0c0.2,0,0.6-0.1,1.1-0.2l0.8-0.3c0,0,0.1,0.1,0,0.1l-0.4,0.1c-0.5,0.2-1,0.6-1.5,1.3c-0.4,0.6-0.8,0.9-1,0.9
				c-0.3,0-0.6-0.2-0.9-0.7c-0.2-0.1-0.4-0.3-0.7-0.7c-0.1-0.1-0.1-0.2-0.1-0.3s0-0.2,0.1-0.3s0.1-0.3,0.1-0.4
				c0-0.4-0.1-0.6-0.2-0.6s-0.3,0.1-0.6,0.4c-0.7,0.5-1.1,0.7-1.1,0.8c-0.6,0.3-1.1,0.5-1.6,0.5c-0.8,0-1.5-0.4-2-1.3
				c0,0-0.2-0.2-0.4-0.4c-0.2-0.2-0.2-0.3-0.3-0.5l-0.1-0.7c0,0,0-0.1-0.1-0.1c0,0-0.4,0.2-1,0.7c-0.1,0-0.3,0.2-0.8,0.6
				c-0.2,0.1-0.4,0.2-0.6,0.2c-0.4,0-0.6-0.1-0.6-0.4c0-0.2,0.2-0.4,0.5-0.5L74.6,44.2z"/>
			<path class="st1" d="M97.1,42.9h-0.8c0,0,0,0-0.1,0l0,0c0.1,0,0.3,0,0.6,0c0.4,0.1,0.8,0.1,1.1,0c0.1,0,0.2,0,0.3,0
				c0.1,0,0.2,0.1,0.2,0.1s-0.1,0-0.4,0c-0.6,0-1.3,0-2.1,0.2c-1.3,0.2-2,0.3-2.1,0.3c0,0-0.1,0-0.1,0.1v0.1c0.3,0,0.5,0,0.4,0
				c-0.3,0.1-0.4,0.1-0.4,0.2c0,0.8-0.1,1.4-0.4,1.9c-0.2,0.3-0.6,0.8-1.2,1.4c-0.1,0.1-0.4,0.4-1,0.9s-0.9,0.8-0.9,0.8h-0.1
				l0.1-0.1v-0.1c-0.3,0-0.6,0-0.9-0.1c-0.3-0.2-0.7-0.6-1.1-1.2c-0.4-0.6-0.5-1.1-0.5-1.4c0.1-0.5,0.3-0.9,0.7-1.2
				c0.1-0.1,0.5-0.3,1.2-0.6c0.2-0.1,0.4-0.1,0.7-0.2c0.1-0.1,0.1-0.2,0-0.5s-0.5-1-1.3-2s-1.1-1.6-1.1-1.9c0.1-0.6,0.4-1.1,0.9-1.5
				c0.2-0.1,0.7-0.4,1.5-0.9c0.6-0.4,1.1-0.8,1.3-1.1c0.3-0.4,0.4-0.7,0.4-0.9s-0.1-0.3-0.3-0.3c-0.3,0-0.7,0.2-1.1,0.6
				c-1,1-1.8,2.2-2.5,3.5c-0.7,1.4-1.1,2.8-1.1,4.1c0,0.5,0.1,1.6,0.3,3.4c0.2,1.7,0.3,2.6,0.3,2.6c0,0.1-0.1,0.1-0.3,0.2
				c-0.2,0.1-0.3,0.1-0.3,0.1s0,0,0-0.1v-0.1c0-0.1,0-0.1,0-0.2c0-0.1-0.1-0.2-0.2-0.3c-0.1,0-0.1,0-0.2,0.1s-0.1,0.1-0.2,0.1
				l-0.1-0.1c-0.1,0-0.2-0.2-0.5-0.5s-0.4-0.5-0.4-0.5c0-0.4,0.1-1.1,0.3-2.2c0.2-1,0.3-1.8,0.3-2.4c0-0.3,0-0.7-0.1-1.2
				s-0.1-0.9-0.1-1.2c0,0.5,0-0.4,0.1-2.7c0-1.1,0-1.9-0.2-2.6c-0.2-0.8-0.5-1.5-1-1.9c-0.2-0.1-0.3-0.3-0.3-0.4
				c0-0.3,0.4-0.4,1.1-0.4s1.3,0.1,1.8,0.4c0.6,0.3,0.9,0.7,0.8,1.2l-0.4,2.1c0,0,0,0.1-0.1,0.3c0.4,0.4,0.4,0.5,0.4,0.6
				c0,0.1,0,0.1,0,0.1c0.1,0,0.1-0.1,0.2-0.3c0.2-0.6,0.5-1,0.7-1.2c0.2-0.1,0.4-0.4,0.8-0.9s0.7-0.8,0.9-1c0.4-0.3,0.8-0.5,1.2-0.5
				c0.4,0,0.8,0.2,1.2,0.5c0.5,0.4,0.7,0.8,0.7,1.2c0,0.5-0.3,1.1-0.9,1.7c-0.4,0.5-0.9,0.9-1.3,1.4L91,39c0.1,0.1,0.1,0.2,0.1,0.4
				h-0.2c-0.1,0-0.2,0-0.2,0.1c-0.1,0.2-0.1,0.3-0.1,0.5c0,0.5,0.4,0.9,1.2,1.4c0.9,0.5,1.4,1,1.7,1.5c0,0,0.1,0.1,0.2,0.1
				c-0.1,0,0.3,0,0.9-0.1C94.3,42.9,95.3,42.9,97.1,42.9z M89.7,47.4l0.8-2.1c0-0.1,0.1-0.2,0.1-0.2c0-0.2-0.1-0.2-0.3-0.2
				c-0.3,0-0.6,0.1-1,0.4c-0.4,0.3-0.6,0.6-0.6,1c0,0.1,0,0.1,0,0.2l0.2,0.6H89l-0.1-0.4c0-0.1,0-0.2,0.1-0.4c0-0.3,0-0.4,0-0.4
				s0,0,0,0.1c0,0.2,0,0.4,0,0.6c0,0.2,0.1,0.4,0.2,0.5C89.4,47.3,89.5,47.4,89.7,47.4L89.7,47.4z M89.2,44.2
				C89.2,44.3,89.2,44.3,89.2,44.2c-0.1,0-0.1,0-0.2,0l0,0C89.2,44.2,89.2,44.2,89.2,44.2z M90,46.1L90,46.1c0,0,0,0.1,0,0.2
				c0,0.1-0.1,0.1-0.1,0S89.9,46.2,90,46.1z"/>
			<path class="st1" d="M98.3,45.8l-1.5,0.8c-0.1,0.1-0.2,0.2-0.2,0.3c0,0.2,0.1,0.4,0.2,0.6c0.1,0.2,0.3,0.4,0.4,0.4
				c0.3,0.2,0.8,0.3,1.5,0.3c0.3,0,0.8,0,1.4-0.1c0.5-0.1,0.8-0.1,1-0.2c0.2-0.1,0.5-0.2,0.8-0.2c0.4-0.1,1-0.4,1.7-0.8
				c0.3-0.2,0.4-0.2,0.5-0.2c0,0-0.1,0.1-0.4,0.2c-0.1,0.1-0.3,0.2-0.6,0.5c-0.3,0.2-0.5,0.4-0.6,0.6c0,0.1-0.2,0.2-0.6,0.4v0.1
				c0,0.1,0,0.1,0,0.1c-1.2,0.5-2.3,0.8-3.3,0.8c-1.1,0-2-0.3-2.7-0.9c-0.7-0.6-1-1.4-1-2.3c0-1.9,1.1-3.8,3.4-5.7
				c0.4-0.3,0.7-0.4,1-0.4c0.5,0,0.9,0.5,1.3,1.5c0.2,0.8,0.4,1.6,0.7,2.4c0,0.1,0.1,0.2,0.1,0.2c0,0.2-0.1,0.3-0.2,0.4
				c-0.2,0.1-0.3,0.2-0.5,0.2c-0.1,0.1-0.2,0.2-0.5,0.5c-0.2,0.2-0.4,0.3-0.6,0.3l-0.9,0.2C98.4,45.9,98.4,45.9,98.3,45.8
				C98.4,45.7,98.4,45.7,98.3,45.8C98.3,45.7,98.3,45.7,98.3,45.8L98.3,45.8z M99.7,43.4c-0.2-0.1-0.4-0.1-0.6-0.1
				c-0.7,0-1.3,0.3-1.9,1c-0.6,0.6-0.8,1.1-0.8,1.4c0,0.1,0.1,0.2,0.2,0.2c0.3,0,0.7-0.3,1.3-0.8l1.9-1.6
				C99.9,43.4,99.8,43.4,99.7,43.4z"/>
			<path class="st1" d="M109.8,44.6h1.7c0.1,0,0.1,0,0.2,0.1s0.2,0.1,0.2,0.1c0.1,0,0.2-0.1,0.2-0.2c0-0.2-0.1-0.5-0.4-0.8
				s-0.5-0.5-0.7-0.6c-0.2,0-0.4-0.1-0.6-0.1c-0.9,0-2.1,0.3-3.8,0.8c-1.4,0.4-2.5,0.9-3.3,1.3c-0.1,0-0.2,0.2-0.2,0.4
				c-0.1,0.2-0.2,0.3-0.3,0.4c-0.2,0-0.6-0.1-1-0.4c-0.4-0.3-0.7-0.6-0.7-0.8c0-0.1,0-0.1,0.1-0.2c0.2-0.3,0.3-0.4,0.4-0.4
				c0,0,0.2,0.1,0.5,0.2c0.1,0,0.9-0.2,2.3-0.7c2.3-0.8,4.4-1.2,6.1-1.2c1.1,0,1.8,0.2,2.1,0.7v0.1c0,0-0.1,0-0.2-0.1
				c-0.1,0-0.1,0-0.1,0c0.1,0.2,0.3,0.9,0.5,2.2l0,0c0,0,0.1-0.1,0.2-0.2c0.1-0.1,0.2-0.2,0.2-0.2c0.1,0,0.1,0,0.1,0.1
				c-0.1,0.8-0.7,1.6-1.8,2.4c-1.1,0.8-2.1,1.2-3,1.2c-0.3,0-0.5,0-0.8-0.1l-1.5-0.6c-0.3-0.1-0.5-0.5-0.6-1.1
				c-0.1-0.8-0.1-1.3-0.2-1.4c-0.1-0.1-0.1-0.2,0-0.2s0.1,0,0.2,0s0.1,0,0.3,0.1c0.1,0,0.2,0.1,0.3,0.1c0.8-0.2,1.9-0.5,3.4-0.8
				C109.5,44.5,109.6,44.6,109.8,44.6z M107.6,46.4c0.8,0,1.7-0.1,2.6-0.2c1.3-0.3,1.9-0.6,1.7-1.1h-0.2c-0.1,0-0.3,0-0.6,0
				c-0.7,0.1-1.1,0.2-1.3,0.2c-0.6,0.1-1,0.2-1.2,0.4l-1,0.5C107.5,46.2,107.5,46.3,107.6,46.4C107.6,46.3,107.6,46.4,107.6,46.4z
				 M111.3,44.7L111.3,44.7L111.3,44.7C111.4,44.7,111.4,44.7,111.3,44.7l0.1-0.2h-0.1V44.7L111.3,44.7z M112.5,43.3
				C112.6,43.3,112.6,43.2,112.5,43.3c0.1,0,0.1,0.1,0.2,0.1c0,0.1,0,0.1,0,0.1C112.6,43.5,112.6,43.4,112.5,43.3z M112.8,43.8
				L112.8,43.8c-0.1-0.1-0.1-0.2-0.1-0.2s0,0,0-0.1C112.8,43.5,112.8,43.6,112.8,43.8z"/>
			<path class="st1" d="M119.3,46.8c-0.2,0.4-0.3,0.7-0.3,0.8c0.1,0.2,0.1,0.3,0,0.4l-0.7,1.1c-0.3,0.4-0.6,0.7-0.9,0.7
				c-0.5,0-1-0.7-1.5-2.1c-0.4-1.1-0.7-2.2-0.8-3.2c0-0.2-0.4-0.3-1-0.3c-0.8,0-1.4-0.3-1.9-0.8c-0.4-0.4-0.6-0.9-0.6-1.5
				c0-0.9,0.3-1.5,1-1.7c0.1-0.1,0.2,0,0.3,0.3c0.1,0.3,0.2,0.5,0.2,0.5c0.1,0.1,0.3,0.3,0.4,0.4c0.1,0.1,0.3,0.3,0.4,0.3
				c0.5,0.2,0.9,0.3,1,0.3s0.2-0.1,0.2-0.3l0.2-2.8c0-0.2,0-0.5-0.1-1s-0.1-0.8-0.1-1s0-0.4,0.1-0.5c0.1-0.3,0.2-0.4,0.5-0.4
				c0.4,0,0.9,0.2,1.5,0.7c0.5,0.4,0.9,0.8,1.1,1.1c0.1,0.1,0.1,0.3,0.1,0.4c0,0.1-0.1,0.2-0.2,0.4c-0.1,0.1-0.2,0.2-0.2,0.3
				l-0.8,3.6c0,0.1,0,0.1,0.1,0.2c1.4,0.1,2.3,0.1,2.8,0c0.3-0.1,0.7-0.2,1-0.3l0.3-0.2c0.1,0.1,0,0.2-0.2,0.3l-1.8,0.9
				c-0.1,0-0.1,0-0.2,0.1c0.1,0.1,0.1,0.1,0.2,0.1l0.8-0.2v0.1l-1.5,0.5c-0.2,0.1-0.5,0.1-0.8,0.1s-0.5,0-0.8,0
				c-0.1,0-0.1,0-0.1,0.1c-0.1,0.6-0.1,1.5,0,2.7c0,0.2,0.1,0.4,0.4,0.8c0.1,0.2,0.2,0.2,0.4,0.2c0.2,0,0.5-0.3,0.7-0.8
				c0-0.1,0.2-0.5,0.6-1.4c0,0,0-0.1,0.1,0c0,0,0.1,0,0,0.1l-0.2,0.6c0,0,0,0-0.1,0.1l-0.1,0.1c0,0,0,0,0,0.1
				C119,46.7,119.1,46.7,119.3,46.8C119.2,46.8,119.2,46.8,119.3,46.8z M119.4,45.6L119.4,45.6L119.4,45.6L119.4,45.6l-0.2,0.1l0,0
				v-0.1C119.3,45.6,119.4,45.6,119.4,45.6z"/>
		</g>
		<g>
			<g>
				<g>
					<defs>
						<path id="SVGID_1_" d="M33.4,11.2v1.7h-3.9V9.9c0-1.1-0.3-1.7-0.8-1.7s-0.8,0.6-0.8,1.7v14.4c0,1.1,0.3,1.7,0.8,1.7
							c0.4,0,0.7-0.2,0.8-0.7c0-0.1,0-0.5,0-1.1v-4.4h3.9v3.2c0,1.8-0.2,3.2-0.7,3.9c-0.7,1.1-2,1.7-4,1.7s-3.2-0.6-3.9-1.7
							C24.2,26.3,24,25,24,23.2V11.2c0-1.8,0.2-3.2,0.7-3.9c0.7-1.2,2-1.8,3.9-1.8c2,0,3.2,0.6,4,1.8C33.1,8.1,33.4,9.4,33.4,11.2
							L33.4,11.2z M34.7,12.6c0-2.8,1.4-4.2,4.2-4.2s4.2,1.3,4.2,4v12.7c0,2.6-1.4,3.8-4.2,3.8c-1.8,0-3.1-0.5-3.6-1.5
							c-0.4-0.7-0.6-1.9-0.6-3.6L34.7,12.6L34.7,12.6z M39.6,11.5c0-0.6-0.2-0.8-0.6-0.8c-0.4,0-0.7,0.2-0.7,0.7v13.9
							c0,0.9,0.2,1.3,0.7,1.3c0.4,0,0.6-0.2,0.6-0.7V11.5L39.6,11.5z M44.8,5.8h3.6v22.8h-3.6V5.8L44.8,5.8z M50.5,5.8h3.6v22.8
							h-3.6V5.8L50.5,5.8z M55.9,14.2v-1.5c0-2.8,1.3-4.2,4.1-4.2s4.1,1.3,4.1,4c0,0,0,0.1,0,0.2c0,0.2,0,0.6,0,1v15h-3.3v-1
							c-0.4,0.8-1.1,1.1-2.1,1.1c-1.4,0-2.3-0.7-2.7-1.9c-0.1-0.5-0.2-1.6-0.2-3.3v-2.5c0-1.6,0.4-2.9,1.1-3.5
							c0.6-0.6,1.8-1.2,3.7-2.1v-4.1c0-0.4-0.2-0.7-0.6-0.7c-0.4,0-0.6,0.5-0.6,1.3v2.2H55.9L55.9,14.2z M59.3,25.3
							c0,0.9,0.2,1.3,0.6,1.3c0.4,0,0.6-0.2,0.6-0.7v-7.8c-0.9,0.4-1.2,1.1-1.2,2.3L59.3,25.3L59.3,25.3z M73.8,25.8
							c0,1.8-0.3,3.1-0.8,3.7c-0.7,0.9-2,1.3-4.1,1.3c-1.5,0-2.9-0.2-3.9-0.7l1-2.3c0.9,0.5,1.7,0.7,2.6,0.7c1.2,0,1.8-0.5,1.8-1.4
							v-0.4c-0.4,0.6-1,0.9-1.8,0.9c-1.3,0-2.3-0.7-2.7-2c-0.2-0.6-0.3-1.6-0.3-3.2v-8.8c0-1.6,0.1-2.8,0.3-3.2
							c0.4-1.2,1.2-1.9,2.7-1.9c0.9,0,1.5,0.4,2.1,1.1v-1h3.2L73.8,25.8L73.8,25.8z M70.3,11.5c0-0.5-0.2-0.7-0.6-0.7
							c-0.4,0-0.6,0.5-0.6,1.3V24c0,0.9,0.2,1.3,0.6,1.3c0.4,0,0.6-0.2,0.6-0.7V11.5L70.3,11.5z M80.3,16.4V12
							c0-0.9-0.2-1.3-0.6-1.3c-0.4,0-0.7,0.5-0.7,1.3v4.4H80.3L80.3,16.4z M75.6,12.6c0-2.8,1.4-4.2,4.2-4.2s4.2,1.3,4.2,4v6.3h-4.9
							v6.5c0,0.9,0.2,1.3,0.7,1.3c0.4,0,0.6-0.2,0.6-0.7v-5.2H84v4.4c0,2.6-1.4,3.8-4.2,3.8c-1.8,0-3.1-0.5-3.6-1.5
							c-0.4-0.7-0.6-1.9-0.6-3.6V12.6L75.6,12.6z M90.5,28.6v-17c0-0.5-0.2-0.8-0.7-0.8c-0.5,0-0.7,0.4-0.7,1.1v16.7h-3.4v-20h3.2
							v1.1c0.3-0.9,1-1.2,2.1-1.2c1.4,0,2.3,0.7,2.7,1.9c0.2,0.6,0.3,1.6,0.3,3.2v14.9L90.5,28.6L90.5,28.6z"/>
					</defs>
					<use xlink:href="#SVGID_1_"  style="overflow:visible;fill:#A9D82A;"/>
					<clipPath id="SVGID_2_">
						<use xlink:href="#SVGID_1_"  style="overflow:visible;"/>
					</clipPath>
					<g class="st2">
						<g>
							<defs>
								<rect id="SVGID_3_" x="24" y="5.5" width="70" height="25.4"/>
							</defs>
							<use xlink:href="#SVGID_3_"  style="overflow:visible;fill:#A9D82A;"/>
							<clipPath id="SVGID_4_">
								<use xlink:href="#SVGID_3_"  style="overflow:visible;"/>
							</clipPath>
						</g>
					</g>
					<g class="st2">
						<path class="st3" d="M116.7,31.9v0.9h-0.1c-0.1-0.2-0.1-0.4-0.2-0.4c-0.1-0.1-0.2-0.2-0.3-0.2s-0.2,0-0.3,0h-0.2v2.4
							c0,0.2,0,0.3,0,0.3l0.1,0.1c0.1,0.1,0.1,0.1,0.2,0.1h0.1v0.1h-1.6V35h0.1c0.1,0,0.2,0,0.2-0.1c0.1,0,0.1-0.1,0.1-0.1
							s0-0.1,0-0.3v-2.4h-0.3c-0.2,0-0.4,0-0.5,0.1s-0.2,0.3-0.3,0.6h-0.1V32L116.7,31.9L116.7,31.9z M119.2,33.9l0.9-2h1.3V32h-0.1
							c-0.1,0-0.2,0-0.3,0.1l-0.1,0.1c0,0,0,0.1,0,0.3v2c0,0.2,0,0.3,0,0.3l0.1,0.1c0.1,0.1,0.1,0.1,0.3,0.1h0.1V35h-1.7v-0.1h0.1
							c0.1,0,0.2,0,0.3-0.1l0.1-0.1c0,0,0-0.1,0-0.3v-2.3l-1.2,2.8h-0.1l-1.2-2.8v2.2c0,0.2,0,0.2,0,0.3c0,0.1,0.1,0.2,0.1,0.2
							c0.1,0.1,0.2,0.1,0.3,0.1V35h-1.1v-0.1h0.1c0.1,0,0.1,0,0.2,0s0.1-0.1,0.2-0.1c0,0,0.1-0.1,0.1-0.2c0,0,0-0.1,0-0.2v-1.9
							c0-0.2,0-0.3,0-0.3c0-0.1-0.1-0.1-0.1-0.1c-0.1,0-0.1-0.1-0.2-0.1H117V32h1.3L119.2,33.9z"/>
					</g>
				</g>
			</g>
		</g>
	</g>
</g>
</svg>
