<?xml version="1.0" encoding="utf-8"?>
<!-- Generator: Adobe Illustrator 22.0.0, SVG Export Plug-In . SVG Version: 6.00 Build 0)  -->
<svg version="1.1" id="Layer_1" xmlns="http://www.w3.org/2000/svg" xmlns:xlink="http://www.w3.org/1999/xlink" x="0px" y="0px"
	 width="132.4px" height="23.8px" viewBox="0 0 132.4 23.8" style="enable-background:new 0 0 132.4 23.8;" xml:space="preserve">
<style type="text/css">
	.st0{fill:#F3F3F3;}
	.st1{clip-path:url(#SVGID_2_);}
	.st2{fill:url(#SVGID_7_);}
	.st3{fill:url(#SVGID_8_);}
	.st4{fill:url(#SVGID_9_);}
	.st5{fill:url(#SVGID_10_);}
	.st6{fill:url(#SVGID_11_);}
	.st7{fill:#FFFFFF;}
	.st8{fill:url(#SVGID_12_);}
	.st9{fill:url(#SVGID_13_);}
	.st10{fill:url(#SVGID_14_);}
	.st11{fill:url(#SVGID_15_);}
	.st12{fill:url(#SVGID_16_);}
	.st13{fill:#1D516B;}
	.st14{fill-rule:evenodd;clip-rule:evenodd;fill:#1D516B;}
	.st15{fill:#3FB067;}
	.st16{fill:#FFCA36;}
	.st17{fill:#FCCC34;}
	.st18{fill:#D1B69D;}
	.st19{fill:#26A867;}
	.st20{clip-path:url(#SVGID_20_);}
	.st21{fill:none;stroke:#26A867;stroke-width:3;stroke-miterlimit:10;}
	.st22{fill:#F98903;}
	.st23{fill:#333333;}
	.st24{fill-rule:evenodd;clip-rule:evenodd;fill:#333333;}
	.st25{fill-rule:evenodd;clip-rule:evenodd;fill:#01192B;}
	.st26{fill-rule:evenodd;clip-rule:evenodd;fill:#EC6A07;}
	.st27{fill:#EC6A07;}
	.st28{fill-rule:evenodd;clip-rule:evenodd;fill:#E9501F;}
	.st29{fill-rule:evenodd;clip-rule:evenodd;fill:#FFFFFF;}
	.st30{fill-rule:evenodd;clip-rule:evenodd;fill:#F2961C;}
	.st31{fill-rule:evenodd;clip-rule:evenodd;fill:#231916;}
	.st32{fill:#01AAEF;}
	.st33{fill:#02AAEF;}
	.st34{fill-rule:evenodd;clip-rule:evenodd;fill:#4267B2;}
	.st35{fill:#11A9E1;}
	.st36{fill:#13AAE1;}
</style>
<g>
	<g>
		<path class="st23" d="M120.5,8.1c1.1,0,2.1,0.2,3,0.5c0.9,0.3,1.8,0.8,2.7,1.2c0.9,0.5,1.8,0.9,2.8,1.3c1,0.4,2.1,0.7,3.4,0.9
			c-1.3,0.3-2.4,0.6-3.4,1c-1,0.5-2,0.9-2.9,1.3c-0.9,0.5-1.8,0.8-2.7,1.2c-0.9,0.3-1.9,0.5-2.9,0.5c-1.1,0-2.3-0.1-3.4-0.5
			c-1.1-0.3-2.3-0.7-3.4-1.1c-1.2-0.4-2.4-0.8-3.7-1.2c-1.3-0.4-2.6-0.5-3.9-0.5v-1.3c1.3,0,2.7-0.2,4-0.5c1.3-0.3,2.6-0.7,3.8-1.1
			c1.2-0.4,2.4-0.8,3.4-1.1C118.5,8.2,119.5,8.1,120.5,8.1L120.5,8.1z M103.8,0c0.5,0.3,1.1,0.4,1.8,0.5c0.7,0.1,1.4,0.2,2.2,0.3
			c0.7,0.1,1.4,0.2,2.1,0.3c0.7,0.1,1.3,0.3,1.9,0.5c0.5,0.2,1,0.6,1.4,1c0.4,0.5,0.6,1.1,0.7,1.8c0,0.7,0,1.3-0.3,2
			c-0.2,0.7-0.6,1.3-1.2,1.8c-0.6,0.5-1.4,1-2.5,1.3c-1,0.3-2.3,0.5-3.9,0.6V8.7c0.5,0,0.9-0.2,1.3-0.4c0.5-0.3,0.8-0.5,1.1-0.8
			c0.3-0.3,0.5-0.6,0.6-1c0.1-0.4,0.1-0.8,0-1.1C109,5,108.6,4.6,108,4.4c-0.6-0.2-1.2-0.5-1.8-0.8c-0.7-0.3-1.2-0.7-1.7-1.2
			C103.9,1.9,103.7,1.1,103.8,0L103.8,0z M102.2,7.6c0-0.4,0.1-0.7,0.4-0.9c0.3-0.2,0.5-0.3,0.8-0.3c0.4,0,0.7,0.1,0.9,0.3
			c0.3,0.2,0.4,0.5,0.4,0.9v8.8c0,0.5-0.1,0.8-0.4,1c-0.3,0.2-0.5,0.3-0.9,0.3c-0.3,0-0.6-0.1-0.9-0.3c-0.3-0.2-0.4-0.5-0.4-0.9
			L102.2,7.6z M96,5.6c0,0.4,0.2,0.8,0.5,1.2c0.3,0.3,0.7,0.7,1.2,1c0.5,0.3,0.9,0.5,1.5,0.8c0.5,0.2,1,0.3,1.5,0.3v1.3
			c-1.6-0.1-3-0.4-4-0.9c-1-0.4-1.6-1-1.8-1.8c0-0.2,0-0.3,0-0.5c0-0.2,0.1-0.4,0.2-0.6c0.1-0.2,0.2-0.3,0.4-0.5
			C95.7,5.7,95.8,5.6,96,5.6L96,5.6z M106.1,14c1.2-0.1,2.3,0,3.3,0.3c1,0.3,1.8,0.6,2.5,1.2c0.7,0.5,1.2,1.2,1.5,1.9
			c0.3,0.8,0.5,1.6,0.4,2.6c-0.1,1-0.5,1.7-1.3,2.1c-0.7,0.5-1.6,0.8-2.6,0.9c-1,0.2-2.1,0.3-3.3,0.3c-1.1,0.1-2.2,0.2-3.2,0.5
			c0-0.5,0-1,0.3-1.4c0.3-0.4,0.6-0.8,1-1.1c0.5-0.3,0.9-0.6,1.4-0.9c0.5-0.3,1-0.5,1.5-0.7c0.5-0.2,0.9-0.5,1.2-0.7
			c0.3-0.3,0.5-0.5,0.6-0.9c0.2-0.5,0.2-1,0-1.4c-0.1-0.4-0.4-0.7-0.7-0.9c-0.4-0.2-0.8-0.4-1.3-0.5c-0.5-0.1-1-0.1-1.6-0.1V14z
			 M94.2,10.5c0.5,0,1.1,0.1,1.6,0.2c0.5,0.1,1.1,0.2,1.6,0.3c0.5,0.1,1.1,0.3,1.7,0.3c0.5,0.1,1.1,0.1,1.8,0.1v1.4
			c-0.6,0-1.2,0.1-1.7,0.2c-0.5,0.1-1.1,0.2-1.6,0.3c-0.5,0.1-1,0.2-1.6,0.3c-0.5,0-1,0.1-1.4,0.1c-0.3,0-0.7,0-1,0
			c-0.4,0-0.8-0.1-1.1-0.2c-0.4-0.1-0.8-0.2-1.2-0.4c-0.4-0.2-0.8-0.5-1.3-0.9c0.5-0.5,1.1-1,1.8-1.2C92.5,10.6,93.3,10.5,94.2,10.5
			L94.2,10.5z M100.7,14.2v1.4c-0.5,0-1,0.1-1.5,0.3c-0.5,0.2-1,0.4-1.4,0.7c-0.5,0.3-0.8,0.5-1.2,0.9c-0.3,0.3-0.5,0.7-0.7,1
			c-0.6-0.2-0.9-0.5-1-0.8c-0.1-0.3-0.1-0.6,0-1c0.2-0.5,0.5-0.9,0.8-1.2c0.4-0.3,0.8-0.5,1.3-0.7c0.5-0.2,1.1-0.3,1.7-0.5
			C99.4,14.3,100.1,14.2,100.7,14.2L100.7,14.2z M109.9,2.8v0.1c0,0.1,0.1,0.2,0.2,0.2c0.2,0,0.3-0.1,0.3-0.2V2.8
			c0-0.2-0.1-0.2-0.3-0.2C110,2.6,109.9,2.6,109.9,2.8L109.9,2.8z M110.4,21.3c-0.2,0-0.3,0.1-0.3,0.3c0,0.2,0.1,0.2,0.3,0.2h0.2
			c0.1,0,0.2-0.1,0.2-0.3c0-0.2-0.1-0.3-0.2-0.3L110.4,21.3z"/>
	</g>
	<g>
		<path class="st23" d="M87.4,12.9H3.7c-0.1,0-0.2-0.5-0.2-1.1s0.1-1.1,0.2-1.1h83.7c0.1,0,0.2,0.5,0.2,1.1S87.5,12.9,87.4,12.9z"/>
	</g>
	<g>
		<path class="st24" d="M3.4,8.4c1.9,0,3.4,1.6,3.4,3.4c0,1.9-1.6,3.4-3.4,3.4c-1.9,0-3.4-1.6-3.4-3.4C0,10,1.6,8.4,3.4,8.4L3.4,8.4
			z"/>
	</g>
</g>
</svg>
