<?xml version="1.0" encoding="utf-8"?>
<!-- Generator: Adobe Illustrator 22.0.0, SVG Export Plug-In . SVG Version: 6.00 Build 0)  -->
<svg version="1.1" id="Layer_1" xmlns="http://www.w3.org/2000/svg" xmlns:xlink="http://www.w3.org/1999/xlink" x="0px" y="0px"
	 width="132.4px" height="23.8px" viewBox="0 0 132.4 23.8" style="enable-background:new 0 0 132.4 23.8;" xml:space="preserve">
<style type="text/css">
	.st0{fill:#F3F3F3;}
	.st1{clip-path:url(#SVGID_2_);}
	.st2{fill:url(#SVGID_7_);}
	.st3{fill:url(#SVGID_8_);}
	.st4{fill:url(#SVGID_9_);}
	.st5{fill:url(#SVGID_10_);}
	.st6{fill:url(#SVGID_11_);}
	.st7{fill:#FFFFFF;}
	.st8{fill:url(#SVGID_12_);}
	.st9{fill:url(#SVGID_13_);}
	.st10{fill:url(#SVGID_14_);}
	.st11{fill:url(#SVGID_15_);}
	.st12{fill:url(#SVGID_16_);}
	.st13{fill:#1D516B;}
	.st14{fill-rule:evenodd;clip-rule:evenodd;fill:#1D516B;}
	.st15{fill:#3FB067;}
	.st16{fill:#FFCA36;}
	.st17{fill:#FCCC34;}
	.st18{fill:#D1B69D;}
	.st19{fill:#26A867;}
	.st20{clip-path:url(#SVGID_20_);}
	.st21{fill:none;stroke:#26A867;stroke-width:3;stroke-miterlimit:10;}
	.st22{fill:#F98903;}
	.st23{fill:#333333;}
	.st24{fill-rule:evenodd;clip-rule:evenodd;fill:#333333;}
	.st25{fill-rule:evenodd;clip-rule:evenodd;fill:#01192B;}
	.st26{fill-rule:evenodd;clip-rule:evenodd;fill:#EC6A07;}
	.st27{fill:#EC6A07;}
	.st28{fill-rule:evenodd;clip-rule:evenodd;fill:#E9501F;}
	.st29{fill-rule:evenodd;clip-rule:evenodd;fill:#FFFFFF;}
	.st30{fill-rule:evenodd;clip-rule:evenodd;fill:#F2961C;}
	.st31{fill-rule:evenodd;clip-rule:evenodd;fill:#231916;}
	.st32{fill:#01AAEF;}
	.st33{fill:#02AAEF;}
	.st34{fill-rule:evenodd;clip-rule:evenodd;fill:#4267B2;}
	.st35{fill:#11A9E1;}
	.st36{fill:#13AAE1;}
</style>
<g>
	<g>
		<path class="st23" d="M11.9,8.1c1,0,2.1,0.2,3.2,0.5c1.1,0.3,2.3,0.7,3.4,1.1c1.2,0.4,2.5,0.8,3.8,1.1c1.3,0.3,2.6,0.5,4,0.5v1.3
			c-1.3,0-2.6,0.2-3.9,0.5c-1.3,0.3-2.5,0.8-3.7,1.2c-1.2,0.4-2.3,0.8-3.4,1.1C14.2,15.9,13,16,11.9,16c-1,0-2-0.2-2.9-0.5
			c-0.9-0.3-1.8-0.7-2.7-1.2c-0.9-0.4-1.8-0.9-2.9-1.3c-1-0.4-2.1-0.8-3.4-1c1.3-0.2,2.4-0.5,3.4-0.9c1-0.4,1.9-0.9,2.8-1.3
			C7.1,9.3,8,8.9,8.9,8.6C9.8,8.2,10.8,8.1,11.9,8.1L11.9,8.1z M28.6,0c0,1.1-0.2,1.9-0.7,2.4c-0.5,0.5-1.1,0.9-1.7,1.2
			c-0.6,0.3-1.3,0.5-1.8,0.8c-0.6,0.2-1,0.6-1.2,1.1c-0.1,0.4-0.1,0.8,0,1.1c0.1,0.3,0.3,0.7,0.6,1c0.3,0.3,0.7,0.5,1.1,0.8
			c0.4,0.2,0.9,0.3,1.3,0.4V10c-1.6,0-2.9-0.3-3.9-0.6c-1-0.3-1.8-0.8-2.5-1.3c-0.6-0.5-1-1.1-1.2-1.8c-0.2-0.6-0.3-1.3-0.3-2
			c0.1-0.8,0.3-1.3,0.7-1.8c0.4-0.4,0.9-0.8,1.4-1c0.5-0.3,1.2-0.4,1.9-0.5c0.7-0.1,1.4-0.2,2.1-0.3c0.8-0.1,1.5-0.2,2.2-0.3
			C27.5,0.4,28.1,0.3,28.6,0L28.6,0z M30.3,16.5c0,0.4-0.1,0.7-0.4,0.9c-0.3,0.2-0.6,0.3-0.9,0.3c-0.4,0-0.7-0.1-0.9-0.3
			c-0.3-0.2-0.4-0.5-0.4-1V7.6c0-0.4,0.1-0.7,0.4-0.9c0.3-0.2,0.5-0.3,0.9-0.3c0.3,0,0.6,0.1,0.8,0.3c0.3,0.2,0.4,0.5,0.4,0.9
			L30.3,16.5z M36.4,5.6c0.2,0,0.4,0.1,0.5,0.2c0.2,0.1,0.3,0.3,0.4,0.5c0.1,0.2,0.2,0.4,0.2,0.6c0,0.2,0,0.4,0,0.5
			c-0.2,0.7-0.8,1.3-1.8,1.8c-1.1,0.5-2.4,0.8-4,0.9V8.7c0.5,0,1-0.1,1.5-0.3c0.5-0.2,1-0.5,1.5-0.8c0.5-0.3,0.8-0.6,1.2-1
			C36.2,6.4,36.3,6,36.4,5.6L36.4,5.6z M26.3,15.3c-0.5,0-1.1,0-1.6,0.1c-0.5,0.1-0.9,0.3-1.3,0.5c-0.3,0.2-0.6,0.5-0.7,0.9
			c-0.2,0.4-0.2,0.8,0,1.4c0.1,0.3,0.3,0.6,0.6,0.9c0.3,0.3,0.8,0.5,1.2,0.7c0.5,0.2,1,0.5,1.5,0.7c0.5,0.3,1,0.5,1.4,0.9
			c0.4,0.3,0.8,0.7,1,1.1c0.3,0.4,0.4,0.8,0.3,1.4c-1-0.3-2-0.4-3.2-0.5c-1.2,0-2.3-0.2-3.3-0.3c-1-0.1-1.9-0.4-2.6-0.9
			c-0.7-0.4-1.1-1.1-1.3-2.1c-0.1-1,0-1.8,0.4-2.6c0.3-0.8,0.8-1.4,1.5-1.9c0.7-0.5,1.6-0.9,2.5-1.2c1-0.3,2.1-0.3,3.3-0.3V15.3z
			 M38.3,10.5c0.8,0,1.6,0.1,2.4,0.4c0.7,0.3,1.3,0.7,1.8,1.2c-0.4,0.4-0.8,0.7-1.3,0.9c-0.4,0.2-0.8,0.3-1.2,0.4
			c-0.4,0.1-0.8,0.2-1.1,0.2c-0.3,0-0.7,0-1,0c-0.5,0-0.9,0-1.4-0.1c-0.5-0.1-1-0.2-1.6-0.3c-0.5-0.1-1-0.2-1.6-0.3
			c-0.5-0.1-1.1-0.2-1.7-0.2v-1.4c0.6,0,1.2,0,1.8-0.1c0.6-0.1,1.1-0.2,1.7-0.3c0.5-0.1,1-0.3,1.6-0.3
			C37.2,10.5,37.7,10.5,38.3,10.5L38.3,10.5z M31.7,14.2c0.7,0,1.3,0.1,1.9,0.2c0.6,0.1,1.2,0.3,1.7,0.5c0.5,0.2,1,0.4,1.3,0.7
			c0.4,0.3,0.7,0.8,0.8,1.2c0.1,0.3,0.1,0.6,0,1c-0.1,0.3-0.4,0.6-1,0.8c-0.1-0.4-0.3-0.7-0.7-1c-0.3-0.3-0.7-0.6-1.2-0.9
			c-0.5-0.3-0.9-0.5-1.4-0.7c-0.5-0.2-1-0.3-1.5-0.3V14.2L31.7,14.2z M22.5,2.8c0-0.2-0.1-0.2-0.3-0.2c-0.2,0-0.3,0-0.3,0.2v0.1
			C22,3,22,3.1,22.3,3.1c0.1,0,0.2-0.1,0.2-0.2L22.5,2.8L22.5,2.8z M21.8,21.3c-0.1,0-0.2,0.1-0.2,0.3c0,0.2,0.1,0.3,0.2,0.3H22
			c0.2,0,0.3,0,0.3-0.2c0-0.2-0.1-0.3-0.3-0.3L21.8,21.3z"/>
	</g>
	<g>
		<path class="st23" d="M45,12.9h83.7c0.1,0,0.2-0.5,0.2-1.1s-0.1-1.1-0.2-1.1H45c-0.1,0-0.2,0.5-0.2,1.1S44.9,12.9,45,12.9z"/>
	</g>
	<g>
		<path class="st24" d="M129,8.4c-1.9,0-3.4,1.6-3.4,3.4c0,1.9,1.6,3.4,3.4,3.4c1.9,0,3.4-1.6,3.4-3.4C132.4,10,130.9,8.4,129,8.4
			L129,8.4z"/>
	</g>
</g>
</svg>
