<?xml version="1.0" encoding="utf-8"?>
<!-- Generator: Adobe Illustrator 21.0.0, SVG Export Plug-In . SVG Version: 6.00 Build 0)  -->
<svg version="1.1" id="Layer_1" xmlns="http://www.w3.org/2000/svg" xmlns:xlink="http://www.w3.org/1999/xlink" x="0px" y="0px"
	 width="117.8px" height="26.8px" viewBox="0 0 117.8 26.8" style="enable-background:new 0 0 117.8 26.8;" xml:space="preserve">
<style type="text/css">
	.st0{fill-rule:evenodd;clip-rule:evenodd;fill:none;stroke:#FFFF00;stroke-width:0.75;stroke-miterlimit:10;}
	.st1{fill:#FFFF00;}
</style>
<g>
	<path class="st0" d="M104.4,26.4h-91c-7.2,0-13-5.8-13-13v0c0-7.2,5.8-13,13-13h91c7.2,0,13,5.8,13,13v0
		C117.4,20.6,111.6,26.4,104.4,26.4z"/>
	<g>
		<g>
			<path class="st1" d="M39.9,18.8h-2.5L35,14.9l-2.4,3.9h-2.3l3.4-5.3l-3.2-5h2.4l2.2,3.7l2.2-3.7h2.3l-3.2,5.1L39.9,18.8z"/>
			<path class="st1" d="M47.1,18.8h-5.9V8.6h5.9v1.8h-3.7v2.2h3.5v1.8h-3.5V17h3.7V18.8z"/>
			<path class="st1" d="M53.5,18.8l-2.5-8H51c0.1,1.6,0.1,2.7,0.1,3.3v4.8h-1.9V8.6h3l2.4,7.8h0l2.6-7.8h3v10.2h-2V14
				c0-0.2,0-0.5,0-0.8c0-0.3,0-1.1,0.1-2.4h-0.1l-2.6,8H53.5z"/>
			<path class="st1" d="M70.4,18.8h-2.2v-8.4h-2.8V8.6h7.7v1.8h-2.8V18.8z"/>
			<path class="st1" d="M83.1,18.8H81v-4.4h-4.1v4.4h-2.2V8.6h2.2v4H81v-4h2.2V18.8z"/>
			<path class="st1" d="M90.3,7.8c-0.7-0.4-1.3-0.8-1.6-1.2c-0.4,0.4-0.9,0.8-1.6,1.2h-1.4V7.6c0.9-0.9,1.5-1.6,1.8-2.1h2.5
				c0.1,0.2,0.4,0.6,0.8,1c0.4,0.4,0.7,0.8,1,1.1v0.2H90.3z M91.6,18.8h-5.9V8.6h5.9v1.8h-3.7v2.2h3.5v1.8h-3.5V17h3.7V18.8z"/>
			<path class="st1" d="M98.1,18.8l-2.5-8h-0.1c0.1,1.6,0.1,2.7,0.1,3.3v4.8h-1.9V8.6h3l2.4,7.8h0l2.6-7.8h3v10.2h-2V14
				c0-0.2,0-0.5,0-0.8c0-0.3,0-1.1,0.1-2.4h-0.1l-2.6,8H98.1z"/>
		</g>
		<g>
			<path class="st1" d="M23,10.2c0.6,1,0.9,2.1,0.9,3.2s-0.3,2.2-0.9,3.2c-0.6,1-1.4,1.8-2.3,2.3c-1,0.6-2.1,0.9-3.2,0.9
				s-2.2-0.3-3.2-0.9c-1-0.6-1.8-1.4-2.3-2.3c-0.6-1-0.9-2.1-0.9-3.2s0.3-2.2,0.9-3.2c0.6-1,1.4-1.8,2.3-2.3c1-0.6,2.1-0.9,3.2-0.9
				s2.2,0.3,3.2,0.9C21.6,8.5,22.4,9.3,23,10.2z M21.7,13.5c0-0.2,0-0.3-0.1-0.4l-0.8-0.8l-3-3c-0.1-0.1-0.2-0.1-0.4-0.1
				c-0.2,0-0.3,0-0.4,0.1l-0.8,0.8c-0.1,0.1-0.1,0.2-0.1,0.4c0,0.1,0,0.3,0.1,0.4l1.6,1.6h-4.2c-0.1,0-0.3,0.1-0.4,0.2
				c-0.1,0.1-0.2,0.2-0.2,0.4V14c0,0.1,0.1,0.3,0.2,0.4c0.1,0.1,0.2,0.2,0.4,0.2h4.2l-1.6,1.6c-0.1,0.1-0.2,0.2-0.2,0.4
				c0,0.1,0.1,0.3,0.2,0.4l0.8,0.8c0.1,0.1,0.2,0.1,0.4,0.1c0.1,0,0.3,0,0.4-0.1l3-3l0.8-0.8C21.7,13.7,21.7,13.6,21.7,13.5z"/>
		</g>
	</g>
</g>
</svg>
