<?xml version="1.0" encoding="utf-8"?>
<!-- Generator: Adobe Illustrator 22.0.0, SVG Export Plug-In . SVG Version: 6.00 Build 0)  -->
<svg version="1.1" id="Layer_1" xmlns="http://www.w3.org/2000/svg" xmlns:xlink="http://www.w3.org/1999/xlink" x="0px" y="0px"
	 width="97.6px" height="97.6px" viewBox="0 0 97.6 97.6" style="enable-background:new 0 0 97.6 97.6;" xml:space="preserve">
<style type="text/css">
	.st0{fill:#F3F3F3;}
	.st1{fill:#F98903;}
	.st2{fill:#FFBE7D;}
	.st3{fill:#60A2D8;}
	.st4{opacity:0.2;fill:#BB1860;}
	.st5{opacity:0.2;fill:#FF8D68;}
	.st6{opacity:0.2;fill:#1E9CB6;}
	.st7{fill:#BB1860;}
	.st8{fill:#FFFFFF;}
	.st9{fill:#FF8D68;}
	.st10{fill:#333333;}
	.st11{fill:#1E9CB6;}
	.st12{fill:#49D292;}
	.st13{fill:url(#SVGID_1_);}
	.st14{fill:url(#SVGID_2_);}
	.st15{fill:url(#SVGID_3_);}
	.st16{fill:none;stroke:#333333;stroke-width:3.5;stroke-linecap:round;stroke-linejoin:round;stroke-miterlimit:10;}
</style>
<g>
	<path class="st12" d="M97.5,44.8c2.2,26.9-17.7,50.5-44.6,52.7C26,99.7,2.4,79.7,0.2,52.9C-2.1,26,17.9,2.4,44.8,0.2
		C71.6-2.1,95.2,17.9,97.5,44.8z"/>
	<path class="st8" d="M87.1,45.6c1.8,21.1-14,39.7-35.1,41.5c-21.1,1.8-39.7-14-41.5-35.1c-1.8-21.1,14-39.7,35.1-41.5
		C66.8,8.8,85.3,24.5,87.1,45.6z"/>
	<path class="st12" d="M35.7,70.6C35.7,70.6,35.7,70.6,35.7,70.6c8.8,0,17.5,0,26.3,0c0,0,0,0,0,0h2c0-9.4,0-18.8,0-28.2
		c0-1.2-0.1-2.4-0.4-3.6c-1.7-7.7-9.4-12.9-17.1-11.6c-7.6,1.2-12.9,7.5-12.9,15.2c0,7.1,0,14.1,0,21.2c0,2.4,0,4.7,0,7.1H35.7z
		 M38.9,40.2c3.3,0,6.6,0,10,0c0,0,0,0,0,0c3.3,0,6.5,0,9.8,0c0.9,0,1.3,0.3,1.3,1.3c0,1.1,0,2.2,0,3.3c0,1.2-0.3,1.5-1.4,1.5
		c-6,0-11.9,0-17.9,0c-0.6,0-1.1,0-1.7,0c-0.9,0-1.2-0.4-1.2-1.2c0-1.2,0-2.4,0-3.6C37.7,40.6,38,40.2,38.9,40.2z M58.5,48.3
		c-0.2,0.1-0.3,0.2-0.5,0.3c-2.9,1.5-5.9,3-8.8,4.4c-0.2,0.1-0.5,0.1-0.7,0c-3.1-1.5-6.1-3-9.2-4.6c-0.1,0-0.1-0.1-0.3-0.2
		C45.6,48.3,52,48.3,58.5,48.3z M37.7,50c0.2,0.1,0.3,0.1,0.5,0.2c3.3,1.6,6.5,3.2,9.8,4.9c0.6,0.3,1.2,0.3,1.8,0
		c3.2-1.6,6.4-3.2,9.5-4.8c0.2-0.1,0.4-0.2,0.7-0.4c0,0.3,0,0.4,0,0.6c0,2.9,0,5.7,0,8.6c0,1-0.3,1.3-1.4,1.3c-6.5,0-13.1,0-19.6,0
		c-1,0-1.3-0.3-1.3-1.3c0-2.9,0-5.8,0-8.6C37.7,50.3,37.7,50.2,37.7,50z"/>
</g>
</svg>
