<?xml version="1.0" encoding="utf-8"?>
<!-- Generator: Adobe Illustrator 22.0.0, SVG Export Plug-In . SVG Version: 6.00 Build 0)  -->
<svg version="1.1" id="Layer_1" xmlns="http://www.w3.org/2000/svg" xmlns:xlink="http://www.w3.org/1999/xlink" x="0px" y="0px"
	 width="97.6px" height="97.6px" viewBox="0 0 97.6 97.6" style="enable-background:new 0 0 97.6 97.6;" xml:space="preserve">
<style type="text/css">
	.st0{fill:#F3F3F3;}
	.st1{fill:#F98903;}
	.st2{fill:#FFBE7D;}
	.st3{fill:#60A2D8;}
	.st4{opacity:0.2;fill:#BB1860;}
	.st5{opacity:0.2;fill:#FF8D68;}
	.st6{opacity:0.2;fill:#1E9CB6;}
	.st7{fill:#BB1860;}
	.st8{fill:#FFFFFF;}
	.st9{fill:#FF8D68;}
	.st10{fill:#333333;}
	.st11{fill:#1E9CB6;}
	.st12{fill:#49D292;}
	.st13{fill:url(#SVGID_1_);}
	.st14{fill:url(#SVGID_2_);}
	.st15{fill:url(#SVGID_3_);}
	.st16{fill:none;stroke:#333333;stroke-width:3.5;stroke-linecap:round;stroke-linejoin:round;stroke-miterlimit:10;}
</style>
<g>
	<path class="st11" d="M97.5,44.8c2.2,26.9-17.7,50.5-44.6,52.7C26,99.7,2.4,79.7,0.2,52.9C-2.1,26,17.9,2.4,44.8,0.2
		C71.6-2.1,95.2,17.9,97.5,44.8z"/>
	<path class="st8" d="M87.1,45.6c1.8,21.1-14,39.7-35.1,41.5c-21.1,1.8-39.7-14-41.5-35.1c-1.8-21.1,14-39.7,35.1-41.5
		C66.8,8.8,85.3,24.5,87.1,45.6z"/>
	<g>
		<g>
			<path class="st11" d="M48.8,31.9c6.4,0,12.9,0,19.3,0c1.7,0,2.8,1.1,2.9,2.9c0,1.1,0,2.1,0,3.2c0,1.8-1.2,2.9-3,2.9
				c-1.6,0-3.3,0-4.9,0c-0.4,0-0.5,0.1-0.5,0.5c0,6.4,0,12.8,0,19.2c0,1.7-0.5,3.1-1.9,4.2c-0.9,0.7-2,1-3.2,1c-2.3,0-4.7,0-7,0
				c-3.5,0-7,0-10.4,0c-2.4,0-4.4-1.6-4.8-3.9c-0.1-0.6-0.1-1.3-0.1-2c0-6.1,0-12.2,0-18.4c0-0.6,0-0.6-0.6-0.6c-1.6,0-3.2,0-4.9,0
				c-1.9,0-3.1-1.2-3.1-3c0-1,0-2,0-3c0-1.8,1.2-2.9,2.9-2.9c4.8,0,9.5,0,14.3,0C45.5,31.9,47.2,31.9,48.8,31.9
				C48.8,31.9,48.8,31.9,48.8,31.9z M51.4,49.8C51.4,49.8,51.4,49.8,51.4,49.8c0-4.3,0-8.7,0-13c0-0.5-0.1-0.6-0.6-0.6
				c-4.3,0-8.6,0-12.8,0c-0.5,0-0.6,0.1-0.6,0.6c0,2.8,0,5.6,0,8.5c0,5.2,0,10.3,0,15.5c0,1.6,1.1,2.6,2.6,2.6c3.6,0,7.2,0,10.8,0
				c0.4,0,0.5-0.1,0.5-0.5C51.4,58.5,51.4,54.2,51.4,49.8z M57.1,49.8c0,2.6,0,5.3,0,7.9c0,1.7,0,3.5,0,5.2c0,0.1,0.1,0.4,0.2,0.4
				c0.9,0.1,1.8-0.1,2.5-0.9c0.4-0.5,0.6-1.2,0.6-1.8c0-4.1,0-8.2,0-12.3c0-3.9,0-7.8,0-11.6c0-0.4-0.1-0.5-0.5-0.5
				c-0.7,0-1.5,0-2.2,0c-0.4,0-0.5,0.1-0.5,0.5C57.1,41.1,57.1,45.5,57.1,49.8z"/>
			<path class="st11" d="M48.8,47.5c-0.9,0-1.8,0-2.6,0c-0.4,0-0.5,0.1-0.5,0.5c0,1.8,0,3.5,0,5.3c0,0.4-0.1,0.5-0.5,0.5
				c-0.6,0-1.2,0-1.7,0c-0.3,0-0.5-0.1-0.5-0.5c0-1.8,0-3.5,0-5.3c0-0.6,0-0.6-0.6-0.6c-0.8,0-1.6,0-2.4,0c1.5-2.2,2.9-4.3,4.4-6.4
				C45.9,43.3,47.4,45.4,48.8,47.5z"/>
		</g>
	</g>
</g>
</svg>
