<?xml version="1.0" encoding="utf-8"?>
<!-- Generator: Adobe Illustrator 22.0.0, SVG Export Plug-In . SVG Version: 6.00 Build 0)  -->
<svg version="1.1" id="Layer_1" xmlns="http://www.w3.org/2000/svg" xmlns:xlink="http://www.w3.org/1999/xlink" x="0px" y="0px"
	 width="97.6px" height="97.6px" viewBox="0 0 97.6 97.6" style="enable-background:new 0 0 97.6 97.6;" xml:space="preserve">
<style type="text/css">
	.st0{fill:#F3F3F3;}
	.st1{fill:#F98903;}
	.st2{fill:#FFBE7D;}
	.st3{fill:#60A2D8;}
	.st4{opacity:0.2;fill:#BB1860;}
	.st5{opacity:0.2;fill:#FF8D68;}
	.st6{opacity:0.2;fill:#1E9CB6;}
	.st7{fill:#BB1860;}
	.st8{fill:#FFFFFF;}
	.st9{fill:#FF8D68;}
	.st10{fill:#333333;}
	.st11{fill:#1E9CB6;}
	.st12{fill:#49D292;}
	.st13{fill:url(#SVGID_1_);}
	.st14{fill:url(#SVGID_2_);}
	.st15{fill:url(#SVGID_3_);}
	.st16{fill:none;stroke:#333333;stroke-width:3.5;stroke-linecap:round;stroke-linejoin:round;stroke-miterlimit:10;}
</style>
<g>
	<path class="st7" d="M97.5,44.8c2.2,26.9-17.7,50.5-44.6,52.7C26,99.7,2.4,79.7,0.2,52.9C-2.1,26,17.9,2.4,44.8,0.2
		C71.6-2.1,95.2,17.9,97.5,44.8z"/>
	<path class="st8" d="M87.1,45.6c1.8,21.1-14,39.7-35.1,41.5c-21.1,1.8-39.7-14-41.5-35.1c-1.8-21.1,14-39.7,35.1-41.5
		C66.8,8.8,85.3,24.5,87.1,45.6z"/>
	<g>
		<g>
			<path class="st7" d="M29.5,35.5c0.6-1.8,1.2-3.6,1.7-5.4c5.6,1.8,11.1,3.6,16.7,5.4C41.8,35.5,35.7,35.5,29.5,35.5z"/>
			<path class="st7" d="M66.4,67.5c-5.6-1.8-11.1-3.6-16.8-5.4c6.2,0,12.3,0,18.5,0C67.6,63.9,67,65.7,66.4,67.5z"/>
			<g>
				<path class="st7" d="M54.7,46.9H54v1.4h1v1h-1v1.4h0.5c1.2,0,1.8-0.6,1.8-1.9c0-0.6-0.1-1.1-0.4-1.4
					C55.7,47,55.3,46.9,54.7,46.9z"/>
				<path class="st7" d="M26.3,36.4c0,8.3,0,16.6,0,24.8c15,0,30,0,44.9,0c0-8.3,0-16.5,0-24.8C56.3,36.4,41.3,36.4,26.3,36.4z
					 M34.4,58.4c0.4-1.6,0.1-3-1.1-4.2c-1.2-1.2-2.6-1.4-4.2-1.1c0-2.9,0-5.8,0-8.7c1.6,0.4,3,0.1,4.2-1c1.2-1.1,1.5-2.5,1.1-4.2
					c2.5,0,4.9,0,7.5,0c-3.2,2.5-4.8,5.6-4.9,9.5c0,3.9,1.7,7.1,4.7,9.6C39.3,58.4,36.9,58.4,34.4,58.4z M43.3,51.8h-1.4l-2-5.9h1.3
					l1.1,3.5c0.1,0.2,0.1,0.4,0.2,0.7c0.1,0.3,0.1,0.5,0.1,0.6c0-0.2,0.1-0.7,0.3-1.3l1.1-3.5h1.3L43.3,51.8z M51.3,51.8h-1.6
					l-2.6-4.5h0c0.1,0.8,0.1,1.4,0.1,1.7v2.8h-1.1v-5.9h1.6l2.6,4.4h0c0-0.8-0.1-1.3-0.1-1.6v-2.8h1.1V51.8z M52.8,51.8v-2.4h-0.6
					v-1h0.6v-2.5h1.9c1,0,1.7,0.3,2.2,0.8c0.5,0.5,0.8,1.2,0.8,2.1c0,1-0.3,1.7-0.8,2.2c-0.6,0.5-1.4,0.8-2.4,0.8H52.8z M68.5,53.1
					c-3.3-0.9-6.1,2.1-5.2,5.3c-2.4,0-4.8,0-7.3,0c3.1-2.5,4.8-5.7,4.7-9.6c0-3.9-1.7-7.1-4.8-9.5c2.5,0,5,0,7.4,0
					c-0.4,1.6-0.1,3,1,4.1c1.1,1.1,2.5,1.5,4.1,1C68.5,47.3,68.5,50.2,68.5,53.1z"/>
			</g>
		</g>
	</g>
</g>
</svg>
