<?xml version="1.0" encoding="utf-8"?>
<!-- Generator: Adobe Illustrator 22.0.0, SVG Export Plug-In . SVG Version: 6.00 Build 0)  -->
<svg version="1.1" id="Layer_1" xmlns="http://www.w3.org/2000/svg" xmlns:xlink="http://www.w3.org/1999/xlink" x="0px" y="0px"
	 width="97.6px" height="97.6px" viewBox="0 0 97.6 97.6" style="enable-background:new 0 0 97.6 97.6;" xml:space="preserve">
<style type="text/css">
	.st0{fill:#F3F3F3;}
	.st1{fill:#F98903;}
	.st2{fill:#FFBE7D;}
	.st3{fill:#60A2D8;}
	.st4{opacity:0.2;fill:#BB1860;}
	.st5{opacity:0.2;fill:#FF8D68;}
	.st6{opacity:0.2;fill:#1E9CB6;}
	.st7{fill:#BB1860;}
	.st8{fill:#FFFFFF;}
	.st9{fill:#FF8D68;}
	.st10{fill:#333333;}
	.st11{fill:#1E9CB6;}
	.st12{fill:#49D292;}
	.st13{fill:url(#SVGID_1_);}
	.st14{fill:url(#SVGID_2_);}
	.st15{fill:url(#SVGID_3_);}
	.st16{fill:none;stroke:#333333;stroke-width:3.5;stroke-linecap:round;stroke-linejoin:round;stroke-miterlimit:10;}
</style>
<g>
	<path class="st1" d="M97.5,44.8c2.2,26.9-17.7,50.5-44.6,52.7C26,99.7,2.4,79.7,0.2,52.9C-2.1,26,17.9,2.4,44.8,0.2
		C71.6-2.1,95.2,17.9,97.5,44.8z"/>
	<path class="st8" d="M87.1,45.6c1.8,21.1-14,39.7-35.1,41.5c-21.1,1.8-39.7-14-41.5-35.1c-1.8-21.1,14-39.7,35.1-41.5
		C66.8,8.8,85.3,24.5,87.1,45.6z"/>
	<g>
		<g>
			<path class="st1" d="M48.8,68.2c-5.4,0-10.7,0-16.1,0c-2.4,0-4.7-2-5.1-4.4c-0.1-0.4-0.1-0.8-0.1-1.1c0-5.5,0-11,0-16.6
				c0-2.5,1.9-4.8,4.4-5.2c1.2-0.2,2.5-0.1,3.8-0.1c9.6,0,19.3,0,28.9,0c2.8,0,5.3,1.8,5.7,4.7c0.1,0.5,0,1,0,1.5c0,5.3,0,10.7,0,16
				c0,2.5-2,4.8-4.4,5.1c-0.9,0.1-1.8,0.1-2.7,0.1C58.3,68.2,53.5,68.2,48.8,68.2C48.8,68.2,48.8,68.2,48.8,68.2z M67,48.6
				c0-3.3-3.5-5.5-6.5-4c-0.4,0.2-0.6,0.2-1,0c-2.9-1.4-6.2,0.5-6.4,3.7c-0.1,1.7,0.6,3.1,2,4.1c1.4,0.9,2.9,1,4.4,0.3
				c0.4-0.2,0.6-0.2,1,0C63.5,54.1,67,51.9,67,48.6z M36.2,63c1.1,0,2.3,0,3.4,0c0.9,0,1.5-0.6,1.5-1.5c0-0.8-0.6-1.4-1.5-1.4
				c-2.2,0-4.4,0-6.5,0c-0.9,0-1.6,0.6-1.6,1.4c0,0.9,0.6,1.5,1.6,1.5C34,63.1,35.1,63,36.2,63z M49,63c1.1,0,2.3,0,3.4,0
				c0.9,0,1.4-0.6,1.4-1.5c0-0.8-0.6-1.4-1.5-1.4c-2.2,0-4.5,0-6.7,0c-0.9,0-1.5,0.6-1.5,1.5c0,0.8,0.6,1.4,1.5,1.4
				C46.8,63,47.9,63,49,63z M61.7,63c1.1,0,2.3,0,3.4,0c0.9,0,1.5-0.6,1.5-1.4c0-0.8-0.6-1.5-1.5-1.5c-2.3,0-4.5,0-6.8,0
				c-0.3,0-0.7,0.2-1,0.4c-0.5,0.3-0.6,1-0.4,1.5c0.2,0.6,0.7,1,1.4,1C59.5,63.1,60.6,63,61.7,63z"/>
			<path class="st1" d="M56.1,40c0-1,0-1.9,0-2.9c0-0.7,0-1.5,0-2.2c0-1.6-1.1-2.7-2.7-2.8c-3.6,0-7.2,0-10.9,0
				c-0.4,0-0.4,0.2-0.4,0.5c0,2.3,0,4.6,0,6.9c0,0.2,0,0.3,0,0.5c-0.2,0-0.3,0-0.5,0c-1.8,0-3.6,0-5.4,0c-0.4,0-0.5-0.1-0.5-0.5
				c0-2.3,0-4.6,0-6.9c0-0.4-0.1-0.5-0.5-0.5c-0.4,0.1-0.9,0-1.3,0.2c-1.2,0.4-1.9,1.4-1.9,2.7c0,1.5,0,3,0,4.5
				c0,0.3-0.1,0.5-0.5,0.6c-0.6,0.1-1.2,0.4-1.8,0.6c-0.1,0-0.2,0.1-0.4,0.2c0-0.2,0-0.3,0-0.5c0-1.8,0-3.7,0-5.5
				c0-3.2,2.3-5.5,5.5-5.5c6.2,0,12.4,0,18.6,0c2.9,0,5.2,2.3,5.3,5.2c0,1.7,0,3.3,0,5c0,0.2,0,0.4-0.3,0.4C57.8,40,57,40,56.1,40z"
				/>
			<path class="st1" d="M61.2,46c1.1-0.7,2.7-0.3,3.6,0.7c0.9,1.1,0.9,2.7,0,3.8c-0.9,1.1-2.4,1.4-3.6,0.7
				C62.3,49.5,62.3,47.8,61.2,46z"/>
		</g>
	</g>
</g>
</svg>
