<?xml version="1.0" encoding="utf-8"?>
<!-- Generator: Adobe Illustrator 22.0.0, SVG Export Plug-In . SVG Version: 6.00 Build 0)  -->
<svg version="1.1" id="Layer_1" xmlns="http://www.w3.org/2000/svg" xmlns:xlink="http://www.w3.org/1999/xlink" x="0px" y="0px"
	 width="97.6px" height="97.6px" viewBox="0 0 97.6 97.6" style="enable-background:new 0 0 97.6 97.6;" xml:space="preserve">
<style type="text/css">
	.st0{fill:#F3F3F3;}
	.st1{fill:#F98903;}
	.st2{fill:#FFBE7D;}
	.st3{fill:#60A2D8;}
	.st4{opacity:0.2;fill:#BB1860;}
	.st5{opacity:0.2;fill:#FF8D68;}
	.st6{opacity:0.2;fill:#1E9CB6;}
	.st7{fill:#BB1860;}
	.st8{fill:#FFFFFF;}
	.st9{fill:#FF8D68;}
	.st10{fill:#333333;}
	.st11{fill:#1E9CB6;}
	.st12{fill:#49D292;}
	.st13{fill:url(#SVGID_1_);}
	.st14{fill:url(#SVGID_2_);}
	.st15{fill:url(#SVGID_3_);}
	.st16{fill:none;stroke:#333333;stroke-width:3.5;stroke-linecap:round;stroke-linejoin:round;stroke-miterlimit:10;}
</style>
<g>
	<path class="st9" d="M97.5,44.8c2.2,26.9-17.7,50.5-44.6,52.7C26,99.7,2.4,79.7,0.2,52.9C-2.1,26,17.9,2.4,44.8,0.2
		C71.6-2.1,95.2,17.9,97.5,44.8z"/>
	<path class="st8" d="M87.1,45.6c1.8,21.1-14,39.7-35.1,41.5c-21.1,1.8-39.7-14-41.5-35.1c-1.8-21.1,14-39.7,35.1-41.5
		C66.8,8.8,85.3,24.5,87.1,45.6z"/>
	<g>
		<g>
			<path class="st9" d="M66.8,44.6c-2.9,0-5.9,0-8.8,0c-8.9,0-17.9,0-26.8,0c-0.1,0-0.2,0-0.3,0c0-3.5,0-6.9,0-10.4
				c0.1,0,0.3,0,0.4,0c11.7,0,23.4,0,35,0c0.2,0,0.3,0,0.5,0C66.8,37.6,66.8,41.1,66.8,44.6z M49.4,41.9c0.5,0,0.9,0,1.4,0
				c0-1.2,0-2.3,0-3.4c0.6,1,1.2,2.1,1.7,3.2c0.1,0.1,0.2,0.3,0.2,0.3c0.5,0,1,0,1.5,0c0-1.8,0-3.5,0-5.2c-0.5,0-0.9,0-1.4,0
				c0,1.1,0,2.1,0,3.2c0,0-0.1-0.1-0.1-0.1c-0.5-1-1-1.9-1.5-2.9c0-0.1-0.2-0.2-0.2-0.2c-0.6,0-1.1,0-1.7,0
				C49.4,38.5,49.4,40.2,49.4,41.9z M36.5,42c0.7,0,1.4,0,2.1,0c0.5,0,1-0.1,1.4-0.3c0.9-0.4,1.1-1.5,0.5-2.1
				c-0.2-0.2-0.4-0.3-0.6-0.4c0.1,0,0.1-0.1,0.2-0.1c0.4-0.2,0.6-0.6,0.6-1.1c0-0.5-0.3-0.8-0.8-1c-0.3-0.1-0.6-0.2-0.9-0.2
				c-0.9,0-1.7,0-2.6,0C36.5,38.6,36.5,40.2,36.5,42z M61.1,36.7c-0.6,0-1.2,0-1.7,0c-0.1,0-0.2,0.1-0.3,0.2
				c-0.4,0.6-0.8,1.2-1.2,1.8c0,0.1-0.1,0.1-0.2,0.3c0-0.8,0-1.5,0-2.3c-0.5,0-0.9,0-1.4,0c0,1.7,0,3.5,0,5.2c0.5,0,0.9,0,1.4,0
				c0-0.4,0-0.7,0-1c-0.1-0.5,0.2-0.8,0.5-1c0.4,0.6,0.7,1.2,1.1,1.8c0.1,0.1,0.1,0.2,0.2,0.2c0.5,0,1.1,0,1.7,0c-0.7-1-1.3-2-1.9-3
				C59.9,38.2,60.5,37.5,61.1,36.7z M44.1,40.7c0.5,0,1,0,1.5,0c0.1,0.4,0.2,0.7,0.3,1c0,0.1,0.1,0.2,0.2,0.2c0.5,0,1,0,1.4,0
				c0-0.1,0-0.1,0-0.1c-0.5-1.6-1.1-3.3-1.7-4.9c0-0.1-0.2-0.2-0.3-0.2c-0.5,0-1,0-1.4,0c-0.3,0-0.4,0.1-0.5,0.3
				c-0.4,1.3-0.8,2.6-1.2,3.9c-0.1,0.3-0.2,0.6-0.3,1c0.5,0,0.9,0,1.4,0c0.1,0,0.2-0.1,0.2-0.2C43.9,41.4,44,41,44.1,40.7z"/>
			<path class="st9" d="M30.8,66.8c0-0.7,0-1.5,0-2.2c5,0,10,0,15,0c0,0.7,0,1.5,0,2.2C40.9,66.8,35.8,66.8,30.8,66.8z"/>
			<path class="st9" d="M51.8,66.8c0-0.7,0-1.5,0-2.2c0.2,0,0.3,0,0.4,0c4.8,0,9.5,0,14.3,0c0.1,0,0.2,0,0.3,0c0,0.7,0,1.5,0,2.2
				C61.8,66.8,56.8,66.8,51.8,66.8z"/>
			<path class="st9" d="M45.9,63.4c-1.3,0-2.6,0-3.9,0c0-2.8,0-5.5,0-8.2c-1.9,0-3.7,0-5.6,0c0,2.7,0,5.5,0,8.2c-1.3,0-2.6,0-3.9,0
				c0-5.7,0-11.4,0-17.1c10.9,0,21.9,0,32.8,0c0,5.7,0,11.4,0,17.1c-1.3,0-2.6,0-3.9,0c0-2.7,0-5.5,0-8.2c-1.9,0-3.8,0-5.6,0
				c0,2.7,0,5.5,0,8.2c-1.3,0-2.6,0-3.9,0c0-0.1,0-0.2,0-0.4c0-3.5,0-7,0-10.6c0-1.3-0.8-2.3-1.9-2.8c-1.1-0.4-2.4-0.1-3.2,0.8
				c-0.5,0.6-0.7,1.3-0.7,2.1c0,3.5,0,6.9,0,10.4C45.9,63.1,45.9,63.2,45.9,63.4z M55.7,53.4c1.9,0,3.7,0,5.6,0
				c0.1-1.3-0.2-2.3-1.3-3c-1-0.6-2-0.6-3,0C55.9,51.1,55.6,52.2,55.7,53.4z M41.9,53.4c0.2-1.3-0.3-2.4-1.4-3
				c-1-0.6-2.1-0.5-3.1,0.2c-0.9,0.6-1.4,1.8-1.1,2.9C38.2,53.4,40,53.4,41.9,53.4z"/>
			<path class="st9" d="M65.2,30.8c0,0.7,0,1.5,0,2.2c-10.9,0-21.9,0-32.8,0c0-0.7,0-1.4,0-2.2C43.3,30.8,54.3,30.8,65.2,30.8z"/>
			<path class="st9" d="M37.9,39.8c0.3,0,0.6,0,1,0.1c0.2,0,0.4,0.2,0.4,0.5c0,0.3-0.1,0.5-0.4,0.5c-0.3,0.1-0.6,0.1-1,0.1
				C37.9,40.6,37.9,40.2,37.9,39.8z"/>
			<path class="st9" d="M37.9,38.7c0-0.3,0-0.6,0-0.9c0.3,0,0.7,0,1,0.1c0.1,0,0.3,0.2,0.3,0.3c0,0.1-0.2,0.3-0.3,0.4
				C38.6,38.7,38.2,38.7,37.9,38.7z"/>
			<path class="st9" d="M44.3,39.6c0.2-0.6,0.3-1.2,0.5-1.9c0.2,0.7,0.4,1.2,0.6,1.9C45,39.6,44.7,39.6,44.3,39.6z"/>
		</g>
	</g>
</g>
</svg>
