<?xml version="1.0" encoding="utf-8"?>
<!-- Generator: Adobe Illustrator 22.0.0, SVG Export Plug-In . SVG Version: 6.00 Build 0)  -->
<svg version="1.1" id="Layer_1" xmlns="http://www.w3.org/2000/svg" xmlns:xlink="http://www.w3.org/1999/xlink" x="0px" y="0px"
	 width="125.6px" height="125.6px" viewBox="0 0 125.6 125.6" style="enable-background:new 0 0 125.6 125.6;" xml:space="preserve"
	>
<style type="text/css">
	.st0{fill:#F3F3F3;}
	.st1{fill:#F98903;}
	.st2{fill:#FFBE7D;}
	.st3{fill:#60A2D8;}
	.st4{opacity:0.2;fill:#BB1860;}
	.st5{opacity:0.2;fill:#FF8D68;}
	.st6{opacity:0.2;fill:#1E9CB6;}
	.st7{fill:#BB1860;}
	.st8{fill:#FFFFFF;}
	.st9{fill:#FF8D68;}
	.st10{fill:#333333;}
	.st11{fill:#1E9CB6;}
</style>
<g>
	<path class="st7" d="M125.4,57.6c2.9,34.6-22.8,64.9-57.4,67.8C33.5,128.3,3.1,102.6,0.2,68C-2.7,33.5,23,3.1,57.6,0.2
		C92.2-2.7,122.5,23,125.4,57.6z"/>
	<path class="st8" d="M112.1,58.7c2.3,27.2-18,51.1-45.2,53.4c-27.2,2.3-51.1-18-53.4-45.2c-2.3-27.2,18-51.1,45.2-53.4
		C85.9,11.3,109.8,31.5,112.1,58.7z"/>
	<g>
		<g>
			<path class="st7" d="M52.2,92.2c-0.3-0.5-0.7-0.9-0.9-1.4c-0.6-1.6-1.2-3.2-1.8-4.8c-0.6-1.7-2.3-2.4-3.9-1.7
				c-1.9,0.8-3.7,1.6-5.6,2.3c-0.4,0.2-0.8,0.3-1.2,0.3c-0.6,0.1-0.9-0.3-0.9-0.9c0-0.3,0.1-0.6,0.3-0.8c3.1-6.5,6.1-13,9.2-19.6
				c0-0.1,0.1-0.2,0.1-0.3c0.8,0.2,1.4,0.4,1.9,1.1c0.5,0.8,1.1,1.5,1.7,2.2c1.3,1.3,2.9,2.1,4.6,2.3c1,0.1,2.1-0.1,3-0.4
				c1.7-0.7,3.3-0.7,5,0c1.4,0.6,2.9,0.8,4.3,0c1.4-0.7,2.8-1.5,3.6-2.8c0.9-1.4,2-2.3,3.6-2.6c0.4-0.1,0.7-0.3,1.1-0.5
				c0.3-0.2,0.7-0.4,1.1-0.6c0.1,0.2,0.2,0.4,0.3,0.6c3.1,6.8,6.3,13.6,9.4,20.3c0.2,0.3,0.3,0.7,0.3,1.1c0.1,0.5-0.2,0.9-0.8,0.8
				c-0.4,0-0.8-0.2-1.2-0.3c-1.7-0.7-3.5-1.5-5.2-2.2c-1.9-0.8-3.4-0.1-4.2,1.8c-0.6,1.6-1.2,3.2-1.8,4.7c-0.2,0.5-0.6,0.9-0.9,1.3
				c-0.2,0-0.4,0-0.6,0c-0.3-0.5-0.8-1-1-1.5c-2.9-6.3-5.8-12.6-8.7-18.8c-0.1-0.2-0.2-0.4-0.3-0.6c-0.1,0.2-0.2,0.4-0.2,0.5
				c-2.9,6.4-5.9,12.7-8.8,19.1c-0.2,0.5-0.7,0.9-1,1.4C52.6,92.2,52.4,92.2,52.2,92.2z"/>
			<path class="st7" d="M76.9,43.4c-0.3,1.8,0.3,3.4,1.5,4.8c0.4,0.5,0.7,1,1,1.5c0.6,1,0.6,2,0,3c-0.3,0.6-0.7,1.1-1.1,1.7
				c-1.1,1.3-1.5,2.7-1.4,4.4c0,0.8,0,1.6-0.2,2.5c-0.1,0.8-0.6,1.3-1.4,1.6c-1.2,0.4-2.4,0.8-3.5,1.4c-0.7,0.4-1.3,1.1-1.8,1.7
				c-0.4,0.4-0.7,0.9-1,1.4c-0.6,1-1.5,1.4-2.6,1.3c-0.8,0-1.5-0.3-2.3-0.4c-0.2,0-0.4-0.2-0.6-0.3c-1.3-0.6-2.6-0.6-3.9-0.1
				c-0.9,0.3-1.8,0.5-2.7,0.7c-1.2,0.2-2.2-0.1-2.8-1.1c-0.2-0.3-0.5-0.6-0.7-0.9c-0.9-1.7-2.4-2.5-4.1-3.1
				c-0.4-0.1-0.8-0.3-1.3-0.4c-1.2-0.3-1.9-1.2-2-2.4c-0.1-0.7-0.1-1.5-0.1-2.2c0.1-1.5-0.3-2.9-1.3-4.1c-0.5-0.6-0.9-1.2-1.2-1.8
				c-0.6-1-0.6-2,0-2.9c0.4-0.7,0.9-1.4,1.5-2.1c0.8-1,1.1-2.1,1.1-3.3c0-0.8,0-1.7,0.1-2.5c0.1-1.1,0.6-2,1.7-2.4
				c0.7-0.3,1.5-0.6,2.2-0.8c1.4-0.4,2.4-1.1,3.2-2.4c0.3-0.5,0.7-1,1.1-1.5c0.9-1.2,2.1-1.6,3.6-1.1c0.7,0.2,1.3,0.4,2,0.7
				c1.1,0.4,2.2,0.4,3.4,0c0.8-0.3,1.7-0.5,2.5-0.8c1-0.3,2,0,2.7,0.8c0.6,0.6,1.1,1.3,1.5,2c0.8,1.2,1.8,1.9,3.1,2.3
				c0.7,0.2,1.3,0.4,2,0.7c1.2,0.5,1.9,1.4,1.9,2.7C76.9,42.4,76.9,42.9,76.9,43.4z M61.4,40.6c-5.9,0-10.6,4.7-10.7,10.6
				c0,5.9,4.7,10.7,10.6,10.7c5.9,0,10.6-4.7,10.7-10.6C72,45.4,67.3,40.6,61.4,40.6z"/>
			<path class="st7" d="M61.3,59.7c-4.7,0-8.5-3.9-8.5-8.6c0-4.6,3.9-8.5,8.5-8.4c4.7,0,8.6,3.9,8.5,8.6C69.9,56,66,59.7,61.3,59.7z
				 M58.4,54.5c0,0.6,0.1,0.7,0.6,0.5c0.7-0.3,1.3-0.7,2-1c0.2-0.1,0.5-0.1,0.7,0c0.7,0.3,1.3,0.7,1.9,1c0.2,0.1,0.4,0.1,0.5,0.1
				c0.1-0.1,0.2-0.4,0.1-0.6c-0.1-0.7-0.2-1.4-0.4-2.1c-0.1-0.3,0-0.5,0.3-0.7c0.5-0.5,1.1-1,1.6-1.5c0.3-0.4,0.3-0.6-0.2-0.7
				c-0.7-0.1-1.4-0.2-2.2-0.3c-0.4,0-0.5-0.2-0.7-0.5c-0.3-0.6-0.6-1.2-0.9-1.8c-0.1-0.2-0.3-0.3-0.4-0.4c-0.1,0-0.3,0.2-0.4,0.4
				c-0.3,0.6-0.6,1.3-1,1.9c-0.1,0.2-0.3,0.3-0.5,0.4c-0.7,0.1-1.4,0.2-2.1,0.3c-0.2,0-0.4,0.2-0.5,0.2c0.1,0.2,0.2,0.4,0.3,0.6
				c0.4,0.5,0.9,0.9,1.4,1.4c0.3,0.3,0.4,0.5,0.3,0.9C58.7,53.1,58.5,53.8,58.4,54.5z"/>
		</g>
	</g>
</g>
</svg>
