<?xml version="1.0" encoding="utf-8"?>
<!-- Generator: Adobe Illustrator 22.0.0, SVG Export Plug-In . SVG Version: 6.00 Build 0)  -->
<svg version="1.1" id="Layer_1" xmlns="http://www.w3.org/2000/svg" xmlns:xlink="http://www.w3.org/1999/xlink" x="0px" y="0px"
	 width="125.6px" height="125.6px" viewBox="0 0 125.6 125.6" style="enable-background:new 0 0 125.6 125.6;" xml:space="preserve"
	>
<style type="text/css">
	.st0{fill:#F3F3F3;}
	.st1{fill:#F98903;}
	.st2{fill:#FFBE7D;}
	.st3{fill:#60A2D8;}
	.st4{opacity:0.2;fill:#BB1860;}
	.st5{opacity:0.2;fill:#FF8D68;}
	.st6{opacity:0.2;fill:#1E9CB6;}
	.st7{fill:#BB1860;}
	.st8{fill:#FFFFFF;}
	.st9{fill:#FF8D68;}
	.st10{fill:#333333;}
	.st11{fill:#1E9CB6;}
</style>
<g>
	<g>
		<g>
			<g>
				<path class="st11" d="M125.4,57.6c2.9,34.6-22.8,64.9-57.4,67.8C33.5,128.3,3.1,102.6,0.2,68C-2.7,33.5,23,3.1,57.6,0.2
					C92.2-2.7,122.5,23,125.4,57.6z"/>
			</g>
		</g>
	</g>
	<path class="st8" d="M112.1,58.5c2.4,27.2-17.8,51.2-45,53.5c-27.2,2.4-51.2-17.8-53.5-45c-2.4-27.2,17.8-51.2,45-53.5
		C85.7,11.2,109.7,31.3,112.1,58.5z"/>
	<g>
		<g>
			<path class="st11" d="M90.9,89.1c-1.9,0-3.6,0-5.3,0c-4.8,0-9.7,0-14.5,0c-0.4,0-0.6-0.1-0.9-0.4c-0.8-1.1-1.7-2.2-2.5-3.3
				c-1.3-1.8-3-2.9-5-3.6c-1.8-0.6-3.1-1.8-4.1-3.3c-0.7-1-1.6-1.7-2.6-2.3c-1.4-0.7-2.6-1.6-3.6-2.9c-0.6-0.7-1.3-1.3-2-1.9
				c-1.1-1-1.7-2.2-1.6-3.7c0-0.3,0.1-0.6,0.3-0.8c0.4-0.6,0.5-1.2,0.2-1.8c-0.2-0.5-0.4-0.9-0.6-1.4c-0.6-1-0.3-1.9,0.8-2.3
				c0.2-0.1,0.3-0.3,0.4-0.4c1.2-2.8,2.4-5.5,5.4-7c0.6-0.3,1.1-0.7,1.6-1c1-0.7,2-0.8,3-0.3c0.1,0,0.1,0,0.3,0.1
				c-0.1-0.2-0.2-0.4-0.3-0.6c-1.9-3-3.9-6-5.8-9c-0.4-0.7-0.8-1.4-1-2.2c-0.3-1.2,0.2-2.3,1.2-2.8c1.1-0.5,2.3-0.2,3.1,0.7
				c0.8,0.9,1.6,1.9,2.4,2.9c0.9,1.1,1.9,2.3,2.8,3.4c0.1,0.1,0.2,0.2,0.4,0.3c-0.4-1.1-0.8-2.3-1.2-3.4c-0.4-1.1-0.9-2.3-0.8-3.5
				c0.1-0.9,0.4-1.5,1.2-2c0.6-0.3,1.3-0.3,1.8,0.2c0.5,0.5,1.1,1.1,1.5,1.7c1,1.8,2,3.7,3,5.5c0.1,0.3,0.3,0.5,0.4,0.9
				c0.1-0.3,0.1-0.6,0.2-0.7c0.3-0.6,0.7-1.1,1.1-1.6c0.4-0.5,1-0.8,1.7-0.5c0.7,0.3,1.2,0.8,1.2,1.5c0.3,3.1,1.1,6.1,1.8,9.2
				c0.9,3.7,2,7.4,2.8,11.2c0.5,2.1,0.7,4.3,1,6.5c0.3,2.7,1.3,5.1,2.7,7.4c2.3,3.9,5.3,7.3,8.6,10.3C90.1,88.4,90.4,88.7,90.9,89.1
				z M54.8,64c0.3,0.6,0.7,1.1,0.8,1.6c0.2,1.4,1.2,2.2,2.1,3.1c0.5,0.5,1.1,0.6,1.7,0.1c0.4-0.3,0.7-0.6,1.1-0.9
				c0.6-0.5,1.2-1,1.9-1.4c0.9-0.5,1.1-1,0.6-1.9c-0.2-0.3-0.3-0.6-0.4-0.8c-0.4-0.7-0.6-1.6-1.2-2c-0.8-0.5-1.4-1.1-2.1-1.6
				c-0.1-0.1-0.3-0.1-0.4-0.2c-0.4-0.2-0.7,0-0.9,0.3c-0.6,0.8-1.2,1.5-1.8,2.3C55.6,63.1,55.2,63.5,54.8,64z"/>
			<path class="st11" d="M38.9,67.3c-0.7,0-1.4,0-2.2,0c-1.2,0-2-0.8-2-2c0-0.8,0-1.5,0-2.3c0-1.3,0.8-2,2.1-2.1c0.6,0,1.2,0,1.8,0
				c0.3,0,0.4-0.1,0.5-0.4c0.2-0.6,0.4-1.1,0.7-1.7c0.1-0.3,0.1-0.5-0.1-0.7c-0.5-0.4-0.9-0.9-1.3-1.3c-0.8-0.9-0.8-2,0-2.8
				c0.5-0.6,1.1-1.1,1.7-1.7c0.8-0.8,2-0.8,2.8,0c0.4,0.4,0.8,0.8,1.2,1.2c0.3,0.3,0.6,0.4,1,0.2c0.4-0.2,0.9-0.4,1.4-0.6
				c0.4-0.1,0.4-0.3,0.4-0.6c0-0.6,0-1.3,0-1.9c0-1.1,0.8-1.9,1.9-1.9c0.9,0,1.8,0,2.7,0c1.1,0,1.9,0.8,1.9,1.9c0,0.8,0,1.5,0,2.3
				c0,0.2-0.2,0.5-0.4,0.7c-1.6,1.5-2.8,3.3-3.9,5.2c-0.1,0.2-0.3,0.3-0.5,0.4c-3.8,1.3-4.9,6-1.9,8.7c0.2,0.2,0.4,0.5,0.4,0.8
				c0.3,1.4,1,2.6,1.9,3.8c1.2,1.6,2.5,2.9,4,4.2c0.2,0.1,0.3,0.4,0.3,0.6c0,1.3-0.7,2.1-2.1,2.2c-0.9,0-1.8,0.1-2.6,0
				c-1.2-0.1-1.8-0.9-1.8-2.1c0-0.6,0-1.2,0-1.9c0-0.1-0.1-0.3-0.3-0.4c-0.7-0.3-1.4-0.6-2.1-0.9c-0.5,0.5-1,1-1.5,1.5
				c-0.9,0.9-2,0.9-2.9,0c-0.5-0.5-1.1-1.1-1.6-1.6c-0.8-0.9-0.8-2,0-2.8c0.4-0.5,0.9-0.9,1.3-1.4c0.1-0.1,0.1-0.4,0.1-0.5
				C39.5,68.7,39.2,68,38.9,67.3z"/>
		</g>
	</g>
</g>
</svg>
