<?xml version="1.0" encoding="utf-8"?>
<!-- Generator: Adobe Illustrator 22.0.0, SVG Export Plug-In . SVG Version: 6.00 Build 0)  -->
<svg version="1.1" id="Layer_1" xmlns="http://www.w3.org/2000/svg" xmlns:xlink="http://www.w3.org/1999/xlink" x="0px" y="0px"
	 width="125.6px" height="125.6px" viewBox="0 0 125.6 125.6" style="enable-background:new 0 0 125.6 125.6;" xml:space="preserve"
	>
<style type="text/css">
	.st0{fill:#F3F3F3;}
	.st1{fill:#F98903;}
	.st2{fill:#FFBE7D;}
	.st3{fill:#60A2D8;}
	.st4{opacity:0.2;fill:#BB1860;}
	.st5{opacity:0.2;fill:#FF8D68;}
	.st6{opacity:0.2;fill:#1E9CB6;}
	.st7{fill:#BB1860;}
	.st8{fill:#FFFFFF;}
	.st9{fill:#FF8D68;}
	.st10{fill:#333333;}
	.st11{fill:#1E9CB6;}
</style>
<g>
	<path class="st9" d="M102.8,14.4c26.7,22.1,30.5,61.7,8.4,88.4c-22.1,26.7-61.7,30.5-88.4,8.4C-3.9,89.1-7.7,49.6,14.4,22.8
		C36.5-3.9,76.1-7.7,102.8,14.4z"/>
	<g>
		<path class="st8" d="M94.3,24.7c21,17.4,24,48.5,6.6,69.6c-17.4,21-48.5,24-69.6,6.6c-21-17.4-24-48.5-6.6-69.6
			C42.1,10.3,73.2,7.3,94.3,24.7z"/>
	</g>
	<g>
		<g>
			<path class="st9" d="M95.9,54c-0.1,0.3-0.2,0.7-0.4,1c-0.6,1.2-1.5,2-2.9,2.2c-7.7,1.3-13.4,5.5-17.6,11.9
				c-0.9,1.3-1.5,2.8-2.2,4.3c-0.7,1.6-2,2.5-3.8,2.4c-1.7-0.1-3.2-1.2-3.6-2.9c-0.9-3.6-2.7-6.6-5.6-9c-1.8-1.4-2-3.6-0.6-5.3
				c1.4-1.7,3.8-2,5.6-0.6c1.7,1.4,3.2,2.9,4.4,4.7c0.1,0.1,0.2,0.3,0.3,0.4c1.8-2.4,3.7-4.5,6-6.3c4.7-3.8,9.9-6.4,15.9-7.3
				c2.1-0.3,3.7,0.7,4.3,2.8c0,0.1,0.1,0.1,0.1,0.2C95.9,53,95.9,53.5,95.9,54z"/>
			<path class="st9" d="M74,54.7c0.2,0.6-0.1,0.9-0.5,1.3c-1.3,1.3-2.6,2.6-3.9,3.8c-1.1-1.1-2.2-2.2-3.5-3.2
				c-3.3-2.7-8-1.3-9.5,2.6c-0.8,2.2-0.2,4.7,1.6,6.2c2.6,2.1,4.3,4.8,5.1,8c1,4,5.7,5.6,9,3.6c0.1-0.1,0.2-0.1,0.3-0.2
				c0.3,2.7,0.5,5.3,0.8,8c0,0.3,0,0.7-0.1,1.1c-0.2,1-1,1.5-2,1.3c-0.5-0.1-1-0.3-1.4-0.5c-4.1-2.2-8.2-4.3-12.4-6.5
				c-0.4-0.2-0.8-0.2-1.2,0c-4.1,2.2-8.2,4.3-12.4,6.5c-0.4,0.2-0.9,0.4-1.3,0.5c-1.1,0.3-2-0.3-2-1.4c0-1,0.1-2,0.3-3
				c0.7-4.2,1.4-8.3,2.1-12.5c0.1-0.4,0-0.6-0.3-0.9c-3.3-3.2-6.6-6.4-9.9-9.7c-0.4-0.4-0.8-0.8-1-1.2c-0.7-1.1-0.4-2.1,0.8-2.5
				c1-0.3,2.1-0.5,3.2-0.6c4.1-0.6,8.1-1.2,12.2-1.8c0.2,0,0.5-0.3,0.6-0.6c2.1-4.2,4.2-8.4,6.3-12.6c0.2-0.5,0.5-0.9,0.9-1.3
				c0.7-0.7,1.6-0.7,2.3,0c0.4,0.4,0.7,0.9,0.9,1.4c2.1,4.1,4.1,8.3,6.1,12.4c0.2,0.5,0.5,0.7,1,0.7C69,53.9,71.5,54.3,74,54.7z"/>
		</g>
	</g>
</g>
</svg>
